<svg width="22" height="22" viewBox="0 0 22 22" fill="none" xmlns="http://www.w3.org/2000/svg">
  <path d="M10.9524 8.40649L9.6562 7.11033L5.76587 10.9997L9.65529 14.8892L10.9515 13.5921L9.2767 11.9164L16.1856 11.9164L16.1856 10.0831L9.2767 10.0831L10.9524 8.40649Z" fill="#242D34"/>
  <path fill-rule="evenodd" clip-rule="evenodd" d="M3.87025 3.86984C-0.0677523 7.80784 -0.067752 14.1915 3.87025 18.1295C7.80825 22.0675 14.1919 22.0675 18.1299 18.1295C22.0679 14.1915 22.0679 7.80784 18.1299 3.86984C14.1919 -0.0681612 7.80825 -0.0681609 3.87025 3.86984ZM5.16641 5.16601C3.61923 6.71319 2.75003 8.81162 2.75003 10.9997C2.75003 13.1877 3.61923 15.2862 5.16641 16.8333C6.7136 18.3805 8.81203 19.2497 11.0001 19.2497C13.1881 19.2497 15.2866 18.3805 16.8337 16.8333C18.3809 15.2862 19.2501 13.1877 19.2501 10.9997C19.2501 8.81162 18.3809 6.71319 16.8337 5.16601C15.2866 3.61882 13.1881 2.74962 11.0001 2.74962C8.81203 2.74962 6.7136 3.61882 5.16641 5.16601Z" fill="#242D34"/>
</svg>
