<svg width="30" height="30" viewBox="0 0 30 30" fill="none" xmlns="http://www.w3.org/2000/svg">
  <path d="M28.75 15.625V21.875C28.75 22.2065 28.6183 22.5245 28.3839 22.7589C28.1495 22.9933 27.8315 23.125 27.5 23.125H26.25C26.25 24.1196 25.8549 25.0734 25.1517 25.7767C24.4484 26.4799 23.4946 26.875 22.5 26.875C21.5054 26.875 20.5516 26.4799 19.8483 25.7767C19.1451 25.0734 18.75 24.1196 18.75 23.125H11.25C11.25 24.1196 10.8549 25.0734 10.1517 25.7767C9.44839 26.4799 8.49456 26.875 7.5 26.875C6.50544 26.875 5.55161 26.4799 4.84835 25.7767C4.14509 25.0734 3.75 24.1196 3.75 23.125H2.5C2.16848 23.125 1.85054 22.9933 1.61612 22.7589C1.38169 22.5245 1.25 22.2065 1.25 21.875V6.875C1.25 5.88044 1.64509 4.92661 2.34835 4.22335C3.05161 3.52009 4.00544 3.125 5 3.125H16.25C17.2446 3.125 18.1984 3.52009 18.9017 4.22335C19.6049 4.92661 20 5.88044 20 6.875V9.375H22.5C23.0822 9.375 23.6563 9.51054 24.1771 9.7709C24.6978 10.0313 25.1507 10.4093 25.5 10.875L28.5 14.875C28.5366 14.9293 28.566 14.9882 28.5875 15.05L28.6625 15.1875C28.7177 15.3269 28.7473 15.4751 28.75 15.625ZM8.75 23.125C8.75 22.8778 8.67669 22.6361 8.53934 22.4305C8.40199 22.225 8.20676 22.0648 7.97835 21.9701C7.74995 21.8755 7.49861 21.8508 7.25614 21.899C7.01366 21.9473 6.79093 22.0663 6.61612 22.2411C6.4413 22.4159 6.32225 22.6387 6.27402 22.8811C6.22579 23.1236 6.25054 23.3749 6.34515 23.6034C6.43976 23.8318 6.59998 24.027 6.80554 24.1643C7.0111 24.3017 7.25277 24.375 7.5 24.375C7.83152 24.375 8.14946 24.2433 8.38388 24.0089C8.61831 23.7745 8.75 23.4565 8.75 23.125ZM17.5 6.875C17.5 6.54348 17.3683 6.22554 17.1339 5.99112C16.8995 5.7567 16.5815 5.625 16.25 5.625H5C4.66848 5.625 4.35054 5.7567 4.11612 5.99112C3.88169 6.22554 3.75 6.54348 3.75 6.875V20.625H4.725C5.07648 20.2383 5.50489 19.9293 5.98277 19.7179C6.46065 19.5065 6.97744 19.3973 7.5 19.3973C8.02256 19.3973 8.53935 19.5065 9.01723 19.7179C9.49511 19.9293 9.92352 20.2383 10.275 20.625H17.5V6.875ZM20 14.375H25L23.5 12.375C23.3836 12.2198 23.2326 12.0938 23.059 12.007C22.8854 11.9202 22.6941 11.875 22.5 11.875H20V14.375ZM23.75 23.125C23.75 22.8778 23.6767 22.6361 23.5393 22.4305C23.402 22.225 23.2068 22.0648 22.9784 21.9701C22.7499 21.8755 22.4986 21.8508 22.2561 21.899C22.0137 21.9473 21.7909 22.0663 21.6161 22.2411C21.4413 22.4159 21.3222 22.6387 21.274 22.8811C21.2258 23.1236 21.2505 23.3749 21.3452 23.6034C21.4398 23.8318 21.6 24.027 21.8055 24.1643C22.0111 24.3017 22.2528 24.375 22.5 24.375C22.8315 24.375 23.1495 24.2433 23.3839 24.0089C23.6183 23.7745 23.75 23.4565 23.75 23.125ZM26.25 16.875H20V20.35C20.7377 19.6907 21.7061 19.3496 22.6941 19.4012C23.6822 19.4527 24.6098 19.8926 25.275 20.625H26.25V16.875Z" fill="#242D34"/>
</svg>
