<svg width="22" height="22" viewBox="0 0 22 22" fill="none" xmlns="http://www.w3.org/2000/svg">
<g clip-path="url(#clip0_136_854)">
<path d="M11.0478 13.593L12.3439 14.8892L16.2343 10.9998L12.3448 7.11035L11.0487 8.40743L12.7234 10.0831L5.8145 10.0831L5.8145 11.9164L12.7234 11.9164L11.0478 13.593Z" fill="#242D34"/>
<path fill-rule="evenodd" clip-rule="evenodd" d="M18.1299 18.1297C22.0679 14.1917 22.0679 7.808 18.1299 3.87C14.1919 -0.0679964 7.80821 -0.0679967 3.87021 3.87C-0.0677905 7.808 -0.0677908 14.1917 3.87021 18.1297C7.80821 22.0677 14.1919 22.0677 18.1299 18.1297ZM16.8337 16.8335C18.3809 15.2863 19.2501 13.1879 19.2501 10.9998C19.2501 8.81179 18.3809 6.71336 16.8337 5.16617C15.2865 3.61899 13.1881 2.74979 11 2.74979C8.81199 2.74979 6.71356 3.61899 5.16638 5.16617C3.61919 6.71336 2.74999 8.81179 2.74999 10.9998C2.74999 13.1879 3.61919 15.2863 5.16637 16.8335C6.71356 18.3807 8.81199 19.2499 11 19.2499C13.1881 19.2499 15.2865 18.3807 16.8337 16.8335Z" fill="#242D34"/>
</g>
<defs>
<clipPath id="clip0_136_854">
<rect width="22" height="22" fill="white" transform="translate(22) rotate(90)"/>
</clipPath>
</defs>
</svg>
