<svg width="49" height="50" viewBox="0 0 49 50" fill="none" xmlns="http://www.w3.org/2000/svg">
  <path d="M24.6062 30.7756L27.4931 33.6625L36.158 24.9997L27.4952 16.3369L24.6083 19.2259L28.3384 22.958L12.9503 22.958L12.9503 27.0414L28.3384 27.0414L24.6062 30.7756Z" fill="#3A688C"/>
  <path fill-rule="evenodd" clip-rule="evenodd" d="M40.3801 40.8799C49.1511 32.1089 49.1511 17.8908 40.3801 9.11975C31.6091 0.348753 17.391 0.348753 8.61996 9.11975C-0.151032 17.8908 -0.151033 32.1089 8.61996 40.8799C17.391 49.6509 31.6091 49.6509 40.3801 40.8799ZM37.4932 37.993C40.9392 34.547 42.8752 29.8732 42.8752 24.9998C42.8752 20.1265 40.9392 15.4527 37.4932 12.0067C34.0472 8.56067 29.3734 6.62472 24.5 6.62472C19.6267 6.62472 14.9529 8.56067 11.5069 12.0067C8.06088 15.4527 6.12493 20.1265 6.12493 24.9998C6.12493 29.8732 8.06088 34.547 11.5069 37.993C14.9529 41.439 19.6267 43.3749 24.5 43.3749C29.3734 43.3749 34.0472 41.439 37.4932 37.993Z" fill="#3A688C"/>
</svg>
