<svg width="25" height="14" viewBox="0 0 25 14" fill="none" xmlns="http://www.w3.org/2000/svg">
  <path d="M23.1562 2.53125H1.21875C0.895517 2.53125 0.585524 2.40285 0.356964 2.17429C0.128404 1.94573 0 1.63573 0 1.3125C0 0.989267 0.128404 0.679273 0.356964 0.450713C0.585524 0.222153 0.895517 0.09375 1.21875 0.09375H23.1562C23.4795 0.09375 23.7895 0.222153 24.018 0.450713C24.2466 0.679273 24.375 0.989267 24.375 1.3125C24.375 1.63573 24.2466 1.94573 24.018 2.17429C23.7895 2.40285 23.4795 2.53125 23.1562 2.53125ZM19.0938 8.21875H5.28125C4.95802 8.21875 4.64802 8.09035 4.41946 7.86179C4.1909 7.63323 4.0625 7.32323 4.0625 7C4.0625 6.67677 4.1909 6.36677 4.41946 6.13821C4.64802 5.90965 4.95802 5.78125 5.28125 5.78125H19.0938C19.417 5.78125 19.727 5.90965 19.9555 6.13821C20.1841 6.36677 20.3125 6.67677 20.3125 7C20.3125 7.32323 20.1841 7.63323 19.9555 7.86179C19.727 8.09035 19.417 8.21875 19.0938 8.21875ZM14.2188 13.9062H10.1562C9.83302 13.9062 9.52302 13.7778 9.29446 13.5493C9.0659 13.3207 8.9375 13.0107 8.9375 12.6875C8.9375 12.3643 9.0659 12.0543 9.29446 11.8257C9.52302 11.5972 9.83302 11.4688 10.1562 11.4688H14.2188C14.542 11.4688 14.852 11.5972 15.0805 11.8257C15.3091 12.0543 15.4375 12.3643 15.4375 12.6875C15.4375 13.0107 15.3091 13.3207 15.0805 13.5493C14.852 13.7778 14.542 13.9062 14.2188 13.9062Z" fill="white"/>
</svg>
