<svg width="32" height="32" viewBox="0 0 32 32" fill="none" xmlns="http://www.w3.org/2000/svg">
  <path d="M11.3334 16.6667L14.6667 20.0001L20.6667 14.0001M19.8734 6.65072L19.2334 5.77205C18.8622 5.26243 18.3759 4.84777 17.8139 4.56187C17.252 4.27598 16.6305 4.12695 16.0001 4.12695C15.3696 4.12695 14.7481 4.27598 14.1862 4.56187C13.6243 4.84777 13.1379 5.26243 12.7667 5.77205L12.1267 6.65072L11.0547 6.48139C10.4318 6.38333 9.7945 6.43394 9.19486 6.62909C8.59521 6.82424 8.05021 7.1584 7.6043 7.6043C7.1584 8.05021 6.82424 8.59521 6.62909 9.19486C6.43394 9.7945 6.38333 10.4318 6.48139 11.0547L6.65072 12.1267L5.77205 12.7667C5.26243 13.1379 4.84777 13.6243 4.56187 14.1862C4.27598 14.7481 4.12695 15.3696 4.12695 16.0001C4.12695 16.6305 4.27598 17.252 4.56187 17.8139C4.84777 18.3759 5.26243 18.8622 5.77205 19.2334L6.65072 19.8734L6.48139 20.9454C6.38333 21.5683 6.43394 22.2056 6.62909 22.8052C6.82424 23.4049 7.1584 23.9499 7.6043 24.3958C8.05021 24.8417 8.59521 25.1759 9.19486 25.371C9.7945 25.5662 10.4318 25.6168 11.0547 25.5187L12.1267 25.3494L12.7667 26.2281C13.1379 26.7377 13.6243 27.1523 14.1862 27.4382C14.7481 27.7241 15.3696 27.8732 16.0001 27.8732C16.6305 27.8732 17.252 27.7241 17.8139 27.4382C18.3759 27.1523 18.8622 26.7377 19.2334 26.2281L19.8734 25.3494L20.9454 25.5187C21.5683 25.6168 22.2056 25.5662 22.8052 25.371C23.4049 25.1759 23.9499 24.8417 24.3958 24.3958C24.8417 23.9499 25.1759 23.4049 25.371 22.8052C25.5662 22.2056 25.6168 21.5683 25.5187 20.9454L25.3494 19.8734L26.2281 19.2334C26.7377 18.8622 27.1523 18.3759 27.4382 17.8139C27.7241 17.252 27.8732 16.6305 27.8732 16.0001C27.8732 15.3696 27.7241 14.7481 27.4382 14.1862C27.1523 13.6243 26.7377 13.1379 26.2281 12.7667L25.3494 12.1267L25.5187 11.0547C25.6168 10.4318 25.5662 9.7945 25.371 9.19486C25.1759 8.59521 24.8417 8.05021 24.3958 7.6043C23.9499 7.1584 23.4049 6.82424 22.8052 6.62909C22.2056 6.43394 21.5683 6.38333 20.9454 6.48139L19.8734 6.65072Z" stroke="#092A49" stroke-width="3" stroke-linecap="round" stroke-linejoin="round"/>
</svg>
