<svg width="56" height="56" viewBox="0 0 56 56" fill="none" xmlns="http://www.w3.org/2000/svg">
  <circle opacity="0.4" cx="28" cy="28" r="28" fill="#FABB88"/>
  <path d="M33.0781 17.8438C31.0377 17.8438 29.2269 18.6491 28 20.0334C26.7731 18.6491 24.9623 17.8438 22.9219 17.8438C21.1448 17.8459 19.441 18.5528 18.1844 19.8094C16.9278 21.066 16.2209 22.7698 16.2188 24.5469C16.2188 31.8939 26.9651 37.7642 27.4221 38.011C27.5997 38.1067 27.7983 38.1567 28 38.1567C28.2017 38.1567 28.4003 38.1067 28.5779 38.011C29.0349 37.7642 39.7812 31.8939 39.7812 24.5469C39.7791 22.7698 39.0722 21.066 37.8156 19.8094C36.559 18.5528 34.8552 17.8459 33.0781 17.8438ZM32.5205 32.3022C31.1061 33.5025 29.594 34.5828 28 35.5319C26.406 34.5828 24.8939 33.5025 23.4795 32.3022C21.2786 30.4141 18.6562 27.5348 18.6562 24.5469C18.6562 23.4156 19.1057 22.3306 19.9056 21.5306C20.7056 20.7307 21.7906 20.2812 22.9219 20.2812C24.7297 20.2812 26.243 21.2359 26.8716 22.7736C26.9631 22.9977 27.1193 23.1896 27.3203 23.3246C27.5213 23.4596 27.7579 23.5317 28 23.5317C28.2421 23.5317 28.4787 23.4596 28.6797 23.3246C28.8807 23.1896 29.0369 22.9977 29.1284 22.7736C29.757 21.2359 31.2703 20.2812 33.0781 20.2812C34.2094 20.2812 35.2944 20.7307 36.0944 21.5306C36.8943 22.3306 37.3438 23.4156 37.3438 24.5469C37.3438 27.5348 34.7214 30.4141 32.5205 32.3022Z" fill="#454E55"/>
</svg>
