<svg width="20" height="16" viewBox="0 0 20 16" fill="none" xmlns="http://www.w3.org/2000/svg">
  <path fill-rule="evenodd" clip-rule="evenodd" d="M10 1.87188C10.9438 0.807031 12.3367 0.1875 13.9062 0.1875C15.2733 0.189154 16.5838 0.732931 17.5504 1.69956C18.5171 2.66618 19.0608 3.97674 19.0625 5.34375C19.0625 10.9953 10.7961 15.5109 10.4445 15.7008C10.3079 15.7744 10.1552 15.8129 10 15.8129C9.84483 15.8129 9.69209 15.7744 9.55547 15.7008C9.20391 15.5109 0.9375 10.9953 0.9375 5.34375C0.939154 3.97674 1.48293 2.66618 2.44956 1.69956C3.41618 0.732931 4.72674 0.189154 6.09375 0.1875C7.66328 0.1875 9.05625 0.807031 10 1.87188Z" fill="#F77F39"/>
</svg>
