<svg width="51" height="50" viewBox="0 0 51 50" fill="none" xmlns="http://www.w3.org/2000/svg">
  <path d="M40.0833 24.5625C39.0417 24.8333 38 25 36.9583 25C33.9211 24.9945 31.0098 23.7855 28.8622 21.6378C26.7145 19.4902 25.5055 16.5789 25.5 13.5416C25.5 10.4791 26.7083 7.7083 28.625 5.6458C28.2469 5.18235 27.7702 4.80907 27.2296 4.55319C26.689 4.2973 26.0981 4.16524 25.5 4.16664C23.2083 4.16664 21.3333 6.04164 21.3333 8.3333V8.93747C15.1458 10.7708 10.9167 16.4583 10.9167 22.9166V35.4166L6.75 39.5833V41.6666H44.25V39.5833L40.0833 35.4166V24.5625ZM25.5 47.9166C27.8125 47.9166 29.6667 46.0625 29.6667 43.75H21.3333C21.3333 44.855 21.7723 45.9148 22.5537 46.6962C23.3351 47.4776 24.3949 47.9166 25.5 47.9166Z" fill="white"/>
  <path d="M36.9582 20.8333C40.979 20.8333 44.2498 17.5625 44.2498 13.5417C44.2498 9.52083 40.979 6.25 36.9582 6.25C32.9373 6.25 29.6665 9.52083 29.6665 13.5417C29.6665 17.5625 32.9373 20.8333 36.9582 20.8333Z" fill="#F77F39"/>
</svg>
