<svg width="22" height="22" viewBox="0 0 22 22" fill="none" xmlns="http://www.w3.org/2000/svg">
  <path d="M11.0478 13.5933L12.3439 14.8894L16.2343 11L12.3448 7.1106L11.0487 8.40768L12.7234 10.0833L5.8145 10.0833L5.8145 11.9167L12.7234 11.9167L11.0478 13.5933Z" fill="#FABB88"/>
  <path fill-rule="evenodd" clip-rule="evenodd" d="M18.1299 18.1299C22.0679 14.1919 22.0679 7.80825 18.1299 3.87025C14.1919 -0.0677522 7.80821 -0.0677525 3.87021 3.87025C-0.0677913 7.80825 -0.0677916 14.1919 3.87021 18.1299C7.80821 22.0679 14.1919 22.0679 18.1299 18.1299ZM16.8337 16.8337C18.3809 15.2866 19.2501 13.1881 19.2501 11.0001C19.2501 8.81203 18.3809 6.7136 16.8337 5.16642C15.2865 3.61923 13.1881 2.75003 11 2.75003C8.81199 2.75003 6.71356 3.61923 5.16637 5.16641C3.61919 6.7136 2.74999 8.81203 2.74999 11.0001C2.74999 13.1881 3.61919 15.2866 5.16637 16.8337C6.71356 18.3809 8.81199 19.2501 11 19.2501C13.1881 19.2501 15.2865 18.3809 16.8337 16.8337Z" fill="#FABB88"/>
</svg>
