<svg width="69" height="70" viewBox="0 0 69 70" fill="none" xmlns="http://www.w3.org/2000/svg">
  <path d="M34.5 0.5C43.65 0.5 52.4252 4.13481 58.8952 10.6048C65.3652 17.0748 69 25.85 69 35C69 44.15 65.3652 52.9252 58.8952 59.3952C52.4252 65.8652 43.65 69.5 34.5 69.5C25.35 69.5 16.5748 65.8652 10.1048 59.3952C3.63481 52.9252 0 44.15 0 35C0 25.85 3.63481 17.0748 10.1048 10.6048C16.5748 4.13481 25.35 0.5 34.5 0.5ZM6.46875 35C6.46875 42.4343 9.42203 49.5642 14.6789 54.8211C19.9358 60.078 27.0657 63.0312 34.5 63.0312C41.9343 63.0312 49.0642 60.078 54.3211 54.8211C59.578 49.5642 62.5312 42.4343 62.5312 35C62.5312 27.5657 59.578 20.4358 54.3211 15.1789C49.0642 9.92203 41.9343 6.96875 34.5 6.96875C27.0657 6.96875 19.9358 9.92203 14.6789 15.1789C9.42203 20.4358 6.46875 27.5657 6.46875 35ZM37.7344 20.9844V31.7656H48.5156C49.3734 31.7656 50.1961 32.1064 50.8027 32.713C51.4092 33.3195 51.75 34.1422 51.75 35C51.75 35.8578 51.4092 36.6805 50.8027 37.287C50.1961 37.8936 49.3734 38.2344 48.5156 38.2344H37.7344V49.0156C37.7344 49.8734 37.3936 50.6961 36.787 51.3027C36.1805 51.9092 35.3578 52.25 34.5 52.25C33.6422 52.25 32.8195 51.9092 32.213 51.3027C31.6064 50.6961 31.2656 49.8734 31.2656 49.0156V38.2344H20.4844C19.6266 38.2344 18.8039 37.8936 18.1973 37.287C17.5908 36.6805 17.25 35.8578 17.25 35C17.25 34.1422 17.5908 33.3195 18.1973 32.713C18.8039 32.1064 19.6266 31.7656 20.4844 31.7656H31.2656V20.9844C31.2656 20.1266 31.6064 19.3039 32.213 18.6973C32.8195 18.0908 33.6422 17.75 34.5 17.75C35.3578 17.75 36.1805 18.0908 36.787 18.6973C37.3936 19.3039 37.7344 20.1266 37.7344 20.9844Z" fill="#242D34"/>
</svg>
