<svg width="56" height="56" viewBox="0 0 56 56" fill="none" xmlns="http://www.w3.org/2000/svg">
  <circle opacity="0.4" cx="28" cy="28" r="28" fill="#FABB88"/>
  <path d="M34.5 38.8333C33.5972 38.8333 32.8299 38.5173 32.1979 37.8854C31.566 37.2534 31.25 36.4861 31.25 35.5833C31.25 35.4569 31.259 35.3258 31.2771 35.19C31.2951 35.0543 31.3222 34.9326 31.3583 34.825L23.7208 30.3833C23.4139 30.6541 23.0708 30.8665 22.6917 31.0203C22.3125 31.1741 21.9153 31.2507 21.5 31.25C20.5972 31.25 19.8299 30.934 19.1979 30.302C18.566 29.6701 18.25 28.9027 18.25 28C18.25 27.0972 18.566 26.3298 19.1979 25.6979C19.8299 25.0659 20.5972 24.75 21.5 24.75C21.9153 24.75 22.3125 24.8269 22.6917 24.9807C23.0708 25.1345 23.4139 25.3465 23.7208 25.6166L31.3583 21.175C31.3222 21.0666 31.2951 20.9449 31.2771 20.8099C31.259 20.6748 31.25 20.5437 31.25 20.4166C31.25 19.5138 31.566 18.7465 32.1979 18.1145C32.8299 17.4826 33.5972 17.1666 34.5 17.1666C35.4028 17.1666 36.1701 17.4826 36.8021 18.1145C37.434 18.7465 37.75 19.5138 37.75 20.4166C37.75 21.3194 37.434 22.0868 36.8021 22.7187C36.1701 23.3507 35.4028 23.6666 34.5 23.6666C34.0847 23.6666 33.6875 23.5901 33.3083 23.437C32.9292 23.2838 32.5861 23.0715 32.2792 22.8L24.6417 27.2416C24.6778 27.35 24.7049 27.472 24.7229 27.6078C24.741 27.7436 24.75 27.8743 24.75 28C24.75 28.1263 24.741 28.2574 24.7229 28.3932C24.7049 28.529 24.6778 28.6507 24.6417 28.7583L32.2792 33.2C32.5861 32.9291 32.9292 32.7172 33.3083 32.564C33.6875 32.4109 34.0847 32.334 34.5 32.3333C35.4028 32.3333 36.1701 32.6493 36.8021 33.2812C37.434 33.9132 37.75 34.6805 37.75 35.5833C37.75 36.4861 37.434 37.2534 36.8021 37.8854C36.1701 38.5173 35.4028 38.8333 34.5 38.8333ZM34.5 21.5C34.8069 21.5 35.0644 21.396 35.2724 21.188C35.4804 20.98 35.5841 20.7228 35.5833 20.4166C35.5833 20.1097 35.4793 19.8522 35.2713 19.6442C35.0633 19.4362 34.8062 19.3326 34.5 19.3333C34.1931 19.3333 33.9356 19.4373 33.7276 19.6453C33.5196 19.8533 33.4159 20.1104 33.4167 20.4166C33.4167 20.7236 33.5207 20.981 33.7287 21.189C33.9367 21.397 34.1938 21.5007 34.5 21.5ZM21.5 29.0833C21.8069 29.0833 22.0644 28.9793 22.2724 28.7713C22.4804 28.5633 22.5841 28.3062 22.5833 28C22.5833 27.693 22.4793 27.4355 22.2713 27.2275C22.0633 27.0195 21.8062 26.9159 21.5 26.9166C21.1931 26.9166 20.9356 27.0206 20.7276 27.2286C20.5196 27.4366 20.4159 27.6937 20.4167 28C20.4167 28.3069 20.5207 28.5644 20.7287 28.7724C20.9367 28.9804 21.1938 29.084 21.5 29.0833ZM34.5 36.6666C34.8069 36.6666 35.0644 36.5626 35.2724 36.3546C35.4804 36.1466 35.5841 35.8895 35.5833 35.5833C35.5833 35.2763 35.4793 35.0189 35.2713 34.8109C35.0633 34.6029 34.8062 34.4992 34.5 34.5C34.1931 34.5 33.9356 34.604 33.7276 34.812C33.5196 35.02 33.4159 35.2771 33.4167 35.5833C33.4167 35.8902 33.5207 36.1477 33.7287 36.3557C33.9367 36.5637 34.1938 36.6673 34.5 36.6666Z" fill="#242D34"/>
</svg>
