<svg width="79" height="24" viewBox="0 0 79 24" fill="none" xmlns="http://www.w3.org/2000/svg">
  <path d="M5.12 19C4.98667 19 4.87333 18.9533 4.78 18.86C4.68667 18.7667 4.64 18.6533 4.64 18.52V7.46H0.94C0.806667 7.46 0.693333 7.41333 0.6 7.32C0.506667 7.22667 0.46 7.11333 0.46 6.98V5.5C0.46 5.35333 0.506667 5.23333 0.6 5.14C0.693333 5.04667 0.806667 5 0.94 5H11.14C11.2867 5 11.4067 5.04667 11.5 5.14C11.5933 5.23333 11.64 5.35333 11.64 5.5V6.98C11.64 7.11333 11.5933 7.22667 11.5 7.32C11.4067 7.41333 11.2867 7.46 11.14 7.46H7.46V18.52C7.46 18.6533 7.41333 18.7667 7.32 18.86C7.22667 18.9533 7.10667 19 6.96 19H5.12ZM12.5813 19C12.4479 19 12.3346 18.9533 12.2413 18.86C12.1479 18.7667 12.1012 18.6533 12.1012 18.52V9.1C12.1012 8.95333 12.1479 8.83333 12.2413 8.74C12.3346 8.64667 12.4479 8.6 12.5813 8.6H14.2013C14.3346 8.6 14.4479 8.64667 14.5413 8.74C14.6479 8.83333 14.7013 8.95333 14.7013 9.1V9.92C15.0079 9.49333 15.4013 9.16667 15.8813 8.94C16.3746 8.71333 16.9413 8.6 17.5813 8.6H18.4013C18.5479 8.6 18.6613 8.64667 18.7413 8.74C18.8346 8.83333 18.8813 8.94667 18.8813 9.08V10.52C18.8813 10.6533 18.8346 10.7667 18.7413 10.86C18.6613 10.9533 18.5479 11 18.4013 11H16.8413C16.2013 11 15.7013 11.18 15.3413 11.54C14.9946 11.9 14.8213 12.3933 14.8213 13.02V18.52C14.8213 18.6533 14.7746 18.7667 14.6813 18.86C14.5879 18.9533 14.4679 19 14.3213 19H12.5813ZM20.9211 19C20.7878 19 20.6744 18.9533 20.5811 18.86C20.4878 18.7667 20.4411 18.6533 20.4411 18.52V9.08C20.4411 8.94667 20.4878 8.83333 20.5811 8.74C20.6744 8.64667 20.7878 8.6 20.9211 8.6H22.5811C22.7278 8.6 22.8411 8.64667 22.9211 8.74C23.0144 8.83333 23.0611 8.94667 23.0611 9.08V18.52C23.0611 18.6533 23.0144 18.7667 22.9211 18.86C22.8411 18.9533 22.7278 19 22.5811 19H20.9211ZM20.8411 6.88C20.6944 6.88 20.5744 6.84 20.4811 6.76C20.4011 6.66667 20.3611 6.54667 20.3611 6.4V4.96C20.3611 4.82667 20.4011 4.71333 20.4811 4.62C20.5744 4.52667 20.6944 4.48 20.8411 4.48H22.6611C22.8078 4.48 22.9278 4.52667 23.0211 4.62C23.1144 4.71333 23.1611 4.82667 23.1611 4.96V6.4C23.1611 6.54667 23.1144 6.66667 23.0211 6.76C22.9278 6.84 22.8078 6.88 22.6611 6.88H20.8411ZM30.2531 19.2C28.7731 19.2 27.5998 18.7733 26.7331 17.92C25.8665 17.0667 25.3998 15.8533 25.3331 14.28C25.3198 14.1467 25.3131 13.98 25.3131 13.78C25.3131 13.5667 25.3198 13.4 25.3331 13.28C25.3865 12.28 25.6131 11.4133 26.0131 10.68C26.4265 9.94667 26.9931 9.38667 27.7131 9C28.4331 8.6 29.2798 8.4 30.2531 8.4C31.3331 8.4 32.2398 8.62667 32.9731 9.08C33.7065 9.52 34.2598 10.14 34.6331 10.94C35.0065 11.7267 35.1931 12.64 35.1931 13.68V14.1C35.1931 14.2333 35.1465 14.3467 35.0531 14.44C34.9598 14.5333 34.8398 14.58 34.6931 14.58H28.0531C28.0531 14.58 28.0531 14.6 28.0531 14.64C28.0531 14.68 28.0531 14.7133 28.0531 14.74C28.0665 15.2067 28.1531 15.64 28.3131 16.04C28.4865 16.4267 28.7331 16.74 29.0531 16.98C29.3865 17.22 29.7798 17.34 30.2331 17.34C30.6065 17.34 30.9198 17.2867 31.1731 17.18C31.4265 17.06 31.6331 16.9267 31.7931 16.78C31.9531 16.6333 32.0665 16.5133 32.1331 16.42C32.2531 16.26 32.3465 16.1667 32.4131 16.14C32.4931 16.1 32.6065 16.08 32.7531 16.08H34.4731C34.6065 16.08 34.7131 16.12 34.7931 16.2C34.8865 16.28 34.9265 16.38 34.9131 16.5C34.8998 16.7133 34.7865 16.9733 34.5731 17.28C34.3731 17.5867 34.0798 17.8867 33.6931 18.18C33.3065 18.4733 32.8198 18.72 32.2331 18.92C31.6598 19.1067 30.9998 19.2 30.2531 19.2ZM28.0531 12.9H32.4731V12.84C32.4731 12.32 32.3865 11.8667 32.2131 11.48C32.0398 11.0933 31.7865 10.7867 31.4531 10.56C31.1198 10.3333 30.7198 10.22 30.2531 10.22C29.7865 10.22 29.3865 10.3333 29.0531 10.56C28.7198 10.7867 28.4665 11.0933 28.2931 11.48C28.1331 11.8667 28.0531 12.32 28.0531 12.84V12.9ZM37.7961 19C37.6628 19 37.5494 18.9533 37.4561 18.86C37.3628 18.7667 37.3161 18.6533 37.3161 18.52V9.1C37.3161 8.95333 37.3628 8.83333 37.4561 8.74C37.5494 8.64667 37.6628 8.6 37.7961 8.6H39.4161C39.5494 8.6 39.6628 8.64667 39.7561 8.74C39.8628 8.83333 39.9161 8.95333 39.9161 9.1V9.92C40.2228 9.49333 40.6161 9.16667 41.0961 8.94C41.5894 8.71333 42.1561 8.6 42.7961 8.6H43.6161C43.7628 8.6 43.8761 8.64667 43.9561 8.74C44.0494 8.83333 44.0961 8.94667 44.0961 9.08V10.52C44.0961 10.6533 44.0494 10.7667 43.9561 10.86C43.8761 10.9533 43.7628 11 43.6161 11H42.0561C41.4161 11 40.9161 11.18 40.5561 11.54C40.2094 11.9 40.0361 12.3933 40.0361 13.02V18.52C40.0361 18.6533 39.9894 18.7667 39.8961 18.86C39.8028 18.9533 39.6828 19 39.5361 19H37.7961Z" fill="white"/>
  <path d="M69.9999 19.5C69.8686 19.5002 69.7385 19.4744 69.6172 19.4241C69.4959 19.3738 69.3857 19.3 69.2929 19.207L66.9999 16.914L64.7069 19.207C64.5183 19.3892 64.2657 19.49 64.0035 19.4877C63.7413 19.4854 63.4905 19.3803 63.3051 19.1949C63.1197 19.0095 63.0145 18.7586 63.0122 18.4964C63.01 18.2342 63.1108 17.9816 63.2929 17.793L66.2929 14.793C66.4804 14.6056 66.7348 14.5003 66.9999 14.5003C67.2651 14.5003 67.5194 14.6056 67.7069 14.793L70.7069 17.793C70.8467 17.9329 70.9419 18.1111 70.9805 18.305C71.0191 18.499 70.9993 18.7 70.9236 18.8827C70.8479 19.0654 70.7198 19.2216 70.5554 19.3314C70.391 19.4413 70.1977 19.5 69.9999 19.5ZM66.9999 10.5C66.8686 10.5002 66.7385 10.4744 66.6172 10.4241C66.4959 10.3738 66.3857 10.3 66.2929 10.207L63.2929 7.20704C63.1108 7.01844 63.01 6.76584 63.0122 6.50364C63.0145 6.24144 63.1197 5.99063 63.3051 5.80522C63.4905 5.61981 63.7413 5.51465 64.0035 5.51237C64.2657 5.51009 64.5183 5.61088 64.7069 5.79304L66.9999 8.08604L69.2929 5.79304C69.4815 5.61088 69.7341 5.51009 69.9963 5.51237C70.2585 5.51465 70.5093 5.61981 70.6947 5.80522C70.8801 5.99063 70.9853 6.24144 70.9876 6.50364C70.9899 6.76584 70.8891 7.01844 70.7069 7.20704L67.7069 10.207C67.6142 10.3 67.504 10.3738 67.3827 10.4241C67.2613 10.4744 67.1313 10.5002 66.9999 10.5Z" fill="white"/>
</svg>
