<svg width="51" height="50" viewBox="0 0 51 50" fill="none" xmlns="http://www.w3.org/2000/svg">
  <path d="M25.4999 8.33337C27.7101 8.33337 29.8297 9.21135 31.3925 10.7742C32.9553 12.337 33.8333 14.4566 33.8333 16.6667C33.8333 18.8768 32.9553 20.9965 31.3925 22.5593C29.8297 24.1221 27.7101 25 25.4999 25C23.2898 25 21.1702 24.1221 19.6074 22.5593C18.0446 20.9965 17.1666 18.8768 17.1666 16.6667C17.1666 14.4566 18.0446 12.337 19.6074 10.7742C21.1702 9.21135 23.2898 8.33337 25.4999 8.33337ZM25.4999 29.1667C34.7083 29.1667 42.1666 32.8959 42.1666 37.5V41.6667H8.83325V37.5C8.83325 32.8959 16.2916 29.1667 25.4999 29.1667Z" fill="white"/>
</svg>
