<svg width="170" height="35" viewBox="0 0 170 35" fill="none" xmlns="http://www.w3.org/2000/svg">
  <rect width="170" height="35" rx="5" fill="#DEE7EE" fill-opacity="0.99"/>
  <path d="M19.3894 24C19.2647 24 19.1627 23.9603 19.0834 23.881C19.004 23.8017 18.9644 23.6997 18.9644 23.575V14.463H15.8704C15.757 14.463 15.6607 14.4233 15.5814 14.344C15.502 14.2647 15.4624 14.1683 15.4624 14.055V12.525C15.4624 12.4003 15.502 12.2983 15.5814 12.219C15.6607 12.1397 15.757 12.1 15.8704 12.1H24.7784C24.903 12.1 25.005 12.1397 25.0844 12.219C25.1637 12.2983 25.2034 12.4003 25.2034 12.525V14.055C25.2034 14.1683 25.1637 14.2647 25.0844 14.344C25.005 14.4233 24.903 14.463 24.7784 14.463H21.7014V23.575C21.7014 23.6997 21.6617 23.8017 21.5824 23.881C21.503 23.9603 21.401 24 21.2764 24H19.3894ZM29.0682 24.17C27.7649 24.17 26.7279 23.8073 25.9572 23.082C25.1979 22.3567 24.7956 21.3027 24.7502 19.92C24.7502 19.8293 24.7502 19.7103 24.7502 19.563C24.7502 19.4043 24.7502 19.2797 24.7502 19.189C24.7956 18.3163 24.9939 17.5683 25.3452 16.945C25.6966 16.3103 26.1896 15.8287 26.8242 15.5C27.4589 15.16 28.2012 14.99 29.0512 14.99C30.0032 14.99 30.7966 15.1883 31.4312 15.585C32.0772 15.9703 32.5589 16.503 32.8762 17.183C33.2049 17.8517 33.3692 18.6223 33.3692 19.495V19.886C33.3692 19.9993 33.3239 20.0957 33.2332 20.175C33.1539 20.2543 33.0576 20.294 32.9442 20.294H27.3852C27.3852 20.3053 27.3852 20.328 27.3852 20.362C27.3852 20.3847 27.3852 20.4073 27.3852 20.43C27.3966 20.7927 27.4646 21.127 27.5892 21.433C27.7252 21.7277 27.9122 21.9657 28.1502 22.147C28.3996 22.3283 28.6942 22.419 29.0342 22.419C29.3176 22.419 29.5499 22.3793 29.7312 22.3C29.9126 22.2207 30.0599 22.1243 30.1732 22.011C30.2979 21.8977 30.3886 21.8013 30.4452 21.722C30.5472 21.6087 30.6266 21.5407 30.6832 21.518C30.7512 21.484 30.8532 21.467 30.9892 21.467H32.7572C32.8706 21.467 32.9612 21.501 33.0292 21.569C33.1086 21.6257 33.1426 21.7107 33.1312 21.824C33.1199 22.0053 33.0236 22.232 32.8422 22.504C32.6722 22.7647 32.4172 23.0253 32.0772 23.286C31.7372 23.5353 31.3122 23.745 30.8022 23.915C30.3036 24.085 29.7256 24.17 29.0682 24.17ZM27.3852 18.747H30.7172V18.713C30.7172 18.305 30.6492 17.9537 30.5132 17.659C30.3886 17.353 30.2016 17.115 29.9522 16.945C29.7029 16.775 29.4026 16.69 29.0512 16.69C28.6999 16.69 28.3996 16.775 28.1502 16.945C27.9009 17.115 27.7082 17.353 27.5722 17.659C27.4476 17.9537 27.3852 18.305 27.3852 18.713V18.747ZM28.1842 13.885C28.0029 13.885 27.9122 13.7943 27.9122 13.613C27.9122 13.5223 27.9406 13.4487 27.9972 13.392L29.4422 11.641C29.5442 11.505 29.6349 11.42 29.7142 11.386C29.8049 11.3407 29.9239 11.318 30.0712 11.318H32.0262C32.2416 11.318 32.3492 11.4313 32.3492 11.658C32.3492 11.7373 32.3209 11.8053 32.2642 11.862L30.0712 13.647C29.9806 13.7263 29.8899 13.7887 29.7992 13.834C29.7199 13.868 29.6066 13.885 29.4592 13.885H28.1842ZM35.4936 24C35.3689 24 35.2669 23.9603 35.1876 23.881C35.1082 23.8017 35.0686 23.6997 35.0686 23.575V12.355C35.0686 12.2303 35.1082 12.1283 35.1876 12.049C35.2669 11.9697 35.3689 11.93 35.4936 11.93H37.1936C37.3069 11.93 37.4032 11.9697 37.4826 12.049C37.5619 12.1283 37.6016 12.2303 37.6016 12.355V23.575C37.6016 23.6997 37.5619 23.8017 37.4826 23.881C37.4032 23.9603 37.3069 24 37.1936 24H35.4936ZM43.6942 24.17C42.3909 24.17 41.3539 23.8073 40.5832 23.082C39.8239 22.3567 39.4215 21.3027 39.3762 19.92C39.3762 19.8293 39.3762 19.7103 39.3762 19.563C39.3762 19.4043 39.3762 19.2797 39.3762 19.189C39.4215 18.3163 39.6199 17.5683 39.9712 16.945C40.3225 16.3103 40.8155 15.8287 41.4502 15.5C42.0849 15.16 42.8272 14.99 43.6772 14.99C44.6292 14.99 45.4225 15.1883 46.0572 15.585C46.7032 15.9703 47.1849 16.503 47.5022 17.183C47.8309 17.8517 47.9952 18.6223 47.9952 19.495V19.886C47.9952 19.9993 47.9499 20.0957 47.8592 20.175C47.7799 20.2543 47.6835 20.294 47.5702 20.294H42.0112C42.0112 20.3053 42.0112 20.328 42.0112 20.362C42.0112 20.3847 42.0112 20.4073 42.0112 20.43C42.0225 20.7927 42.0905 21.127 42.2152 21.433C42.3512 21.7277 42.5382 21.9657 42.7762 22.147C43.0255 22.3283 43.3202 22.419 43.6602 22.419C43.9435 22.419 44.1759 22.3793 44.3572 22.3C44.5385 22.2207 44.6859 22.1243 44.7992 22.011C44.9239 21.8977 45.0145 21.8013 45.0712 21.722C45.1732 21.6087 45.2525 21.5407 45.3092 21.518C45.3772 21.484 45.4792 21.467 45.6152 21.467H47.3832C47.4965 21.467 47.5872 21.501 47.6552 21.569C47.7345 21.6257 47.7685 21.7107 47.7572 21.824C47.7459 22.0053 47.6495 22.232 47.4682 22.504C47.2982 22.7647 47.0432 23.0253 46.7032 23.286C46.3632 23.5353 45.9382 23.745 45.4282 23.915C44.9295 24.085 44.3515 24.17 43.6942 24.17ZM42.0112 18.747H45.3432V18.713C45.3432 18.305 45.2752 17.9537 45.1392 17.659C45.0145 17.353 44.8275 17.115 44.5782 16.945C44.3289 16.775 44.0285 16.69 43.6772 16.69C43.3259 16.69 43.0255 16.775 42.7762 16.945C42.5269 17.115 42.3342 17.353 42.1982 17.659C42.0735 17.9537 42.0112 18.305 42.0112 18.713V18.747ZM42.8102 13.885C42.6289 13.885 42.5382 13.7943 42.5382 13.613C42.5382 13.5223 42.5665 13.4487 42.6232 13.392L44.0682 11.641C44.1702 11.505 44.2609 11.42 44.3402 11.386C44.4309 11.3407 44.5499 11.318 44.6972 11.318H46.6522C46.8675 11.318 46.9752 11.4313 46.9752 11.658C46.9752 11.7373 46.9469 11.8053 46.8902 11.862L44.6972 13.647C44.6065 13.7263 44.5159 13.7887 44.4252 13.834C44.3459 13.868 44.2325 13.885 44.0852 13.885H42.8102ZM50.1195 27.23C49.9949 27.23 49.8929 27.1903 49.8135 27.111C49.7342 27.0317 49.6945 26.9297 49.6945 26.805V15.585C49.6945 15.4603 49.7342 15.3583 49.8135 15.279C49.8929 15.1997 49.9949 15.16 50.1195 15.16H51.7345C51.8592 15.16 51.9612 15.1997 52.0405 15.279C52.1199 15.3583 52.1595 15.4603 52.1595 15.585V16.231C52.4315 15.8683 52.7829 15.5737 53.2135 15.347C53.6442 15.109 54.1825 14.99 54.8285 14.99C55.4179 14.99 55.9279 15.0863 56.3585 15.279C56.8005 15.4603 57.1689 15.7267 57.4635 16.078C57.7695 16.418 58.0019 16.8317 58.1605 17.319C58.3305 17.8063 58.4269 18.356 58.4495 18.968C58.4609 19.1833 58.4665 19.3873 58.4665 19.58C58.4665 19.7727 58.4609 19.9823 58.4495 20.209C58.4382 20.787 58.3475 21.3197 58.1775 21.807C58.0189 22.2943 57.7865 22.7137 57.4805 23.065C57.1745 23.4163 56.8005 23.6883 56.3585 23.881C55.9279 24.0737 55.4179 24.17 54.8285 24.17C54.2505 24.17 53.7462 24.068 53.3155 23.864C52.8962 23.6487 52.5505 23.3597 52.2785 22.997V26.805C52.2785 26.9297 52.2389 27.0317 52.1595 27.111C52.0802 27.1903 51.9839 27.23 51.8705 27.23H50.1195ZM54.0635 22.13C54.4942 22.13 54.8342 22.0393 55.0835 21.858C55.3329 21.6653 55.5085 21.416 55.6105 21.11C55.7239 20.804 55.7919 20.4697 55.8145 20.107C55.8372 19.7557 55.8372 19.4043 55.8145 19.053C55.7919 18.6903 55.7239 18.356 55.6105 18.05C55.5085 17.744 55.3329 17.5003 55.0835 17.319C54.8342 17.1263 54.4942 17.03 54.0635 17.03C53.6442 17.03 53.3042 17.1263 53.0435 17.319C52.7829 17.5117 52.5959 17.7553 52.4825 18.05C52.3692 18.3447 52.3012 18.662 52.2785 19.002C52.2672 19.206 52.2615 19.4157 52.2615 19.631C52.2615 19.8463 52.2672 20.0617 52.2785 20.277C52.2899 20.5943 52.3579 20.8947 52.4825 21.178C52.6185 21.45 52.8112 21.6767 53.0605 21.858C53.3212 22.0393 53.6555 22.13 54.0635 22.13ZM60.6947 24C60.5701 24 60.4681 23.9603 60.3887 23.881C60.3094 23.8017 60.2697 23.6997 60.2697 23.575V12.355C60.2697 12.2303 60.3094 12.1283 60.3887 12.049C60.4681 11.9697 60.5701 11.93 60.6947 11.93H62.5307C62.6441 11.93 62.7404 11.9697 62.8197 12.049C62.8991 12.1283 62.9387 12.2303 62.9387 12.355V16.18C63.2447 15.8173 63.6187 15.5283 64.0607 15.313C64.5027 15.0977 65.0354 14.99 65.6587 14.99C66.3274 14.99 66.9167 15.143 67.4267 15.449C67.9481 15.7437 68.3561 16.18 68.6507 16.758C68.9454 17.3247 69.0927 18.016 69.0927 18.832V23.575C69.0927 23.6997 69.0531 23.8017 68.9737 23.881C68.8944 23.9603 68.7924 24 68.6677 24H66.8147C66.7014 24 66.6051 23.9603 66.5257 23.881C66.4464 23.8017 66.4067 23.6997 66.4067 23.575V18.934C66.4067 18.3333 66.2594 17.8687 65.9647 17.54C65.6701 17.2 65.2507 17.03 64.7067 17.03C64.1741 17.03 63.7434 17.2 63.4147 17.54C63.0974 17.8687 62.9387 18.3333 62.9387 18.934V23.575C62.9387 23.6997 62.8991 23.8017 62.8197 23.881C62.7404 23.9603 62.6441 24 62.5307 24H60.6947ZM75.1732 24.17C74.2325 24.17 73.4448 24.017 72.8102 23.711C72.1755 23.3937 71.6882 22.946 71.3482 22.368C71.0195 21.79 70.8382 21.1157 70.8042 20.345C70.7928 20.1183 70.7872 19.8633 70.7872 19.58C70.7872 19.2853 70.7928 19.0303 70.8042 18.815C70.8382 18.033 71.0308 17.3587 71.3822 16.792C71.7335 16.214 72.2265 15.772 72.8612 15.466C73.4958 15.1487 74.2665 14.99 75.1732 14.99C76.0685 14.99 76.8335 15.1487 77.4682 15.466C78.1028 15.772 78.5958 16.214 78.9472 16.792C79.2985 17.3587 79.4912 18.033 79.5252 18.815C79.5478 19.0303 79.5592 19.2853 79.5592 19.58C79.5592 19.8633 79.5478 20.1183 79.5252 20.345C79.4912 21.1157 79.3042 21.79 78.9642 22.368C78.6355 22.946 78.1538 23.3937 77.5192 23.711C76.8845 24.017 76.1025 24.17 75.1732 24.17ZM75.1732 22.3C75.7285 22.3 76.1478 22.13 76.4312 21.79C76.7145 21.4387 76.8675 20.9287 76.8902 20.26C76.9015 20.09 76.9072 19.8633 76.9072 19.58C76.9072 19.2967 76.9015 19.07 76.8902 18.9C76.8675 18.2427 76.7145 17.7383 76.4312 17.387C76.1478 17.0357 75.7285 16.86 75.1732 16.86C74.6178 16.86 74.1928 17.0357 73.8982 17.387C73.6148 17.7383 73.4618 18.2427 73.4392 18.9C73.4278 19.07 73.4222 19.2967 73.4222 19.58C73.4222 19.8633 73.4278 20.09 73.4392 20.26C73.4618 20.9287 73.6148 21.4387 73.8982 21.79C74.1928 22.13 74.6178 22.3 75.1732 22.3ZM81.7451 24C81.6318 24 81.5354 23.9603 81.4561 23.881C81.3768 23.8017 81.3371 23.6997 81.3371 23.575V15.585C81.3371 15.4603 81.3768 15.3583 81.4561 15.279C81.5354 15.1997 81.6318 15.16 81.7451 15.16H83.4111C83.5358 15.16 83.6378 15.1997 83.7171 15.279C83.7964 15.3583 83.8361 15.4603 83.8361 15.585V16.248C84.1308 15.8853 84.5104 15.585 84.9751 15.347C85.4398 15.109 86.0064 14.99 86.6751 14.99C87.3438 14.99 87.9274 15.143 88.4261 15.449C88.9361 15.7437 89.3328 16.18 89.6161 16.758C89.9108 17.3247 90.0581 18.016 90.0581 18.832V23.575C90.0581 23.6997 90.0128 23.8017 89.9221 23.881C89.8428 23.9603 89.7464 24 89.6331 24H87.8311C87.7064 24 87.6044 23.9603 87.5251 23.881C87.4458 23.8017 87.4061 23.6997 87.4061 23.575V18.934C87.4061 18.3333 87.2588 17.8687 86.9641 17.54C86.6808 17.2 86.2614 17.03 85.7061 17.03C85.1734 17.03 84.7484 17.2 84.4311 17.54C84.1138 17.8687 83.9551 18.3333 83.9551 18.934V23.575C83.9551 23.6997 83.9154 23.8017 83.8361 23.881C83.7568 23.9603 83.6604 24 83.5471 24H81.7451ZM96.0389 24.17C94.7356 24.17 93.6986 23.8073 92.9279 23.082C92.1686 22.3567 91.7663 21.3027 91.7209 19.92C91.7209 19.8293 91.7209 19.7103 91.7209 19.563C91.7209 19.4043 91.7209 19.2797 91.7209 19.189C91.7663 18.3163 91.9646 17.5683 92.3159 16.945C92.6673 16.3103 93.1603 15.8287 93.7949 15.5C94.4296 15.16 95.1719 14.99 96.0219 14.99C96.9739 14.99 97.7673 15.1883 98.4019 15.585C99.0479 15.9703 99.5296 16.503 99.8469 17.183C100.176 17.8517 100.34 18.6223 100.34 19.495V19.886C100.34 19.9993 100.295 20.0957 100.204 20.175C100.125 20.2543 100.028 20.294 99.9149 20.294H94.3559C94.3559 20.3053 94.3559 20.328 94.3559 20.362C94.3559 20.3847 94.3559 20.4073 94.3559 20.43C94.3673 20.7927 94.4353 21.127 94.5599 21.433C94.6959 21.7277 94.8829 21.9657 95.1209 22.147C95.3703 22.3283 95.6649 22.419 96.0049 22.419C96.2883 22.419 96.5206 22.3793 96.7019 22.3C96.8833 22.2207 97.0306 22.1243 97.1439 22.011C97.2686 21.8977 97.3593 21.8013 97.4159 21.722C97.5179 21.6087 97.5973 21.5407 97.6539 21.518C97.7219 21.484 97.8239 21.467 97.9599 21.467H99.7279C99.8413 21.467 99.9319 21.501 99.9999 21.569C100.079 21.6257 100.113 21.7107 100.102 21.824C100.091 22.0053 99.9943 22.232 99.8129 22.504C99.6429 22.7647 99.3879 23.0253 99.0479 23.286C98.7079 23.5353 98.2829 23.745 97.7729 23.915C97.2743 24.085 96.6963 24.17 96.0389 24.17ZM94.3559 18.747H97.6879V18.713C97.6879 18.305 97.6199 17.9537 97.4839 17.659C97.3593 17.353 97.1723 17.115 96.9229 16.945C96.6736 16.775 96.3733 16.69 96.0219 16.69C95.6706 16.69 95.3703 16.775 95.1209 16.945C94.8716 17.115 94.6789 17.353 94.5429 17.659C94.4183 17.9537 94.3559 18.305 94.3559 18.713V18.747ZM108.964 24C108.783 24 108.635 23.9547 108.522 23.864C108.42 23.762 108.346 23.643 108.301 23.507L104.731 12.61C104.72 12.5533 104.714 12.5023 104.714 12.457C104.714 12.3663 104.748 12.287 104.816 12.219C104.884 12.1397 104.969 12.1 105.071 12.1H106.856C107.026 12.1 107.156 12.151 107.247 12.253C107.349 12.3437 107.411 12.4287 107.434 12.508L110.086 20.821L112.721 12.508C112.755 12.4287 112.817 12.3437 112.908 12.253C112.999 12.151 113.129 12.1 113.299 12.1H115.084C115.186 12.1 115.271 12.1397 115.339 12.219C115.407 12.287 115.441 12.3663 115.441 12.457C115.441 12.5023 115.435 12.5533 115.424 12.61L111.854 23.507C111.82 23.643 111.746 23.762 111.633 23.864C111.531 23.9547 111.384 24 111.191 24H108.964ZM119.978 24.17C118.675 24.17 117.638 23.8073 116.867 23.082C116.108 22.3567 115.706 21.3027 115.66 19.92C115.66 19.8293 115.66 19.7103 115.66 19.563C115.66 19.4043 115.66 19.2797 115.66 19.189C115.706 18.3163 115.904 17.5683 116.255 16.945C116.607 16.3103 117.1 15.8287 117.734 15.5C118.369 15.16 119.111 14.99 119.961 14.99C120.913 14.99 121.707 15.1883 122.341 15.585C122.987 15.9703 123.469 16.503 123.786 17.183C124.115 17.8517 124.279 18.6223 124.279 19.495V19.886C124.279 19.9993 124.234 20.0957 124.143 20.175C124.064 20.2543 123.968 20.294 123.854 20.294H118.295C118.295 20.3053 118.295 20.328 118.295 20.362C118.295 20.3847 118.295 20.4073 118.295 20.43C118.307 20.7927 118.375 21.127 118.499 21.433C118.635 21.7277 118.822 21.9657 119.06 22.147C119.31 22.3283 119.604 22.419 119.944 22.419C120.228 22.419 120.46 22.3793 120.641 22.3C120.823 22.2207 120.97 22.1243 121.083 22.011C121.208 21.8977 121.299 21.8013 121.355 21.722C121.457 21.6087 121.537 21.5407 121.593 21.518C121.661 21.484 121.763 21.467 121.899 21.467H123.667C123.781 21.467 123.871 21.501 123.939 21.569C124.019 21.6257 124.053 21.7107 124.041 21.824C124.03 22.0053 123.934 22.232 123.752 22.504C123.582 22.7647 123.327 23.0253 122.987 23.286C122.647 23.5353 122.222 23.745 121.712 23.915C121.214 24.085 120.636 24.17 119.978 24.17ZM118.295 18.747H121.627V18.713C121.627 18.305 121.559 17.9537 121.423 17.659C121.299 17.353 121.112 17.115 120.862 16.945C120.613 16.775 120.313 16.69 119.961 16.69C119.61 16.69 119.31 16.775 119.06 16.945C118.811 17.115 118.618 17.353 118.482 17.659C118.358 17.9537 118.295 18.305 118.295 18.713V18.747ZM119.094 13.885C118.913 13.885 118.822 13.7943 118.822 13.613C118.822 13.5223 118.851 13.4487 118.907 13.392L120.352 11.641C120.454 11.505 120.545 11.42 120.624 11.386C120.715 11.3407 120.834 11.318 120.981 11.318H122.936C123.152 11.318 123.259 11.4313 123.259 11.658C123.259 11.7373 123.231 11.8053 123.174 11.862L120.981 13.647C120.891 13.7263 120.8 13.7887 120.709 13.834C120.63 13.868 120.517 13.885 120.369 13.885H119.094ZM126.387 24C126.273 24 126.177 23.9603 126.098 23.881C126.018 23.8017 125.979 23.6997 125.979 23.575V15.585C125.979 15.4717 126.018 15.3753 126.098 15.296C126.177 15.2053 126.273 15.16 126.387 15.16H128.053C128.166 15.16 128.262 15.2053 128.342 15.296C128.432 15.3753 128.478 15.4717 128.478 15.585V16.265C128.761 15.9137 129.107 15.6417 129.515 15.449C129.934 15.2563 130.416 15.16 130.96 15.16H131.691C131.804 15.16 131.9 15.1997 131.98 15.279C132.059 15.3583 132.099 15.4603 132.099 15.585V17.047C132.099 17.1717 132.059 17.2737 131.98 17.353C131.9 17.4323 131.804 17.472 131.691 17.472H130.195C129.696 17.472 129.305 17.6137 129.022 17.897C128.738 18.169 128.597 18.56 128.597 19.07V23.575C128.597 23.6997 128.557 23.8017 128.478 23.881C128.398 23.9603 128.296 24 128.172 24H126.387ZM133.774 24C133.661 24 133.565 23.9603 133.485 23.881C133.406 23.8017 133.366 23.6997 133.366 23.575V15.585C133.366 15.4603 133.406 15.3583 133.485 15.279C133.565 15.1997 133.661 15.16 133.774 15.16H135.474C135.599 15.16 135.701 15.1997 135.78 15.279C135.86 15.3583 135.899 15.4603 135.899 15.585V23.575C135.899 23.6997 135.86 23.8017 135.78 23.881C135.701 23.9603 135.599 24 135.474 24H133.774ZM133.723 13.8C133.61 13.8 133.514 13.7603 133.434 13.681C133.355 13.6017 133.315 13.4997 133.315 13.375V12.015C133.315 11.8903 133.355 11.7883 133.434 11.709C133.514 11.6183 133.61 11.573 133.723 11.573H135.508C135.633 11.573 135.735 11.6183 135.814 11.709C135.905 11.7883 135.95 11.8903 135.95 12.015V13.375C135.95 13.4997 135.905 13.6017 135.814 13.681C135.735 13.7603 135.633 13.8 135.508 13.8H133.723ZM139.425 24C139.301 24 139.199 23.9603 139.119 23.881C139.04 23.8017 139 23.6997 139 23.575V17.166H137.674C137.55 17.166 137.448 17.1263 137.368 17.047C137.289 16.9677 137.249 16.8657 137.249 16.741V15.585C137.249 15.4603 137.289 15.3583 137.368 15.279C137.448 15.1997 137.55 15.16 137.674 15.16H139V14.548C139 13.8227 139.136 13.2277 139.408 12.763C139.68 12.2983 140.077 11.9583 140.598 11.743C141.12 11.5277 141.76 11.42 142.519 11.42H146.429C146.543 11.42 146.639 11.4597 146.718 11.539C146.798 11.6183 146.837 11.7203 146.837 11.845V13.001C146.837 13.1257 146.798 13.2277 146.718 13.307C146.639 13.3863 146.543 13.426 146.429 13.426H142.621C142.202 13.426 141.907 13.528 141.737 13.732C141.579 13.936 141.499 14.2363 141.499 14.633V15.16H146.429C146.543 15.16 146.639 15.1997 146.718 15.279C146.798 15.3583 146.837 15.4603 146.837 15.585V23.575C146.837 23.6997 146.798 23.8017 146.718 23.881C146.639 23.9603 146.543 24 146.429 24H144.763C144.639 24 144.537 23.9603 144.457 23.881C144.378 23.8017 144.338 23.6997 144.338 23.575V17.166H141.499V23.575C141.499 23.6997 141.46 23.8017 141.38 23.881C141.301 23.9603 141.205 24 141.091 24H139.425ZM152.982 24.17C151.679 24.17 150.642 23.8073 149.871 23.082C149.112 22.3567 148.71 21.3027 148.664 19.92C148.664 19.8293 148.664 19.7103 148.664 19.563C148.664 19.4043 148.664 19.2797 148.664 19.189C148.71 18.3163 148.908 17.5683 149.259 16.945C149.611 16.3103 150.104 15.8287 150.738 15.5C151.373 15.16 152.115 14.99 152.965 14.99C153.917 14.99 154.711 15.1883 155.345 15.585C155.991 15.9703 156.473 16.503 156.79 17.183C157.119 17.8517 157.283 18.6223 157.283 19.495V19.886C157.283 19.9993 157.238 20.0957 157.147 20.175C157.068 20.2543 156.972 20.294 156.858 20.294H151.299C151.299 20.3053 151.299 20.328 151.299 20.362C151.299 20.3847 151.299 20.4073 151.299 20.43C151.311 20.7927 151.379 21.127 151.503 21.433C151.639 21.7277 151.826 21.9657 152.064 22.147C152.314 22.3283 152.608 22.419 152.948 22.419C153.232 22.419 153.464 22.3793 153.645 22.3C153.827 22.2207 153.974 22.1243 154.087 22.011C154.212 21.8977 154.303 21.8013 154.359 21.722C154.461 21.6087 154.541 21.5407 154.597 21.518C154.665 21.484 154.767 21.467 154.903 21.467H156.671C156.785 21.467 156.875 21.501 156.943 21.569C157.023 21.6257 157.057 21.7107 157.045 21.824C157.034 22.0053 156.938 22.232 156.756 22.504C156.586 22.7647 156.331 23.0253 155.991 23.286C155.651 23.5353 155.226 23.745 154.716 23.915C154.218 24.085 153.64 24.17 152.982 24.17ZM151.299 18.747H154.631V18.713C154.631 18.305 154.563 17.9537 154.427 17.659C154.303 17.353 154.116 17.115 153.866 16.945C153.617 16.775 153.317 16.69 152.965 16.69C152.614 16.69 152.314 16.775 152.064 16.945C151.815 17.115 151.622 17.353 151.486 17.659C151.362 17.9537 151.299 18.305 151.299 18.713V18.747ZM152.098 13.885C151.917 13.885 151.826 13.7943 151.826 13.613C151.826 13.5223 151.855 13.4487 151.911 13.392L153.356 11.641C153.458 11.505 153.549 11.42 153.628 11.386C153.719 11.3407 153.838 11.318 153.985 11.318H155.94C156.156 11.318 156.263 11.4313 156.263 11.658C156.263 11.7373 156.235 11.8053 156.178 11.862L153.985 13.647C153.895 13.7263 153.804 13.7887 153.713 13.834C153.634 13.868 153.521 13.885 153.373 13.885H152.098Z" fill="#242D34"/>
</svg>
