<svg width="126" height="44" viewBox="0 0 126 44" fill="none" xmlns="http://www.w3.org/2000/svg">
  <rect width="126" height="44" rx="5" fill="#077D55"/>
  <path d="M32.495 27C32.405 27 32.33 26.97 32.27 26.91C32.21 26.84 32.18 26.765 32.18 26.685C32.18 26.635 32.185 26.59 32.195 26.55L35.765 16.905C35.795 16.795 35.855 16.7 35.945 16.62C36.035 16.54 36.16 16.5 36.32 16.5H38.24C38.4 16.5 38.525 16.54 38.615 16.62C38.705 16.7 38.765 16.795 38.795 16.905L42.365 26.55C42.375 26.59 42.38 26.635 42.38 26.685C42.38 26.765 42.35 26.84 42.29 26.91C42.23 26.97 42.155 27 42.065 27H40.505C40.355 27 40.245 26.965 40.175 26.895C40.105 26.825 40.06 26.76 40.04 26.7L39.395 25.02H35.165L34.52 26.7C34.5 26.76 34.455 26.825 34.385 26.895C34.315 26.965 34.205 27 34.055 27H32.495ZM35.72 23.085H38.825L37.28 18.765L35.72 23.085ZM46.869 27.15C46.139 27.15 45.494 27.015 44.934 26.745C44.384 26.475 43.949 26.085 43.629 25.575C43.309 25.055 43.134 24.435 43.104 23.715C43.094 23.555 43.089 23.355 43.089 23.115C43.089 22.865 43.094 22.66 43.104 22.5C43.134 21.77 43.304 21.15 43.614 20.64C43.934 20.12 44.374 19.725 44.934 19.455C45.494 19.185 46.139 19.05 46.869 19.05C47.539 19.05 48.109 19.145 48.579 19.335C49.049 19.515 49.434 19.745 49.734 20.025C50.034 20.305 50.254 20.6 50.394 20.91C50.544 21.21 50.624 21.475 50.634 21.705C50.644 21.805 50.609 21.895 50.529 21.975C50.459 22.045 50.374 22.08 50.274 22.08H48.669C48.569 22.08 48.489 22.055 48.429 22.005C48.379 21.945 48.329 21.865 48.279 21.765C48.139 21.415 47.959 21.165 47.739 21.015C47.519 20.865 47.244 20.79 46.914 20.79C46.464 20.79 46.109 20.935 45.849 21.225C45.589 21.515 45.449 21.965 45.429 22.575C45.419 22.965 45.419 23.32 45.429 23.64C45.459 24.26 45.599 24.71 45.849 24.99C46.109 25.27 46.464 25.41 46.914 25.41C47.264 25.41 47.544 25.335 47.754 25.185C47.964 25.035 48.139 24.785 48.279 24.435C48.319 24.335 48.369 24.26 48.429 24.21C48.489 24.15 48.569 24.12 48.669 24.12H50.274C50.374 24.12 50.459 24.16 50.529 24.24C50.609 24.31 50.644 24.395 50.634 24.495C50.624 24.665 50.574 24.865 50.484 25.095C50.404 25.325 50.269 25.56 50.079 25.8C49.899 26.04 49.664 26.265 49.374 26.475C49.084 26.675 48.729 26.84 48.309 26.97C47.899 27.09 47.419 27.15 46.869 27.15ZM55.5702 27.15C54.8402 27.15 54.1952 27.015 53.6352 26.745C53.0852 26.475 52.6502 26.085 52.3302 25.575C52.0102 25.055 51.8352 24.435 51.8052 23.715C51.7952 23.555 51.7902 23.355 51.7902 23.115C51.7902 22.865 51.7952 22.66 51.8052 22.5C51.8352 21.77 52.0052 21.15 52.3152 20.64C52.6352 20.12 53.0752 19.725 53.6352 19.455C54.1952 19.185 54.8402 19.05 55.5702 19.05C56.2402 19.05 56.8102 19.145 57.2802 19.335C57.7502 19.515 58.1352 19.745 58.4352 20.025C58.7352 20.305 58.9552 20.6 59.0952 20.91C59.2452 21.21 59.3252 21.475 59.3352 21.705C59.3452 21.805 59.3102 21.895 59.2302 21.975C59.1602 22.045 59.0752 22.08 58.9752 22.08H57.3702C57.2702 22.08 57.1902 22.055 57.1302 22.005C57.0802 21.945 57.0302 21.865 56.9802 21.765C56.8402 21.415 56.6602 21.165 56.4402 21.015C56.2202 20.865 55.9452 20.79 55.6152 20.79C55.1652 20.79 54.8102 20.935 54.5502 21.225C54.2902 21.515 54.1502 21.965 54.1302 22.575C54.1202 22.965 54.1202 23.32 54.1302 23.64C54.1602 24.26 54.3002 24.71 54.5502 24.99C54.8102 25.27 55.1652 25.41 55.6152 25.41C55.9652 25.41 56.2452 25.335 56.4552 25.185C56.6652 25.035 56.8402 24.785 56.9802 24.435C57.0202 24.335 57.0702 24.26 57.1302 24.21C57.1902 24.15 57.2702 24.12 57.3702 24.12H58.9752C59.0752 24.12 59.1602 24.16 59.2302 24.24C59.3102 24.31 59.3452 24.395 59.3352 24.495C59.3252 24.665 59.2752 24.865 59.1852 25.095C59.1052 25.325 58.9702 25.56 58.7802 25.8C58.6002 26.04 58.3652 26.265 58.0752 26.475C57.7852 26.675 57.4302 26.84 57.0102 26.97C56.6002 27.09 56.1202 27.15 55.5702 27.15ZM64.2863 27.15C63.1363 27.15 62.2213 26.83 61.5413 26.19C60.8713 25.55 60.5163 24.62 60.4763 23.4C60.4763 23.32 60.4763 23.215 60.4763 23.085C60.4763 22.945 60.4763 22.835 60.4763 22.755C60.5163 21.985 60.6913 21.325 61.0013 20.775C61.3113 20.215 61.7463 19.79 62.3063 19.5C62.8663 19.2 63.5213 19.05 64.2713 19.05C65.1113 19.05 65.8113 19.225 66.3713 19.575C66.9413 19.915 67.3663 20.385 67.6463 20.985C67.9363 21.575 68.0813 22.255 68.0813 23.025V23.37C68.0813 23.47 68.0413 23.555 67.9613 23.625C67.8913 23.695 67.8063 23.73 67.7063 23.73H62.8013C62.8013 23.74 62.8013 23.76 62.8013 23.79C62.8013 23.81 62.8013 23.83 62.8013 23.85C62.8113 24.17 62.8713 24.465 62.9813 24.735C63.1013 24.995 63.2663 25.205 63.4763 25.365C63.6963 25.525 63.9563 25.605 64.2563 25.605C64.5063 25.605 64.7113 25.57 64.8713 25.5C65.0313 25.43 65.1613 25.345 65.2613 25.245C65.3713 25.145 65.4513 25.06 65.5013 24.99C65.5913 24.89 65.6613 24.83 65.7113 24.81C65.7713 24.78 65.8613 24.765 65.9813 24.765H67.5413C67.6413 24.765 67.7213 24.795 67.7813 24.855C67.8513 24.905 67.8813 24.98 67.8713 25.08C67.8613 25.24 67.7763 25.44 67.6163 25.68C67.4663 25.91 67.2413 26.14 66.9413 26.37C66.6413 26.59 66.2663 26.775 65.8163 26.925C65.3763 27.075 64.8663 27.15 64.2863 27.15ZM62.8013 22.365H65.7413V22.335C65.7413 21.975 65.6813 21.665 65.5613 21.405C65.4513 21.135 65.2863 20.925 65.0663 20.775C64.8463 20.625 64.5813 20.55 64.2713 20.55C63.9613 20.55 63.6963 20.625 63.4763 20.775C63.2563 20.925 63.0863 21.135 62.9663 21.405C62.8563 21.665 62.8013 21.975 62.8013 22.335V22.365ZM69.9557 29.85C69.8457 29.85 69.7557 29.815 69.6857 29.745C69.6157 29.675 69.5807 29.585 69.5807 29.475V19.575C69.5807 19.465 69.6157 19.375 69.6857 19.305C69.7557 19.235 69.8457 19.2 69.9557 19.2H71.3807C71.4907 19.2 71.5807 19.235 71.6507 19.305C71.7207 19.375 71.7557 19.465 71.7557 19.575V20.145C71.9957 19.825 72.3057 19.565 72.6857 19.365C73.0657 19.155 73.5407 19.05 74.1107 19.05C74.6307 19.05 75.0807 19.135 75.4607 19.305C75.8507 19.465 76.1757 19.7 76.4357 20.01C76.7057 20.31 76.9107 20.675 77.0507 21.105C77.2007 21.535 77.2857 22.02 77.3057 22.56C77.3157 22.75 77.3207 22.93 77.3207 23.1C77.3207 23.27 77.3157 23.455 77.3057 23.655C77.2957 24.165 77.2157 24.635 77.0657 25.065C76.9257 25.495 76.7207 25.865 76.4507 26.175C76.1807 26.485 75.8507 26.725 75.4607 26.895C75.0807 27.065 74.6307 27.15 74.1107 27.15C73.6007 27.15 73.1557 27.06 72.7757 26.88C72.4057 26.69 72.1007 26.435 71.8607 26.115V29.475C71.8607 29.585 71.8257 29.675 71.7557 29.745C71.6857 29.815 71.6007 29.85 71.5007 29.85H69.9557ZM73.4357 25.35C73.8157 25.35 74.1157 25.27 74.3357 25.11C74.5557 24.94 74.7107 24.72 74.8007 24.45C74.9007 24.18 74.9607 23.885 74.9807 23.565C75.0007 23.255 75.0007 22.945 74.9807 22.635C74.9607 22.315 74.9007 22.02 74.8007 21.75C74.7107 21.48 74.5557 21.265 74.3357 21.105C74.1157 20.935 73.8157 20.85 73.4357 20.85C73.0657 20.85 72.7657 20.935 72.5357 21.105C72.3057 21.275 72.1407 21.49 72.0407 21.75C71.9407 22.01 71.8807 22.29 71.8607 22.59C71.8507 22.77 71.8457 22.955 71.8457 23.145C71.8457 23.335 71.8507 23.525 71.8607 23.715C71.8707 23.995 71.9307 24.26 72.0407 24.51C72.1607 24.75 72.3307 24.95 72.5507 25.11C72.7807 25.27 73.0757 25.35 73.4357 25.35ZM82.6179 27C81.9979 27 81.4679 26.9 81.0279 26.7C80.5879 26.49 80.2529 26.17 80.0229 25.74C79.8029 25.31 79.6929 24.77 79.6929 24.12V20.97H78.5229C78.4129 20.97 78.3229 20.935 78.2529 20.865C78.1829 20.795 78.1479 20.705 78.1479 20.595V19.575C78.1479 19.465 78.1829 19.375 78.2529 19.305C78.3229 19.235 78.4129 19.2 78.5229 19.2H79.6929V16.725C79.6929 16.615 79.7279 16.525 79.7979 16.455C79.8779 16.385 79.9679 16.35 80.0679 16.35H81.5379C81.6479 16.35 81.7379 16.385 81.8079 16.455C81.8779 16.525 81.9129 16.615 81.9129 16.725V19.2H83.7879C83.8879 19.2 83.9729 19.235 84.0429 19.305C84.1129 19.375 84.1479 19.465 84.1479 19.575V20.595C84.1479 20.705 84.1129 20.795 84.0429 20.865C83.9729 20.935 83.8879 20.97 83.7879 20.97H81.9129V23.94C81.9129 24.32 81.9779 24.62 82.1079 24.84C82.2479 25.05 82.4879 25.155 82.8279 25.155H83.9229C84.0229 25.155 84.1079 25.19 84.1779 25.26C84.2479 25.33 84.2829 25.415 84.2829 25.515V26.625C84.2829 26.735 84.2479 26.825 84.1779 26.895C84.1079 26.965 84.0229 27 83.9229 27H82.6179ZM89.0715 27.15C87.9215 27.15 87.0065 26.83 86.3265 26.19C85.6565 25.55 85.3015 24.62 85.2615 23.4C85.2615 23.32 85.2615 23.215 85.2615 23.085C85.2615 22.945 85.2615 22.835 85.2615 22.755C85.3015 21.985 85.4765 21.325 85.7865 20.775C86.0965 20.215 86.5315 19.79 87.0915 19.5C87.6515 19.2 88.3065 19.05 89.0565 19.05C89.8965 19.05 90.5965 19.225 91.1565 19.575C91.7265 19.915 92.1515 20.385 92.4315 20.985C92.7215 21.575 92.8665 22.255 92.8665 23.025V23.37C92.8665 23.47 92.8265 23.555 92.7465 23.625C92.6765 23.695 92.5915 23.73 92.4915 23.73H87.5865C87.5865 23.74 87.5865 23.76 87.5865 23.79C87.5865 23.81 87.5865 23.83 87.5865 23.85C87.5965 24.17 87.6565 24.465 87.7665 24.735C87.8865 24.995 88.0515 25.205 88.2615 25.365C88.4815 25.525 88.7415 25.605 89.0415 25.605C89.2915 25.605 89.4965 25.57 89.6565 25.5C89.8165 25.43 89.9465 25.345 90.0465 25.245C90.1565 25.145 90.2365 25.06 90.2865 24.99C90.3765 24.89 90.4465 24.83 90.4965 24.81C90.5565 24.78 90.6465 24.765 90.7665 24.765H92.3265C92.4265 24.765 92.5065 24.795 92.5665 24.855C92.6365 24.905 92.6665 24.98 92.6565 25.08C92.6465 25.24 92.5615 25.44 92.4015 25.68C92.2515 25.91 92.0265 26.14 91.7265 26.37C91.4265 26.59 91.0515 26.775 90.6015 26.925C90.1615 27.075 89.6515 27.15 89.0715 27.15ZM87.5865 22.365H90.5265V22.335C90.5265 21.975 90.4665 21.665 90.3465 21.405C90.2365 21.135 90.0715 20.925 89.8515 20.775C89.6315 20.625 89.3665 20.55 89.0565 20.55C88.7465 20.55 88.4815 20.625 88.2615 20.775C88.0415 20.925 87.8715 21.135 87.7515 21.405C87.6415 21.665 87.5865 21.975 87.5865 22.335V22.365ZM88.2915 18.075C88.1315 18.075 88.0515 17.995 88.0515 17.835C88.0515 17.755 88.0765 17.69 88.1265 17.64L89.4015 16.095C89.4915 15.975 89.5715 15.9 89.6415 15.87C89.7215 15.83 89.8265 15.81 89.9565 15.81H91.6815C91.8715 15.81 91.9665 15.91 91.9665 16.11C91.9665 16.18 91.9415 16.24 91.8915 16.29L89.9565 17.865C89.8765 17.935 89.7965 17.99 89.7165 18.03C89.6465 18.06 89.5465 18.075 89.4165 18.075H88.2915Z" fill="white"/>
</svg>
