<svg width="126" height="44" viewBox="0 0 126 44" fill="none" xmlns="http://www.w3.org/2000/svg">
  <rect width="126" height="44" rx="5" fill="#E86427"/>
  <path d="M42.78 27.15C41.84 27.15 41.04 26.995 40.38 26.685C39.73 26.365 39.225 25.905 38.865 25.305C38.505 24.695 38.305 23.955 38.265 23.085C38.255 22.675 38.25 22.235 38.25 21.765C38.25 21.295 38.255 20.845 38.265 20.415C38.305 19.555 38.505 18.825 38.865 18.225C39.235 17.615 39.75 17.15 40.41 16.83C41.07 16.51 41.86 16.35 42.78 16.35C43.45 16.35 44.06 16.435 44.61 16.605C45.16 16.775 45.635 17.02 46.035 17.34C46.435 17.66 46.745 18.035 46.965 18.465C47.185 18.895 47.305 19.375 47.325 19.905C47.325 19.995 47.29 20.07 47.22 20.13C47.16 20.19 47.085 20.22 46.995 20.22H45.285C45.165 20.22 45.07 20.19 45 20.13C44.93 20.07 44.875 19.97 44.835 19.83C44.685 19.24 44.435 18.835 44.085 18.615C43.735 18.395 43.3 18.285 42.78 18.285C42.16 18.285 41.67 18.455 41.31 18.795C40.95 19.135 40.755 19.7 40.725 20.49C40.695 21.31 40.695 22.15 40.725 23.01C40.755 23.8 40.95 24.365 41.31 24.705C41.67 25.045 42.16 25.215 42.78 25.215C43.3 25.215 43.735 25.105 44.085 24.885C44.445 24.655 44.695 24.25 44.835 23.67C44.875 23.52 44.93 23.42 45 23.37C45.07 23.31 45.165 23.28 45.285 23.28H46.995C47.085 23.28 47.16 23.31 47.22 23.37C47.29 23.43 47.325 23.505 47.325 23.595C47.305 24.125 47.185 24.605 46.965 25.035C46.745 25.465 46.435 25.84 46.035 26.16C45.635 26.48 45.16 26.725 44.61 26.895C44.06 27.065 43.45 27.15 42.78 27.15ZM52.4154 27.15C51.5854 27.15 50.8904 27.015 50.3304 26.745C49.7704 26.465 49.3404 26.07 49.0404 25.56C48.7504 25.05 48.5904 24.455 48.5604 23.775C48.5504 23.575 48.5454 23.35 48.5454 23.1C48.5454 22.84 48.5504 22.615 48.5604 22.425C48.5904 21.735 48.7604 21.14 49.0704 20.64C49.3804 20.13 49.8154 19.74 50.3754 19.47C50.9354 19.19 51.6154 19.05 52.4154 19.05C53.2054 19.05 53.8804 19.19 54.4404 19.47C55.0004 19.74 55.4354 20.13 55.7454 20.64C56.0554 21.14 56.2254 21.735 56.2554 22.425C56.2754 22.615 56.2854 22.84 56.2854 23.1C56.2854 23.35 56.2754 23.575 56.2554 23.775C56.2254 24.455 56.0604 25.05 55.7604 25.56C55.4704 26.07 55.0454 26.465 54.4854 26.745C53.9254 27.015 53.2354 27.15 52.4154 27.15ZM52.4154 25.5C52.9054 25.5 53.2754 25.35 53.5254 25.05C53.7754 24.74 53.9104 24.29 53.9304 23.7C53.9404 23.55 53.9454 23.35 53.9454 23.1C53.9454 22.85 53.9404 22.65 53.9304 22.5C53.9104 21.92 53.7754 21.475 53.5254 21.165C53.2754 20.855 52.9054 20.7 52.4154 20.7C51.9254 20.7 51.5504 20.855 51.2904 21.165C51.0404 21.475 50.9054 21.92 50.8854 22.5C50.8754 22.65 50.8704 22.85 50.8704 23.1C50.8704 23.35 50.8754 23.55 50.8854 23.7C50.9054 24.29 51.0404 24.74 51.2904 25.05C51.5504 25.35 51.9254 25.5 52.4154 25.5ZM58.2142 27C58.1142 27 58.0292 26.965 57.9592 26.895C57.8892 26.825 57.8542 26.735 57.8542 26.625V19.575C57.8542 19.465 57.8892 19.375 57.9592 19.305C58.0292 19.235 58.1142 19.2 58.2142 19.2H59.6842C59.7942 19.2 59.8842 19.235 59.9542 19.305C60.0242 19.375 60.0592 19.465 60.0592 19.575V20.16C60.3192 19.84 60.6542 19.575 61.0642 19.365C61.4742 19.155 61.9742 19.05 62.5642 19.05C63.1542 19.05 63.6692 19.185 64.1092 19.455C64.5592 19.715 64.9092 20.1 65.1592 20.61C65.4192 21.11 65.5492 21.72 65.5492 22.44V26.625C65.5492 26.735 65.5092 26.825 65.4292 26.895C65.3592 26.965 65.2742 27 65.1742 27H63.5842C63.4742 27 63.3842 26.965 63.3142 26.895C63.2442 26.825 63.2092 26.735 63.2092 26.625V22.53C63.2092 22 63.0792 21.59 62.8192 21.3C62.5692 21 62.1992 20.85 61.7092 20.85C61.2392 20.85 60.8642 21 60.5842 21.3C60.3042 21.59 60.1642 22 60.1642 22.53V26.625C60.1642 26.735 60.1292 26.825 60.0592 26.895C59.9892 26.965 59.9042 27 59.8042 27H58.2142ZM71.0085 27C70.3885 27 69.8585 26.9 69.4185 26.7C68.9785 26.49 68.6435 26.17 68.4135 25.74C68.1935 25.31 68.0835 24.77 68.0835 24.12V20.97H66.9135C66.8035 20.97 66.7135 20.935 66.6435 20.865C66.5735 20.795 66.5385 20.705 66.5385 20.595V19.575C66.5385 19.465 66.5735 19.375 66.6435 19.305C66.7135 19.235 66.8035 19.2 66.9135 19.2H68.0835V16.725C68.0835 16.615 68.1185 16.525 68.1885 16.455C68.2685 16.385 68.3585 16.35 68.4585 16.35H69.9285C70.0385 16.35 70.1285 16.385 70.1985 16.455C70.2685 16.525 70.3035 16.615 70.3035 16.725V19.2H72.1785C72.2785 19.2 72.3635 19.235 72.4335 19.305C72.5035 19.375 72.5385 19.465 72.5385 19.575V20.595C72.5385 20.705 72.5035 20.795 72.4335 20.865C72.3635 20.935 72.2785 20.97 72.1785 20.97H70.3035V23.94C70.3035 24.32 70.3685 24.62 70.4985 24.84C70.6385 25.05 70.8785 25.155 71.2185 25.155H72.3135C72.4135 25.155 72.4985 25.19 72.5685 25.26C72.6385 25.33 72.6735 25.415 72.6735 25.515V26.625C72.6735 26.735 72.6385 26.825 72.5685 26.895C72.4985 26.965 72.4135 27 72.3135 27H71.0085ZM74.3421 27C74.2421 27 74.1571 26.965 74.0871 26.895C74.0171 26.825 73.9821 26.735 73.9821 26.625V19.575C73.9821 19.475 74.0171 19.39 74.0871 19.32C74.1571 19.24 74.2421 19.2 74.3421 19.2H75.8121C75.9121 19.2 75.9971 19.24 76.0671 19.32C76.1471 19.39 76.1871 19.475 76.1871 19.575V20.175C76.4371 19.865 76.7421 19.625 77.1021 19.455C77.4721 19.285 77.8971 19.2 78.3771 19.2H79.0221C79.1221 19.2 79.2071 19.235 79.2771 19.305C79.3471 19.375 79.3821 19.465 79.3821 19.575V20.865C79.3821 20.975 79.3471 21.065 79.2771 21.135C79.2071 21.205 79.1221 21.24 79.0221 21.24H77.7021C77.2621 21.24 76.9171 21.365 76.6671 21.615C76.4171 21.855 76.2921 22.2 76.2921 22.65V26.625C76.2921 26.735 76.2571 26.825 76.1871 26.895C76.1171 26.965 76.0271 27 75.9171 27H74.3421ZM83.8928 27.15C82.7428 27.15 81.8278 26.83 81.1478 26.19C80.4778 25.55 80.1228 24.62 80.0828 23.4C80.0828 23.32 80.0828 23.215 80.0828 23.085C80.0828 22.945 80.0828 22.835 80.0828 22.755C80.1228 21.985 80.2978 21.325 80.6078 20.775C80.9178 20.215 81.3528 19.79 81.9128 19.5C82.4728 19.2 83.1278 19.05 83.8778 19.05C84.7178 19.05 85.4178 19.225 85.9778 19.575C86.5478 19.915 86.9728 20.385 87.2528 20.985C87.5428 21.575 87.6878 22.255 87.6878 23.025V23.37C87.6878 23.47 87.6478 23.555 87.5678 23.625C87.4978 23.695 87.4128 23.73 87.3128 23.73H82.4078C82.4078 23.74 82.4078 23.76 82.4078 23.79C82.4078 23.81 82.4078 23.83 82.4078 23.85C82.4178 24.17 82.4778 24.465 82.5878 24.735C82.7078 24.995 82.8728 25.205 83.0828 25.365C83.3028 25.525 83.5628 25.605 83.8628 25.605C84.1128 25.605 84.3178 25.57 84.4778 25.5C84.6378 25.43 84.7678 25.345 84.8678 25.245C84.9778 25.145 85.0578 25.06 85.1078 24.99C85.1978 24.89 85.2678 24.83 85.3178 24.81C85.3778 24.78 85.4678 24.765 85.5878 24.765H87.1478C87.2478 24.765 87.3278 24.795 87.3878 24.855C87.4578 24.905 87.4878 24.98 87.4778 25.08C87.4678 25.24 87.3828 25.44 87.2228 25.68C87.0728 25.91 86.8478 26.14 86.5478 26.37C86.2478 26.59 85.8728 26.775 85.4228 26.925C84.9828 27.075 84.4728 27.15 83.8928 27.15ZM82.4078 22.365H85.3478V22.335C85.3478 21.975 85.2878 21.665 85.1678 21.405C85.0578 21.135 84.8928 20.925 84.6728 20.775C84.4528 20.625 84.1878 20.55 83.8778 20.55C83.5678 20.55 83.3028 20.625 83.0828 20.775C82.8628 20.925 82.6928 21.135 82.5728 21.405C82.4628 21.665 82.4078 21.975 82.4078 22.335V22.365ZM83.1128 18.075C82.9528 18.075 82.8728 17.995 82.8728 17.835C82.8728 17.755 82.8978 17.69 82.9478 17.64L84.2228 16.095C84.3128 15.975 84.3928 15.9 84.4628 15.87C84.5428 15.83 84.6478 15.81 84.7778 15.81H86.5028C86.6928 15.81 86.7878 15.91 86.7878 16.11C86.7878 16.18 86.7628 16.24 86.7128 16.29L84.7778 17.865C84.6978 17.935 84.6178 17.99 84.5378 18.03C84.4678 18.06 84.3678 18.075 84.2378 18.075H83.1128Z" fill="white"/>
</svg>
