<svg width="126" height="44" viewBox="0 0 126 44" fill="none" xmlns="http://www.w3.org/2000/svg">
  <rect width="126" height="44" rx="5" fill="#F5C518"/>
  <path d="M15.985 27C15.875 27 15.785 26.965 15.715 26.895C15.645 26.825 15.61 26.735 15.61 26.625V16.875C15.61 16.765 15.645 16.675 15.715 16.605C15.785 16.535 15.875 16.5 15.985 16.5H22.78C22.89 16.5 22.98 16.535 23.05 16.605C23.12 16.675 23.155 16.765 23.155 16.875V18.075C23.155 18.175 23.12 18.26 23.05 18.33C22.98 18.4 22.89 18.435 22.78 18.435H17.92V20.79H22.45C22.56 20.79 22.65 20.825 22.72 20.895C22.79 20.965 22.825 21.055 22.825 21.165V22.275C22.825 22.375 22.79 22.46 22.72 22.53C22.65 22.6 22.56 22.635 22.45 22.635H17.92V25.065H22.9C23.01 25.065 23.1 25.1 23.17 25.17C23.24 25.24 23.275 25.33 23.275 25.44V26.625C23.275 26.735 23.24 26.825 23.17 26.895C23.1 26.965 23.01 27 22.9 27H15.985ZM25.2532 27C25.1532 27 25.0682 26.965 24.9982 26.895C24.9282 26.825 24.8932 26.735 24.8932 26.625V19.575C24.8932 19.465 24.9282 19.375 24.9982 19.305C25.0682 19.235 25.1532 19.2 25.2532 19.2H26.7232C26.8332 19.2 26.9232 19.235 26.9932 19.305C27.0632 19.375 27.0982 19.465 27.0982 19.575V20.16C27.3582 19.84 27.6932 19.575 28.1032 19.365C28.5132 19.155 29.0132 19.05 29.6032 19.05C30.1932 19.05 30.7082 19.185 31.1482 19.455C31.5982 19.715 31.9482 20.1 32.1982 20.61C32.4582 21.11 32.5882 21.72 32.5882 22.44V26.625C32.5882 26.735 32.5482 26.825 32.4682 26.895C32.3982 26.965 32.3132 27 32.2132 27H30.6232C30.5132 27 30.4232 26.965 30.3532 26.895C30.2832 26.825 30.2482 26.735 30.2482 26.625V22.53C30.2482 22 30.1182 21.59 29.8582 21.3C29.6082 21 29.2382 20.85 28.7482 20.85C28.2782 20.85 27.9032 21 27.6232 21.3C27.3432 21.59 27.2032 22 27.2032 22.53V26.625C27.2032 26.735 27.1682 26.825 27.0982 26.895C27.0282 26.965 26.9432 27 26.8432 27H25.2532ZM39.991 27.15C39.461 27.15 38.986 27.05 38.566 26.85C38.146 26.64 37.811 26.36 37.561 26.01C37.311 25.66 37.186 25.27 37.186 24.84C37.186 24.13 37.471 23.57 38.041 23.16C38.621 22.75 39.381 22.47 40.321 22.32L42.286 22.035V21.765C42.286 21.375 42.196 21.075 42.016 20.865C41.836 20.655 41.521 20.55 41.071 20.55C40.741 20.55 40.476 20.615 40.276 20.745C40.076 20.875 39.921 21.045 39.811 21.255C39.731 21.385 39.616 21.45 39.466 21.45H38.041C37.931 21.45 37.846 21.42 37.786 21.36C37.726 21.29 37.701 21.21 37.711 21.12C37.711 20.95 37.776 20.75 37.906 20.52C38.036 20.29 38.236 20.065 38.506 19.845C38.776 19.615 39.121 19.425 39.541 19.275C39.961 19.125 40.476 19.05 41.086 19.05C41.716 19.05 42.256 19.125 42.706 19.275C43.156 19.425 43.516 19.635 43.786 19.905C44.056 20.175 44.256 20.49 44.386 20.85C44.516 21.2 44.581 21.58 44.581 21.99V26.625C44.581 26.735 44.546 26.825 44.476 26.895C44.406 26.965 44.316 27 44.206 27H42.736C42.636 27 42.551 26.965 42.481 26.895C42.411 26.825 42.376 26.735 42.376 26.625V26.07C42.246 26.26 42.071 26.44 41.851 26.61C41.631 26.77 41.366 26.9 41.056 27C40.756 27.1 40.401 27.15 39.991 27.15ZM40.591 25.59C40.921 25.59 41.216 25.52 41.476 25.38C41.736 25.24 41.941 25.025 42.091 24.735C42.241 24.445 42.316 24.08 42.316 23.64V23.385L40.921 23.61C40.381 23.7 39.986 23.835 39.736 24.015C39.486 24.195 39.361 24.415 39.361 24.675C39.361 24.865 39.416 25.03 39.526 25.17C39.646 25.31 39.801 25.415 39.991 25.485C40.181 25.555 40.381 25.59 40.591 25.59ZM50.0886 27C49.4686 27 48.9386 26.9 48.4986 26.7C48.0586 26.49 47.7236 26.17 47.4936 25.74C47.2736 25.31 47.1636 24.77 47.1636 24.12V20.97H45.9936C45.8836 20.97 45.7936 20.935 45.7236 20.865C45.6536 20.795 45.6186 20.705 45.6186 20.595V19.575C45.6186 19.465 45.6536 19.375 45.7236 19.305C45.7936 19.235 45.8836 19.2 45.9936 19.2H47.1636V16.725C47.1636 16.615 47.1986 16.525 47.2686 16.455C47.3486 16.385 47.4386 16.35 47.5386 16.35H49.0086C49.1186 16.35 49.2086 16.385 49.2786 16.455C49.3486 16.525 49.3836 16.615 49.3836 16.725V19.2H51.2586C51.3586 19.2 51.4436 19.235 51.5136 19.305C51.5836 19.375 51.6186 19.465 51.6186 19.575V20.595C51.6186 20.705 51.5836 20.795 51.5136 20.865C51.4436 20.935 51.3586 20.97 51.2586 20.97H49.3836V23.94C49.3836 24.32 49.4486 24.62 49.5786 24.84C49.7186 25.05 49.9586 25.155 50.2986 25.155H51.3936C51.4936 25.155 51.5786 25.19 51.6486 25.26C51.7186 25.33 51.7536 25.415 51.7536 25.515V26.625C51.7536 26.735 51.7186 26.825 51.6486 26.895C51.5786 26.965 51.4936 27 51.3936 27H50.0886ZM56.8122 27C56.1922 27 55.6622 26.9 55.2222 26.7C54.7822 26.49 54.4472 26.17 54.2172 25.74C53.9972 25.31 53.8872 24.77 53.8872 24.12V20.97H52.7172C52.6072 20.97 52.5172 20.935 52.4472 20.865C52.3772 20.795 52.3422 20.705 52.3422 20.595V19.575C52.3422 19.465 52.3772 19.375 52.4472 19.305C52.5172 19.235 52.6072 19.2 52.7172 19.2H53.8872V16.725C53.8872 16.615 53.9222 16.525 53.9922 16.455C54.0722 16.385 54.1622 16.35 54.2622 16.35H55.7322C55.8422 16.35 55.9322 16.385 56.0022 16.455C56.0722 16.525 56.1072 16.615 56.1072 16.725V19.2H57.9822C58.0822 19.2 58.1672 19.235 58.2372 19.305C58.3072 19.375 58.3422 19.465 58.3422 19.575V20.595C58.3422 20.705 58.3072 20.795 58.2372 20.865C58.1672 20.935 58.0822 20.97 57.9822 20.97H56.1072V23.94C56.1072 24.32 56.1722 24.62 56.3022 24.84C56.4422 25.05 56.6822 25.155 57.0222 25.155H58.1172C58.2172 25.155 58.3022 25.19 58.3722 25.26C58.4422 25.33 58.4772 25.415 58.4772 25.515V26.625C58.4772 26.735 58.4422 26.825 58.3722 26.895C58.3022 26.965 58.2172 27 58.1172 27H56.8122ZM63.2658 27.15C62.1158 27.15 61.2008 26.83 60.5208 26.19C59.8508 25.55 59.4958 24.62 59.4558 23.4C59.4558 23.32 59.4558 23.215 59.4558 23.085C59.4558 22.945 59.4558 22.835 59.4558 22.755C59.4958 21.985 59.6708 21.325 59.9808 20.775C60.2908 20.215 60.7258 19.79 61.2858 19.5C61.8458 19.2 62.5008 19.05 63.2508 19.05C64.0908 19.05 64.7908 19.225 65.3508 19.575C65.9208 19.915 66.3458 20.385 66.6258 20.985C66.9158 21.575 67.0608 22.255 67.0608 23.025V23.37C67.0608 23.47 67.0208 23.555 66.9408 23.625C66.8708 23.695 66.7858 23.73 66.6858 23.73H61.7808C61.7808 23.74 61.7808 23.76 61.7808 23.79C61.7808 23.81 61.7808 23.83 61.7808 23.85C61.7908 24.17 61.8508 24.465 61.9608 24.735C62.0808 24.995 62.2458 25.205 62.4558 25.365C62.6758 25.525 62.9358 25.605 63.2358 25.605C63.4858 25.605 63.6908 25.57 63.8508 25.5C64.0108 25.43 64.1408 25.345 64.2408 25.245C64.3508 25.145 64.4308 25.06 64.4808 24.99C64.5708 24.89 64.6408 24.83 64.6908 24.81C64.7508 24.78 64.8408 24.765 64.9608 24.765H66.5208C66.6208 24.765 66.7008 24.795 66.7608 24.855C66.8308 24.905 66.8608 24.98 66.8508 25.08C66.8408 25.24 66.7558 25.44 66.5958 25.68C66.4458 25.91 66.2208 26.14 65.9208 26.37C65.6208 26.59 65.2458 26.775 64.7958 26.925C64.3558 27.075 63.8458 27.15 63.2658 27.15ZM61.7808 22.365H64.7208V22.335C64.7208 21.975 64.6608 21.665 64.5408 21.405C64.4308 21.135 64.2658 20.925 64.0458 20.775C63.8258 20.625 63.5608 20.55 63.2508 20.55C62.9408 20.55 62.6758 20.625 62.4558 20.775C62.2358 20.925 62.0658 21.135 61.9458 21.405C61.8358 21.665 61.7808 21.975 61.7808 22.335V22.365ZM68.9202 27C68.8202 27 68.7352 26.965 68.6652 26.895C68.5952 26.825 68.5602 26.735 68.5602 26.625V19.575C68.5602 19.465 68.5952 19.375 68.6652 19.305C68.7352 19.235 68.8202 19.2 68.9202 19.2H70.3902C70.5002 19.2 70.5902 19.235 70.6602 19.305C70.7302 19.375 70.7652 19.465 70.7652 19.575V20.16C71.0252 19.84 71.3602 19.575 71.7702 19.365C72.1802 19.155 72.6802 19.05 73.2702 19.05C73.8602 19.05 74.3752 19.185 74.8152 19.455C75.2652 19.715 75.6152 20.1 75.8652 20.61C76.1252 21.11 76.2552 21.72 76.2552 22.44V26.625C76.2552 26.735 76.2152 26.825 76.1352 26.895C76.0652 26.965 75.9802 27 75.8802 27H74.2902C74.1802 27 74.0902 26.965 74.0202 26.895C73.9502 26.825 73.9152 26.735 73.9152 26.625V22.53C73.9152 22 73.7852 21.59 73.5252 21.3C73.2752 21 72.9052 20.85 72.4152 20.85C71.9452 20.85 71.5702 21 71.2902 21.3C71.0102 21.59 70.8702 22 70.8702 22.53V26.625C70.8702 26.735 70.8352 26.825 70.7652 26.895C70.6952 26.965 70.6102 27 70.5102 27H68.9202ZM80.9474 27.15C80.4474 27.15 80.0024 27.07 79.6124 26.91C79.2224 26.74 78.8924 26.5 78.6224 26.19C78.3524 25.87 78.1474 25.495 78.0074 25.065C77.8674 24.625 77.7824 24.14 77.7524 23.61C77.7424 23.42 77.7374 23.25 77.7374 23.1C77.7374 22.94 77.7424 22.77 77.7524 22.59C77.7724 22.07 77.8524 21.595 77.9924 21.165C78.1424 20.735 78.3474 20.365 78.6074 20.055C78.8774 19.735 79.2074 19.49 79.5974 19.32C79.9974 19.14 80.4474 19.05 80.9474 19.05C81.4674 19.05 81.9124 19.14 82.2824 19.32C82.6524 19.49 82.9574 19.715 83.1974 19.995V16.725C83.1974 16.615 83.2324 16.525 83.3024 16.455C83.3724 16.385 83.4624 16.35 83.5724 16.35H85.1174C85.2174 16.35 85.3024 16.385 85.3724 16.455C85.4424 16.525 85.4774 16.615 85.4774 16.725V26.625C85.4774 26.735 85.4424 26.825 85.3724 26.895C85.3024 26.965 85.2174 27 85.1174 27H83.6774C83.5774 27 83.4924 26.965 83.4224 26.895C83.3524 26.825 83.3174 26.735 83.3174 26.625V26.115C83.0674 26.415 82.7524 26.665 82.3724 26.865C81.9924 27.055 81.5174 27.15 80.9474 27.15ZM81.6374 25.35C82.0074 25.35 82.3024 25.265 82.5224 25.095C82.7524 24.925 82.9174 24.71 83.0174 24.45C83.1274 24.19 83.1874 23.91 83.1974 23.61C83.2174 23.42 83.2274 23.23 83.2274 23.04C83.2274 22.85 83.2174 22.665 83.1974 22.485C83.1874 22.205 83.1274 21.945 83.0174 21.705C82.9074 21.455 82.7374 21.25 82.5074 21.09C82.2874 20.93 81.9974 20.85 81.6374 20.85C81.2574 20.85 80.9574 20.935 80.7374 21.105C80.5174 21.265 80.3574 21.48 80.2574 21.75C80.1674 22.02 80.1124 22.315 80.0924 22.635C80.0624 22.945 80.0624 23.255 80.0924 23.565C80.1124 23.885 80.1674 24.18 80.2574 24.45C80.3574 24.72 80.5174 24.94 80.7374 25.11C80.9574 25.27 81.2574 25.35 81.6374 25.35ZM89.6785 27.15C89.1485 27.15 88.6735 27.05 88.2535 26.85C87.8335 26.64 87.4985 26.36 87.2485 26.01C86.9985 25.66 86.8735 25.27 86.8735 24.84C86.8735 24.13 87.1585 23.57 87.7285 23.16C88.3085 22.75 89.0685 22.47 90.0085 22.32L91.9735 22.035V21.765C91.9735 21.375 91.8835 21.075 91.7035 20.865C91.5235 20.655 91.2085 20.55 90.7585 20.55C90.4285 20.55 90.1635 20.615 89.9635 20.745C89.7635 20.875 89.6085 21.045 89.4985 21.255C89.4185 21.385 89.3035 21.45 89.1535 21.45H87.7285C87.6185 21.45 87.5335 21.42 87.4735 21.36C87.4135 21.29 87.3885 21.21 87.3985 21.12C87.3985 20.95 87.4635 20.75 87.5935 20.52C87.7235 20.29 87.9235 20.065 88.1935 19.845C88.4635 19.615 88.8085 19.425 89.2285 19.275C89.6485 19.125 90.1635 19.05 90.7735 19.05C91.4035 19.05 91.9435 19.125 92.3935 19.275C92.8435 19.425 93.2035 19.635 93.4735 19.905C93.7435 20.175 93.9435 20.49 94.0735 20.85C94.2035 21.2 94.2685 21.58 94.2685 21.99V26.625C94.2685 26.735 94.2335 26.825 94.1635 26.895C94.0935 26.965 94.0035 27 93.8935 27H92.4235C92.3235 27 92.2385 26.965 92.1685 26.895C92.0985 26.825 92.0635 26.735 92.0635 26.625V26.07C91.9335 26.26 91.7585 26.44 91.5385 26.61C91.3185 26.77 91.0535 26.9 90.7435 27C90.4435 27.1 90.0885 27.15 89.6785 27.15ZM90.2785 25.59C90.6085 25.59 90.9035 25.52 91.1635 25.38C91.4235 25.24 91.6285 25.025 91.7785 24.735C91.9285 24.445 92.0035 24.08 92.0035 23.64V23.385L90.6085 23.61C90.0685 23.7 89.6735 23.835 89.4235 24.015C89.1735 24.195 89.0485 24.415 89.0485 24.675C89.0485 24.865 89.1035 25.03 89.2135 25.17C89.3335 25.31 89.4885 25.415 89.6785 25.485C89.8685 25.555 90.0685 25.59 90.2785 25.59ZM96.4446 27C96.3446 27 96.2596 26.965 96.1896 26.895C96.1196 26.825 96.0846 26.735 96.0846 26.625V19.575C96.0846 19.465 96.1196 19.375 96.1896 19.305C96.2596 19.235 96.3446 19.2 96.4446 19.2H97.9146C98.0246 19.2 98.1146 19.235 98.1846 19.305C98.2546 19.375 98.2896 19.465 98.2896 19.575V20.16C98.5496 19.84 98.8846 19.575 99.2946 19.365C99.7046 19.155 100.205 19.05 100.795 19.05C101.385 19.05 101.9 19.185 102.34 19.455C102.79 19.715 103.14 20.1 103.39 20.61C103.65 21.11 103.78 21.72 103.78 22.44V26.625C103.78 26.735 103.74 26.825 103.66 26.895C103.59 26.965 103.505 27 103.405 27H101.815C101.705 27 101.615 26.965 101.545 26.895C101.475 26.825 101.44 26.735 101.44 26.625V22.53C101.44 22 101.31 21.59 101.05 21.3C100.8 21 100.43 20.85 99.9396 20.85C99.4696 20.85 99.0946 21 98.8146 21.3C98.5346 21.59 98.3946 22 98.3946 22.53V26.625C98.3946 26.735 98.3596 26.825 98.2896 26.895C98.2196 26.965 98.1346 27 98.0346 27H96.4446ZM109.239 27C108.619 27 108.089 26.9 107.649 26.7C107.209 26.49 106.874 26.17 106.644 25.74C106.424 25.31 106.314 24.77 106.314 24.12V20.97H105.144C105.034 20.97 104.944 20.935 104.874 20.865C104.804 20.795 104.769 20.705 104.769 20.595V19.575C104.769 19.465 104.804 19.375 104.874 19.305C104.944 19.235 105.034 19.2 105.144 19.2H106.314V16.725C106.314 16.615 106.349 16.525 106.419 16.455C106.499 16.385 106.589 16.35 106.689 16.35H108.159C108.269 16.35 108.359 16.385 108.429 16.455C108.499 16.525 108.534 16.615 108.534 16.725V19.2H110.409C110.509 19.2 110.594 19.235 110.664 19.305C110.734 19.375 110.769 19.465 110.769 19.575V20.595C110.769 20.705 110.734 20.795 110.664 20.865C110.594 20.935 110.509 20.97 110.409 20.97H108.534V23.94C108.534 24.32 108.599 24.62 108.729 24.84C108.869 25.05 109.109 25.155 109.449 25.155H110.544C110.644 25.155 110.729 25.19 110.799 25.26C110.869 25.33 110.904 25.415 110.904 25.515V26.625C110.904 26.735 110.869 26.825 110.799 26.895C110.729 26.965 110.644 27 110.544 27H109.239Z" fill="#1D2B36"/>
</svg>
