<svg width="126" height="44" viewBox="0 0 126 44" fill="none" xmlns="http://www.w3.org/2000/svg">
  <rect width="126" height="44" rx="5" fill="#D23457"/>
  <path d="M38.485 27C38.375 27 38.285 26.965 38.215 26.895C38.145 26.825 38.11 26.735 38.11 26.625V16.875C38.11 16.765 38.145 16.675 38.215 16.605C38.285 16.535 38.375 16.5 38.485 16.5H42.46C43.71 16.5 44.695 16.79 45.415 17.37C46.135 17.94 46.495 18.765 46.495 19.845C46.495 20.575 46.32 21.185 45.97 21.675C45.62 22.165 45.15 22.53 44.56 22.77L46.675 26.52C46.705 26.58 46.72 26.635 46.72 26.685C46.72 26.765 46.69 26.84 46.63 26.91C46.57 26.97 46.495 27 46.405 27H44.74C44.56 27 44.425 26.955 44.335 26.865C44.245 26.765 44.18 26.675 44.14 26.595L42.31 23.16H40.495V26.625C40.495 26.735 40.46 26.825 40.39 26.895C40.32 26.965 40.23 27 40.12 27H38.485ZM40.495 21.255H42.415C42.965 21.255 43.37 21.13 43.63 20.88C43.9 20.63 44.035 20.28 44.035 19.83C44.035 19.38 43.905 19.025 43.645 18.765C43.385 18.505 42.975 18.375 42.415 18.375H40.495V21.255ZM51.5471 27.15C50.3971 27.15 49.4821 26.83 48.8021 26.19C48.1321 25.55 47.7771 24.62 47.7371 23.4C47.7371 23.32 47.7371 23.215 47.7371 23.085C47.7371 22.945 47.7371 22.835 47.7371 22.755C47.7771 21.985 47.9521 21.325 48.2621 20.775C48.5721 20.215 49.0071 19.79 49.5671 19.5C50.1271 19.2 50.7821 19.05 51.5321 19.05C52.3721 19.05 53.0721 19.225 53.6321 19.575C54.2021 19.915 54.6271 20.385 54.9071 20.985C55.1971 21.575 55.3421 22.255 55.3421 23.025V23.37C55.3421 23.47 55.3021 23.555 55.2221 23.625C55.1521 23.695 55.0671 23.73 54.9671 23.73H50.0621C50.0621 23.74 50.0621 23.76 50.0621 23.79C50.0621 23.81 50.0621 23.83 50.0621 23.85C50.0721 24.17 50.1321 24.465 50.2421 24.735C50.3621 24.995 50.5271 25.205 50.7371 25.365C50.9571 25.525 51.2171 25.605 51.5171 25.605C51.7671 25.605 51.9721 25.57 52.1321 25.5C52.2921 25.43 52.4221 25.345 52.5221 25.245C52.6321 25.145 52.7121 25.06 52.7621 24.99C52.8521 24.89 52.9221 24.83 52.9721 24.81C53.0321 24.78 53.1221 24.765 53.2421 24.765H54.8021C54.9021 24.765 54.9821 24.795 55.0421 24.855C55.1121 24.905 55.1421 24.98 55.1321 25.08C55.1221 25.24 55.0371 25.44 54.8771 25.68C54.7271 25.91 54.5021 26.14 54.2021 26.37C53.9021 26.59 53.5271 26.775 53.0771 26.925C52.6371 27.075 52.1271 27.15 51.5471 27.15ZM50.0621 22.365H53.0021V22.335C53.0021 21.975 52.9421 21.665 52.8221 21.405C52.7121 21.135 52.5471 20.925 52.3271 20.775C52.1071 20.625 51.8421 20.55 51.5321 20.55C51.2221 20.55 50.9571 20.625 50.7371 20.775C50.5171 20.925 50.3471 21.135 50.2271 21.405C50.1171 21.665 50.0621 21.975 50.0621 22.335V22.365ZM58.0129 27C57.9029 27 57.8129 26.965 57.7429 26.895C57.6729 26.825 57.6379 26.735 57.6379 26.625V20.97H56.4679C56.3579 20.97 56.2679 20.935 56.1979 20.865C56.1279 20.795 56.0929 20.705 56.0929 20.595V19.575C56.0929 19.465 56.1279 19.375 56.1979 19.305C56.2679 19.235 56.3579 19.2 56.4679 19.2H57.6379V18.66C57.6379 18.02 57.7579 17.495 57.9979 17.085C58.2379 16.675 58.5879 16.375 59.0479 16.185C59.5079 15.995 60.0729 15.9 60.7429 15.9H61.8379C61.9479 15.9 62.0379 15.935 62.1079 16.005C62.1779 16.075 62.2129 16.165 62.2129 16.275V17.295C62.2129 17.405 62.1779 17.495 62.1079 17.565C62.0379 17.635 61.9479 17.67 61.8379 17.67H60.8329C60.4629 17.67 60.2029 17.76 60.0529 17.94C59.9129 18.12 59.8429 18.385 59.8429 18.735V19.2H61.6879C61.7979 19.2 61.8879 19.235 61.9579 19.305C62.0279 19.375 62.0629 19.465 62.0629 19.575V20.595C62.0629 20.705 62.0279 20.795 61.9579 20.865C61.8879 20.935 61.7979 20.97 61.6879 20.97H59.8429V26.625C59.8429 26.735 59.8079 26.825 59.7379 26.895C59.6679 26.965 59.5829 27 59.4829 27H58.0129ZM66.0639 27.15C65.4839 27.15 64.9689 27.02 64.5189 26.76C64.0789 26.49 63.7339 26.105 63.4839 25.605C63.2439 25.095 63.1239 24.48 63.1239 23.76V19.575C63.1239 19.465 63.1589 19.375 63.2289 19.305C63.2989 19.235 63.3839 19.2 63.4839 19.2H65.0739C65.1839 19.2 65.2739 19.235 65.3439 19.305C65.4139 19.375 65.4489 19.465 65.4489 19.575V23.67C65.4489 24.79 65.9389 25.35 66.9189 25.35C67.3889 25.35 67.7589 25.205 68.0289 24.915C68.3089 24.615 68.4489 24.2 68.4489 23.67V19.575C68.4489 19.465 68.4839 19.375 68.5539 19.305C68.6239 19.235 68.7139 19.2 68.8239 19.2H70.4139C70.5139 19.2 70.5989 19.235 70.6689 19.305C70.7389 19.375 70.7739 19.465 70.7739 19.575V26.625C70.7739 26.735 70.7389 26.825 70.6689 26.895C70.5989 26.965 70.5139 27 70.4139 27H68.9439C68.8339 27 68.7439 26.965 68.6739 26.895C68.6039 26.825 68.5689 26.735 68.5689 26.625V26.04C68.3089 26.4 67.9739 26.675 67.5639 26.865C67.1539 27.055 66.6539 27.15 66.0639 27.15ZM75.7368 27.15C75.1168 27.15 74.5818 27.08 74.1318 26.94C73.6918 26.79 73.3318 26.61 73.0518 26.4C72.7818 26.19 72.5768 25.98 72.4368 25.77C72.3068 25.55 72.2368 25.365 72.2268 25.215C72.2168 25.105 72.2518 25.015 72.3318 24.945C72.4118 24.875 72.4918 24.84 72.5718 24.84H74.0268C74.0568 24.84 74.0868 24.845 74.1168 24.855C74.1468 24.865 74.1768 24.89 74.2068 24.93C74.3368 25.02 74.4718 25.125 74.6118 25.245C74.7518 25.355 74.9118 25.45 75.0918 25.53C75.2818 25.61 75.5168 25.65 75.7968 25.65C76.1268 25.65 76.4068 25.585 76.6368 25.455C76.8668 25.315 76.9818 25.12 76.9818 24.87C76.9818 24.69 76.9268 24.54 76.8168 24.42C76.7168 24.3 76.5218 24.19 76.2318 24.09C75.9418 23.99 75.5118 23.88 74.9418 23.76C74.4018 23.64 73.9418 23.48 73.5618 23.28C73.1818 23.08 72.8968 22.83 72.7068 22.53C72.5168 22.22 72.4218 21.85 72.4218 21.42C72.4218 21.03 72.5418 20.655 72.7818 20.295C73.0318 19.935 73.3968 19.64 73.8768 19.41C74.3568 19.17 74.9568 19.05 75.6768 19.05C76.2268 19.05 76.7068 19.12 77.1168 19.26C77.5368 19.39 77.8868 19.56 78.1668 19.77C78.4468 19.97 78.6568 20.18 78.7968 20.4C78.9468 20.61 79.0268 20.795 79.0368 20.955C79.0468 21.055 79.0168 21.14 78.9468 21.21C78.8768 21.28 78.7968 21.315 78.7068 21.315H77.3718C77.3218 21.315 77.2768 21.31 77.2368 21.3C77.1968 21.28 77.1618 21.255 77.1318 21.225C77.0118 21.145 76.8868 21.055 76.7568 20.955C76.6368 20.845 76.4918 20.75 76.3218 20.67C76.1518 20.59 75.9318 20.55 75.6618 20.55C75.3318 20.55 75.0768 20.625 74.8968 20.775C74.7268 20.915 74.6418 21.095 74.6418 21.315C74.6418 21.455 74.6868 21.585 74.7768 21.705C74.8668 21.825 75.0518 21.935 75.3318 22.035C75.6118 22.135 76.0368 22.24 76.6068 22.35C77.2868 22.47 77.8268 22.65 78.2268 22.89C78.6268 23.13 78.9118 23.41 79.0818 23.73C79.2618 24.04 79.3518 24.375 79.3518 24.735C79.3518 25.205 79.2118 25.625 78.9318 25.995C78.6518 26.355 78.2418 26.64 77.7018 26.85C77.1718 27.05 76.5168 27.15 75.7368 27.15ZM84.2717 27.15C83.1217 27.15 82.2067 26.83 81.5267 26.19C80.8567 25.55 80.5017 24.62 80.4617 23.4C80.4617 23.32 80.4617 23.215 80.4617 23.085C80.4617 22.945 80.4617 22.835 80.4617 22.755C80.5017 21.985 80.6767 21.325 80.9867 20.775C81.2967 20.215 81.7317 19.79 82.2917 19.5C82.8517 19.2 83.5067 19.05 84.2567 19.05C85.0967 19.05 85.7967 19.225 86.3567 19.575C86.9267 19.915 87.3517 20.385 87.6317 20.985C87.9217 21.575 88.0667 22.255 88.0667 23.025V23.37C88.0667 23.47 88.0267 23.555 87.9467 23.625C87.8767 23.695 87.7917 23.73 87.6917 23.73H82.7867C82.7867 23.74 82.7867 23.76 82.7867 23.79C82.7867 23.81 82.7867 23.83 82.7867 23.85C82.7967 24.17 82.8567 24.465 82.9667 24.735C83.0867 24.995 83.2517 25.205 83.4617 25.365C83.6817 25.525 83.9417 25.605 84.2417 25.605C84.4917 25.605 84.6967 25.57 84.8567 25.5C85.0167 25.43 85.1467 25.345 85.2467 25.245C85.3567 25.145 85.4367 25.06 85.4867 24.99C85.5767 24.89 85.6467 24.83 85.6967 24.81C85.7567 24.78 85.8467 24.765 85.9667 24.765H87.5267C87.6267 24.765 87.7067 24.795 87.7667 24.855C87.8367 24.905 87.8667 24.98 87.8567 25.08C87.8467 25.24 87.7617 25.44 87.6017 25.68C87.4517 25.91 87.2267 26.14 86.9267 26.37C86.6267 26.59 86.2517 26.775 85.8017 26.925C85.3617 27.075 84.8517 27.15 84.2717 27.15ZM82.7867 22.365H85.7267V22.335C85.7267 21.975 85.6667 21.665 85.5467 21.405C85.4367 21.135 85.2717 20.925 85.0517 20.775C84.8317 20.625 84.5667 20.55 84.2567 20.55C83.9467 20.55 83.6817 20.625 83.4617 20.775C83.2417 20.925 83.0717 21.135 82.9517 21.405C82.8417 21.665 82.7867 21.975 82.7867 22.335V22.365ZM83.4917 18.075C83.3317 18.075 83.2517 17.995 83.2517 17.835C83.2517 17.755 83.2767 17.69 83.3267 17.64L84.6017 16.095C84.6917 15.975 84.7717 15.9 84.8417 15.87C84.9217 15.83 85.0267 15.81 85.1567 15.81H86.8817C87.0717 15.81 87.1667 15.91 87.1667 16.11C87.1667 16.18 87.1417 16.24 87.0917 16.29L85.1567 17.865C85.0767 17.935 84.9967 17.99 84.9167 18.03C84.8467 18.06 84.7467 18.075 84.6167 18.075H83.4917Z" fill="white"/>
</svg>
