<svg width="126" height="44" viewBox="0 0 126 44" fill="none" xmlns="http://www.w3.org/2000/svg">
  <rect width="126" height="44" rx="5" fill="#F5C518"/>
  <path d="M23.485 27C23.375 27 23.285 26.965 23.215 26.895C23.145 26.825 23.11 26.735 23.11 26.625V16.875C23.11 16.765 23.145 16.675 23.215 16.605C23.285 16.535 23.375 16.5 23.485 16.5H30.28C30.39 16.5 30.48 16.535 30.55 16.605C30.62 16.675 30.655 16.765 30.655 16.875V18.075C30.655 18.175 30.62 18.26 30.55 18.33C30.48 18.4 30.39 18.435 30.28 18.435H25.42V20.79H29.95C30.06 20.79 30.15 20.825 30.22 20.895C30.29 20.965 30.325 21.055 30.325 21.165V22.275C30.325 22.375 30.29 22.46 30.22 22.53C30.15 22.6 30.06 22.635 29.95 22.635H25.42V25.065H30.4C30.51 25.065 30.6 25.1 30.67 25.17C30.74 25.24 30.775 25.33 30.775 25.44V26.625C30.775 26.735 30.74 26.825 30.67 26.895C30.6 26.965 30.51 27 30.4 27H23.485ZM32.7532 27C32.6532 27 32.5682 26.965 32.4982 26.895C32.4282 26.825 32.3932 26.735 32.3932 26.625V19.575C32.3932 19.465 32.4282 19.375 32.4982 19.305C32.5682 19.235 32.6532 19.2 32.7532 19.2H34.2232C34.3332 19.2 34.4232 19.235 34.4932 19.305C34.5632 19.375 34.5982 19.465 34.5982 19.575V20.16C34.8582 19.84 35.1932 19.575 35.6032 19.365C36.0132 19.155 36.5132 19.05 37.1032 19.05C37.6932 19.05 38.2082 19.185 38.6482 19.455C39.0982 19.715 39.4482 20.1 39.6982 20.61C39.9582 21.11 40.0882 21.72 40.0882 22.44V26.625C40.0882 26.735 40.0482 26.825 39.9682 26.895C39.8982 26.965 39.8132 27 39.7132 27H38.1232C38.0132 27 37.9232 26.965 37.8532 26.895C37.7832 26.825 37.7482 26.735 37.7482 26.625V22.53C37.7482 22 37.6182 21.59 37.3582 21.3C37.1082 21 36.7382 20.85 36.2482 20.85C35.7782 20.85 35.4032 21 35.1232 21.3C34.8432 21.59 34.7032 22 34.7032 22.53V26.625C34.7032 26.735 34.6682 26.825 34.5982 26.895C34.5282 26.965 34.4432 27 34.3432 27H32.7532ZM47.491 27.15C46.961 27.15 46.486 27.05 46.066 26.85C45.646 26.64 45.311 26.36 45.061 26.01C44.811 25.66 44.686 25.27 44.686 24.84C44.686 24.13 44.971 23.57 45.541 23.16C46.121 22.75 46.881 22.47 47.821 22.32L49.786 22.035V21.765C49.786 21.375 49.696 21.075 49.516 20.865C49.336 20.655 49.021 20.55 48.571 20.55C48.241 20.55 47.976 20.615 47.776 20.745C47.576 20.875 47.421 21.045 47.311 21.255C47.231 21.385 47.116 21.45 46.966 21.45H45.541C45.431 21.45 45.346 21.42 45.286 21.36C45.226 21.29 45.201 21.21 45.211 21.12C45.211 20.95 45.276 20.75 45.406 20.52C45.536 20.29 45.736 20.065 46.006 19.845C46.276 19.615 46.621 19.425 47.041 19.275C47.461 19.125 47.976 19.05 48.586 19.05C49.216 19.05 49.756 19.125 50.206 19.275C50.656 19.425 51.016 19.635 51.286 19.905C51.556 20.175 51.756 20.49 51.886 20.85C52.016 21.2 52.081 21.58 52.081 21.99V26.625C52.081 26.735 52.046 26.825 51.976 26.895C51.906 26.965 51.816 27 51.706 27H50.236C50.136 27 50.051 26.965 49.981 26.895C49.911 26.825 49.876 26.735 49.876 26.625V26.07C49.746 26.26 49.571 26.44 49.351 26.61C49.131 26.77 48.866 26.9 48.556 27C48.256 27.1 47.901 27.15 47.491 27.15ZM48.091 25.59C48.421 25.59 48.716 25.52 48.976 25.38C49.236 25.24 49.441 25.025 49.591 24.735C49.741 24.445 49.816 24.08 49.816 23.64V23.385L48.421 23.61C47.881 23.7 47.486 23.835 47.236 24.015C46.986 24.195 46.861 24.415 46.861 24.675C46.861 24.865 46.916 25.03 47.026 25.17C47.146 25.31 47.301 25.415 47.491 25.485C47.681 25.555 47.881 25.59 48.091 25.59ZM57.5886 27C56.9686 27 56.4386 26.9 55.9986 26.7C55.5586 26.49 55.2236 26.17 54.9936 25.74C54.7736 25.31 54.6636 24.77 54.6636 24.12V20.97H53.4936C53.3836 20.97 53.2936 20.935 53.2236 20.865C53.1536 20.795 53.1186 20.705 53.1186 20.595V19.575C53.1186 19.465 53.1536 19.375 53.2236 19.305C53.2936 19.235 53.3836 19.2 53.4936 19.2H54.6636V16.725C54.6636 16.615 54.6986 16.525 54.7686 16.455C54.8486 16.385 54.9386 16.35 55.0386 16.35H56.5086C56.6186 16.35 56.7086 16.385 56.7786 16.455C56.8486 16.525 56.8836 16.615 56.8836 16.725V19.2H58.7586C58.8586 19.2 58.9436 19.235 59.0136 19.305C59.0836 19.375 59.1186 19.465 59.1186 19.575V20.595C59.1186 20.705 59.0836 20.795 59.0136 20.865C58.9436 20.935 58.8586 20.97 58.7586 20.97H56.8836V23.94C56.8836 24.32 56.9486 24.62 57.0786 24.84C57.2186 25.05 57.4586 25.155 57.7986 25.155H58.8936C58.9936 25.155 59.0786 25.19 59.1486 25.26C59.2186 25.33 59.2536 25.415 59.2536 25.515V26.625C59.2536 26.735 59.2186 26.825 59.1486 26.895C59.0786 26.965 58.9936 27 58.8936 27H57.5886ZM64.3122 27C63.6922 27 63.1622 26.9 62.7222 26.7C62.2822 26.49 61.9472 26.17 61.7172 25.74C61.4972 25.31 61.3872 24.77 61.3872 24.12V20.97H60.2172C60.1072 20.97 60.0172 20.935 59.9472 20.865C59.8772 20.795 59.8422 20.705 59.8422 20.595V19.575C59.8422 19.465 59.8772 19.375 59.9472 19.305C60.0172 19.235 60.1072 19.2 60.2172 19.2H61.3872V16.725C61.3872 16.615 61.4222 16.525 61.4922 16.455C61.5722 16.385 61.6622 16.35 61.7622 16.35H63.2322C63.3422 16.35 63.4322 16.385 63.5022 16.455C63.5722 16.525 63.6072 16.615 63.6072 16.725V19.2H65.4822C65.5822 19.2 65.6672 19.235 65.7372 19.305C65.8072 19.375 65.8422 19.465 65.8422 19.575V20.595C65.8422 20.705 65.8072 20.795 65.7372 20.865C65.6672 20.935 65.5822 20.97 65.4822 20.97H63.6072V23.94C63.6072 24.32 63.6722 24.62 63.8022 24.84C63.9422 25.05 64.1822 25.155 64.5222 25.155H65.6172C65.7172 25.155 65.8022 25.19 65.8722 25.26C65.9422 25.33 65.9772 25.415 65.9772 25.515V26.625C65.9772 26.735 65.9422 26.825 65.8722 26.895C65.8022 26.965 65.7172 27 65.6172 27H64.3122ZM70.7658 27.15C69.6158 27.15 68.7008 26.83 68.0208 26.19C67.3508 25.55 66.9958 24.62 66.9558 23.4C66.9558 23.32 66.9558 23.215 66.9558 23.085C66.9558 22.945 66.9558 22.835 66.9558 22.755C66.9958 21.985 67.1708 21.325 67.4808 20.775C67.7908 20.215 68.2258 19.79 68.7858 19.5C69.3458 19.2 70.0008 19.05 70.7508 19.05C71.5908 19.05 72.2908 19.225 72.8508 19.575C73.4208 19.915 73.8458 20.385 74.1258 20.985C74.4158 21.575 74.5608 22.255 74.5608 23.025V23.37C74.5608 23.47 74.5208 23.555 74.4408 23.625C74.3708 23.695 74.2858 23.73 74.1858 23.73H69.2808C69.2808 23.74 69.2808 23.76 69.2808 23.79C69.2808 23.81 69.2808 23.83 69.2808 23.85C69.2908 24.17 69.3508 24.465 69.4608 24.735C69.5808 24.995 69.7458 25.205 69.9558 25.365C70.1758 25.525 70.4358 25.605 70.7358 25.605C70.9858 25.605 71.1908 25.57 71.3508 25.5C71.5108 25.43 71.6408 25.345 71.7408 25.245C71.8508 25.145 71.9308 25.06 71.9808 24.99C72.0708 24.89 72.1408 24.83 72.1908 24.81C72.2508 24.78 72.3408 24.765 72.4608 24.765H74.0208C74.1208 24.765 74.2008 24.795 74.2608 24.855C74.3308 24.905 74.3608 24.98 74.3508 25.08C74.3408 25.24 74.2558 25.44 74.0958 25.68C73.9458 25.91 73.7208 26.14 73.4208 26.37C73.1208 26.59 72.7458 26.775 72.2958 26.925C71.8558 27.075 71.3458 27.15 70.7658 27.15ZM69.2808 22.365H72.2208V22.335C72.2208 21.975 72.1608 21.665 72.0408 21.405C71.9308 21.135 71.7658 20.925 71.5458 20.775C71.3258 20.625 71.0608 20.55 70.7508 20.55C70.4408 20.55 70.1758 20.625 69.9558 20.775C69.7358 20.925 69.5658 21.135 69.4458 21.405C69.3358 21.665 69.2808 21.975 69.2808 22.335V22.365ZM76.4202 27C76.3202 27 76.2352 26.965 76.1652 26.895C76.0952 26.825 76.0602 26.735 76.0602 26.625V19.575C76.0602 19.465 76.0952 19.375 76.1652 19.305C76.2352 19.235 76.3202 19.2 76.4202 19.2H77.8902C78.0002 19.2 78.0902 19.235 78.1602 19.305C78.2302 19.375 78.2652 19.465 78.2652 19.575V20.16C78.5252 19.84 78.8602 19.575 79.2702 19.365C79.6802 19.155 80.1802 19.05 80.7702 19.05C81.3602 19.05 81.8752 19.185 82.3152 19.455C82.7652 19.715 83.1152 20.1 83.3652 20.61C83.6252 21.11 83.7552 21.72 83.7552 22.44V26.625C83.7552 26.735 83.7152 26.825 83.6352 26.895C83.5652 26.965 83.4802 27 83.3802 27H81.7902C81.6802 27 81.5902 26.965 81.5202 26.895C81.4502 26.825 81.4152 26.735 81.4152 26.625V22.53C81.4152 22 81.2852 21.59 81.0252 21.3C80.7752 21 80.4052 20.85 79.9152 20.85C79.4452 20.85 79.0702 21 78.7902 21.3C78.5102 21.59 78.3702 22 78.3702 22.53V26.625C78.3702 26.735 78.3352 26.825 78.2652 26.895C78.1952 26.965 78.1102 27 78.0102 27H76.4202ZM89.2145 27C88.5945 27 88.0645 26.9 87.6245 26.7C87.1845 26.49 86.8495 26.17 86.6195 25.74C86.3995 25.31 86.2895 24.77 86.2895 24.12V20.97H85.1195C85.0095 20.97 84.9195 20.935 84.8495 20.865C84.7795 20.795 84.7445 20.705 84.7445 20.595V19.575C84.7445 19.465 84.7795 19.375 84.8495 19.305C84.9195 19.235 85.0095 19.2 85.1195 19.2H86.2895V16.725C86.2895 16.615 86.3245 16.525 86.3945 16.455C86.4745 16.385 86.5645 16.35 86.6645 16.35H88.1345C88.2445 16.35 88.3345 16.385 88.4045 16.455C88.4745 16.525 88.5095 16.615 88.5095 16.725V19.2H90.3845C90.4845 19.2 90.5695 19.235 90.6395 19.305C90.7095 19.375 90.7445 19.465 90.7445 19.575V20.595C90.7445 20.705 90.7095 20.795 90.6395 20.865C90.5695 20.935 90.4845 20.97 90.3845 20.97H88.5095V23.94C88.5095 24.32 88.5745 24.62 88.7045 24.84C88.8445 25.05 89.0845 25.155 89.4245 25.155H90.5195C90.6195 25.155 90.7045 25.19 90.7745 25.26C90.8445 25.33 90.8795 25.415 90.8795 25.515V26.625C90.8795 26.735 90.8445 26.825 90.7745 26.895C90.7045 26.965 90.6195 27 90.5195 27H89.2145ZM95.6682 27.15C94.5182 27.15 93.6032 26.83 92.9232 26.19C92.2532 25.55 91.8982 24.62 91.8582 23.4C91.8582 23.32 91.8582 23.215 91.8582 23.085C91.8582 22.945 91.8582 22.835 91.8582 22.755C91.8982 21.985 92.0732 21.325 92.3832 20.775C92.6932 20.215 93.1282 19.79 93.6882 19.5C94.2482 19.2 94.9032 19.05 95.6532 19.05C96.4932 19.05 97.1932 19.225 97.7532 19.575C98.3232 19.915 98.7482 20.385 99.0282 20.985C99.3182 21.575 99.4632 22.255 99.4632 23.025V23.37C99.4632 23.47 99.4232 23.555 99.3432 23.625C99.2732 23.695 99.1882 23.73 99.0882 23.73H94.1832C94.1832 23.74 94.1832 23.76 94.1832 23.79C94.1832 23.81 94.1832 23.83 94.1832 23.85C94.1932 24.17 94.2532 24.465 94.3632 24.735C94.4832 24.995 94.6482 25.205 94.8582 25.365C95.0782 25.525 95.3382 25.605 95.6382 25.605C95.8882 25.605 96.0932 25.57 96.2532 25.5C96.4132 25.43 96.5432 25.345 96.6432 25.245C96.7532 25.145 96.8332 25.06 96.8832 24.99C96.9732 24.89 97.0432 24.83 97.0932 24.81C97.1532 24.78 97.2432 24.765 97.3632 24.765H98.9232C99.0232 24.765 99.1032 24.795 99.1632 24.855C99.2332 24.905 99.2632 24.98 99.2532 25.08C99.2432 25.24 99.1582 25.44 98.9982 25.68C98.8482 25.91 98.6232 26.14 98.3232 26.37C98.0232 26.59 97.6482 26.775 97.1982 26.925C96.7582 27.075 96.2482 27.15 95.6682 27.15ZM94.1832 22.365H97.1232V22.335C97.1232 21.975 97.0632 21.665 96.9432 21.405C96.8332 21.135 96.6682 20.925 96.4482 20.775C96.2282 20.625 95.9632 20.55 95.6532 20.55C95.3432 20.55 95.0782 20.625 94.8582 20.775C94.6382 20.925 94.4682 21.135 94.3482 21.405C94.2382 21.665 94.1832 21.975 94.1832 22.335V22.365Z" fill="#1D2B36"/>
</svg>
