<svg width="221" height="44" viewBox="0 0 221 44" fill="none" xmlns="http://www.w3.org/2000/svg">
  <rect width="221" height="44" rx="5" fill="#F5C518"/>
  <path d="M20.485 27C20.375 27 20.285 26.965 20.215 26.895C20.145 26.825 20.11 26.735 20.11 26.625V16.875C20.11 16.765 20.145 16.675 20.215 16.605C20.285 16.535 20.375 16.5 20.485 16.5H27.28C27.39 16.5 27.48 16.535 27.55 16.605C27.62 16.675 27.655 16.765 27.655 16.875V18.075C27.655 18.175 27.62 18.26 27.55 18.33C27.48 18.4 27.39 18.435 27.28 18.435H22.42V20.79H26.95C27.06 20.79 27.15 20.825 27.22 20.895C27.29 20.965 27.325 21.055 27.325 21.165V22.275C27.325 22.375 27.29 22.46 27.22 22.53C27.15 22.6 27.06 22.635 26.95 22.635H22.42V25.065H27.4C27.51 25.065 27.6 25.1 27.67 25.17C27.74 25.24 27.775 25.33 27.775 25.44V26.625C27.775 26.735 27.74 26.825 27.67 26.895C27.6 26.965 27.51 27 27.4 27H20.485ZM29.7532 27C29.6532 27 29.5682 26.965 29.4982 26.895C29.4282 26.825 29.3932 26.735 29.3932 26.625V19.575C29.3932 19.465 29.4282 19.375 29.4982 19.305C29.5682 19.235 29.6532 19.2 29.7532 19.2H31.2232C31.3332 19.2 31.4232 19.235 31.4932 19.305C31.5632 19.375 31.5982 19.465 31.5982 19.575V20.16C31.8582 19.84 32.1932 19.575 32.6032 19.365C33.0132 19.155 33.5132 19.05 34.1032 19.05C34.6932 19.05 35.2082 19.185 35.6482 19.455C36.0982 19.715 36.4482 20.1 36.6982 20.61C36.9582 21.11 37.0882 21.72 37.0882 22.44V26.625C37.0882 26.735 37.0482 26.825 36.9682 26.895C36.8982 26.965 36.8132 27 36.7132 27H35.1232C35.0132 27 34.9232 26.965 34.8532 26.895C34.7832 26.825 34.7482 26.735 34.7482 26.625V22.53C34.7482 22 34.6182 21.59 34.3582 21.3C34.1082 21 33.7382 20.85 33.2482 20.85C32.7782 20.85 32.4032 21 32.1232 21.3C31.8432 21.59 31.7032 22 31.7032 22.53V26.625C31.7032 26.735 31.6682 26.825 31.5982 26.895C31.5282 26.965 31.4432 27 31.3432 27H29.7532ZM44.491 27.15C43.961 27.15 43.486 27.05 43.066 26.85C42.646 26.64 42.311 26.36 42.061 26.01C41.811 25.66 41.686 25.27 41.686 24.84C41.686 24.13 41.971 23.57 42.541 23.16C43.121 22.75 43.881 22.47 44.821 22.32L46.786 22.035V21.765C46.786 21.375 46.696 21.075 46.516 20.865C46.336 20.655 46.021 20.55 45.571 20.55C45.241 20.55 44.976 20.615 44.776 20.745C44.576 20.875 44.421 21.045 44.311 21.255C44.231 21.385 44.116 21.45 43.966 21.45H42.541C42.431 21.45 42.346 21.42 42.286 21.36C42.226 21.29 42.201 21.21 42.211 21.12C42.211 20.95 42.276 20.75 42.406 20.52C42.536 20.29 42.736 20.065 43.006 19.845C43.276 19.615 43.621 19.425 44.041 19.275C44.461 19.125 44.976 19.05 45.586 19.05C46.216 19.05 46.756 19.125 47.206 19.275C47.656 19.425 48.016 19.635 48.286 19.905C48.556 20.175 48.756 20.49 48.886 20.85C49.016 21.2 49.081 21.58 49.081 21.99V26.625C49.081 26.735 49.046 26.825 48.976 26.895C48.906 26.965 48.816 27 48.706 27H47.236C47.136 27 47.051 26.965 46.981 26.895C46.911 26.825 46.876 26.735 46.876 26.625V26.07C46.746 26.26 46.571 26.44 46.351 26.61C46.131 26.77 45.866 26.9 45.556 27C45.256 27.1 44.901 27.15 44.491 27.15ZM45.091 25.59C45.421 25.59 45.716 25.52 45.976 25.38C46.236 25.24 46.441 25.025 46.591 24.735C46.741 24.445 46.816 24.08 46.816 23.64V23.385L45.421 23.61C44.881 23.7 44.486 23.835 44.236 24.015C43.986 24.195 43.861 24.415 43.861 24.675C43.861 24.865 43.916 25.03 44.026 25.17C44.146 25.31 44.301 25.415 44.491 25.485C44.681 25.555 44.881 25.59 45.091 25.59ZM54.5886 27C53.9686 27 53.4386 26.9 52.9986 26.7C52.5586 26.49 52.2236 26.17 51.9936 25.74C51.7736 25.31 51.6636 24.77 51.6636 24.12V20.97H50.4936C50.3836 20.97 50.2936 20.935 50.2236 20.865C50.1536 20.795 50.1186 20.705 50.1186 20.595V19.575C50.1186 19.465 50.1536 19.375 50.2236 19.305C50.2936 19.235 50.3836 19.2 50.4936 19.2H51.6636V16.725C51.6636 16.615 51.6986 16.525 51.7686 16.455C51.8486 16.385 51.9386 16.35 52.0386 16.35H53.5086C53.6186 16.35 53.7086 16.385 53.7786 16.455C53.8486 16.525 53.8836 16.615 53.8836 16.725V19.2H55.7586C55.8586 19.2 55.9436 19.235 56.0136 19.305C56.0836 19.375 56.1186 19.465 56.1186 19.575V20.595C56.1186 20.705 56.0836 20.795 56.0136 20.865C55.9436 20.935 55.8586 20.97 55.7586 20.97H53.8836V23.94C53.8836 24.32 53.9486 24.62 54.0786 24.84C54.2186 25.05 54.4586 25.155 54.7986 25.155H55.8936C55.9936 25.155 56.0786 25.19 56.1486 25.26C56.2186 25.33 56.2536 25.415 56.2536 25.515V26.625C56.2536 26.735 56.2186 26.825 56.1486 26.895C56.0786 26.965 55.9936 27 55.8936 27H54.5886ZM61.3122 27C60.6922 27 60.1622 26.9 59.7222 26.7C59.2822 26.49 58.9472 26.17 58.7172 25.74C58.4972 25.31 58.3872 24.77 58.3872 24.12V20.97H57.2172C57.1072 20.97 57.0172 20.935 56.9472 20.865C56.8772 20.795 56.8422 20.705 56.8422 20.595V19.575C56.8422 19.465 56.8772 19.375 56.9472 19.305C57.0172 19.235 57.1072 19.2 57.2172 19.2H58.3872V16.725C58.3872 16.615 58.4222 16.525 58.4922 16.455C58.5722 16.385 58.6622 16.35 58.7622 16.35H60.2322C60.3422 16.35 60.4322 16.385 60.5022 16.455C60.5722 16.525 60.6072 16.615 60.6072 16.725V19.2H62.4822C62.5822 19.2 62.6672 19.235 62.7372 19.305C62.8072 19.375 62.8422 19.465 62.8422 19.575V20.595C62.8422 20.705 62.8072 20.795 62.7372 20.865C62.6672 20.935 62.5822 20.97 62.4822 20.97H60.6072V23.94C60.6072 24.32 60.6722 24.62 60.8022 24.84C60.9422 25.05 61.1822 25.155 61.5222 25.155H62.6172C62.7172 25.155 62.8022 25.19 62.8722 25.26C62.9422 25.33 62.9772 25.415 62.9772 25.515V26.625C62.9772 26.735 62.9422 26.825 62.8722 26.895C62.8022 26.965 62.7172 27 62.6172 27H61.3122ZM67.7658 27.15C66.6158 27.15 65.7008 26.83 65.0208 26.19C64.3508 25.55 63.9958 24.62 63.9558 23.4C63.9558 23.32 63.9558 23.215 63.9558 23.085C63.9558 22.945 63.9558 22.835 63.9558 22.755C63.9958 21.985 64.1708 21.325 64.4808 20.775C64.7908 20.215 65.2258 19.79 65.7858 19.5C66.3458 19.2 67.0008 19.05 67.7508 19.05C68.5908 19.05 69.2908 19.225 69.8508 19.575C70.4208 19.915 70.8458 20.385 71.1258 20.985C71.4158 21.575 71.5608 22.255 71.5608 23.025V23.37C71.5608 23.47 71.5208 23.555 71.4408 23.625C71.3708 23.695 71.2858 23.73 71.1858 23.73H66.2808C66.2808 23.74 66.2808 23.76 66.2808 23.79C66.2808 23.81 66.2808 23.83 66.2808 23.85C66.2908 24.17 66.3508 24.465 66.4608 24.735C66.5808 24.995 66.7458 25.205 66.9558 25.365C67.1758 25.525 67.4358 25.605 67.7358 25.605C67.9858 25.605 68.1908 25.57 68.3508 25.5C68.5108 25.43 68.6408 25.345 68.7408 25.245C68.8508 25.145 68.9308 25.06 68.9808 24.99C69.0708 24.89 69.1408 24.83 69.1908 24.81C69.2508 24.78 69.3408 24.765 69.4608 24.765H71.0208C71.1208 24.765 71.2008 24.795 71.2608 24.855C71.3308 24.905 71.3608 24.98 71.3508 25.08C71.3408 25.24 71.2558 25.44 71.0958 25.68C70.9458 25.91 70.7208 26.14 70.4208 26.37C70.1208 26.59 69.7458 26.775 69.2958 26.925C68.8558 27.075 68.3458 27.15 67.7658 27.15ZM66.2808 22.365H69.2208V22.335C69.2208 21.975 69.1608 21.665 69.0408 21.405C68.9308 21.135 68.7658 20.925 68.5458 20.775C68.3258 20.625 68.0608 20.55 67.7508 20.55C67.4408 20.55 67.1758 20.625 66.9558 20.775C66.7358 20.925 66.5658 21.135 66.4458 21.405C66.3358 21.665 66.2808 21.975 66.2808 22.335V22.365ZM73.4202 27C73.3202 27 73.2352 26.965 73.1652 26.895C73.0952 26.825 73.0602 26.735 73.0602 26.625V19.575C73.0602 19.465 73.0952 19.375 73.1652 19.305C73.2352 19.235 73.3202 19.2 73.4202 19.2H74.8902C75.0002 19.2 75.0902 19.235 75.1602 19.305C75.2302 19.375 75.2652 19.465 75.2652 19.575V20.16C75.5252 19.84 75.8602 19.575 76.2702 19.365C76.6802 19.155 77.1802 19.05 77.7702 19.05C78.3602 19.05 78.8752 19.185 79.3152 19.455C79.7652 19.715 80.1152 20.1 80.3652 20.61C80.6252 21.11 80.7552 21.72 80.7552 22.44V26.625C80.7552 26.735 80.7152 26.825 80.6352 26.895C80.5652 26.965 80.4802 27 80.3802 27H78.7902C78.6802 27 78.5902 26.965 78.5202 26.895C78.4502 26.825 78.4152 26.735 78.4152 26.625V22.53C78.4152 22 78.2852 21.59 78.0252 21.3C77.7752 21 77.4052 20.85 76.9152 20.85C76.4452 20.85 76.0702 21 75.7902 21.3C75.5102 21.59 75.3702 22 75.3702 22.53V26.625C75.3702 26.735 75.3352 26.825 75.2652 26.895C75.1952 26.965 75.1102 27 75.0102 27H73.4202ZM86.2145 27C85.5945 27 85.0645 26.9 84.6245 26.7C84.1845 26.49 83.8495 26.17 83.6195 25.74C83.3995 25.31 83.2895 24.77 83.2895 24.12V20.97H82.1195C82.0095 20.97 81.9195 20.935 81.8495 20.865C81.7795 20.795 81.7445 20.705 81.7445 20.595V19.575C81.7445 19.465 81.7795 19.375 81.8495 19.305C81.9195 19.235 82.0095 19.2 82.1195 19.2H83.2895V16.725C83.2895 16.615 83.3245 16.525 83.3945 16.455C83.4745 16.385 83.5645 16.35 83.6645 16.35H85.1345C85.2445 16.35 85.3345 16.385 85.4045 16.455C85.4745 16.525 85.5095 16.615 85.5095 16.725V19.2H87.3845C87.4845 19.2 87.5695 19.235 87.6395 19.305C87.7095 19.375 87.7445 19.465 87.7445 19.575V20.595C87.7445 20.705 87.7095 20.795 87.6395 20.865C87.5695 20.935 87.4845 20.97 87.3845 20.97H85.5095V23.94C85.5095 24.32 85.5745 24.62 85.7045 24.84C85.8445 25.05 86.0845 25.155 86.4245 25.155H87.5195C87.6195 25.155 87.7045 25.19 87.7745 25.26C87.8445 25.33 87.8795 25.415 87.8795 25.515V26.625C87.8795 26.735 87.8445 26.825 87.7745 26.895C87.7045 26.965 87.6195 27 87.5195 27H86.2145ZM92.6682 27.15C91.5182 27.15 90.6032 26.83 89.9232 26.19C89.2532 25.55 88.8982 24.62 88.8582 23.4C88.8582 23.32 88.8582 23.215 88.8582 23.085C88.8582 22.945 88.8582 22.835 88.8582 22.755C88.8982 21.985 89.0732 21.325 89.3832 20.775C89.6932 20.215 90.1282 19.79 90.6882 19.5C91.2482 19.2 91.9032 19.05 92.6532 19.05C93.4932 19.05 94.1932 19.225 94.7532 19.575C95.3232 19.915 95.7482 20.385 96.0282 20.985C96.3182 21.575 96.4632 22.255 96.4632 23.025V23.37C96.4632 23.47 96.4232 23.555 96.3432 23.625C96.2732 23.695 96.1882 23.73 96.0882 23.73H91.1832C91.1832 23.74 91.1832 23.76 91.1832 23.79C91.1832 23.81 91.1832 23.83 91.1832 23.85C91.1932 24.17 91.2532 24.465 91.3632 24.735C91.4832 24.995 91.6482 25.205 91.8582 25.365C92.0782 25.525 92.3382 25.605 92.6382 25.605C92.8882 25.605 93.0932 25.57 93.2532 25.5C93.4132 25.43 93.5432 25.345 93.6432 25.245C93.7532 25.145 93.8332 25.06 93.8832 24.99C93.9732 24.89 94.0432 24.83 94.0932 24.81C94.1532 24.78 94.2432 24.765 94.3632 24.765H95.9232C96.0232 24.765 96.1032 24.795 96.1632 24.855C96.2332 24.905 96.2632 24.98 96.2532 25.08C96.2432 25.24 96.1582 25.44 95.9982 25.68C95.8482 25.91 95.6232 26.14 95.3232 26.37C95.0232 26.59 94.6482 26.775 94.1982 26.925C93.7582 27.075 93.2482 27.15 92.6682 27.15ZM91.1832 22.365H94.1232V22.335C94.1232 21.975 94.0632 21.665 93.9432 21.405C93.8332 21.135 93.6682 20.925 93.4482 20.775C93.2282 20.625 92.9632 20.55 92.6532 20.55C92.3432 20.55 92.0782 20.625 91.8582 20.775C91.6382 20.925 91.4682 21.135 91.3482 21.405C91.2382 21.665 91.1832 21.975 91.1832 22.335V22.365ZM104.168 27.15C103.668 27.15 103.223 27.07 102.833 26.91C102.443 26.74 102.113 26.5 101.843 26.19C101.573 25.87 101.368 25.495 101.228 25.065C101.088 24.625 101.003 24.14 100.973 23.61C100.963 23.42 100.958 23.25 100.958 23.1C100.958 22.94 100.963 22.77 100.973 22.59C100.993 22.07 101.073 21.595 101.213 21.165C101.363 20.735 101.568 20.365 101.828 20.055C102.098 19.735 102.428 19.49 102.818 19.32C103.218 19.14 103.668 19.05 104.168 19.05C104.688 19.05 105.133 19.14 105.503 19.32C105.873 19.49 106.178 19.715 106.418 19.995V16.725C106.418 16.615 106.453 16.525 106.523 16.455C106.593 16.385 106.683 16.35 106.793 16.35H108.338C108.438 16.35 108.523 16.385 108.593 16.455C108.663 16.525 108.698 16.615 108.698 16.725V26.625C108.698 26.735 108.663 26.825 108.593 26.895C108.523 26.965 108.438 27 108.338 27H106.898C106.798 27 106.713 26.965 106.643 26.895C106.573 26.825 106.538 26.735 106.538 26.625V26.115C106.288 26.415 105.973 26.665 105.593 26.865C105.213 27.055 104.738 27.15 104.168 27.15ZM104.858 25.35C105.228 25.35 105.523 25.265 105.743 25.095C105.973 24.925 106.138 24.71 106.238 24.45C106.348 24.19 106.408 23.91 106.418 23.61C106.438 23.42 106.448 23.23 106.448 23.04C106.448 22.85 106.438 22.665 106.418 22.485C106.408 22.205 106.348 21.945 106.238 21.705C106.128 21.455 105.958 21.25 105.728 21.09C105.508 20.93 105.218 20.85 104.858 20.85C104.478 20.85 104.178 20.935 103.958 21.105C103.738 21.265 103.578 21.48 103.478 21.75C103.388 22.02 103.333 22.315 103.313 22.635C103.283 22.945 103.283 23.255 103.313 23.565C103.333 23.885 103.388 24.18 103.478 24.45C103.578 24.72 103.738 24.94 103.958 25.11C104.178 25.27 104.478 25.35 104.858 25.35ZM114.084 27.15C112.934 27.15 112.019 26.83 111.339 26.19C110.669 25.55 110.314 24.62 110.274 23.4C110.274 23.32 110.274 23.215 110.274 23.085C110.274 22.945 110.274 22.835 110.274 22.755C110.314 21.985 110.489 21.325 110.799 20.775C111.109 20.215 111.544 19.79 112.104 19.5C112.664 19.2 113.319 19.05 114.069 19.05C114.909 19.05 115.609 19.225 116.169 19.575C116.739 19.915 117.164 20.385 117.444 20.985C117.734 21.575 117.879 22.255 117.879 23.025V23.37C117.879 23.47 117.839 23.555 117.759 23.625C117.689 23.695 117.604 23.73 117.504 23.73H112.599C112.599 23.74 112.599 23.76 112.599 23.79C112.599 23.81 112.599 23.83 112.599 23.85C112.609 24.17 112.669 24.465 112.779 24.735C112.899 24.995 113.064 25.205 113.274 25.365C113.494 25.525 113.754 25.605 114.054 25.605C114.304 25.605 114.509 25.57 114.669 25.5C114.829 25.43 114.959 25.345 115.059 25.245C115.169 25.145 115.249 25.06 115.299 24.99C115.389 24.89 115.459 24.83 115.509 24.81C115.569 24.78 115.659 24.765 115.779 24.765H117.339C117.439 24.765 117.519 24.795 117.579 24.855C117.649 24.905 117.679 24.98 117.669 25.08C117.659 25.24 117.574 25.44 117.414 25.68C117.264 25.91 117.039 26.14 116.739 26.37C116.439 26.59 116.064 26.775 115.614 26.925C115.174 27.075 114.664 27.15 114.084 27.15ZM112.599 22.365H115.539V22.335C115.539 21.975 115.479 21.665 115.359 21.405C115.249 21.135 115.084 20.925 114.864 20.775C114.644 20.625 114.379 20.55 114.069 20.55C113.759 20.55 113.494 20.625 113.274 20.775C113.054 20.925 112.884 21.135 112.764 21.405C112.654 21.665 112.599 21.975 112.599 22.335V22.365ZM126.132 27C125.512 27 124.982 26.9 124.542 26.7C124.102 26.49 123.767 26.17 123.537 25.74C123.317 25.31 123.207 24.77 123.207 24.12V20.97H122.037C121.927 20.97 121.837 20.935 121.767 20.865C121.697 20.795 121.662 20.705 121.662 20.595V19.575C121.662 19.465 121.697 19.375 121.767 19.305C121.837 19.235 121.927 19.2 122.037 19.2H123.207V16.725C123.207 16.615 123.242 16.525 123.312 16.455C123.392 16.385 123.482 16.35 123.582 16.35H125.052C125.162 16.35 125.252 16.385 125.322 16.455C125.392 16.525 125.427 16.615 125.427 16.725V19.2H127.302C127.402 19.2 127.487 19.235 127.557 19.305C127.627 19.375 127.662 19.465 127.662 19.575V20.595C127.662 20.705 127.627 20.795 127.557 20.865C127.487 20.935 127.402 20.97 127.302 20.97H125.427V23.94C125.427 24.32 125.492 24.62 125.622 24.84C125.762 25.05 126.002 25.155 126.342 25.155H127.437C127.537 25.155 127.622 25.19 127.692 25.26C127.762 25.33 127.797 25.415 127.797 25.515V26.625C127.797 26.735 127.762 26.825 127.692 26.895C127.622 26.965 127.537 27 127.437 27H126.132ZM129.465 27C129.365 27 129.28 26.965 129.21 26.895C129.14 26.825 129.105 26.735 129.105 26.625V19.575C129.105 19.475 129.14 19.39 129.21 19.32C129.28 19.24 129.365 19.2 129.465 19.2H130.935C131.035 19.2 131.12 19.24 131.19 19.32C131.27 19.39 131.31 19.475 131.31 19.575V20.175C131.56 19.865 131.865 19.625 132.225 19.455C132.595 19.285 133.02 19.2 133.5 19.2H134.145C134.245 19.2 134.33 19.235 134.4 19.305C134.47 19.375 134.505 19.465 134.505 19.575V20.865C134.505 20.975 134.47 21.065 134.4 21.135C134.33 21.205 134.245 21.24 134.145 21.24H132.825C132.385 21.24 132.04 21.365 131.79 21.615C131.54 21.855 131.415 22.2 131.415 22.65V26.625C131.415 26.735 131.38 26.825 131.31 26.895C131.24 26.965 131.15 27 131.04 27H129.465ZM137.787 27.15C137.257 27.15 136.782 27.05 136.362 26.85C135.942 26.64 135.607 26.36 135.357 26.01C135.107 25.66 134.982 25.27 134.982 24.84C134.982 24.13 135.267 23.57 135.837 23.16C136.417 22.75 137.177 22.47 138.117 22.32L140.082 22.035V21.765C140.082 21.375 139.992 21.075 139.812 20.865C139.632 20.655 139.317 20.55 138.867 20.55C138.537 20.55 138.272 20.615 138.072 20.745C137.872 20.875 137.717 21.045 137.607 21.255C137.527 21.385 137.412 21.45 137.262 21.45H135.837C135.727 21.45 135.642 21.42 135.582 21.36C135.522 21.29 135.497 21.21 135.507 21.12C135.507 20.95 135.572 20.75 135.702 20.52C135.832 20.29 136.032 20.065 136.302 19.845C136.572 19.615 136.917 19.425 137.337 19.275C137.757 19.125 138.272 19.05 138.882 19.05C139.512 19.05 140.052 19.125 140.502 19.275C140.952 19.425 141.312 19.635 141.582 19.905C141.852 20.175 142.052 20.49 142.182 20.85C142.312 21.2 142.377 21.58 142.377 21.99V26.625C142.377 26.735 142.342 26.825 142.272 26.895C142.202 26.965 142.112 27 142.002 27H140.532C140.432 27 140.347 26.965 140.277 26.895C140.207 26.825 140.172 26.735 140.172 26.625V26.07C140.042 26.26 139.867 26.44 139.647 26.61C139.427 26.77 139.162 26.9 138.852 27C138.552 27.1 138.197 27.15 137.787 27.15ZM138.387 25.59C138.717 25.59 139.012 25.52 139.272 25.38C139.532 25.24 139.737 25.025 139.887 24.735C140.037 24.445 140.112 24.08 140.112 23.64V23.385L138.717 23.61C138.177 23.7 137.782 23.835 137.532 24.015C137.282 24.195 137.157 24.415 137.157 24.675C137.157 24.865 137.212 25.03 137.322 25.17C137.442 25.31 137.597 25.415 137.787 25.485C137.977 25.555 138.177 25.59 138.387 25.59ZM144.553 27C144.453 27 144.368 26.965 144.298 26.895C144.228 26.825 144.193 26.735 144.193 26.625V19.575C144.193 19.465 144.228 19.375 144.298 19.305C144.368 19.235 144.453 19.2 144.553 19.2H146.053C146.163 19.2 146.253 19.235 146.323 19.305C146.393 19.375 146.428 19.465 146.428 19.575V26.625C146.428 26.735 146.393 26.825 146.323 26.895C146.253 26.965 146.163 27 146.053 27H144.553ZM144.508 18C144.408 18 144.323 17.965 144.253 17.895C144.183 17.825 144.148 17.735 144.148 17.625V16.425C144.148 16.315 144.183 16.225 144.253 16.155C144.323 16.075 144.408 16.035 144.508 16.035H146.083C146.193 16.035 146.283 16.075 146.353 16.155C146.433 16.225 146.473 16.315 146.473 16.425V17.625C146.473 17.735 146.433 17.825 146.353 17.895C146.283 17.965 146.193 18 146.083 18H144.508ZM152.059 27C151.439 27 150.909 26.9 150.469 26.7C150.029 26.49 149.694 26.17 149.464 25.74C149.244 25.31 149.134 24.77 149.134 24.12V20.97H147.964C147.854 20.97 147.764 20.935 147.694 20.865C147.624 20.795 147.589 20.705 147.589 20.595V19.575C147.589 19.465 147.624 19.375 147.694 19.305C147.764 19.235 147.854 19.2 147.964 19.2H149.134V16.725C149.134 16.615 149.169 16.525 149.239 16.455C149.319 16.385 149.409 16.35 149.509 16.35H150.979C151.089 16.35 151.179 16.385 151.249 16.455C151.319 16.525 151.354 16.615 151.354 16.725V19.2H153.229C153.329 19.2 153.414 19.235 153.484 19.305C153.554 19.375 153.589 19.465 153.589 19.575V20.595C153.589 20.705 153.554 20.795 153.484 20.865C153.414 20.935 153.329 20.97 153.229 20.97H151.354V23.94C151.354 24.32 151.419 24.62 151.549 24.84C151.689 25.05 151.929 25.155 152.269 25.155H153.364C153.464 25.155 153.549 25.19 153.619 25.26C153.689 25.33 153.724 25.415 153.724 25.515V26.625C153.724 26.735 153.689 26.825 153.619 26.895C153.549 26.965 153.464 27 153.364 27H152.059ZM158.513 27.15C157.363 27.15 156.448 26.83 155.768 26.19C155.098 25.55 154.743 24.62 154.703 23.4C154.703 23.32 154.703 23.215 154.703 23.085C154.703 22.945 154.703 22.835 154.703 22.755C154.743 21.985 154.918 21.325 155.228 20.775C155.538 20.215 155.973 19.79 156.533 19.5C157.093 19.2 157.748 19.05 158.498 19.05C159.338 19.05 160.038 19.225 160.598 19.575C161.168 19.915 161.593 20.385 161.873 20.985C162.163 21.575 162.308 22.255 162.308 23.025V23.37C162.308 23.47 162.268 23.555 162.188 23.625C162.118 23.695 162.033 23.73 161.933 23.73H157.028C157.028 23.74 157.028 23.76 157.028 23.79C157.028 23.81 157.028 23.83 157.028 23.85C157.038 24.17 157.098 24.465 157.208 24.735C157.328 24.995 157.493 25.205 157.703 25.365C157.923 25.525 158.183 25.605 158.483 25.605C158.733 25.605 158.938 25.57 159.098 25.5C159.258 25.43 159.388 25.345 159.488 25.245C159.598 25.145 159.678 25.06 159.728 24.99C159.818 24.89 159.888 24.83 159.938 24.81C159.998 24.78 160.088 24.765 160.208 24.765H161.768C161.868 24.765 161.948 24.795 162.008 24.855C162.078 24.905 162.108 24.98 162.098 25.08C162.088 25.24 162.003 25.44 161.843 25.68C161.693 25.91 161.468 26.14 161.168 26.37C160.868 26.59 160.493 26.775 160.043 26.925C159.603 27.075 159.093 27.15 158.513 27.15ZM157.028 22.365H159.968V22.335C159.968 21.975 159.908 21.665 159.788 21.405C159.678 21.135 159.513 20.925 159.293 20.775C159.073 20.625 158.808 20.55 158.498 20.55C158.188 20.55 157.923 20.625 157.703 20.775C157.483 20.925 157.313 21.135 157.193 21.405C157.083 21.665 157.028 21.975 157.028 22.335V22.365ZM164.167 27C164.067 27 163.982 26.965 163.912 26.895C163.842 26.825 163.807 26.735 163.807 26.625V19.575C163.807 19.465 163.842 19.375 163.912 19.305C163.982 19.235 164.067 19.2 164.167 19.2H165.562C165.662 19.2 165.747 19.235 165.817 19.305C165.897 19.375 165.937 19.465 165.937 19.575V20.085C166.137 19.805 166.412 19.565 166.762 19.365C167.122 19.165 167.547 19.06 168.037 19.05C169.197 19.03 169.992 19.47 170.422 20.37C170.652 19.98 170.982 19.665 171.412 19.425C171.852 19.175 172.332 19.05 172.852 19.05C173.372 19.05 173.842 19.17 174.262 19.41C174.682 19.64 175.012 20 175.252 20.49C175.502 20.97 175.627 21.59 175.627 22.35V26.625C175.627 26.735 175.592 26.825 175.522 26.895C175.452 26.965 175.367 27 175.267 27H173.782C173.682 27 173.597 26.965 173.527 26.895C173.457 26.825 173.422 26.735 173.422 26.625V22.47C173.422 22.06 173.362 21.74 173.242 21.51C173.122 21.27 172.962 21.1 172.762 21C172.572 20.9 172.357 20.85 172.117 20.85C171.907 20.85 171.702 20.9 171.502 21C171.312 21.1 171.152 21.27 171.022 21.51C170.902 21.74 170.842 22.06 170.842 22.47V26.625C170.842 26.735 170.807 26.825 170.737 26.895C170.667 26.965 170.577 27 170.467 27H168.997C168.887 27 168.797 26.965 168.727 26.895C168.657 26.825 168.622 26.735 168.622 26.625V22.47C168.622 22.06 168.562 21.74 168.442 21.51C168.322 21.27 168.162 21.1 167.962 21C167.772 20.9 167.562 20.85 167.332 20.85C167.122 20.85 166.917 20.905 166.717 21.015C166.517 21.115 166.352 21.28 166.222 21.51C166.102 21.74 166.042 22.055 166.042 22.455V26.625C166.042 26.735 166.007 26.825 165.937 26.895C165.867 26.965 165.782 27 165.682 27H164.167ZM180.925 27.15C179.775 27.15 178.86 26.83 178.18 26.19C177.51 25.55 177.155 24.62 177.115 23.4C177.115 23.32 177.115 23.215 177.115 23.085C177.115 22.945 177.115 22.835 177.115 22.755C177.155 21.985 177.33 21.325 177.64 20.775C177.95 20.215 178.385 19.79 178.945 19.5C179.505 19.2 180.16 19.05 180.91 19.05C181.75 19.05 182.45 19.225 183.01 19.575C183.58 19.915 184.005 20.385 184.285 20.985C184.575 21.575 184.72 22.255 184.72 23.025V23.37C184.72 23.47 184.68 23.555 184.6 23.625C184.53 23.695 184.445 23.73 184.345 23.73H179.44C179.44 23.74 179.44 23.76 179.44 23.79C179.44 23.81 179.44 23.83 179.44 23.85C179.45 24.17 179.51 24.465 179.62 24.735C179.74 24.995 179.905 25.205 180.115 25.365C180.335 25.525 180.595 25.605 180.895 25.605C181.145 25.605 181.35 25.57 181.51 25.5C181.67 25.43 181.8 25.345 181.9 25.245C182.01 25.145 182.09 25.06 182.14 24.99C182.23 24.89 182.3 24.83 182.35 24.81C182.41 24.78 182.5 24.765 182.62 24.765H184.18C184.28 24.765 184.36 24.795 184.42 24.855C184.49 24.905 184.52 24.98 184.51 25.08C184.5 25.24 184.415 25.44 184.255 25.68C184.105 25.91 183.88 26.14 183.58 26.37C183.28 26.59 182.905 26.775 182.455 26.925C182.015 27.075 181.505 27.15 180.925 27.15ZM179.44 22.365H182.38V22.335C182.38 21.975 182.32 21.665 182.2 21.405C182.09 21.135 181.925 20.925 181.705 20.775C181.485 20.625 181.22 20.55 180.91 20.55C180.6 20.55 180.335 20.625 180.115 20.775C179.895 20.925 179.725 21.135 179.605 21.405C179.495 21.665 179.44 21.975 179.44 22.335V22.365ZM186.579 27C186.479 27 186.394 26.965 186.324 26.895C186.254 26.825 186.219 26.735 186.219 26.625V19.575C186.219 19.465 186.254 19.375 186.324 19.305C186.394 19.235 186.479 19.2 186.579 19.2H188.049C188.159 19.2 188.249 19.235 188.319 19.305C188.389 19.375 188.424 19.465 188.424 19.575V20.16C188.684 19.84 189.019 19.575 189.429 19.365C189.839 19.155 190.339 19.05 190.929 19.05C191.519 19.05 192.034 19.185 192.474 19.455C192.924 19.715 193.274 20.1 193.524 20.61C193.784 21.11 193.914 21.72 193.914 22.44V26.625C193.914 26.735 193.874 26.825 193.794 26.895C193.724 26.965 193.639 27 193.539 27H191.949C191.839 27 191.749 26.965 191.679 26.895C191.609 26.825 191.574 26.735 191.574 26.625V22.53C191.574 22 191.444 21.59 191.184 21.3C190.934 21 190.564 20.85 190.074 20.85C189.604 20.85 189.229 21 188.949 21.3C188.669 21.59 188.529 22 188.529 22.53V26.625C188.529 26.735 188.494 26.825 188.424 26.895C188.354 26.965 188.269 27 188.169 27H186.579ZM199.374 27C198.754 27 198.224 26.9 197.784 26.7C197.344 26.49 197.009 26.17 196.779 25.74C196.559 25.31 196.449 24.77 196.449 24.12V20.97H195.279C195.169 20.97 195.079 20.935 195.009 20.865C194.939 20.795 194.904 20.705 194.904 20.595V19.575C194.904 19.465 194.939 19.375 195.009 19.305C195.079 19.235 195.169 19.2 195.279 19.2H196.449V16.725C196.449 16.615 196.484 16.525 196.554 16.455C196.634 16.385 196.724 16.35 196.824 16.35H198.294C198.404 16.35 198.494 16.385 198.564 16.455C198.634 16.525 198.669 16.615 198.669 16.725V19.2H200.544C200.644 19.2 200.729 19.235 200.799 19.305C200.869 19.375 200.904 19.465 200.904 19.575V20.595C200.904 20.705 200.869 20.795 200.799 20.865C200.729 20.935 200.644 20.97 200.544 20.97H198.669V23.94C198.669 24.32 198.734 24.62 198.864 24.84C199.004 25.05 199.244 25.155 199.584 25.155H200.679C200.779 25.155 200.864 25.19 200.934 25.26C201.004 25.33 201.039 25.415 201.039 25.515V26.625C201.039 26.735 201.004 26.825 200.934 26.895C200.864 26.965 200.779 27 200.679 27H199.374Z" fill="#1D2B36"/>
</svg>
