<svg width="221" height="44" viewBox="0 0 221 44" fill="none" xmlns="http://www.w3.org/2000/svg">
  <rect width="221" height="44" rx="5" fill="#D23457"/>
  <path d="M80.495 27C80.405 27 80.33 26.97 80.27 26.91C80.21 26.84 80.18 26.765 80.18 26.685C80.18 26.635 80.185 26.59 80.195 26.55L83.765 16.905C83.795 16.795 83.855 16.7 83.945 16.62C84.035 16.54 84.16 16.5 84.32 16.5H86.24C86.4 16.5 86.525 16.54 86.615 16.62C86.705 16.7 86.765 16.795 86.795 16.905L90.365 26.55C90.375 26.59 90.38 26.635 90.38 26.685C90.38 26.765 90.35 26.84 90.29 26.91C90.23 26.97 90.155 27 90.065 27H88.505C88.355 27 88.245 26.965 88.175 26.895C88.105 26.825 88.06 26.76 88.04 26.7L87.395 25.02H83.165L82.52 26.7C82.5 26.76 82.455 26.825 82.385 26.895C82.315 26.965 82.205 27 82.055 27H80.495ZM83.72 23.085H86.825L85.28 18.765L83.72 23.085ZM91.8665 27C91.7665 27 91.6815 26.965 91.6115 26.895C91.5415 26.825 91.5065 26.735 91.5065 26.625V19.575C91.5065 19.465 91.5415 19.375 91.6115 19.305C91.6815 19.235 91.7665 19.2 91.8665 19.2H93.3365C93.4465 19.2 93.5365 19.235 93.6065 19.305C93.6765 19.375 93.7115 19.465 93.7115 19.575V20.16C93.9715 19.84 94.3065 19.575 94.7165 19.365C95.1265 19.155 95.6265 19.05 96.2165 19.05C96.8065 19.05 97.3215 19.185 97.7615 19.455C98.2115 19.715 98.5615 20.1 98.8115 20.61C99.0715 21.11 99.2015 21.72 99.2015 22.44V26.625C99.2015 26.735 99.1615 26.825 99.0815 26.895C99.0115 26.965 98.9265 27 98.8265 27H97.2365C97.1265 27 97.0365 26.965 96.9665 26.895C96.8965 26.825 96.8615 26.735 96.8615 26.625V22.53C96.8615 22 96.7315 21.59 96.4715 21.3C96.2215 21 95.8515 20.85 95.3615 20.85C94.8915 20.85 94.5165 21 94.2365 21.3C93.9565 21.59 93.8165 22 93.8165 22.53V26.625C93.8165 26.735 93.7815 26.825 93.7115 26.895C93.6415 26.965 93.5565 27 93.4565 27H91.8665ZM101.359 27C101.259 27 101.174 26.965 101.104 26.895C101.034 26.825 100.999 26.735 100.999 26.625V19.575C100.999 19.465 101.034 19.375 101.104 19.305C101.174 19.235 101.259 19.2 101.359 19.2H102.829C102.939 19.2 103.029 19.235 103.099 19.305C103.169 19.375 103.204 19.465 103.204 19.575V20.16C103.464 19.84 103.799 19.575 104.209 19.365C104.619 19.155 105.119 19.05 105.709 19.05C106.299 19.05 106.814 19.185 107.254 19.455C107.704 19.715 108.054 20.1 108.304 20.61C108.564 21.11 108.694 21.72 108.694 22.44V26.625C108.694 26.735 108.654 26.825 108.574 26.895C108.504 26.965 108.419 27 108.319 27H106.729C106.619 27 106.529 26.965 106.459 26.895C106.389 26.825 106.354 26.735 106.354 26.625V22.53C106.354 22 106.224 21.59 105.964 21.3C105.714 21 105.344 20.85 104.854 20.85C104.384 20.85 104.009 21 103.729 21.3C103.449 21.59 103.309 22 103.309 22.53V26.625C103.309 26.735 103.274 26.825 103.204 26.895C103.134 26.965 103.049 27 102.949 27H101.359ZM113.356 27.15C112.776 27.15 112.261 27.02 111.811 26.76C111.371 26.49 111.026 26.105 110.776 25.605C110.536 25.095 110.416 24.48 110.416 23.76V19.575C110.416 19.465 110.451 19.375 110.521 19.305C110.591 19.235 110.676 19.2 110.776 19.2H112.366C112.476 19.2 112.566 19.235 112.636 19.305C112.706 19.375 112.741 19.465 112.741 19.575V23.67C112.741 24.79 113.231 25.35 114.211 25.35C114.681 25.35 115.051 25.205 115.321 24.915C115.601 24.615 115.741 24.2 115.741 23.67V19.575C115.741 19.465 115.776 19.375 115.846 19.305C115.916 19.235 116.006 19.2 116.116 19.2H117.706C117.806 19.2 117.891 19.235 117.961 19.305C118.031 19.375 118.066 19.465 118.066 19.575V26.625C118.066 26.735 118.031 26.825 117.961 26.895C117.891 26.965 117.806 27 117.706 27H116.236C116.126 27 116.036 26.965 115.966 26.895C115.896 26.825 115.861 26.735 115.861 26.625V26.04C115.601 26.4 115.266 26.675 114.856 26.865C114.446 27.055 113.946 27.15 113.356 27.15ZM120.329 27C120.219 27 120.129 26.965 120.059 26.895C119.989 26.825 119.954 26.735 119.954 26.625V16.725C119.954 16.615 119.989 16.525 120.059 16.455C120.129 16.385 120.219 16.35 120.329 16.35H121.829C121.929 16.35 122.014 16.385 122.084 16.455C122.154 16.525 122.189 16.615 122.189 16.725V26.625C122.189 26.735 122.154 26.825 122.084 26.895C122.014 26.965 121.929 27 121.829 27H120.329ZM127.565 27.15C126.415 27.15 125.5 26.83 124.82 26.19C124.15 25.55 123.795 24.62 123.755 23.4C123.755 23.32 123.755 23.215 123.755 23.085C123.755 22.945 123.755 22.835 123.755 22.755C123.795 21.985 123.97 21.325 124.28 20.775C124.59 20.215 125.025 19.79 125.585 19.5C126.145 19.2 126.8 19.05 127.55 19.05C128.39 19.05 129.09 19.225 129.65 19.575C130.22 19.915 130.645 20.385 130.925 20.985C131.215 21.575 131.36 22.255 131.36 23.025V23.37C131.36 23.47 131.32 23.555 131.24 23.625C131.17 23.695 131.085 23.73 130.985 23.73H126.08C126.08 23.74 126.08 23.76 126.08 23.79C126.08 23.81 126.08 23.83 126.08 23.85C126.09 24.17 126.15 24.465 126.26 24.735C126.38 24.995 126.545 25.205 126.755 25.365C126.975 25.525 127.235 25.605 127.535 25.605C127.785 25.605 127.99 25.57 128.15 25.5C128.31 25.43 128.44 25.345 128.54 25.245C128.65 25.145 128.73 25.06 128.78 24.99C128.87 24.89 128.94 24.83 128.99 24.81C129.05 24.78 129.14 24.765 129.26 24.765H130.82C130.92 24.765 131 24.795 131.06 24.855C131.13 24.905 131.16 24.98 131.15 25.08C131.14 25.24 131.055 25.44 130.895 25.68C130.745 25.91 130.52 26.14 130.22 26.37C129.92 26.59 129.545 26.775 129.095 26.925C128.655 27.075 128.145 27.15 127.565 27.15ZM126.08 22.365H129.02V22.335C129.02 21.975 128.96 21.665 128.84 21.405C128.73 21.135 128.565 20.925 128.345 20.775C128.125 20.625 127.86 20.55 127.55 20.55C127.24 20.55 126.975 20.625 126.755 20.775C126.535 20.925 126.365 21.135 126.245 21.405C126.135 21.665 126.08 21.975 126.08 22.335V22.365ZM126.785 18.075C126.625 18.075 126.545 17.995 126.545 17.835C126.545 17.755 126.57 17.69 126.62 17.64L127.895 16.095C127.985 15.975 128.065 15.9 128.135 15.87C128.215 15.83 128.32 15.81 128.45 15.81H130.175C130.365 15.81 130.46 15.91 130.46 16.11C130.46 16.18 130.435 16.24 130.385 16.29L128.45 17.865C128.37 17.935 128.29 17.99 128.21 18.03C128.14 18.06 128.04 18.075 127.91 18.075H126.785ZM136.339 27.15C135.189 27.15 134.274 26.83 133.594 26.19C132.924 25.55 132.569 24.62 132.529 23.4C132.529 23.32 132.529 23.215 132.529 23.085C132.529 22.945 132.529 22.835 132.529 22.755C132.569 21.985 132.744 21.325 133.054 20.775C133.364 20.215 133.799 19.79 134.359 19.5C134.919 19.2 135.574 19.05 136.324 19.05C137.164 19.05 137.864 19.225 138.424 19.575C138.994 19.915 139.419 20.385 139.699 20.985C139.989 21.575 140.134 22.255 140.134 23.025V23.37C140.134 23.47 140.094 23.555 140.014 23.625C139.944 23.695 139.859 23.73 139.759 23.73H134.854C134.854 23.74 134.854 23.76 134.854 23.79C134.854 23.81 134.854 23.83 134.854 23.85C134.864 24.17 134.924 24.465 135.034 24.735C135.154 24.995 135.319 25.205 135.529 25.365C135.749 25.525 136.009 25.605 136.309 25.605C136.559 25.605 136.764 25.57 136.924 25.5C137.084 25.43 137.214 25.345 137.314 25.245C137.424 25.145 137.504 25.06 137.554 24.99C137.644 24.89 137.714 24.83 137.764 24.81C137.824 24.78 137.914 24.765 138.034 24.765H139.594C139.694 24.765 139.774 24.795 139.834 24.855C139.904 24.905 139.934 24.98 139.924 25.08C139.914 25.24 139.829 25.44 139.669 25.68C139.519 25.91 139.294 26.14 138.994 26.37C138.694 26.59 138.319 26.775 137.869 26.925C137.429 27.075 136.919 27.15 136.339 27.15ZM134.854 22.365H137.794V22.335C137.794 21.975 137.734 21.665 137.614 21.405C137.504 21.135 137.339 20.925 137.119 20.775C136.899 20.625 136.634 20.55 136.324 20.55C136.014 20.55 135.749 20.625 135.529 20.775C135.309 20.925 135.139 21.135 135.019 21.405C134.909 21.665 134.854 21.975 134.854 22.335V22.365Z" fill="white"/>
</svg>
