<svg width="221" height="44" viewBox="0 0 221 44" fill="none" xmlns="http://www.w3.org/2000/svg">
<rect width="221" height="44" rx="5" fill="#1E95A5"/>
<path d="M77.28 27.15C76.34 27.15 75.54 26.995 74.88 26.685C74.23 26.365 73.725 25.905 73.365 25.305C73.005 24.695 72.805 23.955 72.765 23.085C72.755 22.675 72.75 22.235 72.75 21.765C72.75 21.295 72.755 20.845 72.765 20.415C72.805 19.555 73.005 18.825 73.365 18.225C73.735 17.615 74.25 17.15 74.91 16.83C75.57 16.51 76.36 16.35 77.28 16.35C77.95 16.35 78.56 16.435 79.11 16.605C79.66 16.775 80.135 17.02 80.535 17.34C80.935 17.66 81.245 18.035 81.465 18.465C81.685 18.895 81.805 19.375 81.825 19.905C81.825 19.995 81.79 20.07 81.72 20.13C81.66 20.19 81.585 20.22 81.495 20.22H79.785C79.665 20.22 79.57 20.19 79.5 20.13C79.43 20.07 79.375 19.97 79.335 19.83C79.185 19.24 78.935 18.835 78.585 18.615C78.235 18.395 77.8 18.285 77.28 18.285C76.66 18.285 76.17 18.455 75.81 18.795C75.45 19.135 75.255 19.7 75.225 20.49C75.195 21.31 75.195 22.15 75.225 23.01C75.255 23.8 75.45 24.365 75.81 24.705C76.17 25.045 76.66 25.215 77.28 25.215C77.8 25.215 78.235 25.105 78.585 24.885C78.945 24.655 79.195 24.25 79.335 23.67C79.375 23.52 79.43 23.42 79.5 23.37C79.57 23.31 79.665 23.28 79.785 23.28H81.495C81.585 23.28 81.66 23.31 81.72 23.37C81.79 23.43 81.825 23.505 81.825 23.595C81.805 24.125 81.685 24.605 81.465 25.035C81.245 25.465 80.935 25.84 80.535 26.16C80.135 26.48 79.66 26.725 79.11 26.895C78.56 27.065 77.95 27.15 77.28 27.15ZM86.9154 27.15C86.0854 27.15 85.3904 27.015 84.8304 26.745C84.2704 26.465 83.8404 26.07 83.5404 25.56C83.2504 25.05 83.0904 24.455 83.0604 23.775C83.0504 23.575 83.0454 23.35 83.0454 23.1C83.0454 22.84 83.0504 22.615 83.0604 22.425C83.0904 21.735 83.2604 21.14 83.5704 20.64C83.8804 20.13 84.3154 19.74 84.8754 19.47C85.4354 19.19 86.1154 19.05 86.9154 19.05C87.7054 19.05 88.3804 19.19 88.9404 19.47C89.5004 19.74 89.9354 20.13 90.2454 20.64C90.5554 21.14 90.7254 21.735 90.7554 22.425C90.7754 22.615 90.7854 22.84 90.7854 23.1C90.7854 23.35 90.7754 23.575 90.7554 23.775C90.7254 24.455 90.5604 25.05 90.2604 25.56C89.9704 26.07 89.5454 26.465 88.9854 26.745C88.4254 27.015 87.7354 27.15 86.9154 27.15ZM86.9154 25.5C87.4054 25.5 87.7754 25.35 88.0254 25.05C88.2754 24.74 88.4104 24.29 88.4304 23.7C88.4404 23.55 88.4454 23.35 88.4454 23.1C88.4454 22.85 88.4404 22.65 88.4304 22.5C88.4104 21.92 88.2754 21.475 88.0254 21.165C87.7754 20.855 87.4054 20.7 86.9154 20.7C86.4254 20.7 86.0504 20.855 85.7904 21.165C85.5404 21.475 85.4054 21.92 85.3854 22.5C85.3754 22.65 85.3704 22.85 85.3704 23.1C85.3704 23.35 85.3754 23.55 85.3854 23.7C85.4054 24.29 85.5404 24.74 85.7904 25.05C86.0504 25.35 86.4254 25.5 86.9154 25.5ZM92.7142 27C92.6142 27 92.5292 26.965 92.4592 26.895C92.3892 26.825 92.3542 26.735 92.3542 26.625V19.575C92.3542 19.465 92.3892 19.375 92.4592 19.305C92.5292 19.235 92.6142 19.2 92.7142 19.2H94.1842C94.2942 19.2 94.3842 19.235 94.4542 19.305C94.5242 19.375 94.5592 19.465 94.5592 19.575V20.16C94.8192 19.84 95.1542 19.575 95.5642 19.365C95.9742 19.155 96.4742 19.05 97.0642 19.05C97.6542 19.05 98.1692 19.185 98.6092 19.455C99.0592 19.715 99.4092 20.1 99.6592 20.61C99.9192 21.11 100.049 21.72 100.049 22.44V26.625C100.049 26.735 100.009 26.825 99.9292 26.895C99.8592 26.965 99.7742 27 99.6742 27H98.0842C97.9742 27 97.8842 26.965 97.8142 26.895C97.7442 26.825 97.7092 26.735 97.7092 26.625V22.53C97.7092 22 97.5792 21.59 97.3192 21.3C97.0692 21 96.6992 20.85 96.2092 20.85C95.7392 20.85 95.3642 21 95.0842 21.3C94.8042 21.59 94.6642 22 94.6642 22.53V26.625C94.6642 26.735 94.6292 26.825 94.5592 26.895C94.4892 26.965 94.4042 27 94.3042 27H92.7142ZM102.988 27C102.878 27 102.788 26.965 102.718 26.895C102.648 26.825 102.613 26.735 102.613 26.625V20.97H101.443C101.333 20.97 101.243 20.935 101.173 20.865C101.103 20.795 101.068 20.705 101.068 20.595V19.575C101.068 19.465 101.103 19.375 101.173 19.305C101.243 19.235 101.333 19.2 101.443 19.2H102.613V18.66C102.613 18.02 102.733 17.495 102.973 17.085C103.213 16.675 103.563 16.375 104.023 16.185C104.483 15.995 105.048 15.9 105.718 15.9H109.168C109.268 15.9 109.353 15.935 109.423 16.005C109.493 16.075 109.528 16.165 109.528 16.275V17.295C109.528 17.405 109.493 17.495 109.423 17.565C109.353 17.635 109.268 17.67 109.168 17.67H105.808C105.438 17.67 105.178 17.76 105.028 17.94C104.888 18.12 104.818 18.385 104.818 18.735V19.2H109.168C109.268 19.2 109.353 19.235 109.423 19.305C109.493 19.375 109.528 19.465 109.528 19.575V26.625C109.528 26.735 109.493 26.825 109.423 26.895C109.353 26.965 109.268 27 109.168 27H107.698C107.588 27 107.498 26.965 107.428 26.895C107.358 26.825 107.323 26.735 107.323 26.625V20.97H104.818V26.625C104.818 26.735 104.783 26.825 104.713 26.895C104.643 26.965 104.558 27 104.458 27H102.988ZM112.153 27C112.053 27 111.968 26.965 111.898 26.895C111.828 26.825 111.793 26.735 111.793 26.625V19.575C111.793 19.475 111.828 19.39 111.898 19.32C111.968 19.24 112.053 19.2 112.153 19.2H113.623C113.723 19.2 113.808 19.24 113.878 19.32C113.958 19.39 113.998 19.475 113.998 19.575V20.175C114.248 19.865 114.553 19.625 114.913 19.455C115.283 19.285 115.708 19.2 116.188 19.2H116.833C116.933 19.2 117.018 19.235 117.088 19.305C117.158 19.375 117.193 19.465 117.193 19.575V20.865C117.193 20.975 117.158 21.065 117.088 21.135C117.018 21.205 116.933 21.24 116.833 21.24H115.513C115.073 21.24 114.728 21.365 114.478 21.615C114.228 21.855 114.103 22.2 114.103 22.65V26.625C114.103 26.735 114.068 26.825 113.998 26.895C113.928 26.965 113.838 27 113.728 27H112.153ZM118.671 27C118.571 27 118.486 26.965 118.416 26.895C118.346 26.825 118.311 26.735 118.311 26.625V19.575C118.311 19.465 118.346 19.375 118.416 19.305C118.486 19.235 118.571 19.2 118.671 19.2H120.066C120.166 19.2 120.251 19.235 120.321 19.305C120.401 19.375 120.441 19.465 120.441 19.575V20.085C120.641 19.805 120.916 19.565 121.266 19.365C121.626 19.165 122.051 19.06 122.541 19.05C123.701 19.03 124.496 19.47 124.926 20.37C125.156 19.98 125.486 19.665 125.916 19.425C126.356 19.175 126.836 19.05 127.356 19.05C127.876 19.05 128.346 19.17 128.766 19.41C129.186 19.64 129.516 20 129.756 20.49C130.006 20.97 130.131 21.59 130.131 22.35V26.625C130.131 26.735 130.096 26.825 130.026 26.895C129.956 26.965 129.871 27 129.771 27H128.286C128.186 27 128.101 26.965 128.031 26.895C127.961 26.825 127.926 26.735 127.926 26.625V22.47C127.926 22.06 127.866 21.74 127.746 21.51C127.626 21.27 127.466 21.1 127.266 21C127.076 20.9 126.861 20.85 126.621 20.85C126.411 20.85 126.206 20.9 126.006 21C125.816 21.1 125.656 21.27 125.526 21.51C125.406 21.74 125.346 22.06 125.346 22.47V26.625C125.346 26.735 125.311 26.825 125.241 26.895C125.171 26.965 125.081 27 124.971 27H123.501C123.391 27 123.301 26.965 123.231 26.895C123.161 26.825 123.126 26.735 123.126 26.625V22.47C123.126 22.06 123.066 21.74 122.946 21.51C122.826 21.27 122.666 21.1 122.466 21C122.276 20.9 122.066 20.85 121.836 20.85C121.626 20.85 121.421 20.905 121.221 21.015C121.021 21.115 120.856 21.28 120.726 21.51C120.606 21.74 120.546 22.055 120.546 22.455V26.625C120.546 26.735 120.511 26.825 120.441 26.895C120.371 26.965 120.286 27 120.186 27H118.671ZM135.429 27.15C134.279 27.15 133.364 26.83 132.684 26.19C132.014 25.55 131.659 24.62 131.619 23.4C131.619 23.32 131.619 23.215 131.619 23.085C131.619 22.945 131.619 22.835 131.619 22.755C131.659 21.985 131.834 21.325 132.144 20.775C132.454 20.215 132.889 19.79 133.449 19.5C134.009 19.2 134.664 19.05 135.414 19.05C136.254 19.05 136.954 19.225 137.514 19.575C138.084 19.915 138.509 20.385 138.789 20.985C139.079 21.575 139.224 22.255 139.224 23.025V23.37C139.224 23.47 139.184 23.555 139.104 23.625C139.034 23.695 138.949 23.73 138.849 23.73H133.944C133.944 23.74 133.944 23.76 133.944 23.79C133.944 23.81 133.944 23.83 133.944 23.85C133.954 24.17 134.014 24.465 134.124 24.735C134.244 24.995 134.409 25.205 134.619 25.365C134.839 25.525 135.099 25.605 135.399 25.605C135.649 25.605 135.854 25.57 136.014 25.5C136.174 25.43 136.304 25.345 136.404 25.245C136.514 25.145 136.594 25.06 136.644 24.99C136.734 24.89 136.804 24.83 136.854 24.81C136.914 24.78 137.004 24.765 137.124 24.765H138.684C138.784 24.765 138.864 24.795 138.924 24.855C138.994 24.905 139.024 24.98 139.014 25.08C139.004 25.24 138.919 25.44 138.759 25.68C138.609 25.91 138.384 26.14 138.084 26.37C137.784 26.59 137.409 26.775 136.959 26.925C136.519 27.075 136.009 27.15 135.429 27.15ZM133.944 22.365H136.884V22.335C136.884 21.975 136.824 21.665 136.704 21.405C136.594 21.135 136.429 20.925 136.209 20.775C135.989 20.625 135.724 20.55 135.414 20.55C135.104 20.55 134.839 20.625 134.619 20.775C134.399 20.925 134.229 21.135 134.109 21.405C133.999 21.665 133.944 21.975 133.944 22.335V22.365ZM134.649 18.075C134.489 18.075 134.409 17.995 134.409 17.835C134.409 17.755 134.434 17.69 134.484 17.64L135.759 16.095C135.849 15.975 135.929 15.9 135.999 15.87C136.079 15.83 136.184 15.81 136.314 15.81H138.039C138.229 15.81 138.324 15.91 138.324 16.11C138.324 16.18 138.299 16.24 138.249 16.29L136.314 17.865C136.234 17.935 136.154 17.99 136.074 18.03C136.004 18.06 135.904 18.075 135.774 18.075H134.649ZM144.203 27.15C143.053 27.15 142.138 26.83 141.458 26.19C140.788 25.55 140.433 24.62 140.393 23.4C140.393 23.32 140.393 23.215 140.393 23.085C140.393 22.945 140.393 22.835 140.393 22.755C140.433 21.985 140.608 21.325 140.918 20.775C141.228 20.215 141.663 19.79 142.223 19.5C142.783 19.2 143.438 19.05 144.188 19.05C145.028 19.05 145.728 19.225 146.288 19.575C146.858 19.915 147.283 20.385 147.563 20.985C147.853 21.575 147.998 22.255 147.998 23.025V23.37C147.998 23.47 147.958 23.555 147.878 23.625C147.808 23.695 147.723 23.73 147.623 23.73H142.718C142.718 23.74 142.718 23.76 142.718 23.79C142.718 23.81 142.718 23.83 142.718 23.85C142.728 24.17 142.788 24.465 142.898 24.735C143.018 24.995 143.183 25.205 143.393 25.365C143.613 25.525 143.873 25.605 144.173 25.605C144.423 25.605 144.628 25.57 144.788 25.5C144.948 25.43 145.078 25.345 145.178 25.245C145.288 25.145 145.368 25.06 145.418 24.99C145.508 24.89 145.578 24.83 145.628 24.81C145.688 24.78 145.778 24.765 145.898 24.765H147.458C147.558 24.765 147.638 24.795 147.698 24.855C147.768 24.905 147.798 24.98 147.788 25.08C147.778 25.24 147.693 25.44 147.533 25.68C147.383 25.91 147.158 26.14 146.858 26.37C146.558 26.59 146.183 26.775 145.733 26.925C145.293 27.075 144.783 27.15 144.203 27.15ZM142.718 22.365H145.658V22.335C145.658 21.975 145.598 21.665 145.478 21.405C145.368 21.135 145.203 20.925 144.983 20.775C144.763 20.625 144.498 20.55 144.188 20.55C143.878 20.55 143.613 20.625 143.393 20.775C143.173 20.925 143.003 21.135 142.883 21.405C142.773 21.665 142.718 21.975 142.718 22.335V22.365Z" fill="white"/>
</svg>
