<svg width="128" height="128" viewBox="0 0 128 128" fill="none" xmlns="http://www.w3.org/2000/svg">
  <path d="M70.0114 53.7301C70.0114 53.7301 70.5414 52.2001 71.6914 51.6701C72.8314 51.1401 74.7414 51.0601 74.7414 51.0601L77.9414 88.9101L75.3414 107.59C75.3414 107.59 74.5814 109.8 72.5914 109.88C70.6114 109.96 54.1214 109.88 52.6714 109.88C51.2214 109.88 50.7614 107.97 50.6914 107.13C50.6114 106.29 50.6414 104.88 50.6414 104.88L43.6014 104.85C43.6014 104.85 43.1914 107.85 43.8714 109.74C44.4614 111.38 44.9914 112.69 44.9814 113.25C44.9714 114.05 43.9114 114.85 42.6914 114.78C41.4714 114.7 39.6414 113.1 38.4214 112.11C37.2014 111.12 17.6414 111.35 17.6414 111.35C17.6414 111.35 16.7014 113.09 15.6514 114.14C15.0214 114.77 14.0014 115.08 13.0814 115.08C12.1614 115.08 11.0214 113.86 11.2514 113.02C11.4814 112.18 12.5214 110.25 12.7014 108.37C12.7814 107.52 12.6814 105.15 12.2614 104.76C12.1614 104.67 10.6414 104.72 9.22141 104.57C6.80141 104.32 4.38141 101.19 4.08141 98.7501C3.77141 96.3101 4.0014 88.6001 4.0014 88.6001L70.0114 53.7301Z" fill="#B3AFAF"/>
  <path d="M75.9805 96.11H3.95047C3.95047 96.11 3.78046 98.13 4.13046 99.43C4.31603 100.12 4.6317 100.768 5.06047 101.34L75.5705 101.33L75.9805 96.11Z" fill="#9A9A9A"/>
  <path d="M101.251 92.84L116.501 97.56L124.121 94.93C124.121 94.93 123.851 80.59 123.761 79.14C123.671 77.69 123.311 76.42 121.941 75.51C120.581 74.6 116.771 72.33 116.771 72.33C116.771 72.33 105.061 53.54 104.061 52.18C103.061 50.82 101.831 49.16 98.9211 48.89C96.0111 48.62 78.0511 48.84 76.4211 48.93C74.7911 49.02 73.5711 49.76 73.5711 53.3C73.5711 56.84 73.6611 83.86 73.7511 85.22C73.8411 86.58 80.6511 91.57 80.6511 91.57L101.251 92.84Z" fill="#E0E0E0"/>
  <path d="M79.0486 110.03C79.0486 110.03 77.5886 110.07 76.5786 109.93C75.5686 109.79 74.0486 108.78 73.9786 106.39C73.9386 104.97 73.7486 85.22 73.7486 85.22L100.949 85.28L109.749 94.91L124.119 94.93C124.119 94.93 124.179 100.58 124.139 102.09C124.099 103.61 116.279 106.92 116.279 106.92L79.0486 110.03Z" fill="#DC0D28"/>
  <path d="M124.142 102.09H107.762C107.762 102.09 104.252 95.09 94.1616 95.21C79.3416 95.39 79.0416 110.02 79.0416 110.02H117.642C119.812 110.02 122.912 109.3 123.702 106.56C124.372 104.26 124.142 102.09 124.142 102.09Z" fill="#B10A1B"/>
  <path d="M114.109 76.26C114.109 76.26 114.109 74.63 115.179 74.57C116.249 74.51 117.429 75.18 118.499 76.09C119.629 77.05 120.189 77.92 120.409 78.68C120.749 79.81 120.469 80.82 118.719 80.87C116.579 80.94 82.5992 80.72 81.0292 80.59C79.0592 80.42 77.8792 79.58 77.9392 78.11C77.9892 76.7 79.0092 76.25 83.2292 76.2C87.4492 76.15 114.109 76.26 114.109 76.26Z" fill="white"/>
  <path d="M123.799 81.03C123.799 81.03 113.589 80.71 113.369 80.96C113.059 81.33 112.999 86.15 113.109 86.88C113.219 87.61 114.179 88.12 115.359 88.17C116.539 88.22 123.969 88.34 123.969 88.34L123.799 81.03Z" fill="#FDEDC5"/>
  <path d="M81.7611 74.51C80.1811 74.51 79.6211 72.71 79.6211 71.47V55.78C79.6211 54.54 80.4111 53.87 82.8811 53.75C85.3611 53.64 96.6611 53.77 97.9011 53.81C99.8111 53.87 101.111 54.71 102.851 57.13C103.981 58.7 110.951 70.24 111.511 71.19C112.071 72.15 112.751 74.68 109.821 74.73C106.791 74.79 81.7611 74.51 81.7611 74.51Z" fill="#5F6369"/>
  <path d="M108.371 71.87H83.1711C82.6611 71.87 82.2111 71.31 82.2111 70.63C82.2111 69.95 82.1711 59.33 82.1511 58.7C82.0911 56.96 83.3911 56.56 84.5111 56.62C85.6411 56.68 97.0211 56.64 97.6911 56.67C98.9811 56.73 100.261 58.46 101.381 60.17C102.731 62.24 108.371 71.87 108.371 71.87Z" fill="#AFE3FB"/>
  <path d="M107.979 73.73C107.869 76.26 103.819 78.34 102.799 78.4C101.789 78.46 101.169 76.49 101.059 73.84C100.949 71.19 102.009 69 102.859 69C103.699 69 108.069 71.59 107.979 73.73Z" fill="#5F6369"/>
  <path d="M107.1 111.62C107.02 116.62 103.04 123.81 94.3798 123.86C85.7198 123.91 81.2198 117.27 81.4998 110.46C81.7798 103.54 87.1498 98.65 94.8798 98.87C102.11 99.09 107.21 104.71 107.1 111.62Z" fill="#4E433D"/>
  <path d="M100.909 111.33C100.869 113.96 98.7795 117.76 94.2195 117.79C89.6595 117.82 87.4595 114.52 87.5995 110.93C87.7495 107.28 90.6595 104.56 94.4795 104.62C98.2795 104.67 100.959 107.68 100.909 111.33Z" fill="#C8C8C8"/>
  <path d="M41.0998 111.62C41.0198 116.62 37.0398 123.81 28.3798 123.86C19.7198 123.91 15.2198 117.27 15.4998 110.46C15.7798 103.54 21.1498 98.65 28.8798 98.87C36.1098 99.09 41.2098 104.71 41.0998 111.62Z" fill="#4E433D"/>
  <path d="M34.9095 111.33C34.8695 113.96 32.7795 117.76 28.2195 117.79C23.6695 117.82 21.4595 114.52 21.5995 110.93C21.7495 107.28 24.6595 104.56 28.4795 104.62C32.2795 104.67 34.9595 107.68 34.9095 111.33Z" fill="#C8C8C8"/>
  <path d="M71.1298 28.62C71.1298 26 69.9798 24.95 67.8798 25.06C65.7798 25.16 8.22984 24.85 6.34984 24.85C4.46984 24.85 3.72984 26.84 3.72984 27.99C3.72984 29.14 4.08984 87.48 4.00984 88.61C3.93984 89.74 4.24984 91.31 6.23984 91.52C8.22984 91.73 67.2498 91.62 68.5098 91.52C69.7698 91.42 71.3398 90.37 71.3398 88.9C71.3398 87.42 71.1298 29.98 71.1298 28.62Z" fill="#D16E1D"/>
  <path d="M65.8886 30.92C65.8886 32.28 66.3086 83.23 66.3086 84.49C66.3086 85.75 65.6786 87.22 63.9986 87.22C62.3186 87.22 10.7486 87.32 9.69859 87.22C8.64859 87.12 8.01859 86.49 7.91859 84.81C7.81859 83.13 7.81859 31.98 7.81859 30.3C7.81859 28.62 9.49859 28.52 11.2786 28.52C13.0586 28.52 63.4786 28.62 64.2186 28.73C64.9486 28.82 65.8886 29.56 65.8886 30.92Z" fill="#F5B03A"/>
  <path d="M53.5494 89C53.6094 70.55 53.7394 27.52 53.5294 26.35L52.0494 26.62L50.5594 26.8C50.6994 28.45 50.6294 64.89 50.5494 88.99L53.5494 89ZM38.2494 26.52H35.2494V89.1H38.2494V26.52ZM23.1094 26.57H20.1094V88.84H23.1094V26.57Z" fill="#D16E1D"/>
</svg>
