<svg width="221" height="44" viewBox="0 0 221 44" fill="none" xmlns="http://www.w3.org/2000/svg">
  <rect width="221" height="44" rx="5" fill="#186ADE"/>
  <path d="M12.485 27C12.375 27 12.285 26.965 12.215 26.895C12.145 26.825 12.11 26.735 12.11 26.625V16.875C12.11 16.765 12.145 16.675 12.215 16.605C12.285 16.535 12.375 16.5 12.485 16.5H19.28C19.39 16.5 19.48 16.535 19.55 16.605C19.62 16.675 19.655 16.765 19.655 16.875V18.075C19.655 18.175 19.62 18.26 19.55 18.33C19.48 18.4 19.39 18.435 19.28 18.435H14.42V20.79H18.95C19.06 20.79 19.15 20.825 19.22 20.895C19.29 20.965 19.325 21.055 19.325 21.165V22.275C19.325 22.375 19.29 22.46 19.22 22.53C19.15 22.6 19.06 22.635 18.95 22.635H14.42V25.065H19.4C19.51 25.065 19.6 25.1 19.67 25.17C19.74 25.24 19.775 25.33 19.775 25.44V26.625C19.775 26.735 19.74 26.825 19.67 26.895C19.6 26.965 19.51 27 19.4 27H12.485ZM21.7532 27C21.6532 27 21.5682 26.965 21.4982 26.895C21.4282 26.825 21.3932 26.735 21.3932 26.625V19.575C21.3932 19.465 21.4282 19.375 21.4982 19.305C21.5682 19.235 21.6532 19.2 21.7532 19.2H23.2232C23.3332 19.2 23.4232 19.235 23.4932 19.305C23.5632 19.375 23.5982 19.465 23.5982 19.575V20.16C23.8582 19.84 24.1932 19.575 24.6032 19.365C25.0132 19.155 25.5132 19.05 26.1032 19.05C26.6932 19.05 27.2082 19.185 27.6482 19.455C28.0982 19.715 28.4482 20.1 28.6982 20.61C28.9582 21.11 29.0882 21.72 29.0882 22.44V26.625C29.0882 26.735 29.0482 26.825 28.9682 26.895C28.8982 26.965 28.8132 27 28.7132 27H27.1232C27.0132 27 26.9232 26.965 26.8532 26.895C26.7832 26.825 26.7482 26.735 26.7482 26.625V22.53C26.7482 22 26.6182 21.59 26.3582 21.3C26.1082 21 25.7382 20.85 25.2482 20.85C24.7782 20.85 24.4032 21 24.1232 21.3C23.8432 21.59 23.7032 22 23.7032 22.53V26.625C23.7032 26.735 23.6682 26.825 23.5982 26.895C23.5282 26.965 23.4432 27 23.3432 27H21.7532ZM36.491 27.15C35.961 27.15 35.486 27.05 35.066 26.85C34.646 26.64 34.311 26.36 34.061 26.01C33.811 25.66 33.686 25.27 33.686 24.84C33.686 24.13 33.971 23.57 34.541 23.16C35.121 22.75 35.881 22.47 36.821 22.32L38.786 22.035V21.765C38.786 21.375 38.696 21.075 38.516 20.865C38.336 20.655 38.021 20.55 37.571 20.55C37.241 20.55 36.976 20.615 36.776 20.745C36.576 20.875 36.421 21.045 36.311 21.255C36.231 21.385 36.116 21.45 35.966 21.45H34.541C34.431 21.45 34.346 21.42 34.286 21.36C34.226 21.29 34.201 21.21 34.211 21.12C34.211 20.95 34.276 20.75 34.406 20.52C34.536 20.29 34.736 20.065 35.006 19.845C35.276 19.615 35.621 19.425 36.041 19.275C36.461 19.125 36.976 19.05 37.586 19.05C38.216 19.05 38.756 19.125 39.206 19.275C39.656 19.425 40.016 19.635 40.286 19.905C40.556 20.175 40.756 20.49 40.886 20.85C41.016 21.2 41.081 21.58 41.081 21.99V26.625C41.081 26.735 41.046 26.825 40.976 26.895C40.906 26.965 40.816 27 40.706 27H39.236C39.136 27 39.051 26.965 38.981 26.895C38.911 26.825 38.876 26.735 38.876 26.625V26.07C38.746 26.26 38.571 26.44 38.351 26.61C38.131 26.77 37.866 26.9 37.556 27C37.256 27.1 36.901 27.15 36.491 27.15ZM37.091 25.59C37.421 25.59 37.716 25.52 37.976 25.38C38.236 25.24 38.441 25.025 38.591 24.735C38.741 24.445 38.816 24.08 38.816 23.64V23.385L37.421 23.61C36.881 23.7 36.486 23.835 36.236 24.015C35.986 24.195 35.861 24.415 35.861 24.675C35.861 24.865 35.916 25.03 36.026 25.17C36.146 25.31 36.301 25.415 36.491 25.485C36.681 25.555 36.881 25.59 37.091 25.59ZM46.5886 27C45.9686 27 45.4386 26.9 44.9986 26.7C44.5586 26.49 44.2236 26.17 43.9936 25.74C43.7736 25.31 43.6636 24.77 43.6636 24.12V20.97H42.4936C42.3836 20.97 42.2936 20.935 42.2236 20.865C42.1536 20.795 42.1186 20.705 42.1186 20.595V19.575C42.1186 19.465 42.1536 19.375 42.2236 19.305C42.2936 19.235 42.3836 19.2 42.4936 19.2H43.6636V16.725C43.6636 16.615 43.6986 16.525 43.7686 16.455C43.8486 16.385 43.9386 16.35 44.0386 16.35H45.5086C45.6186 16.35 45.7086 16.385 45.7786 16.455C45.8486 16.525 45.8836 16.615 45.8836 16.725V19.2H47.7586C47.8586 19.2 47.9436 19.235 48.0136 19.305C48.0836 19.375 48.1186 19.465 48.1186 19.575V20.595C48.1186 20.705 48.0836 20.795 48.0136 20.865C47.9436 20.935 47.8586 20.97 47.7586 20.97H45.8836V23.94C45.8836 24.32 45.9486 24.62 46.0786 24.84C46.2186 25.05 46.4586 25.155 46.7986 25.155H47.8936C47.9936 25.155 48.0786 25.19 48.1486 25.26C48.2186 25.33 48.2536 25.415 48.2536 25.515V26.625C48.2536 26.735 48.2186 26.825 48.1486 26.895C48.0786 26.965 47.9936 27 47.8936 27H46.5886ZM53.3122 27C52.6922 27 52.1622 26.9 51.7222 26.7C51.2822 26.49 50.9472 26.17 50.7172 25.74C50.4972 25.31 50.3872 24.77 50.3872 24.12V20.97H49.2172C49.1072 20.97 49.0172 20.935 48.9472 20.865C48.8772 20.795 48.8422 20.705 48.8422 20.595V19.575C48.8422 19.465 48.8772 19.375 48.9472 19.305C49.0172 19.235 49.1072 19.2 49.2172 19.2H50.3872V16.725C50.3872 16.615 50.4222 16.525 50.4922 16.455C50.5722 16.385 50.6622 16.35 50.7622 16.35H52.2322C52.3422 16.35 52.4322 16.385 52.5022 16.455C52.5722 16.525 52.6072 16.615 52.6072 16.725V19.2H54.4822C54.5822 19.2 54.6672 19.235 54.7372 19.305C54.8072 19.375 54.8422 19.465 54.8422 19.575V20.595C54.8422 20.705 54.8072 20.795 54.7372 20.865C54.6672 20.935 54.5822 20.97 54.4822 20.97H52.6072V23.94C52.6072 24.32 52.6722 24.62 52.8022 24.84C52.9422 25.05 53.1822 25.155 53.5222 25.155H54.6172C54.7172 25.155 54.8022 25.19 54.8722 25.26C54.9422 25.33 54.9772 25.415 54.9772 25.515V26.625C54.9772 26.735 54.9422 26.825 54.8722 26.895C54.8022 26.965 54.7172 27 54.6172 27H53.3122ZM59.7658 27.15C58.6158 27.15 57.7008 26.83 57.0208 26.19C56.3508 25.55 55.9958 24.62 55.9558 23.4C55.9558 23.32 55.9558 23.215 55.9558 23.085C55.9558 22.945 55.9558 22.835 55.9558 22.755C55.9958 21.985 56.1708 21.325 56.4808 20.775C56.7908 20.215 57.2258 19.79 57.7858 19.5C58.3458 19.2 59.0008 19.05 59.7508 19.05C60.5908 19.05 61.2908 19.225 61.8508 19.575C62.4208 19.915 62.8458 20.385 63.1258 20.985C63.4158 21.575 63.5608 22.255 63.5608 23.025V23.37C63.5608 23.47 63.5208 23.555 63.4408 23.625C63.3708 23.695 63.2858 23.73 63.1858 23.73H58.2808C58.2808 23.74 58.2808 23.76 58.2808 23.79C58.2808 23.81 58.2808 23.83 58.2808 23.85C58.2908 24.17 58.3508 24.465 58.4608 24.735C58.5808 24.995 58.7458 25.205 58.9558 25.365C59.1758 25.525 59.4358 25.605 59.7358 25.605C59.9858 25.605 60.1908 25.57 60.3508 25.5C60.5108 25.43 60.6408 25.345 60.7408 25.245C60.8508 25.145 60.9308 25.06 60.9808 24.99C61.0708 24.89 61.1408 24.83 61.1908 24.81C61.2508 24.78 61.3408 24.765 61.4608 24.765H63.0208C63.1208 24.765 63.2008 24.795 63.2608 24.855C63.3308 24.905 63.3608 24.98 63.3508 25.08C63.3408 25.24 63.2558 25.44 63.0958 25.68C62.9458 25.91 62.7208 26.14 62.4208 26.37C62.1208 26.59 61.7458 26.775 61.2958 26.925C60.8558 27.075 60.3458 27.15 59.7658 27.15ZM58.2808 22.365H61.2208V22.335C61.2208 21.975 61.1608 21.665 61.0408 21.405C60.9308 21.135 60.7658 20.925 60.5458 20.775C60.3258 20.625 60.0608 20.55 59.7508 20.55C59.4408 20.55 59.1758 20.625 58.9558 20.775C58.7358 20.925 58.5658 21.135 58.4458 21.405C58.3358 21.665 58.2808 21.975 58.2808 22.335V22.365ZM65.4202 27C65.3202 27 65.2352 26.965 65.1652 26.895C65.0952 26.825 65.0602 26.735 65.0602 26.625V19.575C65.0602 19.465 65.0952 19.375 65.1652 19.305C65.2352 19.235 65.3202 19.2 65.4202 19.2H66.8902C67.0002 19.2 67.0902 19.235 67.1602 19.305C67.2302 19.375 67.2652 19.465 67.2652 19.575V20.16C67.5252 19.84 67.8602 19.575 68.2702 19.365C68.6802 19.155 69.1802 19.05 69.7702 19.05C70.3602 19.05 70.8752 19.185 71.3152 19.455C71.7652 19.715 72.1152 20.1 72.3652 20.61C72.6252 21.11 72.7552 21.72 72.7552 22.44V26.625C72.7552 26.735 72.7152 26.825 72.6352 26.895C72.5652 26.965 72.4802 27 72.3802 27H70.7902C70.6802 27 70.5902 26.965 70.5202 26.895C70.4502 26.825 70.4152 26.735 70.4152 26.625V22.53C70.4152 22 70.2852 21.59 70.0252 21.3C69.7752 21 69.4052 20.85 68.9152 20.85C68.4452 20.85 68.0702 21 67.7902 21.3C67.5102 21.59 67.3702 22 67.3702 22.53V26.625C67.3702 26.735 67.3352 26.825 67.2652 26.895C67.1952 26.965 67.1102 27 67.0102 27H65.4202ZM78.2145 27C77.5945 27 77.0645 26.9 76.6245 26.7C76.1845 26.49 75.8495 26.17 75.6195 25.74C75.3995 25.31 75.2895 24.77 75.2895 24.12V20.97H74.1195C74.0095 20.97 73.9195 20.935 73.8495 20.865C73.7795 20.795 73.7445 20.705 73.7445 20.595V19.575C73.7445 19.465 73.7795 19.375 73.8495 19.305C73.9195 19.235 74.0095 19.2 74.1195 19.2H75.2895V16.725C75.2895 16.615 75.3245 16.525 75.3945 16.455C75.4745 16.385 75.5645 16.35 75.6645 16.35H77.1345C77.2445 16.35 77.3345 16.385 77.4045 16.455C77.4745 16.525 77.5095 16.615 77.5095 16.725V19.2H79.3845C79.4845 19.2 79.5695 19.235 79.6395 19.305C79.7095 19.375 79.7445 19.465 79.7445 19.575V20.595C79.7445 20.705 79.7095 20.795 79.6395 20.865C79.5695 20.935 79.4845 20.97 79.3845 20.97H77.5095V23.94C77.5095 24.32 77.5745 24.62 77.7045 24.84C77.8445 25.05 78.0845 25.155 78.4245 25.155H79.5195C79.6195 25.155 79.7045 25.19 79.7745 25.26C79.8445 25.33 79.8795 25.415 79.8795 25.515V26.625C79.8795 26.735 79.8445 26.825 79.7745 26.895C79.7045 26.965 79.6195 27 79.5195 27H78.2145ZM84.6682 27.15C83.5182 27.15 82.6032 26.83 81.9232 26.19C81.2532 25.55 80.8982 24.62 80.8582 23.4C80.8582 23.32 80.8582 23.215 80.8582 23.085C80.8582 22.945 80.8582 22.835 80.8582 22.755C80.8982 21.985 81.0732 21.325 81.3832 20.775C81.6932 20.215 82.1282 19.79 82.6882 19.5C83.2482 19.2 83.9032 19.05 84.6532 19.05C85.4932 19.05 86.1932 19.225 86.7532 19.575C87.3232 19.915 87.7482 20.385 88.0282 20.985C88.3182 21.575 88.4632 22.255 88.4632 23.025V23.37C88.4632 23.47 88.4232 23.555 88.3432 23.625C88.2732 23.695 88.1882 23.73 88.0882 23.73H83.1832C83.1832 23.74 83.1832 23.76 83.1832 23.79C83.1832 23.81 83.1832 23.83 83.1832 23.85C83.1932 24.17 83.2532 24.465 83.3632 24.735C83.4832 24.995 83.6482 25.205 83.8582 25.365C84.0782 25.525 84.3382 25.605 84.6382 25.605C84.8882 25.605 85.0932 25.57 85.2532 25.5C85.4132 25.43 85.5432 25.345 85.6432 25.245C85.7532 25.145 85.8332 25.06 85.8832 24.99C85.9732 24.89 86.0432 24.83 86.0932 24.81C86.1532 24.78 86.2432 24.765 86.3632 24.765H87.9232C88.0232 24.765 88.1032 24.795 88.1632 24.855C88.2332 24.905 88.2632 24.98 88.2532 25.08C88.2432 25.24 88.1582 25.44 87.9982 25.68C87.8482 25.91 87.6232 26.14 87.3232 26.37C87.0232 26.59 86.6482 26.775 86.1982 26.925C85.7582 27.075 85.2482 27.15 84.6682 27.15ZM83.1832 22.365H86.1232V22.335C86.1232 21.975 86.0632 21.665 85.9432 21.405C85.8332 21.135 85.6682 20.925 85.4482 20.775C85.2282 20.625 84.9632 20.55 84.6532 20.55C84.3432 20.55 84.0782 20.625 83.8582 20.775C83.6382 20.925 83.4682 21.135 83.3482 21.405C83.2382 21.665 83.1832 21.975 83.1832 22.335V22.365ZM96.1681 27.15C95.6681 27.15 95.2231 27.07 94.8331 26.91C94.4431 26.74 94.1131 26.5 93.8431 26.19C93.5731 25.87 93.3681 25.495 93.2281 25.065C93.0881 24.625 93.0031 24.14 92.9731 23.61C92.9631 23.42 92.9581 23.25 92.9581 23.1C92.9581 22.94 92.9631 22.77 92.9731 22.59C92.9931 22.07 93.0731 21.595 93.2131 21.165C93.3631 20.735 93.5681 20.365 93.8281 20.055C94.0981 19.735 94.4281 19.49 94.8181 19.32C95.2181 19.14 95.6681 19.05 96.1681 19.05C96.6881 19.05 97.1331 19.14 97.5031 19.32C97.8731 19.49 98.1781 19.715 98.4181 19.995V16.725C98.4181 16.615 98.4531 16.525 98.5231 16.455C98.5931 16.385 98.6831 16.35 98.7931 16.35H100.338C100.438 16.35 100.523 16.385 100.593 16.455C100.663 16.525 100.698 16.615 100.698 16.725V26.625C100.698 26.735 100.663 26.825 100.593 26.895C100.523 26.965 100.438 27 100.338 27H98.8981C98.7981 27 98.7131 26.965 98.6431 26.895C98.5731 26.825 98.5381 26.735 98.5381 26.625V26.115C98.2881 26.415 97.9731 26.665 97.5931 26.865C97.2131 27.055 96.7381 27.15 96.1681 27.15ZM96.8581 25.35C97.2281 25.35 97.5231 25.265 97.7431 25.095C97.9731 24.925 98.1381 24.71 98.2381 24.45C98.3481 24.19 98.4081 23.91 98.4181 23.61C98.4381 23.42 98.4481 23.23 98.4481 23.04C98.4481 22.85 98.4381 22.665 98.4181 22.485C98.4081 22.205 98.3481 21.945 98.2381 21.705C98.1281 21.455 97.9581 21.25 97.7281 21.09C97.5081 20.93 97.2181 20.85 96.8581 20.85C96.4781 20.85 96.1781 20.935 95.9581 21.105C95.7381 21.265 95.5781 21.48 95.4781 21.75C95.3881 22.02 95.3331 22.315 95.3131 22.635C95.2831 22.945 95.2831 23.255 95.3131 23.565C95.3331 23.885 95.3881 24.18 95.4781 24.45C95.5781 24.72 95.7381 24.94 95.9581 25.11C96.1781 25.27 96.4781 25.35 96.8581 25.35ZM106.084 27.15C104.934 27.15 104.019 26.83 103.339 26.19C102.669 25.55 102.314 24.62 102.274 23.4C102.274 23.32 102.274 23.215 102.274 23.085C102.274 22.945 102.274 22.835 102.274 22.755C102.314 21.985 102.489 21.325 102.799 20.775C103.109 20.215 103.544 19.79 104.104 19.5C104.664 19.2 105.319 19.05 106.069 19.05C106.909 19.05 107.609 19.225 108.169 19.575C108.739 19.915 109.164 20.385 109.444 20.985C109.734 21.575 109.879 22.255 109.879 23.025V23.37C109.879 23.47 109.839 23.555 109.759 23.625C109.689 23.695 109.604 23.73 109.504 23.73H104.599C104.599 23.74 104.599 23.76 104.599 23.79C104.599 23.81 104.599 23.83 104.599 23.85C104.609 24.17 104.669 24.465 104.779 24.735C104.899 24.995 105.064 25.205 105.274 25.365C105.494 25.525 105.754 25.605 106.054 25.605C106.304 25.605 106.509 25.57 106.669 25.5C106.829 25.43 106.959 25.345 107.059 25.245C107.169 25.145 107.249 25.06 107.299 24.99C107.389 24.89 107.459 24.83 107.509 24.81C107.569 24.78 107.659 24.765 107.779 24.765H109.339C109.439 24.765 109.519 24.795 109.579 24.855C109.649 24.905 109.679 24.98 109.669 25.08C109.659 25.24 109.574 25.44 109.414 25.68C109.264 25.91 109.039 26.14 108.739 26.37C108.439 26.59 108.064 26.775 107.614 26.925C107.174 27.075 106.664 27.15 106.084 27.15ZM104.599 22.365H107.539V22.335C107.539 21.975 107.479 21.665 107.359 21.405C107.249 21.135 107.084 20.925 106.864 20.775C106.644 20.625 106.379 20.55 106.069 20.55C105.759 20.55 105.494 20.625 105.274 20.775C105.054 20.925 104.884 21.135 104.764 21.405C104.654 21.665 104.599 21.975 104.599 22.335V22.365ZM118.154 27.15C117.424 27.15 116.779 27.015 116.219 26.745C115.669 26.475 115.234 26.085 114.914 25.575C114.594 25.055 114.419 24.435 114.389 23.715C114.379 23.555 114.374 23.355 114.374 23.115C114.374 22.865 114.379 22.66 114.389 22.5C114.419 21.77 114.589 21.15 114.899 20.64C115.219 20.12 115.659 19.725 116.219 19.455C116.779 19.185 117.424 19.05 118.154 19.05C118.824 19.05 119.394 19.145 119.864 19.335C120.334 19.515 120.719 19.745 121.019 20.025C121.319 20.305 121.539 20.6 121.679 20.91C121.829 21.21 121.909 21.475 121.919 21.705C121.929 21.805 121.894 21.895 121.814 21.975C121.744 22.045 121.659 22.08 121.559 22.08H119.954C119.854 22.08 119.774 22.055 119.714 22.005C119.664 21.945 119.614 21.865 119.564 21.765C119.424 21.415 119.244 21.165 119.024 21.015C118.804 20.865 118.529 20.79 118.199 20.79C117.749 20.79 117.394 20.935 117.134 21.225C116.874 21.515 116.734 21.965 116.714 22.575C116.704 22.965 116.704 23.32 116.714 23.64C116.744 24.26 116.884 24.71 117.134 24.99C117.394 25.27 117.749 25.41 118.199 25.41C118.549 25.41 118.829 25.335 119.039 25.185C119.249 25.035 119.424 24.785 119.564 24.435C119.604 24.335 119.654 24.26 119.714 24.21C119.774 24.15 119.854 24.12 119.954 24.12H121.559C121.659 24.12 121.744 24.16 121.814 24.24C121.894 24.31 121.929 24.395 121.919 24.495C121.909 24.665 121.859 24.865 121.769 25.095C121.689 25.325 121.554 25.56 121.364 25.8C121.184 26.04 120.949 26.265 120.659 26.475C120.369 26.675 120.014 26.84 119.594 26.97C119.184 27.09 118.704 27.15 118.154 27.15ZM126.96 27.15C126.13 27.15 125.435 27.015 124.875 26.745C124.315 26.465 123.885 26.07 123.585 25.56C123.295 25.05 123.135 24.455 123.105 23.775C123.095 23.575 123.09 23.35 123.09 23.1C123.09 22.84 123.095 22.615 123.105 22.425C123.135 21.735 123.305 21.14 123.615 20.64C123.925 20.13 124.36 19.74 124.92 19.47C125.48 19.19 126.16 19.05 126.96 19.05C127.75 19.05 128.425 19.19 128.985 19.47C129.545 19.74 129.98 20.13 130.29 20.64C130.6 21.14 130.77 21.735 130.8 22.425C130.82 22.615 130.83 22.84 130.83 23.1C130.83 23.35 130.82 23.575 130.8 23.775C130.77 24.455 130.605 25.05 130.305 25.56C130.015 26.07 129.59 26.465 129.03 26.745C128.47 27.015 127.78 27.15 126.96 27.15ZM126.96 25.5C127.45 25.5 127.82 25.35 128.07 25.05C128.32 24.74 128.455 24.29 128.475 23.7C128.485 23.55 128.49 23.35 128.49 23.1C128.49 22.85 128.485 22.65 128.475 22.5C128.455 21.92 128.32 21.475 128.07 21.165C127.82 20.855 127.45 20.7 126.96 20.7C126.47 20.7 126.095 20.855 125.835 21.165C125.585 21.475 125.45 21.92 125.43 22.5C125.42 22.65 125.415 22.85 125.415 23.1C125.415 23.35 125.42 23.55 125.43 23.7C125.45 24.29 125.585 24.74 125.835 25.05C126.095 25.35 126.47 25.5 126.96 25.5ZM132.759 27C132.659 27 132.574 26.965 132.504 26.895C132.434 26.825 132.399 26.735 132.399 26.625V19.575C132.399 19.465 132.434 19.375 132.504 19.305C132.574 19.235 132.659 19.2 132.759 19.2H134.229C134.339 19.2 134.429 19.235 134.499 19.305C134.569 19.375 134.604 19.465 134.604 19.575V20.16C134.864 19.84 135.199 19.575 135.609 19.365C136.019 19.155 136.519 19.05 137.109 19.05C137.699 19.05 138.214 19.185 138.654 19.455C139.104 19.715 139.454 20.1 139.704 20.61C139.964 21.11 140.094 21.72 140.094 22.44V26.625C140.094 26.735 140.054 26.825 139.974 26.895C139.904 26.965 139.819 27 139.719 27H138.129C138.019 27 137.929 26.965 137.859 26.895C137.789 26.825 137.754 26.735 137.754 26.625V22.53C137.754 22 137.624 21.59 137.364 21.3C137.114 21 136.744 20.85 136.254 20.85C135.784 20.85 135.409 21 135.129 21.3C134.849 21.59 134.709 22 134.709 22.53V26.625C134.709 26.735 134.674 26.825 134.604 26.895C134.534 26.965 134.449 27 134.349 27H132.759ZM143.033 27C142.923 27 142.833 26.965 142.763 26.895C142.693 26.825 142.658 26.735 142.658 26.625V20.97H141.488C141.378 20.97 141.288 20.935 141.218 20.865C141.148 20.795 141.113 20.705 141.113 20.595V19.575C141.113 19.465 141.148 19.375 141.218 19.305C141.288 19.235 141.378 19.2 141.488 19.2H142.658V18.66C142.658 18.02 142.778 17.495 143.018 17.085C143.258 16.675 143.608 16.375 144.068 16.185C144.528 15.995 145.093 15.9 145.763 15.9H149.213C149.313 15.9 149.398 15.935 149.468 16.005C149.538 16.075 149.573 16.165 149.573 16.275V17.295C149.573 17.405 149.538 17.495 149.468 17.565C149.398 17.635 149.313 17.67 149.213 17.67H145.853C145.483 17.67 145.223 17.76 145.073 17.94C144.933 18.12 144.863 18.385 144.863 18.735V19.2H149.213C149.313 19.2 149.398 19.235 149.468 19.305C149.538 19.375 149.573 19.465 149.573 19.575V26.625C149.573 26.735 149.538 26.825 149.468 26.895C149.398 26.965 149.313 27 149.213 27H147.743C147.633 27 147.543 26.965 147.473 26.895C147.403 26.825 147.368 26.735 147.368 26.625V20.97H144.863V26.625C144.863 26.735 144.828 26.825 144.758 26.895C144.688 26.965 144.603 27 144.503 27H143.033ZM152.198 27C152.098 27 152.013 26.965 151.943 26.895C151.873 26.825 151.838 26.735 151.838 26.625V19.575C151.838 19.475 151.873 19.39 151.943 19.32C152.013 19.24 152.098 19.2 152.198 19.2H153.668C153.768 19.2 153.853 19.24 153.923 19.32C154.003 19.39 154.043 19.475 154.043 19.575V20.175C154.293 19.865 154.598 19.625 154.958 19.455C155.328 19.285 155.753 19.2 156.233 19.2H156.878C156.978 19.2 157.063 19.235 157.133 19.305C157.203 19.375 157.238 19.465 157.238 19.575V20.865C157.238 20.975 157.203 21.065 157.133 21.135C157.063 21.205 156.978 21.24 156.878 21.24H155.558C155.118 21.24 154.773 21.365 154.523 21.615C154.273 21.855 154.148 22.2 154.148 22.65V26.625C154.148 26.735 154.113 26.825 154.043 26.895C153.973 26.965 153.883 27 153.773 27H152.198ZM158.716 27C158.616 27 158.531 26.965 158.461 26.895C158.391 26.825 158.356 26.735 158.356 26.625V19.575C158.356 19.465 158.391 19.375 158.461 19.305C158.531 19.235 158.616 19.2 158.716 19.2H160.111C160.211 19.2 160.296 19.235 160.366 19.305C160.446 19.375 160.486 19.465 160.486 19.575V20.085C160.686 19.805 160.961 19.565 161.311 19.365C161.671 19.165 162.096 19.06 162.586 19.05C163.746 19.03 164.541 19.47 164.971 20.37C165.201 19.98 165.531 19.665 165.961 19.425C166.401 19.175 166.881 19.05 167.401 19.05C167.921 19.05 168.391 19.17 168.811 19.41C169.231 19.64 169.561 20 169.801 20.49C170.051 20.97 170.176 21.59 170.176 22.35V26.625C170.176 26.735 170.141 26.825 170.071 26.895C170.001 26.965 169.916 27 169.816 27H168.331C168.231 27 168.146 26.965 168.076 26.895C168.006 26.825 167.971 26.735 167.971 26.625V22.47C167.971 22.06 167.911 21.74 167.791 21.51C167.671 21.27 167.511 21.1 167.311 21C167.121 20.9 166.906 20.85 166.666 20.85C166.456 20.85 166.251 20.9 166.051 21C165.861 21.1 165.701 21.27 165.571 21.51C165.451 21.74 165.391 22.06 165.391 22.47V26.625C165.391 26.735 165.356 26.825 165.286 26.895C165.216 26.965 165.126 27 165.016 27H163.546C163.436 27 163.346 26.965 163.276 26.895C163.206 26.825 163.171 26.735 163.171 26.625V22.47C163.171 22.06 163.111 21.74 162.991 21.51C162.871 21.27 162.711 21.1 162.511 21C162.321 20.9 162.111 20.85 161.881 20.85C161.671 20.85 161.466 20.905 161.266 21.015C161.066 21.115 160.901 21.28 160.771 21.51C160.651 21.74 160.591 22.055 160.591 22.455V26.625C160.591 26.735 160.556 26.825 160.486 26.895C160.416 26.965 160.331 27 160.231 27H158.716ZM174.289 27.15C173.759 27.15 173.284 27.05 172.864 26.85C172.444 26.64 172.109 26.36 171.859 26.01C171.609 25.66 171.484 25.27 171.484 24.84C171.484 24.13 171.769 23.57 172.339 23.16C172.919 22.75 173.679 22.47 174.619 22.32L176.584 22.035V21.765C176.584 21.375 176.494 21.075 176.314 20.865C176.134 20.655 175.819 20.55 175.369 20.55C175.039 20.55 174.774 20.615 174.574 20.745C174.374 20.875 174.219 21.045 174.109 21.255C174.029 21.385 173.914 21.45 173.764 21.45H172.339C172.229 21.45 172.144 21.42 172.084 21.36C172.024 21.29 171.999 21.21 172.009 21.12C172.009 20.95 172.074 20.75 172.204 20.52C172.334 20.29 172.534 20.065 172.804 19.845C173.074 19.615 173.419 19.425 173.839 19.275C174.259 19.125 174.774 19.05 175.384 19.05C176.014 19.05 176.554 19.125 177.004 19.275C177.454 19.425 177.814 19.635 178.084 19.905C178.354 20.175 178.554 20.49 178.684 20.85C178.814 21.2 178.879 21.58 178.879 21.99V26.625C178.879 26.735 178.844 26.825 178.774 26.895C178.704 26.965 178.614 27 178.504 27H177.034C176.934 27 176.849 26.965 176.779 26.895C176.709 26.825 176.674 26.735 176.674 26.625V26.07C176.544 26.26 176.369 26.44 176.149 26.61C175.929 26.77 175.664 26.9 175.354 27C175.054 27.1 174.699 27.15 174.289 27.15ZM174.889 25.59C175.219 25.59 175.514 25.52 175.774 25.38C176.034 25.24 176.239 25.025 176.389 24.735C176.539 24.445 176.614 24.08 176.614 23.64V23.385L175.219 23.61C174.679 23.7 174.284 23.835 174.034 24.015C173.784 24.195 173.659 24.415 173.659 24.675C173.659 24.865 173.714 25.03 173.824 25.17C173.944 25.31 174.099 25.415 174.289 25.485C174.479 25.555 174.679 25.59 174.889 25.59ZM184.386 27C183.766 27 183.236 26.9 182.796 26.7C182.356 26.49 182.021 26.17 181.791 25.74C181.571 25.31 181.461 24.77 181.461 24.12V20.97H180.291C180.181 20.97 180.091 20.935 180.021 20.865C179.951 20.795 179.916 20.705 179.916 20.595V19.575C179.916 19.465 179.951 19.375 180.021 19.305C180.091 19.235 180.181 19.2 180.291 19.2H181.461V16.725C181.461 16.615 181.496 16.525 181.566 16.455C181.646 16.385 181.736 16.35 181.836 16.35H183.306C183.416 16.35 183.506 16.385 183.576 16.455C183.646 16.525 183.681 16.615 183.681 16.725V19.2H185.556C185.656 19.2 185.741 19.235 185.811 19.305C185.881 19.375 185.916 19.465 185.916 19.575V20.595C185.916 20.705 185.881 20.795 185.811 20.865C185.741 20.935 185.656 20.97 185.556 20.97H183.681V23.94C183.681 24.32 183.746 24.62 183.876 24.84C184.016 25.05 184.256 25.155 184.596 25.155H185.691C185.791 25.155 185.876 25.19 185.946 25.26C186.016 25.33 186.051 25.415 186.051 25.515V26.625C186.051 26.735 186.016 26.825 185.946 26.895C185.876 26.965 185.791 27 185.691 27H184.386ZM187.72 27C187.62 27 187.535 26.965 187.465 26.895C187.395 26.825 187.36 26.735 187.36 26.625V19.575C187.36 19.465 187.395 19.375 187.465 19.305C187.535 19.235 187.62 19.2 187.72 19.2H189.22C189.33 19.2 189.42 19.235 189.49 19.305C189.56 19.375 189.595 19.465 189.595 19.575V26.625C189.595 26.735 189.56 26.825 189.49 26.895C189.42 26.965 189.33 27 189.22 27H187.72ZM187.675 18C187.575 18 187.49 17.965 187.42 17.895C187.35 17.825 187.315 17.735 187.315 17.625V16.425C187.315 16.315 187.35 16.225 187.42 16.155C187.49 16.075 187.575 16.035 187.675 16.035H189.25C189.36 16.035 189.45 16.075 189.52 16.155C189.6 16.225 189.64 16.315 189.64 16.425V17.625C189.64 17.735 189.6 17.825 189.52 17.895C189.45 17.965 189.36 18 189.25 18H187.675ZM195.105 27.15C194.275 27.15 193.58 27.015 193.02 26.745C192.46 26.465 192.03 26.07 191.73 25.56C191.44 25.05 191.28 24.455 191.25 23.775C191.24 23.575 191.235 23.35 191.235 23.1C191.235 22.84 191.24 22.615 191.25 22.425C191.28 21.735 191.45 21.14 191.76 20.64C192.07 20.13 192.505 19.74 193.065 19.47C193.625 19.19 194.305 19.05 195.105 19.05C195.895 19.05 196.57 19.19 197.13 19.47C197.69 19.74 198.125 20.13 198.435 20.64C198.745 21.14 198.915 21.735 198.945 22.425C198.965 22.615 198.975 22.84 198.975 23.1C198.975 23.35 198.965 23.575 198.945 23.775C198.915 24.455 198.75 25.05 198.45 25.56C198.16 26.07 197.735 26.465 197.175 26.745C196.615 27.015 195.925 27.15 195.105 27.15ZM195.105 25.5C195.595 25.5 195.965 25.35 196.215 25.05C196.465 24.74 196.6 24.29 196.62 23.7C196.63 23.55 196.635 23.35 196.635 23.1C196.635 22.85 196.63 22.65 196.62 22.5C196.6 21.92 196.465 21.475 196.215 21.165C195.965 20.855 195.595 20.7 195.105 20.7C194.615 20.7 194.24 20.855 193.98 21.165C193.73 21.475 193.595 21.92 193.575 22.5C193.565 22.65 193.56 22.85 193.56 23.1C193.56 23.35 193.565 23.55 193.575 23.7C193.595 24.29 193.73 24.74 193.98 25.05C194.24 25.35 194.615 25.5 195.105 25.5ZM200.904 27C200.804 27 200.719 26.965 200.649 26.895C200.579 26.825 200.544 26.735 200.544 26.625V19.575C200.544 19.465 200.579 19.375 200.649 19.305C200.719 19.235 200.804 19.2 200.904 19.2H202.374C202.484 19.2 202.574 19.235 202.644 19.305C202.714 19.375 202.749 19.465 202.749 19.575V20.16C203.009 19.84 203.344 19.575 203.754 19.365C204.164 19.155 204.664 19.05 205.254 19.05C205.844 19.05 206.359 19.185 206.799 19.455C207.249 19.715 207.599 20.1 207.849 20.61C208.109 21.11 208.239 21.72 208.239 22.44V26.625C208.239 26.735 208.199 26.825 208.119 26.895C208.049 26.965 207.964 27 207.864 27H206.274C206.164 27 206.074 26.965 206.004 26.895C205.934 26.825 205.899 26.735 205.899 26.625V22.53C205.899 22 205.769 21.59 205.509 21.3C205.259 21 204.889 20.85 204.399 20.85C203.929 20.85 203.554 21 203.274 21.3C202.994 21.59 202.854 22 202.854 22.53V26.625C202.854 26.735 202.819 26.825 202.749 26.895C202.679 26.965 202.594 27 202.494 27H200.904Z" fill="white"/>
</svg>
