<svg width="221" height="44" viewBox="0 0 221 44" fill="none" xmlns="http://www.w3.org/2000/svg">
  <rect width="221" height="44" rx="5" fill="#E86427"/>
  <path d="M35.485 27C35.375 27 35.285 26.965 35.215 26.895C35.145 26.825 35.11 26.735 35.11 26.625V16.875C35.11 16.765 35.145 16.675 35.215 16.605C35.285 16.535 35.375 16.5 35.485 16.5H42.28C42.39 16.5 42.48 16.535 42.55 16.605C42.62 16.675 42.655 16.765 42.655 16.875V18.075C42.655 18.175 42.62 18.26 42.55 18.33C42.48 18.4 42.39 18.435 42.28 18.435H37.42V20.79H41.95C42.06 20.79 42.15 20.825 42.22 20.895C42.29 20.965 42.325 21.055 42.325 21.165V22.275C42.325 22.375 42.29 22.46 42.22 22.53C42.15 22.6 42.06 22.635 41.95 22.635H37.42V25.065H42.4C42.51 25.065 42.6 25.1 42.67 25.17C42.74 25.24 42.775 25.33 42.775 25.44V26.625C42.775 26.735 42.74 26.825 42.67 26.895C42.6 26.965 42.51 27 42.4 27H35.485ZM44.7532 27C44.6532 27 44.5682 26.965 44.4982 26.895C44.4282 26.825 44.3932 26.735 44.3932 26.625V19.575C44.3932 19.465 44.4282 19.375 44.4982 19.305C44.5682 19.235 44.6532 19.2 44.7532 19.2H46.2232C46.3332 19.2 46.4232 19.235 46.4932 19.305C46.5632 19.375 46.5982 19.465 46.5982 19.575V20.16C46.8582 19.84 47.1932 19.575 47.6032 19.365C48.0132 19.155 48.5132 19.05 49.1032 19.05C49.6932 19.05 50.2082 19.185 50.6482 19.455C51.0982 19.715 51.4482 20.1 51.6982 20.61C51.9582 21.11 52.0882 21.72 52.0882 22.44V26.625C52.0882 26.735 52.0482 26.825 51.9682 26.895C51.8982 26.965 51.8132 27 51.7132 27H50.1232C50.0132 27 49.9232 26.965 49.8532 26.895C49.7832 26.825 49.7482 26.735 49.7482 26.625V22.53C49.7482 22 49.6182 21.59 49.3582 21.3C49.1082 21 48.7382 20.85 48.2482 20.85C47.7782 20.85 47.4032 21 47.1232 21.3C46.8432 21.59 46.7032 22 46.7032 22.53V26.625C46.7032 26.735 46.6682 26.825 46.5982 26.895C46.5282 26.965 46.4432 27 46.3432 27H44.7532ZM60.661 27.15C59.931 27.15 59.286 27.015 58.726 26.745C58.176 26.475 57.741 26.085 57.421 25.575C57.101 25.055 56.926 24.435 56.896 23.715C56.886 23.555 56.881 23.355 56.881 23.115C56.881 22.865 56.886 22.66 56.896 22.5C56.926 21.77 57.096 21.15 57.406 20.64C57.726 20.12 58.166 19.725 58.726 19.455C59.286 19.185 59.931 19.05 60.661 19.05C61.331 19.05 61.901 19.145 62.371 19.335C62.841 19.515 63.226 19.745 63.526 20.025C63.826 20.305 64.046 20.6 64.186 20.91C64.336 21.21 64.416 21.475 64.426 21.705C64.436 21.805 64.401 21.895 64.321 21.975C64.251 22.045 64.166 22.08 64.066 22.08H62.461C62.361 22.08 62.281 22.055 62.221 22.005C62.171 21.945 62.121 21.865 62.071 21.765C61.931 21.415 61.751 21.165 61.531 21.015C61.311 20.865 61.036 20.79 60.706 20.79C60.256 20.79 59.901 20.935 59.641 21.225C59.381 21.515 59.241 21.965 59.221 22.575C59.211 22.965 59.211 23.32 59.221 23.64C59.251 24.26 59.391 24.71 59.641 24.99C59.901 25.27 60.256 25.41 60.706 25.41C61.056 25.41 61.336 25.335 61.546 25.185C61.756 25.035 61.931 24.785 62.071 24.435C62.111 24.335 62.161 24.26 62.221 24.21C62.281 24.15 62.361 24.12 62.461 24.12H64.066C64.166 24.12 64.251 24.16 64.321 24.24C64.401 24.31 64.436 24.395 64.426 24.495C64.416 24.665 64.366 24.865 64.276 25.095C64.196 25.325 64.061 25.56 63.871 25.8C63.691 26.04 63.456 26.265 63.166 26.475C62.876 26.675 62.521 26.84 62.101 26.97C61.691 27.09 61.211 27.15 60.661 27.15ZM69.4671 27.15C68.6371 27.15 67.9421 27.015 67.3821 26.745C66.8221 26.465 66.3921 26.07 66.0921 25.56C65.8021 25.05 65.6421 24.455 65.6121 23.775C65.6021 23.575 65.5971 23.35 65.5971 23.1C65.5971 22.84 65.6021 22.615 65.6121 22.425C65.6421 21.735 65.8121 21.14 66.1221 20.64C66.4321 20.13 66.8671 19.74 67.4271 19.47C67.9871 19.19 68.6671 19.05 69.4671 19.05C70.2571 19.05 70.9321 19.19 71.4921 19.47C72.0521 19.74 72.4871 20.13 72.7971 20.64C73.1071 21.14 73.2771 21.735 73.3071 22.425C73.3271 22.615 73.3371 22.84 73.3371 23.1C73.3371 23.35 73.3271 23.575 73.3071 23.775C73.2771 24.455 73.1121 25.05 72.8121 25.56C72.5221 26.07 72.0971 26.465 71.5371 26.745C70.9771 27.015 70.2871 27.15 69.4671 27.15ZM69.4671 25.5C69.9571 25.5 70.3271 25.35 70.5771 25.05C70.8271 24.74 70.9621 24.29 70.9821 23.7C70.9921 23.55 70.9971 23.35 70.9971 23.1C70.9971 22.85 70.9921 22.65 70.9821 22.5C70.9621 21.92 70.8271 21.475 70.5771 21.165C70.3271 20.855 69.9571 20.7 69.4671 20.7C68.9771 20.7 68.6021 20.855 68.3421 21.165C68.0921 21.475 67.9571 21.92 67.9371 22.5C67.9271 22.65 67.9221 22.85 67.9221 23.1C67.9221 23.35 67.9271 23.55 67.9371 23.7C67.9571 24.29 68.0921 24.74 68.3421 25.05C68.6021 25.35 68.9771 25.5 69.4671 25.5ZM77.7709 27.15C77.1909 27.15 76.6759 27.02 76.2259 26.76C75.7859 26.49 75.4409 26.105 75.1909 25.605C74.9509 25.095 74.8309 24.48 74.8309 23.76V19.575C74.8309 19.465 74.8659 19.375 74.9359 19.305C75.0059 19.235 75.0909 19.2 75.1909 19.2H76.7809C76.8909 19.2 76.9809 19.235 77.0509 19.305C77.1209 19.375 77.1559 19.465 77.1559 19.575V23.67C77.1559 24.79 77.6459 25.35 78.6259 25.35C79.0959 25.35 79.4659 25.205 79.7359 24.915C80.0159 24.615 80.1559 24.2 80.1559 23.67V19.575C80.1559 19.465 80.1909 19.375 80.2609 19.305C80.3309 19.235 80.4209 19.2 80.5309 19.2H82.1209C82.2209 19.2 82.3059 19.235 82.3759 19.305C82.4459 19.375 82.4809 19.465 82.4809 19.575V26.625C82.4809 26.735 82.4459 26.825 82.3759 26.895C82.3059 26.965 82.2209 27 82.1209 27H80.6509C80.5409 27 80.4509 26.965 80.3809 26.895C80.3109 26.825 80.2759 26.735 80.2759 26.625V26.04C80.0159 26.4 79.6809 26.675 79.2709 26.865C78.8609 27.055 78.3609 27.15 77.7709 27.15ZM84.7288 27C84.6288 27 84.5438 26.965 84.4738 26.895C84.4038 26.825 84.3688 26.735 84.3688 26.625V19.575C84.3688 19.475 84.4038 19.39 84.4738 19.32C84.5438 19.24 84.6288 19.2 84.7288 19.2H86.1988C86.2988 19.2 86.3838 19.24 86.4538 19.32C86.5338 19.39 86.5738 19.475 86.5738 19.575V20.175C86.8238 19.865 87.1288 19.625 87.4888 19.455C87.8588 19.285 88.2838 19.2 88.7638 19.2H89.4088C89.5088 19.2 89.5938 19.235 89.6638 19.305C89.7338 19.375 89.7688 19.465 89.7688 19.575V20.865C89.7688 20.975 89.7338 21.065 89.6638 21.135C89.5938 21.205 89.5088 21.24 89.4088 21.24H88.0888C87.6488 21.24 87.3038 21.365 87.0538 21.615C86.8038 21.855 86.6788 22.2 86.6788 22.65V26.625C86.6788 26.735 86.6438 26.825 86.5738 26.895C86.5038 26.965 86.4138 27 86.3038 27H84.7288ZM93.9624 27.15C93.3424 27.15 92.8074 27.08 92.3574 26.94C91.9174 26.79 91.5574 26.61 91.2774 26.4C91.0074 26.19 90.8024 25.98 90.6624 25.77C90.5324 25.55 90.4624 25.365 90.4524 25.215C90.4424 25.105 90.4774 25.015 90.5574 24.945C90.6374 24.875 90.7174 24.84 90.7974 24.84H92.2524C92.2824 24.84 92.3124 24.845 92.3424 24.855C92.3724 24.865 92.4024 24.89 92.4324 24.93C92.5624 25.02 92.6974 25.125 92.8374 25.245C92.9774 25.355 93.1374 25.45 93.3174 25.53C93.5074 25.61 93.7424 25.65 94.0224 25.65C94.3524 25.65 94.6324 25.585 94.8624 25.455C95.0924 25.315 95.2074 25.12 95.2074 24.87C95.2074 24.69 95.1524 24.54 95.0424 24.42C94.9424 24.3 94.7474 24.19 94.4574 24.09C94.1674 23.99 93.7374 23.88 93.1674 23.76C92.6274 23.64 92.1674 23.48 91.7874 23.28C91.4074 23.08 91.1224 22.83 90.9324 22.53C90.7424 22.22 90.6474 21.85 90.6474 21.42C90.6474 21.03 90.7674 20.655 91.0074 20.295C91.2574 19.935 91.6224 19.64 92.1024 19.41C92.5824 19.17 93.1824 19.05 93.9024 19.05C94.4524 19.05 94.9324 19.12 95.3424 19.26C95.7624 19.39 96.1124 19.56 96.3924 19.77C96.6724 19.97 96.8824 20.18 97.0224 20.4C97.1724 20.61 97.2524 20.795 97.2624 20.955C97.2724 21.055 97.2424 21.14 97.1724 21.21C97.1024 21.28 97.0224 21.315 96.9324 21.315H95.5974C95.5474 21.315 95.5024 21.31 95.4624 21.3C95.4224 21.28 95.3874 21.255 95.3574 21.225C95.2374 21.145 95.1124 21.055 94.9824 20.955C94.8624 20.845 94.7174 20.75 94.5474 20.67C94.3774 20.59 94.1574 20.55 93.8874 20.55C93.5574 20.55 93.3024 20.625 93.1224 20.775C92.9524 20.915 92.8674 21.095 92.8674 21.315C92.8674 21.455 92.9124 21.585 93.0024 21.705C93.0924 21.825 93.2774 21.935 93.5574 22.035C93.8374 22.135 94.2624 22.24 94.8324 22.35C95.5124 22.47 96.0524 22.65 96.4524 22.89C96.8524 23.13 97.1374 23.41 97.3074 23.73C97.4874 24.04 97.5774 24.375 97.5774 24.735C97.5774 25.205 97.4374 25.625 97.1574 25.995C96.8774 26.355 96.4674 26.64 95.9274 26.85C95.3974 27.05 94.7424 27.15 93.9624 27.15ZM105.223 27.15C104.723 27.15 104.278 27.07 103.888 26.91C103.498 26.74 103.168 26.5 102.898 26.19C102.628 25.87 102.423 25.495 102.283 25.065C102.143 24.625 102.058 24.14 102.028 23.61C102.018 23.42 102.013 23.25 102.013 23.1C102.013 22.94 102.018 22.77 102.028 22.59C102.048 22.07 102.128 21.595 102.268 21.165C102.418 20.735 102.623 20.365 102.883 20.055C103.153 19.735 103.483 19.49 103.873 19.32C104.273 19.14 104.723 19.05 105.223 19.05C105.743 19.05 106.188 19.14 106.558 19.32C106.928 19.49 107.233 19.715 107.473 19.995V16.725C107.473 16.615 107.508 16.525 107.578 16.455C107.648 16.385 107.738 16.35 107.848 16.35H109.393C109.493 16.35 109.578 16.385 109.648 16.455C109.718 16.525 109.753 16.615 109.753 16.725V26.625C109.753 26.735 109.718 26.825 109.648 26.895C109.578 26.965 109.493 27 109.393 27H107.953C107.853 27 107.768 26.965 107.698 26.895C107.628 26.825 107.593 26.735 107.593 26.625V26.115C107.343 26.415 107.028 26.665 106.648 26.865C106.268 27.055 105.793 27.15 105.223 27.15ZM105.913 25.35C106.283 25.35 106.578 25.265 106.798 25.095C107.028 24.925 107.193 24.71 107.293 24.45C107.403 24.19 107.463 23.91 107.473 23.61C107.493 23.42 107.503 23.23 107.503 23.04C107.503 22.85 107.493 22.665 107.473 22.485C107.463 22.205 107.403 21.945 107.293 21.705C107.183 21.455 107.013 21.25 106.783 21.09C106.563 20.93 106.273 20.85 105.913 20.85C105.533 20.85 105.233 20.935 105.013 21.105C104.793 21.265 104.633 21.48 104.533 21.75C104.443 22.02 104.388 22.315 104.368 22.635C104.338 22.945 104.338 23.255 104.368 23.565C104.388 23.885 104.443 24.18 104.533 24.45C104.633 24.72 104.793 24.94 105.013 25.11C105.233 25.27 105.533 25.35 105.913 25.35ZM115.139 27.15C113.989 27.15 113.074 26.83 112.394 26.19C111.724 25.55 111.369 24.62 111.329 23.4C111.329 23.32 111.329 23.215 111.329 23.085C111.329 22.945 111.329 22.835 111.329 22.755C111.369 21.985 111.544 21.325 111.854 20.775C112.164 20.215 112.599 19.79 113.159 19.5C113.719 19.2 114.374 19.05 115.124 19.05C115.964 19.05 116.664 19.225 117.224 19.575C117.794 19.915 118.219 20.385 118.499 20.985C118.789 21.575 118.934 22.255 118.934 23.025V23.37C118.934 23.47 118.894 23.555 118.814 23.625C118.744 23.695 118.659 23.73 118.559 23.73H113.654C113.654 23.74 113.654 23.76 113.654 23.79C113.654 23.81 113.654 23.83 113.654 23.85C113.664 24.17 113.724 24.465 113.834 24.735C113.954 24.995 114.119 25.205 114.329 25.365C114.549 25.525 114.809 25.605 115.109 25.605C115.359 25.605 115.564 25.57 115.724 25.5C115.884 25.43 116.014 25.345 116.114 25.245C116.224 25.145 116.304 25.06 116.354 24.99C116.444 24.89 116.514 24.83 116.564 24.81C116.624 24.78 116.714 24.765 116.834 24.765H118.394C118.494 24.765 118.574 24.795 118.634 24.855C118.704 24.905 118.734 24.98 118.724 25.08C118.714 25.24 118.629 25.44 118.469 25.68C118.319 25.91 118.094 26.14 117.794 26.37C117.494 26.59 117.119 26.775 116.669 26.925C116.229 27.075 115.719 27.15 115.139 27.15ZM113.654 22.365H116.594V22.335C116.594 21.975 116.534 21.665 116.414 21.405C116.304 21.135 116.139 20.925 115.919 20.775C115.699 20.625 115.434 20.55 115.124 20.55C114.814 20.55 114.549 20.625 114.329 20.775C114.109 20.925 113.939 21.135 113.819 21.405C113.709 21.665 113.654 21.975 113.654 22.335V22.365ZM124.119 27C124.009 27 123.919 26.965 123.849 26.895C123.779 26.825 123.744 26.735 123.744 26.625V16.725C123.744 16.615 123.779 16.525 123.849 16.455C123.919 16.385 124.009 16.35 124.119 16.35H125.619C125.719 16.35 125.804 16.385 125.874 16.455C125.944 16.525 125.979 16.615 125.979 16.725V26.625C125.979 26.735 125.944 26.825 125.874 26.895C125.804 26.965 125.719 27 125.619 27H124.119ZM128.645 27C128.545 27 128.46 26.965 128.39 26.895C128.32 26.825 128.285 26.735 128.285 26.625V19.575C128.285 19.465 128.32 19.375 128.39 19.305C128.46 19.235 128.545 19.2 128.645 19.2H130.145C130.255 19.2 130.345 19.235 130.415 19.305C130.485 19.375 130.52 19.465 130.52 19.575V26.625C130.52 26.735 130.485 26.825 130.415 26.895C130.345 26.965 130.255 27 130.145 27H128.645ZM128.6 18C128.5 18 128.415 17.965 128.345 17.895C128.275 17.825 128.24 17.735 128.24 17.625V16.425C128.24 16.315 128.275 16.225 128.345 16.155C128.415 16.075 128.5 16.035 128.6 16.035H130.175C130.285 16.035 130.375 16.075 130.445 16.155C130.525 16.225 130.565 16.315 130.565 16.425V17.625C130.565 17.735 130.525 17.825 130.445 17.895C130.375 17.965 130.285 18 130.175 18H128.6ZM135.161 27C135.011 27 134.896 26.965 134.816 26.895C134.746 26.815 134.686 26.725 134.636 26.625L131.816 19.665C131.796 19.625 131.786 19.58 131.786 19.53C131.786 19.44 131.816 19.365 131.876 19.305C131.946 19.235 132.026 19.2 132.116 19.2H133.571C133.701 19.2 133.796 19.235 133.856 19.305C133.926 19.375 133.971 19.44 133.991 19.5L135.836 24.45L137.681 19.5C137.711 19.44 137.756 19.375 137.816 19.305C137.886 19.235 137.981 19.2 138.101 19.2H139.556C139.646 19.2 139.721 19.235 139.781 19.305C139.851 19.365 139.886 19.44 139.886 19.53C139.886 19.58 139.881 19.625 139.871 19.665L137.036 26.625C136.996 26.725 136.936 26.815 136.856 26.895C136.776 26.965 136.661 27 136.511 27H135.161ZM141.521 27C141.421 27 141.336 26.965 141.266 26.895C141.196 26.825 141.161 26.735 141.161 26.625V19.575C141.161 19.475 141.196 19.39 141.266 19.32C141.336 19.24 141.421 19.2 141.521 19.2H142.991C143.091 19.2 143.176 19.24 143.246 19.32C143.326 19.39 143.366 19.475 143.366 19.575V20.175C143.616 19.865 143.921 19.625 144.281 19.455C144.651 19.285 145.076 19.2 145.556 19.2H146.201C146.301 19.2 146.386 19.235 146.456 19.305C146.526 19.375 146.561 19.465 146.561 19.575V20.865C146.561 20.975 146.526 21.065 146.456 21.135C146.386 21.205 146.301 21.24 146.201 21.24H144.881C144.441 21.24 144.096 21.365 143.846 21.615C143.596 21.855 143.471 22.2 143.471 22.65V26.625C143.471 26.735 143.436 26.825 143.366 26.895C143.296 26.965 143.206 27 143.096 27H141.521ZM149.843 27.15C149.313 27.15 148.838 27.05 148.418 26.85C147.998 26.64 147.663 26.36 147.413 26.01C147.163 25.66 147.038 25.27 147.038 24.84C147.038 24.13 147.323 23.57 147.893 23.16C148.473 22.75 149.233 22.47 150.173 22.32L152.138 22.035V21.765C152.138 21.375 152.048 21.075 151.868 20.865C151.688 20.655 151.373 20.55 150.923 20.55C150.593 20.55 150.328 20.615 150.128 20.745C149.928 20.875 149.773 21.045 149.663 21.255C149.583 21.385 149.468 21.45 149.318 21.45H147.893C147.783 21.45 147.698 21.42 147.638 21.36C147.578 21.29 147.553 21.21 147.563 21.12C147.563 20.95 147.628 20.75 147.758 20.52C147.888 20.29 148.088 20.065 148.358 19.845C148.628 19.615 148.973 19.425 149.393 19.275C149.813 19.125 150.328 19.05 150.938 19.05C151.568 19.05 152.108 19.125 152.558 19.275C153.008 19.425 153.368 19.635 153.638 19.905C153.908 20.175 154.108 20.49 154.238 20.85C154.368 21.2 154.433 21.58 154.433 21.99V26.625C154.433 26.735 154.398 26.825 154.328 26.895C154.258 26.965 154.168 27 154.058 27H152.588C152.488 27 152.403 26.965 152.333 26.895C152.263 26.825 152.228 26.735 152.228 26.625V26.07C152.098 26.26 151.923 26.44 151.703 26.61C151.483 26.77 151.218 26.9 150.908 27C150.608 27.1 150.253 27.15 149.843 27.15ZM150.443 25.59C150.773 25.59 151.068 25.52 151.328 25.38C151.588 25.24 151.793 25.025 151.943 24.735C152.093 24.445 152.168 24.08 152.168 23.64V23.385L150.773 23.61C150.233 23.7 149.838 23.835 149.588 24.015C149.338 24.195 149.213 24.415 149.213 24.675C149.213 24.865 149.268 25.03 149.378 25.17C149.498 25.31 149.653 25.415 149.843 25.485C150.033 25.555 150.233 25.59 150.443 25.59ZM156.609 27C156.509 27 156.424 26.965 156.354 26.895C156.284 26.825 156.249 26.735 156.249 26.625V19.575C156.249 19.465 156.284 19.375 156.354 19.305C156.424 19.235 156.509 19.2 156.609 19.2H158.109C158.219 19.2 158.309 19.235 158.379 19.305C158.449 19.375 158.484 19.465 158.484 19.575V26.625C158.484 26.735 158.449 26.825 158.379 26.895C158.309 26.965 158.219 27 158.109 27H156.609ZM156.564 18C156.464 18 156.379 17.965 156.309 17.895C156.239 17.825 156.204 17.735 156.204 17.625V16.425C156.204 16.315 156.239 16.225 156.309 16.155C156.379 16.075 156.464 16.035 156.564 16.035H158.139C158.249 16.035 158.339 16.075 158.409 16.155C158.489 16.225 158.529 16.315 158.529 16.425V17.625C158.529 17.735 158.489 17.825 158.409 17.895C158.339 17.965 158.249 18 158.139 18H156.564ZM163.674 27.15C163.054 27.15 162.519 27.08 162.069 26.94C161.629 26.79 161.269 26.61 160.989 26.4C160.719 26.19 160.514 25.98 160.374 25.77C160.244 25.55 160.174 25.365 160.164 25.215C160.154 25.105 160.189 25.015 160.269 24.945C160.349 24.875 160.429 24.84 160.509 24.84H161.964C161.994 24.84 162.024 24.845 162.054 24.855C162.084 24.865 162.114 24.89 162.144 24.93C162.274 25.02 162.409 25.125 162.549 25.245C162.689 25.355 162.849 25.45 163.029 25.53C163.219 25.61 163.454 25.65 163.734 25.65C164.064 25.65 164.344 25.585 164.574 25.455C164.804 25.315 164.919 25.12 164.919 24.87C164.919 24.69 164.864 24.54 164.754 24.42C164.654 24.3 164.459 24.19 164.169 24.09C163.879 23.99 163.449 23.88 162.879 23.76C162.339 23.64 161.879 23.48 161.499 23.28C161.119 23.08 160.834 22.83 160.644 22.53C160.454 22.22 160.359 21.85 160.359 21.42C160.359 21.03 160.479 20.655 160.719 20.295C160.969 19.935 161.334 19.64 161.814 19.41C162.294 19.17 162.894 19.05 163.614 19.05C164.164 19.05 164.644 19.12 165.054 19.26C165.474 19.39 165.824 19.56 166.104 19.77C166.384 19.97 166.594 20.18 166.734 20.4C166.884 20.61 166.964 20.795 166.974 20.955C166.984 21.055 166.954 21.14 166.884 21.21C166.814 21.28 166.734 21.315 166.644 21.315H165.309C165.259 21.315 165.214 21.31 165.174 21.3C165.134 21.28 165.099 21.255 165.069 21.225C164.949 21.145 164.824 21.055 164.694 20.955C164.574 20.845 164.429 20.75 164.259 20.67C164.089 20.59 163.869 20.55 163.599 20.55C163.269 20.55 163.014 20.625 162.834 20.775C162.664 20.915 162.579 21.095 162.579 21.315C162.579 21.455 162.624 21.585 162.714 21.705C162.804 21.825 162.989 21.935 163.269 22.035C163.549 22.135 163.974 22.24 164.544 22.35C165.224 22.47 165.764 22.65 166.164 22.89C166.564 23.13 166.849 23.41 167.019 23.73C167.199 24.04 167.289 24.375 167.289 24.735C167.289 25.205 167.149 25.625 166.869 25.995C166.589 26.355 166.179 26.64 165.639 26.85C165.109 27.05 164.454 27.15 163.674 27.15ZM172.299 27.15C171.469 27.15 170.774 27.015 170.214 26.745C169.654 26.465 169.224 26.07 168.924 25.56C168.634 25.05 168.474 24.455 168.444 23.775C168.434 23.575 168.429 23.35 168.429 23.1C168.429 22.84 168.434 22.615 168.444 22.425C168.474 21.735 168.644 21.14 168.954 20.64C169.264 20.13 169.699 19.74 170.259 19.47C170.819 19.19 171.499 19.05 172.299 19.05C173.089 19.05 173.764 19.19 174.324 19.47C174.884 19.74 175.319 20.13 175.629 20.64C175.939 21.14 176.109 21.735 176.139 22.425C176.159 22.615 176.169 22.84 176.169 23.1C176.169 23.35 176.159 23.575 176.139 23.775C176.109 24.455 175.944 25.05 175.644 25.56C175.354 26.07 174.929 26.465 174.369 26.745C173.809 27.015 173.119 27.15 172.299 27.15ZM172.299 25.5C172.789 25.5 173.159 25.35 173.409 25.05C173.659 24.74 173.794 24.29 173.814 23.7C173.824 23.55 173.829 23.35 173.829 23.1C173.829 22.85 173.824 22.65 173.814 22.5C173.794 21.92 173.659 21.475 173.409 21.165C173.159 20.855 172.789 20.7 172.299 20.7C171.809 20.7 171.434 20.855 171.174 21.165C170.924 21.475 170.789 21.92 170.769 22.5C170.759 22.65 170.754 22.85 170.754 23.1C170.754 23.35 170.759 23.55 170.769 23.7C170.789 24.29 170.924 24.74 171.174 25.05C171.434 25.35 171.809 25.5 172.299 25.5ZM178.098 27C177.998 27 177.913 26.965 177.843 26.895C177.773 26.825 177.738 26.735 177.738 26.625V19.575C177.738 19.465 177.773 19.375 177.843 19.305C177.913 19.235 177.998 19.2 178.098 19.2H179.568C179.678 19.2 179.768 19.235 179.838 19.305C179.908 19.375 179.943 19.465 179.943 19.575V20.16C180.203 19.84 180.538 19.575 180.948 19.365C181.358 19.155 181.858 19.05 182.448 19.05C183.038 19.05 183.553 19.185 183.993 19.455C184.443 19.715 184.793 20.1 185.043 20.61C185.303 21.11 185.433 21.72 185.433 22.44V26.625C185.433 26.735 185.393 26.825 185.313 26.895C185.243 26.965 185.158 27 185.058 27H183.468C183.358 27 183.268 26.965 183.198 26.895C183.128 26.825 183.093 26.735 183.093 26.625V22.53C183.093 22 182.963 21.59 182.703 21.3C182.453 21 182.083 20.85 181.593 20.85C181.123 20.85 180.748 21 180.468 21.3C180.188 21.59 180.048 22 180.048 22.53V26.625C180.048 26.735 180.013 26.825 179.943 26.895C179.873 26.965 179.788 27 179.688 27H178.098Z" fill="white"/>
</svg>
