<svg width="221" height="44" viewBox="0 0 221 44" fill="none" xmlns="http://www.w3.org/2000/svg">
  <rect width="221" height="44" rx="5" fill="#A57F1E"/>
  <path d="M59.32 27C59.21 27 59.12 26.965 59.05 26.895C58.98 26.825 58.945 26.735 58.945 26.625V16.725C58.945 16.615 58.98 16.525 59.05 16.455C59.12 16.385 59.21 16.35 59.32 16.35H60.82C60.92 16.35 61.005 16.385 61.075 16.455C61.145 16.525 61.18 16.615 61.18 16.725V26.625C61.18 26.735 61.145 26.825 61.075 26.895C61.005 26.965 60.92 27 60.82 27H59.32ZM63.846 27C63.746 27 63.661 26.965 63.591 26.895C63.521 26.825 63.486 26.735 63.486 26.625V19.575C63.486 19.465 63.521 19.375 63.591 19.305C63.661 19.235 63.746 19.2 63.846 19.2H65.346C65.456 19.2 65.546 19.235 65.616 19.305C65.686 19.375 65.721 19.465 65.721 19.575V26.625C65.721 26.735 65.686 26.825 65.616 26.895C65.546 26.965 65.456 27 65.346 27H63.846ZM63.801 18C63.701 18 63.616 17.965 63.546 17.895C63.476 17.825 63.441 17.735 63.441 17.625V16.425C63.441 16.315 63.476 16.225 63.546 16.155C63.616 16.075 63.701 16.035 63.801 16.035H65.376C65.486 16.035 65.576 16.075 65.646 16.155C65.726 16.225 65.766 16.315 65.766 16.425V17.625C65.766 17.735 65.726 17.825 65.646 17.895C65.576 17.965 65.486 18 65.376 18H63.801ZM70.9116 27.15C70.2916 27.15 69.7566 27.08 69.3066 26.94C68.8666 26.79 68.5066 26.61 68.2266 26.4C67.9566 26.19 67.7516 25.98 67.6116 25.77C67.4816 25.55 67.4116 25.365 67.4016 25.215C67.3916 25.105 67.4266 25.015 67.5066 24.945C67.5866 24.875 67.6666 24.84 67.7466 24.84H69.2016C69.2316 24.84 69.2616 24.845 69.2916 24.855C69.3216 24.865 69.3516 24.89 69.3816 24.93C69.5116 25.02 69.6466 25.125 69.7866 25.245C69.9266 25.355 70.0866 25.45 70.2666 25.53C70.4566 25.61 70.6916 25.65 70.9716 25.65C71.3016 25.65 71.5816 25.585 71.8116 25.455C72.0416 25.315 72.1566 25.12 72.1566 24.87C72.1566 24.69 72.1016 24.54 71.9916 24.42C71.8916 24.3 71.6966 24.19 71.4066 24.09C71.1166 23.99 70.6866 23.88 70.1166 23.76C69.5766 23.64 69.1166 23.48 68.7366 23.28C68.3566 23.08 68.0716 22.83 67.8816 22.53C67.6916 22.22 67.5966 21.85 67.5966 21.42C67.5966 21.03 67.7166 20.655 67.9566 20.295C68.2066 19.935 68.5716 19.64 69.0516 19.41C69.5316 19.17 70.1316 19.05 70.8516 19.05C71.4016 19.05 71.8816 19.12 72.2916 19.26C72.7116 19.39 73.0616 19.56 73.3416 19.77C73.6216 19.97 73.8316 20.18 73.9716 20.4C74.1216 20.61 74.2016 20.795 74.2116 20.955C74.2216 21.055 74.1916 21.14 74.1216 21.21C74.0516 21.28 73.9716 21.315 73.8816 21.315H72.5466C72.4966 21.315 72.4516 21.31 72.4116 21.3C72.3716 21.28 72.3366 21.255 72.3066 21.225C72.1866 21.145 72.0616 21.055 71.9316 20.955C71.8116 20.845 71.6666 20.75 71.4966 20.67C71.3266 20.59 71.1066 20.55 70.8366 20.55C70.5066 20.55 70.2516 20.625 70.0716 20.775C69.9016 20.915 69.8166 21.095 69.8166 21.315C69.8166 21.455 69.8616 21.585 69.9516 21.705C70.0416 21.825 70.2266 21.935 70.5066 22.035C70.7866 22.135 71.2116 22.24 71.7816 22.35C72.4616 22.47 73.0016 22.65 73.4016 22.89C73.8016 23.13 74.0866 23.41 74.2566 23.73C74.4366 24.04 74.5266 24.375 74.5266 24.735C74.5266 25.205 74.3866 25.625 74.1066 25.995C73.8266 26.355 73.4166 26.64 72.8766 26.85C72.3466 27.05 71.6916 27.15 70.9116 27.15ZM79.6872 27C79.0672 27 78.5372 26.9 78.0972 26.7C77.6572 26.49 77.3222 26.17 77.0922 25.74C76.8722 25.31 76.7622 24.77 76.7622 24.12V20.97H75.5922C75.4822 20.97 75.3922 20.935 75.3222 20.865C75.2522 20.795 75.2172 20.705 75.2172 20.595V19.575C75.2172 19.465 75.2522 19.375 75.3222 19.305C75.3922 19.235 75.4822 19.2 75.5922 19.2H76.7622V16.725C76.7622 16.615 76.7972 16.525 76.8672 16.455C76.9472 16.385 77.0372 16.35 77.1372 16.35H78.6072C78.7172 16.35 78.8072 16.385 78.8772 16.455C78.9472 16.525 78.9822 16.615 78.9822 16.725V19.2H80.8572C80.9572 19.2 81.0422 19.235 81.1122 19.305C81.1822 19.375 81.2172 19.465 81.2172 19.575V20.595C81.2172 20.705 81.1822 20.795 81.1122 20.865C81.0422 20.935 80.9572 20.97 80.8572 20.97H78.9822V23.94C78.9822 24.32 79.0472 24.62 79.1772 24.84C79.3172 25.05 79.5572 25.155 79.8972 25.155H80.9922C81.0922 25.155 81.1772 25.19 81.2472 25.26C81.3172 25.33 81.3522 25.415 81.3522 25.515V26.625C81.3522 26.735 81.3172 26.825 81.2472 26.895C81.1772 26.965 81.0922 27 80.9922 27H79.6872ZM86.1408 27.15C84.9908 27.15 84.0758 26.83 83.3958 26.19C82.7258 25.55 82.3708 24.62 82.3308 23.4C82.3308 23.32 82.3308 23.215 82.3308 23.085C82.3308 22.945 82.3308 22.835 82.3308 22.755C82.3708 21.985 82.5458 21.325 82.8558 20.775C83.1658 20.215 83.6008 19.79 84.1608 19.5C84.7208 19.2 85.3758 19.05 86.1258 19.05C86.9658 19.05 87.6658 19.225 88.2258 19.575C88.7958 19.915 89.2208 20.385 89.5008 20.985C89.7908 21.575 89.9358 22.255 89.9358 23.025V23.37C89.9358 23.47 89.8958 23.555 89.8158 23.625C89.7458 23.695 89.6608 23.73 89.5608 23.73H84.6558C84.6558 23.74 84.6558 23.76 84.6558 23.79C84.6558 23.81 84.6558 23.83 84.6558 23.85C84.6658 24.17 84.7258 24.465 84.8358 24.735C84.9558 24.995 85.1208 25.205 85.3308 25.365C85.5508 25.525 85.8108 25.605 86.1108 25.605C86.3608 25.605 86.5658 25.57 86.7258 25.5C86.8858 25.43 87.0158 25.345 87.1158 25.245C87.2258 25.145 87.3058 25.06 87.3558 24.99C87.4458 24.89 87.5158 24.83 87.5658 24.81C87.6258 24.78 87.7158 24.765 87.8358 24.765H89.3958C89.4958 24.765 89.5758 24.795 89.6358 24.855C89.7058 24.905 89.7358 24.98 89.7258 25.08C89.7158 25.24 89.6308 25.44 89.4708 25.68C89.3208 25.91 89.0958 26.14 88.7958 26.37C88.4958 26.59 88.1208 26.775 87.6708 26.925C87.2308 27.075 86.7208 27.15 86.1408 27.15ZM84.6558 22.365H87.5958V22.335C87.5958 21.975 87.5358 21.665 87.4158 21.405C87.3058 21.135 87.1408 20.925 86.9208 20.775C86.7008 20.625 86.4358 20.55 86.1258 20.55C85.8158 20.55 85.5508 20.625 85.3308 20.775C85.1108 20.925 84.9408 21.135 84.8208 21.405C84.7108 21.665 84.6558 21.975 84.6558 22.335V22.365ZM97.6408 27.15C97.1408 27.15 96.6958 27.07 96.3058 26.91C95.9158 26.74 95.5858 26.5 95.3158 26.19C95.0458 25.87 94.8408 25.495 94.7008 25.065C94.5608 24.625 94.4758 24.14 94.4458 23.61C94.4358 23.42 94.4308 23.25 94.4308 23.1C94.4308 22.94 94.4358 22.77 94.4458 22.59C94.4658 22.07 94.5458 21.595 94.6858 21.165C94.8358 20.735 95.0408 20.365 95.3008 20.055C95.5708 19.735 95.9008 19.49 96.2908 19.32C96.6908 19.14 97.1408 19.05 97.6408 19.05C98.1608 19.05 98.6058 19.14 98.9758 19.32C99.3458 19.49 99.6508 19.715 99.8908 19.995V16.725C99.8908 16.615 99.9258 16.525 99.9958 16.455C100.066 16.385 100.156 16.35 100.266 16.35H101.811C101.911 16.35 101.996 16.385 102.066 16.455C102.136 16.525 102.171 16.615 102.171 16.725V26.625C102.171 26.735 102.136 26.825 102.066 26.895C101.996 26.965 101.911 27 101.811 27H100.371C100.271 27 100.186 26.965 100.116 26.895C100.046 26.825 100.011 26.735 100.011 26.625V26.115C99.7608 26.415 99.4458 26.665 99.0658 26.865C98.6858 27.055 98.2108 27.15 97.6408 27.15ZM98.3308 25.35C98.7008 25.35 98.9958 25.265 99.2158 25.095C99.4458 24.925 99.6108 24.71 99.7108 24.45C99.8208 24.19 99.8808 23.91 99.8908 23.61C99.9108 23.42 99.9208 23.23 99.9208 23.04C99.9208 22.85 99.9108 22.665 99.8908 22.485C99.8808 22.205 99.8208 21.945 99.7108 21.705C99.6008 21.455 99.4308 21.25 99.2008 21.09C98.9808 20.93 98.6908 20.85 98.3308 20.85C97.9508 20.85 97.6508 20.935 97.4308 21.105C97.2108 21.265 97.0508 21.48 96.9508 21.75C96.8608 22.02 96.8058 22.315 96.7858 22.635C96.7558 22.945 96.7558 23.255 96.7858 23.565C96.8058 23.885 96.8608 24.18 96.9508 24.45C97.0508 24.72 97.2108 24.94 97.4308 25.11C97.6508 25.27 97.9508 25.35 98.3308 25.35ZM104.512 20.145C104.382 20.145 104.287 20.11 104.227 20.04C104.177 19.96 104.142 19.87 104.122 19.77L103.807 16.77C103.797 16.64 103.822 16.54 103.882 16.47C103.952 16.39 104.042 16.35 104.152 16.35H105.652C105.772 16.35 105.862 16.39 105.922 16.47C105.992 16.54 106.017 16.64 105.997 16.77L105.682 19.77C105.672 19.87 105.637 19.96 105.577 20.04C105.527 20.11 105.432 20.145 105.292 20.145H104.512ZM109.536 27.15C109.006 27.15 108.531 27.05 108.111 26.85C107.691 26.64 107.356 26.36 107.106 26.01C106.856 25.66 106.731 25.27 106.731 24.84C106.731 24.13 107.016 23.57 107.586 23.16C108.166 22.75 108.926 22.47 109.866 22.32L111.831 22.035V21.765C111.831 21.375 111.741 21.075 111.561 20.865C111.381 20.655 111.066 20.55 110.616 20.55C110.286 20.55 110.021 20.615 109.821 20.745C109.621 20.875 109.466 21.045 109.356 21.255C109.276 21.385 109.161 21.45 109.011 21.45H107.586C107.476 21.45 107.391 21.42 107.331 21.36C107.271 21.29 107.246 21.21 107.256 21.12C107.256 20.95 107.321 20.75 107.451 20.52C107.581 20.29 107.781 20.065 108.051 19.845C108.321 19.615 108.666 19.425 109.086 19.275C109.506 19.125 110.021 19.05 110.631 19.05C111.261 19.05 111.801 19.125 112.251 19.275C112.701 19.425 113.061 19.635 113.331 19.905C113.601 20.175 113.801 20.49 113.931 20.85C114.061 21.2 114.126 21.58 114.126 21.99V26.625C114.126 26.735 114.091 26.825 114.021 26.895C113.951 26.965 113.861 27 113.751 27H112.281C112.181 27 112.096 26.965 112.026 26.895C111.956 26.825 111.921 26.735 111.921 26.625V26.07C111.791 26.26 111.616 26.44 111.396 26.61C111.176 26.77 110.911 26.9 110.601 27C110.301 27.1 109.946 27.15 109.536 27.15ZM110.136 25.59C110.466 25.59 110.761 25.52 111.021 25.38C111.281 25.24 111.486 25.025 111.636 24.735C111.786 24.445 111.861 24.08 111.861 23.64V23.385L110.466 23.61C109.926 23.7 109.531 23.835 109.281 24.015C109.031 24.195 108.906 24.415 108.906 24.675C108.906 24.865 108.961 25.03 109.071 25.17C109.191 25.31 109.346 25.415 109.536 25.485C109.726 25.555 109.926 25.59 110.136 25.59ZM119.633 27C119.013 27 118.483 26.9 118.043 26.7C117.603 26.49 117.268 26.17 117.038 25.74C116.818 25.31 116.708 24.77 116.708 24.12V20.97H115.538C115.428 20.97 115.338 20.935 115.268 20.865C115.198 20.795 115.163 20.705 115.163 20.595V19.575C115.163 19.465 115.198 19.375 115.268 19.305C115.338 19.235 115.428 19.2 115.538 19.2H116.708V16.725C116.708 16.615 116.743 16.525 116.813 16.455C116.893 16.385 116.983 16.35 117.083 16.35H118.553C118.663 16.35 118.753 16.385 118.823 16.455C118.893 16.525 118.928 16.615 118.928 16.725V19.2H120.803C120.903 19.2 120.988 19.235 121.058 19.305C121.128 19.375 121.163 19.465 121.163 19.575V20.595C121.163 20.705 121.128 20.795 121.058 20.865C120.988 20.935 120.903 20.97 120.803 20.97H118.928V23.94C118.928 24.32 118.993 24.62 119.123 24.84C119.263 25.05 119.503 25.155 119.843 25.155H120.938C121.038 25.155 121.123 25.19 121.193 25.26C121.263 25.33 121.298 25.415 121.298 25.515V26.625C121.298 26.735 121.263 26.825 121.193 26.895C121.123 26.965 121.038 27 120.938 27H119.633ZM126.357 27C125.737 27 125.207 26.9 124.767 26.7C124.327 26.49 123.992 26.17 123.762 25.74C123.542 25.31 123.432 24.77 123.432 24.12V20.97H122.262C122.152 20.97 122.062 20.935 121.992 20.865C121.922 20.795 121.887 20.705 121.887 20.595V19.575C121.887 19.465 121.922 19.375 121.992 19.305C122.062 19.235 122.152 19.2 122.262 19.2H123.432V16.725C123.432 16.615 123.467 16.525 123.537 16.455C123.617 16.385 123.707 16.35 123.807 16.35H125.277C125.387 16.35 125.477 16.385 125.547 16.455C125.617 16.525 125.652 16.615 125.652 16.725V19.2H127.527C127.627 19.2 127.712 19.235 127.782 19.305C127.852 19.375 127.887 19.465 127.887 19.575V20.595C127.887 20.705 127.852 20.795 127.782 20.865C127.712 20.935 127.627 20.97 127.527 20.97H125.652V23.94C125.652 24.32 125.717 24.62 125.847 24.84C125.987 25.05 126.227 25.155 126.567 25.155H127.662C127.762 25.155 127.847 25.19 127.917 25.26C127.987 25.33 128.022 25.415 128.022 25.515V26.625C128.022 26.735 127.987 26.825 127.917 26.895C127.847 26.965 127.762 27 127.662 27H126.357ZM132.811 27.15C131.661 27.15 130.746 26.83 130.066 26.19C129.396 25.55 129.041 24.62 129.001 23.4C129.001 23.32 129.001 23.215 129.001 23.085C129.001 22.945 129.001 22.835 129.001 22.755C129.041 21.985 129.216 21.325 129.526 20.775C129.836 20.215 130.271 19.79 130.831 19.5C131.391 19.2 132.046 19.05 132.796 19.05C133.636 19.05 134.336 19.225 134.896 19.575C135.466 19.915 135.891 20.385 136.171 20.985C136.461 21.575 136.606 22.255 136.606 23.025V23.37C136.606 23.47 136.566 23.555 136.486 23.625C136.416 23.695 136.331 23.73 136.231 23.73H131.326C131.326 23.74 131.326 23.76 131.326 23.79C131.326 23.81 131.326 23.83 131.326 23.85C131.336 24.17 131.396 24.465 131.506 24.735C131.626 24.995 131.791 25.205 132.001 25.365C132.221 25.525 132.481 25.605 132.781 25.605C133.031 25.605 133.236 25.57 133.396 25.5C133.556 25.43 133.686 25.345 133.786 25.245C133.896 25.145 133.976 25.06 134.026 24.99C134.116 24.89 134.186 24.83 134.236 24.81C134.296 24.78 134.386 24.765 134.506 24.765H136.066C136.166 24.765 136.246 24.795 136.306 24.855C136.376 24.905 136.406 24.98 136.396 25.08C136.386 25.24 136.301 25.44 136.141 25.68C135.991 25.91 135.766 26.14 135.466 26.37C135.166 26.59 134.791 26.775 134.341 26.925C133.901 27.075 133.391 27.15 132.811 27.15ZM131.326 22.365H134.266V22.335C134.266 21.975 134.206 21.665 134.086 21.405C133.976 21.135 133.811 20.925 133.591 20.775C133.371 20.625 133.106 20.55 132.796 20.55C132.486 20.55 132.221 20.625 132.001 20.775C131.781 20.925 131.611 21.135 131.491 21.405C131.381 21.665 131.326 21.975 131.326 22.335V22.365ZM138.465 27C138.365 27 138.28 26.965 138.21 26.895C138.14 26.825 138.105 26.735 138.105 26.625V19.575C138.105 19.465 138.14 19.375 138.21 19.305C138.28 19.235 138.365 19.2 138.465 19.2H139.935C140.045 19.2 140.135 19.235 140.205 19.305C140.275 19.375 140.31 19.465 140.31 19.575V20.16C140.57 19.84 140.905 19.575 141.315 19.365C141.725 19.155 142.225 19.05 142.815 19.05C143.405 19.05 143.92 19.185 144.36 19.455C144.81 19.715 145.16 20.1 145.41 20.61C145.67 21.11 145.8 21.72 145.8 22.44V26.625C145.8 26.735 145.76 26.825 145.68 26.895C145.61 26.965 145.525 27 145.425 27H143.835C143.725 27 143.635 26.965 143.565 26.895C143.495 26.825 143.46 26.735 143.46 26.625V22.53C143.46 22 143.33 21.59 143.07 21.3C142.82 21 142.45 20.85 141.96 20.85C141.49 20.85 141.115 21 140.835 21.3C140.555 21.59 140.415 22 140.415 22.53V26.625C140.415 26.735 140.38 26.825 140.31 26.895C140.24 26.965 140.155 27 140.055 27H138.465ZM151.259 27C150.639 27 150.109 26.9 149.669 26.7C149.229 26.49 148.894 26.17 148.664 25.74C148.444 25.31 148.334 24.77 148.334 24.12V20.97H147.164C147.054 20.97 146.964 20.935 146.894 20.865C146.824 20.795 146.789 20.705 146.789 20.595V19.575C146.789 19.465 146.824 19.375 146.894 19.305C146.964 19.235 147.054 19.2 147.164 19.2H148.334V16.725C148.334 16.615 148.369 16.525 148.439 16.455C148.519 16.385 148.609 16.35 148.709 16.35H150.179C150.289 16.35 150.379 16.385 150.449 16.455C150.519 16.525 150.554 16.615 150.554 16.725V19.2H152.429C152.529 19.2 152.614 19.235 152.684 19.305C152.754 19.375 152.789 19.465 152.789 19.575V20.595C152.789 20.705 152.754 20.795 152.684 20.865C152.614 20.935 152.529 20.97 152.429 20.97H150.554V23.94C150.554 24.32 150.619 24.62 150.749 24.84C150.889 25.05 151.129 25.155 151.469 25.155H152.564C152.664 25.155 152.749 25.19 152.819 25.26C152.889 25.33 152.924 25.415 152.924 25.515V26.625C152.924 26.735 152.889 26.825 152.819 26.895C152.749 26.965 152.664 27 152.564 27H151.259ZM157.713 27.15C156.563 27.15 155.648 26.83 154.968 26.19C154.298 25.55 153.943 24.62 153.903 23.4C153.903 23.32 153.903 23.215 153.903 23.085C153.903 22.945 153.903 22.835 153.903 22.755C153.943 21.985 154.118 21.325 154.428 20.775C154.738 20.215 155.173 19.79 155.733 19.5C156.293 19.2 156.948 19.05 157.698 19.05C158.538 19.05 159.238 19.225 159.798 19.575C160.368 19.915 160.793 20.385 161.073 20.985C161.363 21.575 161.508 22.255 161.508 23.025V23.37C161.508 23.47 161.468 23.555 161.388 23.625C161.318 23.695 161.233 23.73 161.133 23.73H156.228C156.228 23.74 156.228 23.76 156.228 23.79C156.228 23.81 156.228 23.83 156.228 23.85C156.238 24.17 156.298 24.465 156.408 24.735C156.528 24.995 156.693 25.205 156.903 25.365C157.123 25.525 157.383 25.605 157.683 25.605C157.933 25.605 158.138 25.57 158.298 25.5C158.458 25.43 158.588 25.345 158.688 25.245C158.798 25.145 158.878 25.06 158.928 24.99C159.018 24.89 159.088 24.83 159.138 24.81C159.198 24.78 159.288 24.765 159.408 24.765H160.968C161.068 24.765 161.148 24.795 161.208 24.855C161.278 24.905 161.308 24.98 161.298 25.08C161.288 25.24 161.203 25.44 161.043 25.68C160.893 25.91 160.668 26.14 160.368 26.37C160.068 26.59 159.693 26.775 159.243 26.925C158.803 27.075 158.293 27.15 157.713 27.15ZM156.228 22.365H159.168V22.335C159.168 21.975 159.108 21.665 158.988 21.405C158.878 21.135 158.713 20.925 158.493 20.775C158.273 20.625 158.008 20.55 157.698 20.55C157.388 20.55 157.123 20.625 156.903 20.775C156.683 20.925 156.513 21.135 156.393 21.405C156.283 21.665 156.228 21.975 156.228 22.335V22.365Z" fill="white"/>
</svg>
