<svg width="221" height="44" viewBox="0 0 221 44" fill="none" xmlns="http://www.w3.org/2000/svg">
  <rect width="221" height="44" rx="5" fill="#0073BA"/>
  <path d="M93.485 27C93.375 27 93.285 26.965 93.215 26.895C93.145 26.825 93.11 26.735 93.11 26.625V16.875C93.11 16.765 93.145 16.675 93.215 16.605C93.285 16.535 93.375 16.5 93.485 16.5H95.15C95.26 16.5 95.35 16.535 95.42 16.605C95.49 16.675 95.525 16.765 95.525 16.875V24.99H100.175C100.285 24.99 100.375 25.025 100.445 25.095C100.515 25.165 100.55 25.255 100.55 25.365V26.625C100.55 26.735 100.515 26.825 100.445 26.895C100.375 26.965 100.285 27 100.175 27H93.485ZM102.123 27C102.023 27 101.938 26.965 101.868 26.895C101.798 26.825 101.763 26.735 101.763 26.625V19.575C101.763 19.465 101.798 19.375 101.868 19.305C101.938 19.235 102.023 19.2 102.123 19.2H103.623C103.733 19.2 103.823 19.235 103.893 19.305C103.963 19.375 103.998 19.465 103.998 19.575V26.625C103.998 26.735 103.963 26.825 103.893 26.895C103.823 26.965 103.733 27 103.623 27H102.123ZM102.078 18C101.978 18 101.893 17.965 101.823 17.895C101.753 17.825 101.718 17.735 101.718 17.625V16.425C101.718 16.315 101.753 16.225 101.823 16.155C101.893 16.075 101.978 16.035 102.078 16.035H103.653C103.763 16.035 103.853 16.075 103.923 16.155C104.003 16.225 104.043 16.315 104.043 16.425V17.625C104.043 17.735 104.003 17.825 103.923 17.895C103.853 17.965 103.763 18 103.653 18H102.078ZM108.64 27C108.49 27 108.375 26.965 108.295 26.895C108.225 26.815 108.165 26.725 108.115 26.625L105.295 19.665C105.275 19.625 105.265 19.58 105.265 19.53C105.265 19.44 105.295 19.365 105.355 19.305C105.425 19.235 105.505 19.2 105.595 19.2H107.05C107.18 19.2 107.275 19.235 107.335 19.305C107.405 19.375 107.45 19.44 107.47 19.5L109.315 24.45L111.16 19.5C111.19 19.44 111.235 19.375 111.295 19.305C111.365 19.235 111.46 19.2 111.58 19.2H113.035C113.125 19.2 113.2 19.235 113.26 19.305C113.33 19.365 113.365 19.44 113.365 19.53C113.365 19.58 113.36 19.625 113.35 19.665L110.515 26.625C110.475 26.725 110.415 26.815 110.335 26.895C110.255 26.965 110.14 27 109.99 27H108.64ZM114.999 27C114.899 27 114.814 26.965 114.744 26.895C114.674 26.825 114.639 26.735 114.639 26.625V19.575C114.639 19.475 114.674 19.39 114.744 19.32C114.814 19.24 114.899 19.2 114.999 19.2H116.469C116.569 19.2 116.654 19.24 116.724 19.32C116.804 19.39 116.844 19.475 116.844 19.575V20.175C117.094 19.865 117.399 19.625 117.759 19.455C118.129 19.285 118.554 19.2 119.034 19.2H119.679C119.779 19.2 119.864 19.235 119.934 19.305C120.004 19.375 120.039 19.465 120.039 19.575V20.865C120.039 20.975 120.004 21.065 119.934 21.135C119.864 21.205 119.779 21.24 119.679 21.24H118.359C117.919 21.24 117.574 21.365 117.324 21.615C117.074 21.855 116.949 22.2 116.949 22.65V26.625C116.949 26.735 116.914 26.825 116.844 26.895C116.774 26.965 116.684 27 116.574 27H114.999ZM124.55 27.15C123.4 27.15 122.485 26.83 121.805 26.19C121.135 25.55 120.78 24.62 120.74 23.4C120.74 23.32 120.74 23.215 120.74 23.085C120.74 22.945 120.74 22.835 120.74 22.755C120.78 21.985 120.955 21.325 121.265 20.775C121.575 20.215 122.01 19.79 122.57 19.5C123.13 19.2 123.785 19.05 124.535 19.05C125.375 19.05 126.075 19.225 126.635 19.575C127.205 19.915 127.63 20.385 127.91 20.985C128.2 21.575 128.345 22.255 128.345 23.025V23.37C128.345 23.47 128.305 23.555 128.225 23.625C128.155 23.695 128.07 23.73 127.97 23.73H123.065C123.065 23.74 123.065 23.76 123.065 23.79C123.065 23.81 123.065 23.83 123.065 23.85C123.075 24.17 123.135 24.465 123.245 24.735C123.365 24.995 123.53 25.205 123.74 25.365C123.96 25.525 124.22 25.605 124.52 25.605C124.77 25.605 124.975 25.57 125.135 25.5C125.295 25.43 125.425 25.345 125.525 25.245C125.635 25.145 125.715 25.06 125.765 24.99C125.855 24.89 125.925 24.83 125.975 24.81C126.035 24.78 126.125 24.765 126.245 24.765H127.805C127.905 24.765 127.985 24.795 128.045 24.855C128.115 24.905 128.145 24.98 128.135 25.08C128.125 25.24 128.04 25.44 127.88 25.68C127.73 25.91 127.505 26.14 127.205 26.37C126.905 26.59 126.53 26.775 126.08 26.925C125.64 27.075 125.13 27.15 124.55 27.15ZM123.065 22.365H126.005V22.335C126.005 21.975 125.945 21.665 125.825 21.405C125.715 21.135 125.55 20.925 125.33 20.775C125.11 20.625 124.845 20.55 124.535 20.55C124.225 20.55 123.96 20.625 123.74 20.775C123.52 20.925 123.35 21.135 123.23 21.405C123.12 21.665 123.065 21.975 123.065 22.335V22.365ZM123.77 18.075C123.61 18.075 123.53 17.995 123.53 17.835C123.53 17.755 123.555 17.69 123.605 17.64L124.88 16.095C124.97 15.975 125.05 15.9 125.12 15.87C125.2 15.83 125.305 15.81 125.435 15.81H127.16C127.35 15.81 127.445 15.91 127.445 16.11C127.445 16.18 127.42 16.24 127.37 16.29L125.435 17.865C125.355 17.935 125.275 17.99 125.195 18.03C125.125 18.06 125.025 18.075 124.895 18.075H123.77Z" fill="white"/>
</svg>
