<svg width="221" height="44" viewBox="0 0 221 44" fill="none" xmlns="http://www.w3.org/2000/svg">
  <rect width="221" height="44" rx="5" fill="#077D55"/>
  <path d="M43.485 27C43.375 27 43.285 26.965 43.215 26.895C43.145 26.825 43.11 26.735 43.11 26.625V16.875C43.11 16.765 43.145 16.675 43.215 16.605C43.285 16.535 43.375 16.5 43.485 16.5H47.58C48.39 16.5 49.09 16.625 49.68 16.875C50.28 17.125 50.745 17.505 51.075 18.015C51.415 18.515 51.585 19.14 51.585 19.89C51.585 20.65 51.415 21.28 51.075 21.78C50.745 22.27 50.28 22.635 49.68 22.875C49.09 23.115 48.39 23.235 47.58 23.235H45.57V26.625C45.57 26.735 45.535 26.825 45.465 26.895C45.395 26.965 45.305 27 45.195 27H43.485ZM45.525 21.375H47.505C48.015 21.375 48.41 21.25 48.69 21C48.98 20.75 49.125 20.375 49.125 19.875C49.125 19.435 48.995 19.075 48.735 18.795C48.485 18.515 48.075 18.375 47.505 18.375H45.525V21.375ZM55.0838 27.15C54.5538 27.15 54.0788 27.05 53.6588 26.85C53.2388 26.64 52.9038 26.36 52.6538 26.01C52.4038 25.66 52.2788 25.27 52.2788 24.84C52.2788 24.13 52.5638 23.57 53.1338 23.16C53.7138 22.75 54.4738 22.47 55.4138 22.32L57.3788 22.035V21.765C57.3788 21.375 57.2888 21.075 57.1088 20.865C56.9288 20.655 56.6138 20.55 56.1638 20.55C55.8338 20.55 55.5688 20.615 55.3688 20.745C55.1688 20.875 55.0138 21.045 54.9038 21.255C54.8238 21.385 54.7088 21.45 54.5588 21.45H53.1338C53.0238 21.45 52.9388 21.42 52.8788 21.36C52.8188 21.29 52.7938 21.21 52.8038 21.12C52.8038 20.95 52.8688 20.75 52.9988 20.52C53.1288 20.29 53.3288 20.065 53.5988 19.845C53.8688 19.615 54.2138 19.425 54.6338 19.275C55.0538 19.125 55.5688 19.05 56.1788 19.05C56.8088 19.05 57.3488 19.125 57.7988 19.275C58.2488 19.425 58.6088 19.635 58.8788 19.905C59.1488 20.175 59.3488 20.49 59.4788 20.85C59.6088 21.2 59.6738 21.58 59.6738 21.99V26.625C59.6738 26.735 59.6388 26.825 59.5688 26.895C59.4988 26.965 59.4088 27 59.2988 27H57.8288C57.7288 27 57.6438 26.965 57.5738 26.895C57.5038 26.825 57.4688 26.735 57.4688 26.625V26.07C57.3388 26.26 57.1638 26.44 56.9438 26.61C56.7238 26.77 56.4588 26.9 56.1488 27C55.8487 27.1 55.4938 27.15 55.0838 27.15ZM55.6838 25.59C56.0138 25.59 56.3088 25.52 56.5688 25.38C56.8288 25.24 57.0338 25.025 57.1838 24.735C57.3338 24.445 57.4088 24.08 57.4088 23.64V23.385L56.0138 23.61C55.4738 23.7 55.0788 23.835 54.8288 24.015C54.5788 24.195 54.4538 24.415 54.4538 24.675C54.4538 24.865 54.5088 25.03 54.6188 25.17C54.7388 25.31 54.8938 25.415 55.0838 25.485C55.2738 25.555 55.4738 25.59 55.6838 25.59ZM61.8499 27C61.7499 27 61.6649 26.965 61.5949 26.895C61.5249 26.825 61.4899 26.735 61.4899 26.625V19.575C61.4899 19.465 61.5249 19.375 61.5949 19.305C61.6649 19.235 61.7499 19.2 61.8499 19.2H63.3499C63.4599 19.2 63.5499 19.235 63.6199 19.305C63.6899 19.375 63.7249 19.465 63.7249 19.575V26.625C63.7249 26.735 63.6899 26.825 63.6199 26.895C63.5499 26.965 63.4599 27 63.3499 27H61.8499ZM61.8049 18C61.7049 18 61.6199 17.965 61.5499 17.895C61.4799 17.825 61.4449 17.735 61.4449 17.625V16.425C61.4449 16.315 61.4799 16.225 61.5499 16.155C61.6199 16.075 61.7049 16.035 61.8049 16.035H63.3799C63.4899 16.035 63.5799 16.075 63.6499 16.155C63.7299 16.225 63.7699 16.315 63.7699 16.425V17.625C63.7699 17.735 63.7299 17.825 63.6499 17.895C63.5799 17.965 63.4899 18 63.3799 18H61.8049ZM69.1447 27.15C67.9947 27.15 67.0797 26.83 66.3997 26.19C65.7297 25.55 65.3747 24.62 65.3347 23.4C65.3347 23.32 65.3347 23.215 65.3347 23.085C65.3347 22.945 65.3347 22.835 65.3347 22.755C65.3747 21.985 65.5497 21.325 65.8597 20.775C66.1697 20.215 66.6047 19.79 67.1647 19.5C67.7247 19.2 68.3797 19.05 69.1297 19.05C69.9697 19.05 70.6697 19.225 71.2297 19.575C71.7997 19.915 72.2247 20.385 72.5047 20.985C72.7947 21.575 72.9397 22.255 72.9397 23.025V23.37C72.9397 23.47 72.8997 23.555 72.8197 23.625C72.7497 23.695 72.6647 23.73 72.5647 23.73H67.6597C67.6597 23.74 67.6597 23.76 67.6597 23.79C67.6597 23.81 67.6597 23.83 67.6597 23.85C67.6697 24.17 67.7297 24.465 67.8397 24.735C67.9597 24.995 68.1247 25.205 68.3347 25.365C68.5547 25.525 68.8147 25.605 69.1147 25.605C69.3647 25.605 69.5697 25.57 69.7297 25.5C69.8897 25.43 70.0197 25.345 70.1197 25.245C70.2297 25.145 70.3097 25.06 70.3597 24.99C70.4497 24.89 70.5197 24.83 70.5697 24.81C70.6297 24.78 70.7197 24.765 70.8397 24.765H72.3997C72.4997 24.765 72.5797 24.795 72.6397 24.855C72.7097 24.905 72.7397 24.98 72.7297 25.08C72.7197 25.24 72.6347 25.44 72.4747 25.68C72.3247 25.91 72.0997 26.14 71.7997 26.37C71.4997 26.59 71.1247 26.775 70.6747 26.925C70.2347 27.075 69.7247 27.15 69.1447 27.15ZM67.6597 22.365H70.5997V22.335C70.5997 21.975 70.5397 21.665 70.4197 21.405C70.3097 21.135 70.1447 20.925 69.9247 20.775C69.7047 20.625 69.4397 20.55 69.1297 20.55C68.8197 20.55 68.5547 20.625 68.3347 20.775C68.1147 20.925 67.9447 21.135 67.8247 21.405C67.7147 21.665 67.6597 21.975 67.6597 22.335V22.365ZM74.7991 27C74.6991 27 74.6141 26.965 74.5441 26.895C74.4741 26.825 74.4391 26.735 74.4391 26.625V19.575C74.4391 19.465 74.4741 19.375 74.5441 19.305C74.6141 19.235 74.6991 19.2 74.7991 19.2H76.1941C76.2941 19.2 76.3791 19.235 76.4491 19.305C76.5291 19.375 76.5691 19.465 76.5691 19.575V20.085C76.7691 19.805 77.0441 19.565 77.3941 19.365C77.7541 19.165 78.1791 19.06 78.6691 19.05C79.8291 19.03 80.6241 19.47 81.0541 20.37C81.2841 19.98 81.6141 19.665 82.0441 19.425C82.4841 19.175 82.9641 19.05 83.4841 19.05C84.0041 19.05 84.4741 19.17 84.8941 19.41C85.3141 19.64 85.6441 20 85.8841 20.49C86.1341 20.97 86.2591 21.59 86.2591 22.35V26.625C86.2591 26.735 86.2241 26.825 86.1541 26.895C86.0841 26.965 85.9991 27 85.8991 27H84.4141C84.3141 27 84.2291 26.965 84.1591 26.895C84.0891 26.825 84.0541 26.735 84.0541 26.625V22.47C84.0541 22.06 83.9941 21.74 83.8741 21.51C83.7541 21.27 83.5941 21.1 83.3941 21C83.2041 20.9 82.9891 20.85 82.7491 20.85C82.5391 20.85 82.3341 20.9 82.1341 21C81.9441 21.1 81.7841 21.27 81.6541 21.51C81.5341 21.74 81.4741 22.06 81.4741 22.47V26.625C81.4741 26.735 81.4391 26.825 81.3691 26.895C81.2991 26.965 81.2091 27 81.0991 27H79.6291C79.5191 27 79.4291 26.965 79.3591 26.895C79.2891 26.825 79.2541 26.735 79.2541 26.625V22.47C79.2541 22.06 79.1941 21.74 79.0741 21.51C78.9541 21.27 78.7941 21.1 78.5941 21C78.4041 20.9 78.1941 20.85 77.9641 20.85C77.7541 20.85 77.5491 20.905 77.3491 21.015C77.1491 21.115 76.9841 21.28 76.8541 21.51C76.7341 21.74 76.6741 22.055 76.6741 22.455V26.625C76.6741 26.735 76.6391 26.825 76.5691 26.895C76.4991 26.965 76.4141 27 76.3141 27H74.7991ZM91.5568 27.15C90.4068 27.15 89.4918 26.83 88.8118 26.19C88.1418 25.55 87.7868 24.62 87.7468 23.4C87.7468 23.32 87.7468 23.215 87.7468 23.085C87.7468 22.945 87.7468 22.835 87.7468 22.755C87.7868 21.985 87.9618 21.325 88.2718 20.775C88.5818 20.215 89.0168 19.79 89.5768 19.5C90.1368 19.2 90.7918 19.05 91.5418 19.05C92.3818 19.05 93.0818 19.225 93.6418 19.575C94.2118 19.915 94.6368 20.385 94.9168 20.985C95.2068 21.575 95.3518 22.255 95.3518 23.025V23.37C95.3518 23.47 95.3118 23.555 95.2318 23.625C95.1618 23.695 95.0768 23.73 94.9768 23.73H90.0718C90.0718 23.74 90.0718 23.76 90.0718 23.79C90.0718 23.81 90.0718 23.83 90.0718 23.85C90.0818 24.17 90.1418 24.465 90.2518 24.735C90.3718 24.995 90.5368 25.205 90.7468 25.365C90.9668 25.525 91.2268 25.605 91.5268 25.605C91.7768 25.605 91.9818 25.57 92.1418 25.5C92.3018 25.43 92.4318 25.345 92.5318 25.245C92.6418 25.145 92.7218 25.06 92.7718 24.99C92.8618 24.89 92.9318 24.83 92.9818 24.81C93.0418 24.78 93.1318 24.765 93.2518 24.765H94.8118C94.9118 24.765 94.9918 24.795 95.0518 24.855C95.1218 24.905 95.1518 24.98 95.1418 25.08C95.1318 25.24 95.0468 25.44 94.8868 25.68C94.7368 25.91 94.5118 26.14 94.2118 26.37C93.9118 26.59 93.5368 26.775 93.0868 26.925C92.6468 27.075 92.1368 27.15 91.5568 27.15ZM90.0718 22.365H93.0118V22.335C93.0118 21.975 92.9518 21.665 92.8318 21.405C92.7218 21.135 92.5568 20.925 92.3368 20.775C92.1168 20.625 91.8518 20.55 91.5418 20.55C91.2318 20.55 90.9668 20.625 90.7468 20.775C90.5268 20.925 90.3568 21.135 90.2368 21.405C90.1268 21.665 90.0718 21.975 90.0718 22.335V22.365ZM97.2113 27C97.1113 27 97.0263 26.965 96.9563 26.895C96.8863 26.825 96.8513 26.735 96.8513 26.625V19.575C96.8513 19.465 96.8863 19.375 96.9563 19.305C97.0263 19.235 97.1113 19.2 97.2113 19.2H98.6813C98.7913 19.2 98.8813 19.235 98.9513 19.305C99.0213 19.375 99.0563 19.465 99.0563 19.575V20.16C99.3163 19.84 99.6513 19.575 100.061 19.365C100.471 19.155 100.971 19.05 101.561 19.05C102.151 19.05 102.666 19.185 103.106 19.455C103.556 19.715 103.906 20.1 104.156 20.61C104.416 21.11 104.546 21.72 104.546 22.44V26.625C104.546 26.735 104.506 26.825 104.426 26.895C104.356 26.965 104.271 27 104.171 27H102.581C102.471 27 102.381 26.965 102.311 26.895C102.241 26.825 102.206 26.735 102.206 26.625V22.53C102.206 22 102.076 21.59 101.816 21.3C101.566 21 101.196 20.85 100.706 20.85C100.236 20.85 99.8613 21 99.5813 21.3C99.3013 21.59 99.1613 22 99.1613 22.53V26.625C99.1613 26.735 99.1263 26.825 99.0563 26.895C98.9863 26.965 98.9013 27 98.8013 27H97.2113ZM110.006 27C109.386 27 108.856 26.9 108.416 26.7C107.976 26.49 107.641 26.17 107.411 25.74C107.191 25.31 107.081 24.77 107.081 24.12V20.97H105.911C105.801 20.97 105.711 20.935 105.641 20.865C105.571 20.795 105.536 20.705 105.536 20.595V19.575C105.536 19.465 105.571 19.375 105.641 19.305C105.711 19.235 105.801 19.2 105.911 19.2H107.081V16.725C107.081 16.615 107.116 16.525 107.186 16.455C107.266 16.385 107.356 16.35 107.456 16.35H108.926C109.036 16.35 109.126 16.385 109.196 16.455C109.266 16.525 109.301 16.615 109.301 16.725V19.2H111.176C111.276 19.2 111.361 19.235 111.431 19.305C111.501 19.375 111.536 19.465 111.536 19.575V20.595C111.536 20.705 111.501 20.795 111.431 20.865C111.361 20.935 111.276 20.97 111.176 20.97H109.301V23.94C109.301 24.32 109.366 24.62 109.496 24.84C109.636 25.05 109.876 25.155 110.216 25.155H111.311C111.411 25.155 111.496 25.19 111.566 25.26C111.636 25.33 111.671 25.415 111.671 25.515V26.625C111.671 26.735 111.636 26.825 111.566 26.895C111.496 26.965 111.411 27 111.311 27H110.006ZM119.77 27.15C118.62 27.15 117.705 26.83 117.025 26.19C116.355 25.55 116 24.62 115.96 23.4C115.96 23.32 115.96 23.215 115.96 23.085C115.96 22.945 115.96 22.835 115.96 22.755C116 21.985 116.175 21.325 116.485 20.775C116.795 20.215 117.23 19.79 117.79 19.5C118.35 19.2 119.005 19.05 119.755 19.05C120.595 19.05 121.295 19.225 121.855 19.575C122.425 19.915 122.85 20.385 123.13 20.985C123.42 21.575 123.565 22.255 123.565 23.025V23.37C123.565 23.47 123.525 23.555 123.445 23.625C123.375 23.695 123.29 23.73 123.19 23.73H118.285C118.285 23.74 118.285 23.76 118.285 23.79C118.285 23.81 118.285 23.83 118.285 23.85C118.295 24.17 118.355 24.465 118.465 24.735C118.585 24.995 118.75 25.205 118.96 25.365C119.18 25.525 119.44 25.605 119.74 25.605C119.99 25.605 120.195 25.57 120.355 25.5C120.515 25.43 120.645 25.345 120.745 25.245C120.855 25.145 120.935 25.06 120.985 24.99C121.075 24.89 121.145 24.83 121.195 24.81C121.255 24.78 121.345 24.765 121.465 24.765H123.025C123.125 24.765 123.205 24.795 123.265 24.855C123.335 24.905 123.365 24.98 123.355 25.08C123.345 25.24 123.26 25.44 123.1 25.68C122.95 25.91 122.725 26.14 122.425 26.37C122.125 26.59 121.75 26.775 121.3 26.925C120.86 27.075 120.35 27.15 119.77 27.15ZM118.285 22.365H121.225V22.335C121.225 21.975 121.165 21.665 121.045 21.405C120.935 21.135 120.77 20.925 120.55 20.775C120.33 20.625 120.065 20.55 119.755 20.55C119.445 20.55 119.18 20.625 118.96 20.775C118.74 20.925 118.57 21.135 118.45 21.405C118.34 21.665 118.285 21.975 118.285 22.335V22.365ZM126.236 27C126.126 27 126.036 26.965 125.966 26.895C125.896 26.825 125.861 26.735 125.861 26.625V20.97H124.691C124.581 20.97 124.491 20.935 124.421 20.865C124.351 20.795 124.316 20.705 124.316 20.595V19.575C124.316 19.465 124.351 19.375 124.421 19.305C124.491 19.235 124.581 19.2 124.691 19.2H125.861V18.66C125.861 18.02 125.981 17.495 126.221 17.085C126.461 16.675 126.811 16.375 127.271 16.185C127.731 15.995 128.296 15.9 128.966 15.9H130.061C130.171 15.9 130.261 15.935 130.331 16.005C130.401 16.075 130.436 16.165 130.436 16.275V17.295C130.436 17.405 130.401 17.495 130.331 17.565C130.261 17.635 130.171 17.67 130.061 17.67H129.056C128.686 17.67 128.426 17.76 128.276 17.94C128.136 18.12 128.066 18.385 128.066 18.735V19.2H131.096V18.66C131.096 18.02 131.216 17.495 131.456 17.085C131.696 16.675 132.046 16.375 132.506 16.185C132.966 15.995 133.531 15.9 134.201 15.9H135.296C135.396 15.9 135.481 15.935 135.551 16.005C135.621 16.075 135.656 16.165 135.656 16.275V17.295C135.656 17.405 135.621 17.495 135.551 17.565C135.481 17.635 135.396 17.67 135.296 17.67H134.291C133.921 17.67 133.661 17.76 133.511 17.94C133.371 18.12 133.301 18.385 133.301 18.735V19.2H135.146C135.246 19.2 135.331 19.235 135.401 19.305C135.471 19.375 135.506 19.465 135.506 19.575V20.595C135.506 20.705 135.471 20.795 135.401 20.865C135.331 20.935 135.246 20.97 135.146 20.97H133.301V26.625C133.301 26.735 133.266 26.825 133.196 26.895C133.126 26.965 133.036 27 132.926 27H131.456C131.356 27 131.271 26.965 131.201 26.895C131.131 26.825 131.096 26.735 131.096 26.625V20.97H128.066V26.625C128.066 26.735 128.031 26.825 127.961 26.895C127.891 26.965 127.806 27 127.706 27H126.236ZM140.029 27.15C138.879 27.15 137.964 26.83 137.284 26.19C136.614 25.55 136.259 24.62 136.219 23.4C136.219 23.32 136.219 23.215 136.219 23.085C136.219 22.945 136.219 22.835 136.219 22.755C136.259 21.985 136.434 21.325 136.744 20.775C137.054 20.215 137.489 19.79 138.049 19.5C138.609 19.2 139.264 19.05 140.014 19.05C140.854 19.05 141.554 19.225 142.114 19.575C142.684 19.915 143.109 20.385 143.389 20.985C143.679 21.575 143.824 22.255 143.824 23.025V23.37C143.824 23.47 143.784 23.555 143.704 23.625C143.634 23.695 143.549 23.73 143.449 23.73H138.544C138.544 23.74 138.544 23.76 138.544 23.79C138.544 23.81 138.544 23.83 138.544 23.85C138.554 24.17 138.614 24.465 138.724 24.735C138.844 24.995 139.009 25.205 139.219 25.365C139.439 25.525 139.699 25.605 139.999 25.605C140.249 25.605 140.454 25.57 140.614 25.5C140.774 25.43 140.904 25.345 141.004 25.245C141.114 25.145 141.194 25.06 141.244 24.99C141.334 24.89 141.404 24.83 141.454 24.81C141.514 24.78 141.604 24.765 141.724 24.765H143.284C143.384 24.765 143.464 24.795 143.524 24.855C143.594 24.905 143.624 24.98 143.614 25.08C143.604 25.24 143.519 25.44 143.359 25.68C143.209 25.91 142.984 26.14 142.684 26.37C142.384 26.59 142.009 26.775 141.559 26.925C141.119 27.075 140.609 27.15 140.029 27.15ZM138.544 22.365H141.484V22.335C141.484 21.975 141.424 21.665 141.304 21.405C141.194 21.135 141.029 20.925 140.809 20.775C140.589 20.625 140.324 20.55 140.014 20.55C139.704 20.55 139.439 20.625 139.219 20.775C138.999 20.925 138.829 21.135 138.709 21.405C138.599 21.665 138.544 21.975 138.544 22.335V22.365ZM148.788 27.15C148.058 27.15 147.413 27.015 146.853 26.745C146.303 26.475 145.868 26.085 145.548 25.575C145.228 25.055 145.053 24.435 145.023 23.715C145.013 23.555 145.008 23.355 145.008 23.115C145.008 22.865 145.013 22.66 145.023 22.5C145.053 21.77 145.223 21.15 145.533 20.64C145.853 20.12 146.293 19.725 146.853 19.455C147.413 19.185 148.058 19.05 148.788 19.05C149.458 19.05 150.028 19.145 150.498 19.335C150.968 19.515 151.353 19.745 151.653 20.025C151.953 20.305 152.173 20.6 152.313 20.91C152.463 21.21 152.543 21.475 152.553 21.705C152.563 21.805 152.528 21.895 152.448 21.975C152.378 22.045 152.293 22.08 152.193 22.08H150.588C150.488 22.08 150.408 22.055 150.348 22.005C150.298 21.945 150.248 21.865 150.198 21.765C150.058 21.415 149.878 21.165 149.658 21.015C149.438 20.865 149.163 20.79 148.833 20.79C148.383 20.79 148.028 20.935 147.768 21.225C147.508 21.515 147.368 21.965 147.348 22.575C147.338 22.965 147.338 23.32 147.348 23.64C147.378 24.26 147.518 24.71 147.768 24.99C148.028 25.27 148.383 25.41 148.833 25.41C149.183 25.41 149.463 25.335 149.673 25.185C149.883 25.035 150.058 24.785 150.198 24.435C150.238 24.335 150.288 24.26 150.348 24.21C150.408 24.15 150.488 24.12 150.588 24.12H152.193C152.293 24.12 152.378 24.16 152.448 24.24C152.528 24.31 152.563 24.395 152.553 24.495C152.543 24.665 152.493 24.865 152.403 25.095C152.323 25.325 152.188 25.56 151.998 25.8C151.818 26.04 151.583 26.265 151.293 26.475C151.003 26.675 150.648 26.84 150.228 26.97C149.818 27.09 149.338 27.15 148.788 27.15ZM157.774 27C157.154 27 156.624 26.9 156.184 26.7C155.744 26.49 155.409 26.17 155.179 25.74C154.959 25.31 154.849 24.77 154.849 24.12V20.97H153.679C153.569 20.97 153.479 20.935 153.409 20.865C153.339 20.795 153.304 20.705 153.304 20.595V19.575C153.304 19.465 153.339 19.375 153.409 19.305C153.479 19.235 153.569 19.2 153.679 19.2H154.849V16.725C154.849 16.615 154.884 16.525 154.954 16.455C155.034 16.385 155.124 16.35 155.224 16.35H156.694C156.804 16.35 156.894 16.385 156.964 16.455C157.034 16.525 157.069 16.615 157.069 16.725V19.2H158.944C159.044 19.2 159.129 19.235 159.199 19.305C159.269 19.375 159.304 19.465 159.304 19.575V20.595C159.304 20.705 159.269 20.795 159.199 20.865C159.129 20.935 159.044 20.97 158.944 20.97H157.069V23.94C157.069 24.32 157.134 24.62 157.264 24.84C157.404 25.05 157.644 25.155 157.984 25.155H159.079C159.179 25.155 159.264 25.19 159.334 25.26C159.404 25.33 159.439 25.415 159.439 25.515V26.625C159.439 26.735 159.404 26.825 159.334 26.895C159.264 26.965 159.179 27 159.079 27H157.774ZM163.613 27.15C163.033 27.15 162.518 27.02 162.068 26.76C161.628 26.49 161.283 26.105 161.033 25.605C160.793 25.095 160.673 24.48 160.673 23.76V19.575C160.673 19.465 160.708 19.375 160.778 19.305C160.848 19.235 160.933 19.2 161.033 19.2H162.623C162.733 19.2 162.823 19.235 162.893 19.305C162.963 19.375 162.998 19.465 162.998 19.575V23.67C162.998 24.79 163.488 25.35 164.468 25.35C164.938 25.35 165.308 25.205 165.578 24.915C165.858 24.615 165.998 24.2 165.998 23.67V19.575C165.998 19.465 166.033 19.375 166.103 19.305C166.173 19.235 166.263 19.2 166.373 19.2H167.963C168.063 19.2 168.148 19.235 168.218 19.305C168.288 19.375 168.323 19.465 168.323 19.575V26.625C168.323 26.735 168.288 26.825 168.218 26.895C168.148 26.965 168.063 27 167.963 27H166.493C166.383 27 166.293 26.965 166.223 26.895C166.153 26.825 166.118 26.735 166.118 26.625V26.04C165.858 26.4 165.523 26.675 165.113 26.865C164.703 27.055 164.203 27.15 163.613 27.15ZM173.691 27.15C172.541 27.15 171.626 26.83 170.946 26.19C170.276 25.55 169.921 24.62 169.881 23.4C169.881 23.32 169.881 23.215 169.881 23.085C169.881 22.945 169.881 22.835 169.881 22.755C169.921 21.985 170.096 21.325 170.406 20.775C170.716 20.215 171.151 19.79 171.711 19.5C172.271 19.2 172.926 19.05 173.676 19.05C174.516 19.05 175.216 19.225 175.776 19.575C176.346 19.915 176.771 20.385 177.051 20.985C177.341 21.575 177.486 22.255 177.486 23.025V23.37C177.486 23.47 177.446 23.555 177.366 23.625C177.296 23.695 177.211 23.73 177.111 23.73H172.206C172.206 23.74 172.206 23.76 172.206 23.79C172.206 23.81 172.206 23.83 172.206 23.85C172.216 24.17 172.276 24.465 172.386 24.735C172.506 24.995 172.671 25.205 172.881 25.365C173.101 25.525 173.361 25.605 173.661 25.605C173.911 25.605 174.116 25.57 174.276 25.5C174.436 25.43 174.566 25.345 174.666 25.245C174.776 25.145 174.856 25.06 174.906 24.99C174.996 24.89 175.066 24.83 175.116 24.81C175.176 24.78 175.266 24.765 175.386 24.765H176.946C177.046 24.765 177.126 24.795 177.186 24.855C177.256 24.905 177.286 24.98 177.276 25.08C177.266 25.24 177.181 25.44 177.021 25.68C176.871 25.91 176.646 26.14 176.346 26.37C176.046 26.59 175.671 26.775 175.221 26.925C174.781 27.075 174.271 27.15 173.691 27.15ZM172.206 22.365H175.146V22.335C175.146 21.975 175.086 21.665 174.966 21.405C174.856 21.135 174.691 20.925 174.471 20.775C174.251 20.625 173.986 20.55 173.676 20.55C173.366 20.55 173.101 20.625 172.881 20.775C172.661 20.925 172.491 21.135 172.371 21.405C172.261 21.665 172.206 21.975 172.206 22.335V22.365ZM172.911 18.075C172.751 18.075 172.671 17.995 172.671 17.835C172.671 17.755 172.696 17.69 172.746 17.64L174.021 16.095C174.111 15.975 174.191 15.9 174.261 15.87C174.341 15.83 174.446 15.81 174.576 15.81H176.301C176.491 15.81 176.586 15.91 176.586 16.11C176.586 16.18 176.561 16.24 176.511 16.29L174.576 17.865C174.496 17.935 174.416 17.99 174.336 18.03C174.266 18.06 174.166 18.075 174.036 18.075H172.911Z" fill="white"/>
</svg>
