<svg width="131" height="36" viewBox="0 0 131 36" fill="none" xmlns="http://www.w3.org/2000/svg">
  <rect y="0.666504" width="131" height="35" rx="5" fill="#43AF3F"/>
  <path d="M20.213 26.2195C18.805 26.2195 17.6243 26.0142 16.671 25.6035C15.7323 25.1928 15.021 24.6575 14.537 23.9975C14.053 23.3375 13.7963 22.6335 13.767 21.8855C13.767 21.7682 13.811 21.6655 13.899 21.5775C13.987 21.4748 14.097 21.4235 14.229 21.4235H16.583C16.7737 21.4235 16.9203 21.4675 17.023 21.5555C17.1257 21.6288 17.221 21.7242 17.309 21.8415C17.4117 22.0908 17.573 22.3328 17.793 22.5675C18.0277 22.8022 18.343 23.0002 18.739 23.1615C19.135 23.3082 19.6263 23.3815 20.213 23.3815C21.1663 23.3815 21.8777 23.2275 22.347 22.9195C22.831 22.6115 23.073 22.1935 23.073 21.6655C23.073 21.2842 22.941 20.9762 22.677 20.7415C22.4277 20.5068 22.0243 20.2942 21.467 20.1035C20.9243 19.9128 20.1983 19.7075 19.289 19.4875C18.189 19.2528 17.2503 18.9522 16.473 18.5855C15.7103 18.2042 15.131 17.7202 14.735 17.1335C14.3537 16.5322 14.163 15.7915 14.163 14.9115C14.163 14.0315 14.405 13.2542 14.889 12.5795C15.373 11.8902 16.055 11.3548 16.935 10.9735C17.815 10.5775 18.8637 10.3795 20.081 10.3795C21.0637 10.3795 21.929 10.5115 22.677 10.7755C23.4397 11.0395 24.0703 11.3842 24.569 11.8095C25.0823 12.2348 25.471 12.6895 25.735 13.1735C25.999 13.6575 26.1383 14.1268 26.153 14.5815C26.153 14.6988 26.109 14.8088 26.021 14.9115C25.933 14.9995 25.823 15.0435 25.691 15.0435H23.227C23.0803 15.0435 22.9483 15.0142 22.831 14.9555C22.7137 14.8968 22.6183 14.7942 22.545 14.6475C22.457 14.2662 22.193 13.9362 21.753 13.6575C21.3277 13.3642 20.7703 13.2175 20.081 13.2175C19.3623 13.2175 18.7903 13.3495 18.365 13.6135C17.9543 13.8775 17.749 14.2808 17.749 14.8235C17.749 15.1755 17.8517 15.4762 18.057 15.7255C18.277 15.9602 18.6363 16.1728 19.135 16.3635C19.6483 16.5395 20.323 16.7375 21.159 16.9575C22.4497 17.2215 23.4983 17.5368 24.305 17.9035C25.1117 18.2702 25.7057 18.7468 26.087 19.3335C26.4683 19.9055 26.659 20.6315 26.659 21.5115C26.659 22.4942 26.3803 23.3375 25.823 24.0415C25.2803 24.7455 24.525 25.2882 23.557 25.6695C22.6037 26.0362 21.489 26.2195 20.213 26.2195ZM32.1446 26.2195C31.3672 26.2195 30.6706 26.0728 30.0546 25.7795C29.4386 25.4715 28.9472 25.0608 28.5806 24.5475C28.2139 24.0342 28.0306 23.4622 28.0306 22.8315C28.0306 21.7902 28.4486 20.9688 29.2846 20.3675C30.1352 19.7662 31.2499 19.3555 32.6286 19.1355L35.5106 18.7175V18.3215C35.5106 17.7495 35.3786 17.3095 35.1146 17.0015C34.8506 16.6935 34.3886 16.5395 33.7286 16.5395C33.2446 16.5395 32.8559 16.6348 32.5626 16.8255C32.2692 17.0162 32.0419 17.2655 31.8806 17.5735C31.7632 17.7642 31.5946 17.8595 31.3746 17.8595H29.2846C29.1232 17.8595 28.9986 17.8155 28.9106 17.7275C28.8226 17.6248 28.7859 17.5075 28.8006 17.3755C28.8006 17.1262 28.8959 16.8328 29.0866 16.4955C29.2772 16.1582 29.5706 15.8282 29.9666 15.5055C30.3626 15.1682 30.8686 14.8895 31.4846 14.6695C32.1006 14.4495 32.8559 14.3395 33.7506 14.3395C34.6746 14.3395 35.4666 14.4495 36.1266 14.6695C36.7866 14.8895 37.3146 15.1975 37.7106 15.5935C38.1066 15.9895 38.3999 16.4515 38.5906 16.9795C38.7812 17.4928 38.8766 18.0502 38.8766 18.6515V25.4495C38.8766 25.6108 38.8252 25.7428 38.7226 25.8455C38.6199 25.9482 38.4879 25.9995 38.3266 25.9995H36.1706C36.0239 25.9995 35.8992 25.9482 35.7966 25.8455C35.6939 25.7428 35.6426 25.6108 35.6426 25.4495V24.6355C35.4519 24.9142 35.1952 25.1782 34.8726 25.4275C34.5499 25.6622 34.1612 25.8528 33.7066 25.9995C33.2666 26.1462 32.7459 26.2195 32.1446 26.2195ZM33.0246 23.9315C33.5086 23.9315 33.9412 23.8288 34.3226 23.6235C34.7039 23.4182 35.0046 23.1028 35.2246 22.6775C35.4446 22.2522 35.5546 21.7168 35.5546 21.0715V20.6975L33.5086 21.0275C32.7166 21.1595 32.1372 21.3575 31.7706 21.6215C31.4039 21.8855 31.2206 22.2082 31.2206 22.5895C31.2206 22.8682 31.3012 23.1102 31.4626 23.3155C31.6386 23.5208 31.8659 23.6748 32.1446 23.7775C32.4232 23.8802 32.7166 23.9315 33.0246 23.9315ZM46.9544 25.9995C46.045 25.9995 45.2677 25.8528 44.6224 25.5595C43.977 25.2515 43.4857 24.7822 43.1484 24.1515C42.8257 23.5208 42.6644 22.7288 42.6644 21.7755V17.1555H40.9484C40.787 17.1555 40.655 17.1042 40.5524 17.0015C40.4497 16.8988 40.3984 16.7668 40.3984 16.6055V15.1095C40.3984 14.9482 40.4497 14.8162 40.5524 14.7135C40.655 14.6108 40.787 14.5595 40.9484 14.5595H42.6644V10.9295C42.6644 10.7682 42.7157 10.6362 42.8184 10.5335C42.9357 10.4308 43.0677 10.3795 43.2144 10.3795H45.3704C45.5317 10.3795 45.6637 10.4308 45.7664 10.5335C45.869 10.6362 45.9204 10.7682 45.9204 10.9295V14.5595H48.6704C48.817 14.5595 48.9417 14.6108 49.0444 14.7135C49.147 14.8162 49.1984 14.9482 49.1984 15.1095V16.6055C49.1984 16.7668 49.147 16.8988 49.0444 17.0015C48.9417 17.1042 48.817 17.1555 48.6704 17.1555H45.9204V21.5115C45.9204 22.0688 46.0157 22.5088 46.2064 22.8315C46.4117 23.1395 46.7637 23.2935 47.2624 23.2935H48.8684C49.015 23.2935 49.1397 23.3448 49.2424 23.4475C49.345 23.5502 49.3964 23.6748 49.3964 23.8215V25.4495C49.3964 25.6108 49.345 25.7428 49.2424 25.8455C49.1397 25.9482 49.015 25.9995 48.8684 25.9995H46.9544ZM51.8437 25.9995C51.697 25.9995 51.5724 25.9482 51.4697 25.8455C51.367 25.7428 51.3157 25.6108 51.3157 25.4495V15.1095C51.3157 14.9482 51.367 14.8162 51.4697 14.7135C51.5724 14.6108 51.697 14.5595 51.8437 14.5595H54.0437C54.205 14.5595 54.337 14.6108 54.4397 14.7135C54.5424 14.8162 54.5937 14.9482 54.5937 15.1095V25.4495C54.5937 25.6108 54.5424 25.7428 54.4397 25.8455C54.337 25.9482 54.205 25.9995 54.0437 25.9995H51.8437ZM51.7777 12.7995C51.631 12.7995 51.5064 12.7482 51.4037 12.6455C51.301 12.5428 51.2497 12.4108 51.2497 12.2495V10.4895C51.2497 10.3282 51.301 10.1962 51.4037 10.0935C51.5064 9.97618 51.631 9.91751 51.7777 9.91751H54.0877C54.249 9.91751 54.381 9.97618 54.4837 10.0935C54.601 10.1962 54.6597 10.3282 54.6597 10.4895V12.2495C54.6597 12.4108 54.601 12.5428 54.4837 12.6455C54.381 12.7482 54.249 12.7995 54.0877 12.7995H51.7777ZM62.2065 26.2195C61.2972 26.2195 60.5125 26.1168 59.8525 25.9115C59.2072 25.6915 58.6792 25.4275 58.2685 25.1195C57.8725 24.8115 57.5719 24.5035 57.3665 24.1955C57.1759 23.8728 57.0732 23.6015 57.0585 23.3815C57.0439 23.2202 57.0952 23.0882 57.2125 22.9855C57.3299 22.8828 57.4472 22.8315 57.5645 22.8315H59.6985C59.7425 22.8315 59.7865 22.8388 59.8305 22.8535C59.8745 22.8682 59.9185 22.9048 59.9625 22.9635C60.1532 23.0955 60.3512 23.2495 60.5565 23.4255C60.7619 23.5868 60.9965 23.7262 61.2605 23.8435C61.5392 23.9608 61.8839 24.0195 62.2945 24.0195C62.7785 24.0195 63.1892 23.9242 63.5265 23.7335C63.8639 23.5282 64.0325 23.2422 64.0325 22.8755C64.0325 22.6115 63.9519 22.3915 63.7905 22.2155C63.6439 22.0395 63.3579 21.8782 62.9325 21.7315C62.5072 21.5848 61.8765 21.4235 61.0405 21.2475C60.2485 21.0715 59.5739 20.8368 59.0165 20.5435C58.4592 20.2502 58.0412 19.8835 57.7625 19.4435C57.4839 18.9888 57.3445 18.4462 57.3445 17.8155C57.3445 17.2435 57.5205 16.6935 57.8725 16.1655C58.2392 15.6375 58.7745 15.2048 59.4785 14.8675C60.1825 14.5155 61.0625 14.3395 62.1185 14.3395C62.9252 14.3395 63.6292 14.4422 64.2305 14.6475C64.8465 14.8382 65.3599 15.0875 65.7705 15.3955C66.1812 15.6888 66.4892 15.9968 66.6945 16.3195C66.9145 16.6275 67.0319 16.8988 67.0465 17.1335C67.0612 17.2802 67.0172 17.4048 66.9145 17.5075C66.8119 17.6102 66.6945 17.6615 66.5625 17.6615H64.6045C64.5312 17.6615 64.4652 17.6542 64.4065 17.6395C64.3479 17.6102 64.2965 17.5735 64.2525 17.5295C64.0765 17.4122 63.8932 17.2802 63.7025 17.1335C63.5265 16.9722 63.3139 16.8328 63.0645 16.7155C62.8152 16.5982 62.4925 16.5395 62.0965 16.5395C61.6125 16.5395 61.2385 16.6495 60.9745 16.8695C60.7252 17.0748 60.6005 17.3388 60.6005 17.6615C60.6005 17.8668 60.6665 18.0575 60.7985 18.2335C60.9305 18.4095 61.2019 18.5708 61.6125 18.7175C62.0232 18.8642 62.6465 19.0182 63.4825 19.1795C64.4799 19.3555 65.2719 19.6195 65.8585 19.9715C66.4452 20.3235 66.8632 20.7342 67.1125 21.2035C67.3765 21.6582 67.5085 22.1495 67.5085 22.6775C67.5085 23.3668 67.3032 23.9828 66.8925 24.5255C66.4819 25.0535 65.8805 25.4715 65.0885 25.7795C64.3112 26.0728 63.3505 26.2195 62.2065 26.2195ZM71.3814 25.9995C71.2201 25.9995 71.0881 25.9482 70.9854 25.8455C70.8827 25.7428 70.8314 25.6108 70.8314 25.4495V17.1555H69.1154C68.9541 17.1555 68.8221 17.1042 68.7194 17.0015C68.6167 16.8988 68.5654 16.7668 68.5654 16.6055V15.1095C68.5654 14.9482 68.6167 14.8162 68.7194 14.7135C68.8221 14.6108 68.9541 14.5595 69.1154 14.5595H70.8314V13.7675C70.8314 12.8288 71.0074 12.0588 71.3594 11.4575C71.7114 10.8562 72.2247 10.4162 72.8994 10.1375C73.5741 9.85884 74.4027 9.71951 75.3854 9.71951H76.9914C77.1527 9.71951 77.2847 9.77084 77.3874 9.87351C77.4901 9.97618 77.5414 10.1082 77.5414 10.2695V11.7655C77.5414 11.9268 77.4901 12.0588 77.3874 12.1615C77.2847 12.2642 77.1527 12.3155 76.9914 12.3155H75.5174C74.9747 12.3155 74.5934 12.4475 74.3734 12.7115C74.1681 12.9755 74.0654 13.3642 74.0654 13.8775V14.5595H76.7714C76.9327 14.5595 77.0647 14.6108 77.1674 14.7135C77.2701 14.8162 77.3214 14.9482 77.3214 15.1095V16.6055C77.3214 16.7668 77.2701 16.8988 77.1674 17.0015C77.0647 17.1042 76.9327 17.1555 76.7714 17.1555H74.0654V25.4495C74.0654 25.6108 74.0141 25.7428 73.9114 25.8455C73.8087 25.9482 73.6841 25.9995 73.5374 25.9995H71.3814ZM82.1817 26.2195C81.4044 26.2195 80.7077 26.0728 80.0917 25.7795C79.4757 25.4715 78.9844 25.0608 78.6177 24.5475C78.251 24.0342 78.0677 23.4622 78.0677 22.8315C78.0677 21.7902 78.4857 20.9688 79.3217 20.3675C80.1724 19.7662 81.287 19.3555 82.6657 19.1355L85.5477 18.7175V18.3215C85.5477 17.7495 85.4157 17.3095 85.1517 17.0015C84.8877 16.6935 84.4257 16.5395 83.7657 16.5395C83.2817 16.5395 82.893 16.6348 82.5997 16.8255C82.3064 17.0162 82.079 17.2655 81.9177 17.5735C81.8004 17.7642 81.6317 17.8595 81.4117 17.8595H79.3217C79.1604 17.8595 79.0357 17.8155 78.9477 17.7275C78.8597 17.6248 78.823 17.5075 78.8377 17.3755C78.8377 17.1262 78.933 16.8328 79.1237 16.4955C79.3144 16.1582 79.6077 15.8282 80.0037 15.5055C80.3997 15.1682 80.9057 14.8895 81.5217 14.6695C82.1377 14.4495 82.893 14.3395 83.7877 14.3395C84.7117 14.3395 85.5037 14.4495 86.1637 14.6695C86.8237 14.8895 87.3517 15.1975 87.7477 15.5935C88.1437 15.9895 88.437 16.4515 88.6277 16.9795C88.8184 17.4928 88.9137 18.0502 88.9137 18.6515V25.4495C88.9137 25.6108 88.8624 25.7428 88.7597 25.8455C88.657 25.9482 88.525 25.9995 88.3637 25.9995H86.2077C86.061 25.9995 85.9364 25.9482 85.8337 25.8455C85.731 25.7428 85.6797 25.6108 85.6797 25.4495V24.6355C85.489 24.9142 85.2324 25.1782 84.9097 25.4275C84.587 25.6622 84.1984 25.8528 83.7437 25.9995C83.3037 26.1462 82.783 26.2195 82.1817 26.2195ZM83.0617 23.9315C83.5457 23.9315 83.9784 23.8288 84.3597 23.6235C84.741 23.4182 85.0417 23.1028 85.2617 22.6775C85.4817 22.2522 85.5917 21.7168 85.5917 21.0715V20.6975L83.5457 21.0275C82.7537 21.1595 82.1744 21.3575 81.8077 21.6215C81.441 21.8855 81.2577 22.2082 81.2577 22.5895C81.2577 22.8682 81.3384 23.1102 81.4997 23.3155C81.6757 23.5208 81.903 23.6748 82.1817 23.7775C82.4604 23.8802 82.7537 23.9315 83.0617 23.9315ZM92.1054 25.9995C91.9587 25.9995 91.8341 25.9482 91.7314 25.8455C91.6287 25.7428 91.5774 25.6108 91.5774 25.4495V15.1095C91.5774 14.9482 91.6287 14.8162 91.7314 14.7135C91.8341 14.6108 91.9587 14.5595 92.1054 14.5595H94.3054C94.4667 14.5595 94.5987 14.6108 94.7014 14.7135C94.8041 14.8162 94.8554 14.9482 94.8554 15.1095V25.4495C94.8554 25.6108 94.8041 25.7428 94.7014 25.8455C94.5987 25.9482 94.4667 25.9995 94.3054 25.9995H92.1054ZM92.0394 12.7995C91.8927 12.7995 91.7681 12.7482 91.6654 12.6455C91.5627 12.5428 91.5114 12.4108 91.5114 12.2495V10.4895C91.5114 10.3282 91.5627 10.1962 91.6654 10.0935C91.7681 9.97618 91.8927 9.91751 92.0394 9.91751H94.3494C94.5107 9.91751 94.6427 9.97618 94.7454 10.0935C94.8627 10.1962 94.9214 10.3282 94.9214 10.4895V12.2495C94.9214 12.4108 94.8627 12.5428 94.7454 12.6455C94.6427 12.7482 94.5107 12.7995 94.3494 12.7995H92.0394ZM103.115 25.9995C102.205 25.9995 101.428 25.8528 100.783 25.5595C100.137 25.2515 99.6458 24.7822 99.3085 24.1515C98.9858 23.5208 98.8245 22.7288 98.8245 21.7755V17.1555H97.1085C96.9472 17.1555 96.8152 17.1042 96.7125 17.0015C96.6098 16.8988 96.5585 16.7668 96.5585 16.6055V15.1095C96.5585 14.9482 96.6098 14.8162 96.7125 14.7135C96.8152 14.6108 96.9472 14.5595 97.1085 14.5595H98.8245V10.9295C98.8245 10.7682 98.8758 10.6362 98.9785 10.5335C99.0958 10.4308 99.2278 10.3795 99.3745 10.3795H101.531C101.692 10.3795 101.824 10.4308 101.927 10.5335C102.029 10.6362 102.081 10.7682 102.081 10.9295V14.5595H104.831C104.977 14.5595 105.102 14.6108 105.205 14.7135C105.307 14.8162 105.359 14.9482 105.359 15.1095V16.6055C105.359 16.7668 105.307 16.8988 105.205 17.0015C105.102 17.1042 104.977 17.1555 104.831 17.1555H102.081V21.5115C102.081 22.0688 102.176 22.5088 102.367 22.8315C102.572 23.1395 102.924 23.2935 103.423 23.2935H105.029C105.175 23.2935 105.3 23.3448 105.403 23.4475C105.505 23.5502 105.557 23.6748 105.557 23.8215V25.4495C105.557 25.6108 105.505 25.7428 105.403 25.8455C105.3 25.9482 105.175 25.9995 105.029 25.9995H103.115ZM112.58 26.2195C110.893 26.2195 109.551 25.7502 108.554 24.8115C107.571 23.8728 107.051 22.5088 106.992 20.7195C106.992 20.6022 106.992 20.4482 106.992 20.2575C106.992 20.0522 106.992 19.8908 106.992 19.7735C107.051 18.6442 107.307 17.6762 107.762 16.8695C108.217 16.0482 108.855 15.4248 109.676 14.9995C110.497 14.5595 111.458 14.3395 112.558 14.3395C113.79 14.3395 114.817 14.5962 115.638 15.1095C116.474 15.6082 117.097 16.2975 117.508 17.1775C117.933 18.0428 118.146 19.0402 118.146 20.1695V20.6755C118.146 20.8222 118.087 20.9468 117.97 21.0495C117.867 21.1522 117.743 21.2035 117.596 21.2035H110.402C110.402 21.2182 110.402 21.2475 110.402 21.2915C110.402 21.3208 110.402 21.3502 110.402 21.3795C110.417 21.8488 110.505 22.2815 110.666 22.6775C110.842 23.0588 111.084 23.3668 111.392 23.6015C111.715 23.8362 112.096 23.9535 112.536 23.9535C112.903 23.9535 113.203 23.9022 113.438 23.7995C113.673 23.6968 113.863 23.5722 114.01 23.4255C114.171 23.2788 114.289 23.1542 114.362 23.0515C114.494 22.9048 114.597 22.8168 114.67 22.7875C114.758 22.7435 114.89 22.7215 115.066 22.7215H117.354C117.501 22.7215 117.618 22.7655 117.706 22.8535C117.809 22.9268 117.853 23.0368 117.838 23.1835C117.823 23.4182 117.699 23.7115 117.464 24.0635C117.244 24.4008 116.914 24.7382 116.474 25.0755C116.034 25.3982 115.484 25.6695 114.824 25.8895C114.179 26.1095 113.431 26.2195 112.58 26.2195ZM110.402 19.2015H114.714V19.1575C114.714 18.6295 114.626 18.1748 114.45 17.7935C114.289 17.3975 114.047 17.0895 113.724 16.8695C113.401 16.6495 113.013 16.5395 112.558 16.5395C112.103 16.5395 111.715 16.6495 111.392 16.8695C111.069 17.0895 110.82 17.3975 110.644 17.7935C110.483 18.1748 110.402 18.6295 110.402 19.1575V19.2015Z" fill="white"/>
</svg>
