<svg width="221" height="44" viewBox="0 0 221 44" fill="none" xmlns="http://www.w3.org/2000/svg">
  <rect width="221" height="44" rx="5" fill="#186ADE"/>
  <path d="M34.985 27C34.875 27 34.785 26.965 34.715 26.895C34.645 26.825 34.61 26.735 34.61 26.625V16.875C34.61 16.765 34.645 16.675 34.715 16.605C34.785 16.535 34.875 16.5 34.985 16.5H38.75C39.75 16.5 40.585 16.66 41.255 16.98C41.925 17.29 42.435 17.75 42.785 18.36C43.145 18.96 43.335 19.705 43.355 20.595C43.365 21.035 43.37 21.42 43.37 21.75C43.37 22.08 43.365 22.46 43.355 22.89C43.325 23.82 43.14 24.59 42.8 25.2C42.46 25.81 41.96 26.265 41.3 26.565C40.64 26.855 39.815 27 38.825 27H34.985ZM36.995 25.065H38.75C39.25 25.065 39.66 24.99 39.98 24.84C40.3 24.69 40.535 24.455 40.685 24.135C40.845 23.805 40.93 23.38 40.94 22.86C40.95 22.57 40.955 22.31 40.955 22.08C40.965 21.85 40.965 21.62 40.955 21.39C40.955 21.16 40.95 20.905 40.94 20.625C40.92 19.875 40.725 19.325 40.355 18.975C39.995 18.615 39.435 18.435 38.675 18.435H36.995V25.065ZM48.5598 27.15C47.4098 27.15 46.4948 26.83 45.8148 26.19C45.1448 25.55 44.7898 24.62 44.7498 23.4C44.7498 23.32 44.7498 23.215 44.7498 23.085C44.7498 22.945 44.7498 22.835 44.7498 22.755C44.7898 21.985 44.9648 21.325 45.2748 20.775C45.5848 20.215 46.0198 19.79 46.5798 19.5C47.1398 19.2 47.7948 19.05 48.5448 19.05C49.3848 19.05 50.0848 19.225 50.6448 19.575C51.2148 19.915 51.6398 20.385 51.9198 20.985C52.2098 21.575 52.3548 22.255 52.3548 23.025V23.37C52.3548 23.47 52.3148 23.555 52.2348 23.625C52.1648 23.695 52.0798 23.73 51.9798 23.73H47.0748C47.0748 23.74 47.0748 23.76 47.0748 23.79C47.0748 23.81 47.0748 23.83 47.0748 23.85C47.0848 24.17 47.1448 24.465 47.2548 24.735C47.3748 24.995 47.5398 25.205 47.7498 25.365C47.9698 25.525 48.2298 25.605 48.5298 25.605C48.7798 25.605 48.9848 25.57 49.1448 25.5C49.3048 25.43 49.4348 25.345 49.5348 25.245C49.6448 25.145 49.7248 25.06 49.7748 24.99C49.8648 24.89 49.9348 24.83 49.9848 24.81C50.0448 24.78 50.1348 24.765 50.2548 24.765H51.8148C51.9148 24.765 51.9948 24.795 52.0548 24.855C52.1248 24.905 52.1548 24.98 52.1448 25.08C52.1348 25.24 52.0498 25.44 51.8898 25.68C51.7398 25.91 51.5148 26.14 51.2148 26.37C50.9148 26.59 50.5398 26.775 50.0898 26.925C49.6498 27.075 49.1398 27.15 48.5598 27.15ZM47.0748 22.365H50.0148V22.335C50.0148 21.975 49.9548 21.665 49.8348 21.405C49.7248 21.135 49.5598 20.925 49.3398 20.775C49.1198 20.625 48.8548 20.55 48.5448 20.55C48.2348 20.55 47.9698 20.625 47.7498 20.775C47.5298 20.925 47.3598 21.135 47.2398 21.405C47.1298 21.665 47.0748 21.975 47.0748 22.335V22.365ZM54.2142 27C54.1142 27 54.0292 26.965 53.9592 26.895C53.8892 26.825 53.8542 26.735 53.8542 26.625V19.575C53.8542 19.465 53.8892 19.375 53.9592 19.305C54.0292 19.235 54.1142 19.2 54.2142 19.2H55.6092C55.7092 19.2 55.7942 19.235 55.8642 19.305C55.9442 19.375 55.9842 19.465 55.9842 19.575V20.085C56.1842 19.805 56.4592 19.565 56.8092 19.365C57.1692 19.165 57.5942 19.06 58.0842 19.05C59.2442 19.03 60.0392 19.47 60.4692 20.37C60.6992 19.98 61.0292 19.665 61.4592 19.425C61.8992 19.175 62.3792 19.05 62.8992 19.05C63.4192 19.05 63.8892 19.17 64.3092 19.41C64.7292 19.64 65.0592 20 65.2992 20.49C65.5492 20.97 65.6742 21.59 65.6742 22.35V26.625C65.6742 26.735 65.6392 26.825 65.5692 26.895C65.4992 26.965 65.4142 27 65.3142 27H63.8292C63.7292 27 63.6442 26.965 63.5742 26.895C63.5042 26.825 63.4692 26.735 63.4692 26.625V22.47C63.4692 22.06 63.4092 21.74 63.2892 21.51C63.1692 21.27 63.0092 21.1 62.8092 21C62.6192 20.9 62.4042 20.85 62.1642 20.85C61.9542 20.85 61.7492 20.9 61.5492 21C61.3592 21.1 61.1992 21.27 61.0692 21.51C60.9492 21.74 60.8892 22.06 60.8892 22.47V26.625C60.8892 26.735 60.8542 26.825 60.7842 26.895C60.7142 26.965 60.6242 27 60.5142 27H59.0442C58.9342 27 58.8442 26.965 58.7742 26.895C58.7042 26.825 58.6692 26.735 58.6692 26.625V22.47C58.6692 22.06 58.6092 21.74 58.4892 21.51C58.3692 21.27 58.2092 21.1 58.0092 21C57.8192 20.9 57.6092 20.85 57.3792 20.85C57.1692 20.85 56.9642 20.905 56.7642 21.015C56.5642 21.115 56.3992 21.28 56.2692 21.51C56.1492 21.74 56.0892 22.055 56.0892 22.455V26.625C56.0892 26.735 56.0542 26.825 55.9842 26.895C55.9142 26.965 55.8292 27 55.7292 27H54.2142ZM69.7869 27.15C69.2569 27.15 68.7819 27.05 68.3619 26.85C67.9419 26.64 67.6069 26.36 67.3569 26.01C67.1069 25.66 66.9819 25.27 66.9819 24.84C66.9819 24.13 67.2669 23.57 67.8369 23.16C68.4169 22.75 69.1769 22.47 70.1169 22.32L72.0819 22.035V21.765C72.0819 21.375 71.9919 21.075 71.8119 20.865C71.6319 20.655 71.3169 20.55 70.8669 20.55C70.5369 20.55 70.2719 20.615 70.0719 20.745C69.8719 20.875 69.7169 21.045 69.6069 21.255C69.5269 21.385 69.4119 21.45 69.2619 21.45H67.8369C67.7269 21.45 67.6419 21.42 67.5819 21.36C67.5219 21.29 67.4969 21.21 67.5069 21.12C67.5069 20.95 67.5719 20.75 67.7019 20.52C67.8319 20.29 68.0319 20.065 68.3019 19.845C68.5719 19.615 68.9169 19.425 69.3369 19.275C69.7569 19.125 70.2719 19.05 70.8819 19.05C71.5119 19.05 72.0519 19.125 72.5019 19.275C72.9519 19.425 73.3119 19.635 73.5819 19.905C73.8519 20.175 74.0519 20.49 74.1819 20.85C74.3119 21.2 74.3769 21.58 74.3769 21.99V26.625C74.3769 26.735 74.3419 26.825 74.2719 26.895C74.2019 26.965 74.1119 27 74.0019 27H72.5319C72.4319 27 72.3469 26.965 72.2769 26.895C72.2069 26.825 72.1719 26.735 72.1719 26.625V26.07C72.0419 26.26 71.8669 26.44 71.6469 26.61C71.4269 26.77 71.1619 26.9 70.8519 27C70.5519 27.1 70.1969 27.15 69.7869 27.15ZM70.3869 25.59C70.7169 25.59 71.0119 25.52 71.2719 25.38C71.5319 25.24 71.7369 25.025 71.8869 24.735C72.0369 24.445 72.1119 24.08 72.1119 23.64V23.385L70.7169 23.61C70.1769 23.7 69.7819 23.835 69.5319 24.015C69.2819 24.195 69.1569 24.415 69.1569 24.675C69.1569 24.865 69.2119 25.03 69.3219 25.17C69.4419 25.31 69.5969 25.415 69.7869 25.485C69.9769 25.555 70.1769 25.59 70.3869 25.59ZM76.553 27C76.453 27 76.368 26.965 76.298 26.895C76.228 26.825 76.193 26.735 76.193 26.625V19.575C76.193 19.465 76.228 19.375 76.298 19.305C76.368 19.235 76.453 19.2 76.553 19.2H78.023C78.133 19.2 78.223 19.235 78.293 19.305C78.363 19.375 78.398 19.465 78.398 19.575V20.16C78.658 19.84 78.993 19.575 79.403 19.365C79.813 19.155 80.313 19.05 80.903 19.05C81.493 19.05 82.008 19.185 82.448 19.455C82.898 19.715 83.248 20.1 83.498 20.61C83.758 21.11 83.888 21.72 83.888 22.44V26.625C83.888 26.735 83.848 26.825 83.768 26.895C83.698 26.965 83.613 27 83.513 27H81.923C81.813 27 81.723 26.965 81.653 26.895C81.583 26.825 81.548 26.735 81.548 26.625V22.53C81.548 22 81.418 21.59 81.158 21.3C80.908 21 80.538 20.85 80.048 20.85C79.578 20.85 79.203 21 78.923 21.3C78.643 21.59 78.503 22 78.503 22.53V26.625C78.503 26.735 78.468 26.825 78.398 26.895C78.328 26.965 78.243 27 78.143 27H76.553ZM88.5802 27.15C88.0802 27.15 87.6352 27.07 87.2452 26.91C86.8552 26.74 86.5252 26.5 86.2552 26.19C85.9852 25.87 85.7802 25.495 85.6402 25.065C85.5002 24.625 85.4152 24.14 85.3852 23.61C85.3752 23.42 85.3702 23.25 85.3702 23.1C85.3702 22.94 85.3752 22.77 85.3852 22.59C85.4052 22.07 85.4852 21.595 85.6252 21.165C85.7752 20.735 85.9802 20.365 86.2402 20.055C86.5102 19.735 86.8402 19.49 87.2302 19.32C87.6302 19.14 88.0802 19.05 88.5802 19.05C89.1002 19.05 89.5452 19.14 89.9152 19.32C90.2852 19.49 90.5902 19.715 90.8302 19.995V16.725C90.8302 16.615 90.8652 16.525 90.9352 16.455C91.0052 16.385 91.0952 16.35 91.2052 16.35H92.7502C92.8502 16.35 92.9352 16.385 93.0052 16.455C93.0752 16.525 93.1102 16.615 93.1102 16.725V26.625C93.1102 26.735 93.0752 26.825 93.0052 26.895C92.9352 26.965 92.8502 27 92.7502 27H91.3102C91.2102 27 91.1252 26.965 91.0552 26.895C90.9852 26.825 90.9502 26.735 90.9502 26.625V26.115C90.7002 26.415 90.3852 26.665 90.0052 26.865C89.6252 27.055 89.1502 27.15 88.5802 27.15ZM89.2702 25.35C89.6402 25.35 89.9352 25.265 90.1552 25.095C90.3852 24.925 90.5502 24.71 90.6502 24.45C90.7602 24.19 90.8202 23.91 90.8302 23.61C90.8502 23.42 90.8602 23.23 90.8602 23.04C90.8602 22.85 90.8502 22.665 90.8302 22.485C90.8202 22.205 90.7602 21.945 90.6502 21.705C90.5402 21.455 90.3702 21.25 90.1402 21.09C89.9202 20.93 89.6302 20.85 89.2702 20.85C88.8902 20.85 88.5902 20.935 88.3702 21.105C88.1502 21.265 87.9902 21.48 87.8902 21.75C87.8002 22.02 87.7452 22.315 87.7252 22.635C87.6952 22.945 87.6952 23.255 87.7252 23.565C87.7452 23.885 87.8002 24.18 87.8902 24.45C87.9902 24.72 88.1502 24.94 88.3702 25.11C88.5902 25.27 88.8902 25.35 89.2702 25.35ZM98.4963 27.15C97.3463 27.15 96.4313 26.83 95.7513 26.19C95.0813 25.55 94.7263 24.62 94.6863 23.4C94.6863 23.32 94.6863 23.215 94.6863 23.085C94.6863 22.945 94.6863 22.835 94.6863 22.755C94.7263 21.985 94.9013 21.325 95.2113 20.775C95.5213 20.215 95.9563 19.79 96.5163 19.5C97.0763 19.2 97.7313 19.05 98.4813 19.05C99.3213 19.05 100.021 19.225 100.581 19.575C101.151 19.915 101.576 20.385 101.856 20.985C102.146 21.575 102.291 22.255 102.291 23.025V23.37C102.291 23.47 102.251 23.555 102.171 23.625C102.101 23.695 102.016 23.73 101.916 23.73H97.0113C97.0113 23.74 97.0113 23.76 97.0113 23.79C97.0113 23.81 97.0113 23.83 97.0113 23.85C97.0213 24.17 97.0813 24.465 97.1913 24.735C97.3113 24.995 97.4763 25.205 97.6863 25.365C97.9063 25.525 98.1663 25.605 98.4663 25.605C98.7163 25.605 98.9213 25.57 99.0813 25.5C99.2413 25.43 99.3713 25.345 99.4713 25.245C99.5813 25.145 99.6613 25.06 99.7113 24.99C99.8013 24.89 99.8713 24.83 99.9213 24.81C99.9813 24.78 100.071 24.765 100.191 24.765H101.751C101.851 24.765 101.931 24.795 101.991 24.855C102.061 24.905 102.091 24.98 102.081 25.08C102.071 25.24 101.986 25.44 101.826 25.68C101.676 25.91 101.451 26.14 101.151 26.37C100.851 26.59 100.476 26.775 100.026 26.925C99.5863 27.075 99.0763 27.15 98.4963 27.15ZM97.0113 22.365H99.9513V22.335C99.9513 21.975 99.8913 21.665 99.7713 21.405C99.6613 21.135 99.4963 20.925 99.2763 20.775C99.0563 20.625 98.7913 20.55 98.4813 20.55C98.1713 20.55 97.9063 20.625 97.6863 20.775C97.4663 20.925 97.2963 21.135 97.1763 21.405C97.0663 21.665 97.0113 21.975 97.0113 22.335V22.365ZM110.581 27.15C109.431 27.15 108.516 26.83 107.836 26.19C107.166 25.55 106.811 24.62 106.771 23.4C106.771 23.32 106.771 23.215 106.771 23.085C106.771 22.945 106.771 22.835 106.771 22.755C106.811 21.985 106.986 21.325 107.296 20.775C107.606 20.215 108.041 19.79 108.601 19.5C109.161 19.2 109.816 19.05 110.566 19.05C111.406 19.05 112.106 19.225 112.666 19.575C113.236 19.915 113.661 20.385 113.941 20.985C114.231 21.575 114.376 22.255 114.376 23.025V23.37C114.376 23.47 114.336 23.555 114.256 23.625C114.186 23.695 114.101 23.73 114.001 23.73H109.096C109.096 23.74 109.096 23.76 109.096 23.79C109.096 23.81 109.096 23.83 109.096 23.85C109.106 24.17 109.166 24.465 109.276 24.735C109.396 24.995 109.561 25.205 109.771 25.365C109.991 25.525 110.251 25.605 110.551 25.605C110.801 25.605 111.006 25.57 111.166 25.5C111.326 25.43 111.456 25.345 111.556 25.245C111.666 25.145 111.746 25.06 111.796 24.99C111.886 24.89 111.956 24.83 112.006 24.81C112.066 24.78 112.156 24.765 112.276 24.765H113.836C113.936 24.765 114.016 24.795 114.076 24.855C114.146 24.905 114.176 24.98 114.166 25.08C114.156 25.24 114.071 25.44 113.911 25.68C113.761 25.91 113.536 26.14 113.236 26.37C112.936 26.59 112.561 26.775 112.111 26.925C111.671 27.075 111.161 27.15 110.581 27.15ZM109.096 22.365H112.036V22.335C112.036 21.975 111.976 21.665 111.856 21.405C111.746 21.135 111.581 20.925 111.361 20.775C111.141 20.625 110.876 20.55 110.566 20.55C110.256 20.55 109.991 20.625 109.771 20.775C109.551 20.925 109.381 21.135 109.261 21.405C109.151 21.665 109.096 21.975 109.096 22.335V22.365ZM116.236 27C116.136 27 116.051 26.965 115.981 26.895C115.911 26.825 115.876 26.735 115.876 26.625V19.575C115.876 19.465 115.911 19.375 115.981 19.305C116.051 19.235 116.136 19.2 116.236 19.2H117.706C117.816 19.2 117.906 19.235 117.976 19.305C118.046 19.375 118.081 19.465 118.081 19.575V20.16C118.341 19.84 118.676 19.575 119.086 19.365C119.496 19.155 119.996 19.05 120.586 19.05C121.176 19.05 121.691 19.185 122.131 19.455C122.581 19.715 122.931 20.1 123.181 20.61C123.441 21.11 123.571 21.72 123.571 22.44V26.625C123.571 26.735 123.531 26.825 123.451 26.895C123.381 26.965 123.296 27 123.196 27H121.606C121.496 27 121.406 26.965 121.336 26.895C121.266 26.825 121.231 26.735 121.231 26.625V22.53C121.231 22 121.101 21.59 120.841 21.3C120.591 21 120.221 20.85 119.731 20.85C119.261 20.85 118.886 21 118.606 21.3C118.326 21.59 118.186 22 118.186 22.53V26.625C118.186 26.735 118.151 26.825 118.081 26.895C118.011 26.965 117.926 27 117.826 27H116.236ZM130.973 27.15C130.443 27.15 129.968 27.05 129.548 26.85C129.128 26.64 128.793 26.36 128.543 26.01C128.293 25.66 128.168 25.27 128.168 24.84C128.168 24.13 128.453 23.57 129.023 23.16C129.603 22.75 130.363 22.47 131.303 22.32L133.268 22.035V21.765C133.268 21.375 133.178 21.075 132.998 20.865C132.818 20.655 132.503 20.55 132.053 20.55C131.723 20.55 131.458 20.615 131.258 20.745C131.058 20.875 130.903 21.045 130.793 21.255C130.713 21.385 130.598 21.45 130.448 21.45H129.023C128.913 21.45 128.828 21.42 128.768 21.36C128.708 21.29 128.683 21.21 128.693 21.12C128.693 20.95 128.758 20.75 128.888 20.52C129.018 20.29 129.218 20.065 129.488 19.845C129.758 19.615 130.103 19.425 130.523 19.275C130.943 19.125 131.458 19.05 132.068 19.05C132.698 19.05 133.238 19.125 133.688 19.275C134.138 19.425 134.498 19.635 134.768 19.905C135.038 20.175 135.238 20.49 135.368 20.85C135.498 21.2 135.563 21.58 135.563 21.99V26.625C135.563 26.735 135.528 26.825 135.458 26.895C135.388 26.965 135.298 27 135.188 27H133.718C133.618 27 133.533 26.965 133.463 26.895C133.393 26.825 133.358 26.735 133.358 26.625V26.07C133.228 26.26 133.053 26.44 132.833 26.61C132.613 26.77 132.348 26.9 132.038 27C131.738 27.1 131.383 27.15 130.973 27.15ZM131.573 25.59C131.903 25.59 132.198 25.52 132.458 25.38C132.718 25.24 132.923 25.025 133.073 24.735C133.223 24.445 133.298 24.08 133.298 23.64V23.385L131.903 23.61C131.363 23.7 130.968 23.835 130.718 24.015C130.468 24.195 130.343 24.415 130.343 24.675C130.343 24.865 130.398 25.03 130.508 25.17C130.628 25.31 130.783 25.415 130.973 25.485C131.163 25.555 131.363 25.59 131.573 25.59ZM140.845 27.15C140.115 27.15 139.47 27.015 138.91 26.745C138.36 26.475 137.925 26.085 137.605 25.575C137.285 25.055 137.11 24.435 137.08 23.715C137.07 23.555 137.065 23.355 137.065 23.115C137.065 22.865 137.07 22.66 137.08 22.5C137.11 21.77 137.28 21.15 137.59 20.64C137.91 20.12 138.35 19.725 138.91 19.455C139.47 19.185 140.115 19.05 140.845 19.05C141.515 19.05 142.085 19.145 142.555 19.335C143.025 19.515 143.41 19.745 143.71 20.025C144.01 20.305 144.23 20.6 144.37 20.91C144.52 21.21 144.6 21.475 144.61 21.705C144.62 21.805 144.585 21.895 144.505 21.975C144.435 22.045 144.35 22.08 144.25 22.08H142.645C142.545 22.08 142.465 22.055 142.405 22.005C142.355 21.945 142.305 21.865 142.255 21.765C142.115 21.415 141.935 21.165 141.715 21.015C141.495 20.865 141.22 20.79 140.89 20.79C140.44 20.79 140.085 20.935 139.825 21.225C139.565 21.515 139.425 21.965 139.405 22.575C139.395 22.965 139.395 23.32 139.405 23.64C139.435 24.26 139.575 24.71 139.825 24.99C140.085 25.27 140.44 25.41 140.89 25.41C141.24 25.41 141.52 25.335 141.73 25.185C141.94 25.035 142.115 24.785 142.255 24.435C142.295 24.335 142.345 24.26 142.405 24.21C142.465 24.15 142.545 24.12 142.645 24.12H144.25C144.35 24.12 144.435 24.16 144.505 24.24C144.585 24.31 144.62 24.395 144.61 24.495C144.6 24.665 144.55 24.865 144.46 25.095C144.38 25.325 144.245 25.56 144.055 25.8C143.875 26.04 143.64 26.265 143.35 26.475C143.06 26.675 142.705 26.84 142.285 26.97C141.875 27.09 141.395 27.15 140.845 27.15ZM149.546 27.15C148.816 27.15 148.171 27.015 147.611 26.745C147.061 26.475 146.626 26.085 146.306 25.575C145.986 25.055 145.811 24.435 145.781 23.715C145.771 23.555 145.766 23.355 145.766 23.115C145.766 22.865 145.771 22.66 145.781 22.5C145.811 21.77 145.981 21.15 146.291 20.64C146.611 20.12 147.051 19.725 147.611 19.455C148.171 19.185 148.816 19.05 149.546 19.05C150.216 19.05 150.786 19.145 151.256 19.335C151.726 19.515 152.111 19.745 152.411 20.025C152.711 20.305 152.931 20.6 153.071 20.91C153.221 21.21 153.301 21.475 153.311 21.705C153.321 21.805 153.286 21.895 153.206 21.975C153.136 22.045 153.051 22.08 152.951 22.08H151.346C151.246 22.08 151.166 22.055 151.106 22.005C151.056 21.945 151.006 21.865 150.956 21.765C150.816 21.415 150.636 21.165 150.416 21.015C150.196 20.865 149.921 20.79 149.591 20.79C149.141 20.79 148.786 20.935 148.526 21.225C148.266 21.515 148.126 21.965 148.106 22.575C148.096 22.965 148.096 23.32 148.106 23.64C148.136 24.26 148.276 24.71 148.526 24.99C148.786 25.27 149.141 25.41 149.591 25.41C149.941 25.41 150.221 25.335 150.431 25.185C150.641 25.035 150.816 24.785 150.956 24.435C150.996 24.335 151.046 24.26 151.106 24.21C151.166 24.15 151.246 24.12 151.346 24.12H152.951C153.051 24.12 153.136 24.16 153.206 24.24C153.286 24.31 153.321 24.395 153.311 24.495C153.301 24.665 153.251 24.865 153.161 25.095C153.081 25.325 152.946 25.56 152.756 25.8C152.576 26.04 152.341 26.265 152.051 26.475C151.761 26.675 151.406 26.84 150.986 26.97C150.576 27.09 150.096 27.15 149.546 27.15ZM158.262 27.15C157.112 27.15 156.197 26.83 155.517 26.19C154.847 25.55 154.492 24.62 154.452 23.4C154.452 23.32 154.452 23.215 154.452 23.085C154.452 22.945 154.452 22.835 154.452 22.755C154.492 21.985 154.667 21.325 154.977 20.775C155.287 20.215 155.722 19.79 156.282 19.5C156.842 19.2 157.497 19.05 158.247 19.05C159.087 19.05 159.787 19.225 160.347 19.575C160.917 19.915 161.342 20.385 161.622 20.985C161.912 21.575 162.057 22.255 162.057 23.025V23.37C162.057 23.47 162.017 23.555 161.937 23.625C161.867 23.695 161.782 23.73 161.682 23.73H156.777C156.777 23.74 156.777 23.76 156.777 23.79C156.777 23.81 156.777 23.83 156.777 23.85C156.787 24.17 156.847 24.465 156.957 24.735C157.077 24.995 157.242 25.205 157.452 25.365C157.672 25.525 157.932 25.605 158.232 25.605C158.482 25.605 158.687 25.57 158.847 25.5C159.007 25.43 159.137 25.345 159.237 25.245C159.347 25.145 159.427 25.06 159.477 24.99C159.567 24.89 159.637 24.83 159.687 24.81C159.747 24.78 159.837 24.765 159.957 24.765H161.517C161.617 24.765 161.697 24.795 161.757 24.855C161.827 24.905 161.857 24.98 161.847 25.08C161.837 25.24 161.752 25.44 161.592 25.68C161.442 25.91 161.217 26.14 160.917 26.37C160.617 26.59 160.242 26.775 159.792 26.925C159.352 27.075 158.842 27.15 158.262 27.15ZM156.777 22.365H159.717V22.335C159.717 21.975 159.657 21.665 159.537 21.405C159.427 21.135 159.262 20.925 159.042 20.775C158.822 20.625 158.557 20.55 158.247 20.55C157.937 20.55 157.672 20.625 157.452 20.775C157.232 20.925 157.062 21.135 156.942 21.405C156.832 21.665 156.777 21.975 156.777 22.335V22.365ZM163.931 29.85C163.821 29.85 163.731 29.815 163.661 29.745C163.591 29.675 163.556 29.585 163.556 29.475V19.575C163.556 19.465 163.591 19.375 163.661 19.305C163.731 19.235 163.821 19.2 163.931 19.2H165.356C165.466 19.2 165.556 19.235 165.626 19.305C165.696 19.375 165.731 19.465 165.731 19.575V20.145C165.971 19.825 166.281 19.565 166.661 19.365C167.041 19.155 167.516 19.05 168.086 19.05C168.606 19.05 169.056 19.135 169.436 19.305C169.826 19.465 170.151 19.7 170.411 20.01C170.681 20.31 170.886 20.675 171.026 21.105C171.176 21.535 171.261 22.02 171.281 22.56C171.291 22.75 171.296 22.93 171.296 23.1C171.296 23.27 171.291 23.455 171.281 23.655C171.271 24.165 171.191 24.635 171.041 25.065C170.901 25.495 170.696 25.865 170.426 26.175C170.156 26.485 169.826 26.725 169.436 26.895C169.056 27.065 168.606 27.15 168.086 27.15C167.576 27.15 167.131 27.06 166.751 26.88C166.381 26.69 166.076 26.435 165.836 26.115V29.475C165.836 29.585 165.801 29.675 165.731 29.745C165.661 29.815 165.576 29.85 165.476 29.85H163.931ZM167.411 25.35C167.791 25.35 168.091 25.27 168.311 25.11C168.531 24.94 168.686 24.72 168.776 24.45C168.876 24.18 168.936 23.885 168.956 23.565C168.976 23.255 168.976 22.945 168.956 22.635C168.936 22.315 168.876 22.02 168.776 21.75C168.686 21.48 168.531 21.265 168.311 21.105C168.091 20.935 167.791 20.85 167.411 20.85C167.041 20.85 166.741 20.935 166.511 21.105C166.281 21.275 166.116 21.49 166.016 21.75C165.916 22.01 165.856 22.29 165.836 22.59C165.826 22.77 165.821 22.955 165.821 23.145C165.821 23.335 165.826 23.525 165.836 23.715C165.846 23.995 165.906 24.26 166.016 24.51C166.136 24.75 166.306 24.95 166.526 25.11C166.756 25.27 167.051 25.35 167.411 25.35ZM176.593 27C175.973 27 175.443 26.9 175.003 26.7C174.563 26.49 174.228 26.17 173.998 25.74C173.778 25.31 173.668 24.77 173.668 24.12V20.97H172.498C172.388 20.97 172.298 20.935 172.228 20.865C172.158 20.795 172.123 20.705 172.123 20.595V19.575C172.123 19.465 172.158 19.375 172.228 19.305C172.298 19.235 172.388 19.2 172.498 19.2H173.668V16.725C173.668 16.615 173.703 16.525 173.773 16.455C173.853 16.385 173.943 16.35 174.043 16.35H175.513C175.623 16.35 175.713 16.385 175.783 16.455C175.853 16.525 175.888 16.615 175.888 16.725V19.2H177.763C177.863 19.2 177.948 19.235 178.018 19.305C178.088 19.375 178.123 19.465 178.123 19.575V20.595C178.123 20.705 178.088 20.795 178.018 20.865C177.948 20.935 177.863 20.97 177.763 20.97H175.888V23.94C175.888 24.32 175.953 24.62 176.083 24.84C176.223 25.05 176.463 25.155 176.803 25.155H177.898C177.998 25.155 178.083 25.19 178.153 25.26C178.223 25.33 178.258 25.415 178.258 25.515V26.625C178.258 26.735 178.223 26.825 178.153 26.895C178.083 26.965 177.998 27 177.898 27H176.593ZM183.047 27.15C181.897 27.15 180.982 26.83 180.302 26.19C179.632 25.55 179.277 24.62 179.237 23.4C179.237 23.32 179.237 23.215 179.237 23.085C179.237 22.945 179.237 22.835 179.237 22.755C179.277 21.985 179.452 21.325 179.762 20.775C180.072 20.215 180.507 19.79 181.067 19.5C181.627 19.2 182.282 19.05 183.032 19.05C183.872 19.05 184.572 19.225 185.132 19.575C185.702 19.915 186.127 20.385 186.407 20.985C186.697 21.575 186.842 22.255 186.842 23.025V23.37C186.842 23.47 186.802 23.555 186.722 23.625C186.652 23.695 186.567 23.73 186.467 23.73H181.562C181.562 23.74 181.562 23.76 181.562 23.79C181.562 23.81 181.562 23.83 181.562 23.85C181.572 24.17 181.632 24.465 181.742 24.735C181.862 24.995 182.027 25.205 182.237 25.365C182.457 25.525 182.717 25.605 183.017 25.605C183.267 25.605 183.472 25.57 183.632 25.5C183.792 25.43 183.922 25.345 184.022 25.245C184.132 25.145 184.212 25.06 184.262 24.99C184.352 24.89 184.422 24.83 184.472 24.81C184.532 24.78 184.622 24.765 184.742 24.765H186.302C186.402 24.765 186.482 24.795 186.542 24.855C186.612 24.905 186.642 24.98 186.632 25.08C186.622 25.24 186.537 25.44 186.377 25.68C186.227 25.91 186.002 26.14 185.702 26.37C185.402 26.59 185.027 26.775 184.577 26.925C184.137 27.075 183.627 27.15 183.047 27.15ZM181.562 22.365H184.502V22.335C184.502 21.975 184.442 21.665 184.322 21.405C184.212 21.135 184.047 20.925 183.827 20.775C183.607 20.625 183.342 20.55 183.032 20.55C182.722 20.55 182.457 20.625 182.237 20.775C182.017 20.925 181.847 21.135 181.727 21.405C181.617 21.665 181.562 21.975 181.562 22.335V22.365ZM182.267 18.075C182.107 18.075 182.027 17.995 182.027 17.835C182.027 17.755 182.052 17.69 182.102 17.64L183.377 16.095C183.467 15.975 183.547 15.9 183.617 15.87C183.697 15.83 183.802 15.81 183.932 15.81H185.657C185.847 15.81 185.942 15.91 185.942 16.11C185.942 16.18 185.917 16.24 185.867 16.29L183.932 17.865C183.852 17.935 183.772 17.99 183.692 18.03C183.622 18.06 183.522 18.075 183.392 18.075H182.267Z" fill="white"/>
</svg>
