<svg width="221" height="44" viewBox="0 0 221 44" fill="none" xmlns="http://www.w3.org/2000/svg">
  <rect width="221" height="44" rx="5" fill="#1E95A5"/>
  <path d="M38.495 27C38.405 27 38.33 26.97 38.27 26.91C38.21 26.84 38.18 26.765 38.18 26.685C38.18 26.635 38.185 26.59 38.195 26.55L41.765 16.905C41.795 16.795 41.855 16.7 41.945 16.62C42.035 16.54 42.16 16.5 42.32 16.5H44.24C44.4 16.5 44.525 16.54 44.615 16.62C44.705 16.7 44.765 16.795 44.795 16.905L48.365 26.55C48.375 26.59 48.38 26.635 48.38 26.685C48.38 26.765 48.35 26.84 48.29 26.91C48.23 26.97 48.155 27 48.065 27H46.505C46.355 27 46.245 26.965 46.175 26.895C46.105 26.825 46.06 26.76 46.04 26.7L45.395 25.02H41.165L40.52 26.7C40.5 26.76 40.455 26.825 40.385 26.895C40.315 26.965 40.205 27 40.055 27H38.495ZM41.72 23.085H44.825L43.28 18.765L41.72 23.085ZM49.8665 27C49.7665 27 49.6815 26.965 49.6115 26.895C49.5415 26.825 49.5065 26.735 49.5065 26.625V19.575C49.5065 19.465 49.5415 19.375 49.6115 19.305C49.6815 19.235 49.7665 19.2 49.8665 19.2H51.3365C51.4465 19.2 51.5365 19.235 51.6065 19.305C51.6765 19.375 51.7115 19.465 51.7115 19.575V20.16C51.9715 19.84 52.3065 19.575 52.7165 19.365C53.1265 19.155 53.6265 19.05 54.2165 19.05C54.8065 19.05 55.3215 19.185 55.7615 19.455C56.2115 19.715 56.5615 20.1 56.8115 20.61C57.0715 21.11 57.2015 21.72 57.2015 22.44V26.625C57.2015 26.735 57.1615 26.825 57.0815 26.895C57.0115 26.965 56.9265 27 56.8265 27H55.2365C55.1265 27 55.0365 26.965 54.9665 26.895C54.8965 26.825 54.8615 26.735 54.8615 26.625V22.53C54.8615 22 54.7315 21.59 54.4715 21.3C54.2215 21 53.8515 20.85 53.3615 20.85C52.8915 20.85 52.5165 21 52.2365 21.3C51.9565 21.59 51.8165 22 51.8165 22.53V26.625C51.8165 26.735 51.7815 26.825 51.7115 26.895C51.6415 26.965 51.5565 27 51.4565 27H49.8665ZM59.3587 27C59.2587 27 59.1737 26.965 59.1037 26.895C59.0337 26.825 58.9987 26.735 58.9987 26.625V19.575C58.9987 19.465 59.0337 19.375 59.1037 19.305C59.1737 19.235 59.2587 19.2 59.3587 19.2H60.8287C60.9387 19.2 61.0287 19.235 61.0987 19.305C61.1687 19.375 61.2037 19.465 61.2037 19.575V20.16C61.4637 19.84 61.7987 19.575 62.2087 19.365C62.6187 19.155 63.1187 19.05 63.7087 19.05C64.2987 19.05 64.8137 19.185 65.2537 19.455C65.7037 19.715 66.0537 20.1 66.3037 20.61C66.5637 21.11 66.6937 21.72 66.6937 22.44V26.625C66.6937 26.735 66.6537 26.825 66.5737 26.895C66.5037 26.965 66.4187 27 66.3187 27H64.7287C64.6187 27 64.5287 26.965 64.4587 26.895C64.3887 26.825 64.3537 26.735 64.3537 26.625V22.53C64.3537 22 64.2237 21.59 63.9637 21.3C63.7137 21 63.3437 20.85 62.8537 20.85C62.3837 20.85 62.0087 21 61.7287 21.3C61.4487 21.59 61.3087 22 61.3087 22.53V26.625C61.3087 26.735 61.2737 26.825 61.2037 26.895C61.1337 26.965 61.0487 27 60.9487 27H59.3587ZM72.0609 27.15C71.2309 27.15 70.5359 27.015 69.9759 26.745C69.4159 26.465 68.9859 26.07 68.6859 25.56C68.3959 25.05 68.2359 24.455 68.2059 23.775C68.1959 23.575 68.1909 23.35 68.1909 23.1C68.1909 22.84 68.1959 22.615 68.2059 22.425C68.2359 21.735 68.4059 21.14 68.7159 20.64C69.0259 20.13 69.4609 19.74 70.0209 19.47C70.5809 19.19 71.2609 19.05 72.0609 19.05C72.8509 19.05 73.5259 19.19 74.0859 19.47C74.6459 19.74 75.0809 20.13 75.3909 20.64C75.7009 21.14 75.8709 21.735 75.9009 22.425C75.9209 22.615 75.9309 22.84 75.9309 23.1C75.9309 23.35 75.9209 23.575 75.9009 23.775C75.8709 24.455 75.7059 25.05 75.4059 25.56C75.1159 26.07 74.6909 26.465 74.1309 26.745C73.5709 27.015 72.8809 27.15 72.0609 27.15ZM72.0609 25.5C72.5509 25.5 72.9209 25.35 73.1709 25.05C73.4209 24.74 73.5559 24.29 73.5759 23.7C73.5859 23.55 73.5909 23.35 73.5909 23.1C73.5909 22.85 73.5859 22.65 73.5759 22.5C73.5559 21.92 73.4209 21.475 73.1709 21.165C72.9209 20.855 72.5509 20.7 72.0609 20.7C71.5709 20.7 71.1959 20.855 70.9359 21.165C70.6859 21.475 70.5509 21.92 70.5309 22.5C70.5209 22.65 70.5159 22.85 70.5159 23.1C70.5159 23.35 70.5209 23.55 70.5309 23.7C70.5509 24.29 70.6859 24.74 70.9359 25.05C71.1959 25.35 71.5709 25.5 72.0609 25.5ZM77.8597 27C77.7597 27 77.6747 26.965 77.6047 26.895C77.5347 26.825 77.4997 26.735 77.4997 26.625V19.575C77.4997 19.465 77.5347 19.375 77.6047 19.305C77.6747 19.235 77.7597 19.2 77.8597 19.2H79.3297C79.4397 19.2 79.5297 19.235 79.5997 19.305C79.6697 19.375 79.7047 19.465 79.7047 19.575V20.16C79.9647 19.84 80.2997 19.575 80.7097 19.365C81.1197 19.155 81.6197 19.05 82.2097 19.05C82.7997 19.05 83.3147 19.185 83.7547 19.455C84.2047 19.715 84.5547 20.1 84.8047 20.61C85.0647 21.11 85.1947 21.72 85.1947 22.44V26.625C85.1947 26.735 85.1547 26.825 85.0747 26.895C85.0047 26.965 84.9197 27 84.8197 27H83.2297C83.1197 27 83.0297 26.965 82.9597 26.895C82.8897 26.825 82.8547 26.735 82.8547 26.625V22.53C82.8547 22 82.7247 21.59 82.4647 21.3C82.2147 21 81.8447 20.85 81.3547 20.85C80.8847 20.85 80.5097 21 80.2297 21.3C79.9497 21.59 79.8097 22 79.8097 22.53V26.625C79.8097 26.735 79.7747 26.825 79.7047 26.895C79.6347 26.965 79.5497 27 79.4497 27H77.8597ZM90.4569 27.15C89.7269 27.15 89.0819 27.015 88.5219 26.745C87.9719 26.475 87.5369 26.085 87.2169 25.575C86.8969 25.055 86.7219 24.435 86.6919 23.715C86.6819 23.555 86.6769 23.355 86.6769 23.115C86.6769 22.865 86.6819 22.66 86.6919 22.5C86.7219 21.77 86.8919 21.15 87.2019 20.64C87.5219 20.12 87.9619 19.725 88.5219 19.455C89.0819 19.185 89.7269 19.05 90.4569 19.05C91.1269 19.05 91.6969 19.145 92.1669 19.335C92.6369 19.515 93.0219 19.745 93.3219 20.025C93.6219 20.305 93.8419 20.6 93.9819 20.91C94.1319 21.21 94.2119 21.475 94.2219 21.705C94.2319 21.805 94.1969 21.895 94.1169 21.975C94.0469 22.045 93.9619 22.08 93.8619 22.08H92.2569C92.1569 22.08 92.0769 22.055 92.0169 22.005C91.9669 21.945 91.9169 21.865 91.8669 21.765C91.7269 21.415 91.5469 21.165 91.3269 21.015C91.1069 20.865 90.8319 20.79 90.5019 20.79C90.0519 20.79 89.6969 20.935 89.4369 21.225C89.1769 21.515 89.0369 21.965 89.0169 22.575C89.0069 22.965 89.0069 23.32 89.0169 23.64C89.0469 24.26 89.1869 24.71 89.4369 24.99C89.6969 25.27 90.0519 25.41 90.5019 25.41C90.8519 25.41 91.1319 25.335 91.3419 25.185C91.5519 25.035 91.7269 24.785 91.8669 24.435C91.9069 24.335 91.9569 24.26 92.0169 24.21C92.0769 24.15 92.1569 24.12 92.2569 24.12H93.8619C93.9619 24.12 94.0469 24.16 94.1169 24.24C94.1969 24.31 94.2319 24.395 94.2219 24.495C94.2119 24.665 94.1619 24.865 94.0719 25.095C93.9919 25.325 93.8569 25.56 93.6669 25.8C93.4869 26.04 93.2519 26.265 92.9619 26.475C92.6719 26.675 92.3169 26.84 91.8969 26.97C91.4869 27.09 91.0069 27.15 90.4569 27.15ZM99.173 27.15C98.023 27.15 97.108 26.83 96.428 26.19C95.758 25.55 95.403 24.62 95.363 23.4C95.363 23.32 95.363 23.215 95.363 23.085C95.363 22.945 95.363 22.835 95.363 22.755C95.403 21.985 95.578 21.325 95.888 20.775C96.198 20.215 96.633 19.79 97.193 19.5C97.753 19.2 98.408 19.05 99.158 19.05C99.998 19.05 100.698 19.225 101.258 19.575C101.828 19.915 102.253 20.385 102.533 20.985C102.823 21.575 102.968 22.255 102.968 23.025V23.37C102.968 23.47 102.928 23.555 102.848 23.625C102.778 23.695 102.693 23.73 102.593 23.73H97.688C97.688 23.74 97.688 23.76 97.688 23.79C97.688 23.81 97.688 23.83 97.688 23.85C97.698 24.17 97.758 24.465 97.868 24.735C97.988 24.995 98.153 25.205 98.363 25.365C98.583 25.525 98.843 25.605 99.143 25.605C99.393 25.605 99.598 25.57 99.758 25.5C99.918 25.43 100.048 25.345 100.148 25.245C100.258 25.145 100.338 25.06 100.388 24.99C100.478 24.89 100.548 24.83 100.598 24.81C100.658 24.78 100.748 24.765 100.868 24.765H102.428C102.528 24.765 102.608 24.795 102.668 24.855C102.738 24.905 102.768 24.98 102.758 25.08C102.748 25.24 102.663 25.44 102.503 25.68C102.353 25.91 102.128 26.14 101.828 26.37C101.528 26.59 101.153 26.775 100.703 26.925C100.263 27.075 99.753 27.15 99.173 27.15ZM97.688 22.365H100.628V22.335C100.628 21.975 100.568 21.665 100.448 21.405C100.338 21.135 100.173 20.925 99.953 20.775C99.733 20.625 99.468 20.55 99.158 20.55C98.848 20.55 98.583 20.625 98.363 20.775C98.143 20.925 97.973 21.135 97.853 21.405C97.743 21.665 97.688 21.975 97.688 22.335V22.365ZM110.673 27.15C110.173 27.15 109.728 27.07 109.338 26.91C108.948 26.74 108.618 26.5 108.348 26.19C108.078 25.87 107.873 25.495 107.733 25.065C107.593 24.625 107.508 24.14 107.478 23.61C107.468 23.42 107.463 23.25 107.463 23.1C107.463 22.94 107.468 22.77 107.478 22.59C107.498 22.07 107.578 21.595 107.718 21.165C107.868 20.735 108.073 20.365 108.333 20.055C108.603 19.735 108.933 19.49 109.323 19.32C109.723 19.14 110.173 19.05 110.673 19.05C111.193 19.05 111.638 19.14 112.008 19.32C112.378 19.49 112.683 19.715 112.923 19.995V16.725C112.923 16.615 112.958 16.525 113.028 16.455C113.098 16.385 113.188 16.35 113.298 16.35H114.843C114.943 16.35 115.028 16.385 115.098 16.455C115.168 16.525 115.203 16.615 115.203 16.725V26.625C115.203 26.735 115.168 26.825 115.098 26.895C115.028 26.965 114.943 27 114.843 27H113.403C113.303 27 113.218 26.965 113.148 26.895C113.078 26.825 113.043 26.735 113.043 26.625V26.115C112.793 26.415 112.478 26.665 112.098 26.865C111.718 27.055 111.243 27.15 110.673 27.15ZM111.363 25.35C111.733 25.35 112.028 25.265 112.248 25.095C112.478 24.925 112.643 24.71 112.743 24.45C112.853 24.19 112.913 23.91 112.923 23.61C112.943 23.42 112.953 23.23 112.953 23.04C112.953 22.85 112.943 22.665 112.923 22.485C112.913 22.205 112.853 21.945 112.743 21.705C112.633 21.455 112.463 21.25 112.233 21.09C112.013 20.93 111.723 20.85 111.363 20.85C110.983 20.85 110.683 20.935 110.463 21.105C110.243 21.265 110.083 21.48 109.983 21.75C109.893 22.02 109.838 22.315 109.818 22.635C109.788 22.945 109.788 23.255 109.818 23.565C109.838 23.885 109.893 24.18 109.983 24.45C110.083 24.72 110.243 24.94 110.463 25.11C110.683 25.27 110.983 25.35 111.363 25.35ZM117.469 27C117.369 27 117.284 26.965 117.214 26.895C117.144 26.825 117.109 26.735 117.109 26.625V19.575C117.109 19.465 117.144 19.375 117.214 19.305C117.284 19.235 117.369 19.2 117.469 19.2H118.969C119.079 19.2 119.169 19.235 119.239 19.305C119.309 19.375 119.344 19.465 119.344 19.575V26.625C119.344 26.735 119.309 26.825 119.239 26.895C119.169 26.965 119.079 27 118.969 27H117.469ZM117.424 18C117.324 18 117.239 17.965 117.169 17.895C117.099 17.825 117.064 17.735 117.064 17.625V16.425C117.064 16.315 117.099 16.225 117.169 16.155C117.239 16.075 117.324 16.035 117.424 16.035H118.999C119.109 16.035 119.199 16.075 119.269 16.155C119.349 16.225 119.389 16.315 119.389 16.425V17.625C119.389 17.735 119.349 17.825 119.269 17.895C119.199 17.965 119.109 18 118.999 18H117.424ZM124.535 27.15C123.915 27.15 123.38 27.08 122.93 26.94C122.49 26.79 122.13 26.61 121.85 26.4C121.58 26.19 121.375 25.98 121.235 25.77C121.105 25.55 121.035 25.365 121.025 25.215C121.015 25.105 121.05 25.015 121.13 24.945C121.21 24.875 121.29 24.84 121.37 24.84H122.825C122.855 24.84 122.885 24.845 122.915 24.855C122.945 24.865 122.975 24.89 123.005 24.93C123.135 25.02 123.27 25.125 123.41 25.245C123.55 25.355 123.71 25.45 123.89 25.53C124.08 25.61 124.315 25.65 124.595 25.65C124.925 25.65 125.205 25.585 125.435 25.455C125.665 25.315 125.78 25.12 125.78 24.87C125.78 24.69 125.725 24.54 125.615 24.42C125.515 24.3 125.32 24.19 125.03 24.09C124.74 23.99 124.31 23.88 123.74 23.76C123.2 23.64 122.74 23.48 122.36 23.28C121.98 23.08 121.695 22.83 121.505 22.53C121.315 22.22 121.22 21.85 121.22 21.42C121.22 21.03 121.34 20.655 121.58 20.295C121.83 19.935 122.195 19.64 122.675 19.41C123.155 19.17 123.755 19.05 124.475 19.05C125.025 19.05 125.505 19.12 125.915 19.26C126.335 19.39 126.685 19.56 126.965 19.77C127.245 19.97 127.455 20.18 127.595 20.4C127.745 20.61 127.825 20.795 127.835 20.955C127.845 21.055 127.815 21.14 127.745 21.21C127.675 21.28 127.595 21.315 127.505 21.315H126.17C126.12 21.315 126.075 21.31 126.035 21.3C125.995 21.28 125.96 21.255 125.93 21.225C125.81 21.145 125.685 21.055 125.555 20.955C125.435 20.845 125.29 20.75 125.12 20.67C124.95 20.59 124.73 20.55 124.46 20.55C124.13 20.55 123.875 20.625 123.695 20.775C123.525 20.915 123.44 21.095 123.44 21.315C123.44 21.455 123.485 21.585 123.575 21.705C123.665 21.825 123.85 21.935 124.13 22.035C124.41 22.135 124.835 22.24 125.405 22.35C126.085 22.47 126.625 22.65 127.025 22.89C127.425 23.13 127.71 23.41 127.88 23.73C128.06 24.04 128.15 24.375 128.15 24.735C128.15 25.205 128.01 25.625 127.73 25.995C127.45 26.355 127.04 26.64 126.5 26.85C125.97 27.05 125.315 27.15 124.535 27.15ZM129.965 29.85C129.855 29.85 129.765 29.815 129.695 29.745C129.625 29.675 129.59 29.585 129.59 29.475V19.575C129.59 19.465 129.625 19.375 129.695 19.305C129.765 19.235 129.855 19.2 129.965 19.2H131.39C131.5 19.2 131.59 19.235 131.66 19.305C131.73 19.375 131.765 19.465 131.765 19.575V20.145C132.005 19.825 132.315 19.565 132.695 19.365C133.075 19.155 133.55 19.05 134.12 19.05C134.64 19.05 135.09 19.135 135.47 19.305C135.86 19.465 136.185 19.7 136.445 20.01C136.715 20.31 136.92 20.675 137.06 21.105C137.21 21.535 137.295 22.02 137.315 22.56C137.325 22.75 137.33 22.93 137.33 23.1C137.33 23.27 137.325 23.455 137.315 23.655C137.305 24.165 137.225 24.635 137.075 25.065C136.935 25.495 136.73 25.865 136.46 26.175C136.19 26.485 135.86 26.725 135.47 26.895C135.09 27.065 134.64 27.15 134.12 27.15C133.61 27.15 133.165 27.06 132.785 26.88C132.415 26.69 132.11 26.435 131.87 26.115V29.475C131.87 29.585 131.835 29.675 131.765 29.745C131.695 29.815 131.61 29.85 131.51 29.85H129.965ZM133.445 25.35C133.825 25.35 134.125 25.27 134.345 25.11C134.565 24.94 134.72 24.72 134.81 24.45C134.91 24.18 134.97 23.885 134.99 23.565C135.01 23.255 135.01 22.945 134.99 22.635C134.97 22.315 134.91 22.02 134.81 21.75C134.72 21.48 134.565 21.265 134.345 21.105C134.125 20.935 133.825 20.85 133.445 20.85C133.075 20.85 132.775 20.935 132.545 21.105C132.315 21.275 132.15 21.49 132.05 21.75C131.95 22.01 131.89 22.29 131.87 22.59C131.86 22.77 131.855 22.955 131.855 23.145C131.855 23.335 131.86 23.525 131.87 23.715C131.88 23.995 131.94 24.26 132.05 24.51C132.17 24.75 132.34 24.95 132.56 25.11C132.79 25.27 133.085 25.35 133.445 25.35ZM142.491 27.15C141.661 27.15 140.966 27.015 140.406 26.745C139.846 26.465 139.416 26.07 139.116 25.56C138.826 25.05 138.666 24.455 138.636 23.775C138.626 23.575 138.621 23.35 138.621 23.1C138.621 22.84 138.626 22.615 138.636 22.425C138.666 21.735 138.836 21.14 139.146 20.64C139.456 20.13 139.891 19.74 140.451 19.47C141.011 19.19 141.691 19.05 142.491 19.05C143.281 19.05 143.956 19.19 144.516 19.47C145.076 19.74 145.511 20.13 145.821 20.64C146.131 21.14 146.301 21.735 146.331 22.425C146.351 22.615 146.361 22.84 146.361 23.1C146.361 23.35 146.351 23.575 146.331 23.775C146.301 24.455 146.136 25.05 145.836 25.56C145.546 26.07 145.121 26.465 144.561 26.745C144.001 27.015 143.311 27.15 142.491 27.15ZM142.491 25.5C142.981 25.5 143.351 25.35 143.601 25.05C143.851 24.74 143.986 24.29 144.006 23.7C144.016 23.55 144.021 23.35 144.021 23.1C144.021 22.85 144.016 22.65 144.006 22.5C143.986 21.92 143.851 21.475 143.601 21.165C143.351 20.855 142.981 20.7 142.491 20.7C142.001 20.7 141.626 20.855 141.366 21.165C141.116 21.475 140.981 21.92 140.961 22.5C140.951 22.65 140.946 22.85 140.946 23.1C140.946 23.35 140.951 23.55 140.961 23.7C140.981 24.29 141.116 24.74 141.366 25.05C141.626 25.35 142.001 25.5 142.491 25.5ZM148.289 27C148.189 27 148.104 26.965 148.034 26.895C147.964 26.825 147.929 26.735 147.929 26.625V19.575C147.929 19.465 147.964 19.375 148.034 19.305C148.104 19.235 148.189 19.2 148.289 19.2H149.759C149.869 19.2 149.959 19.235 150.029 19.305C150.099 19.375 150.134 19.465 150.134 19.575V20.16C150.394 19.84 150.729 19.575 151.139 19.365C151.549 19.155 152.049 19.05 152.639 19.05C153.229 19.05 153.744 19.185 154.184 19.455C154.634 19.715 154.984 20.1 155.234 20.61C155.494 21.11 155.624 21.72 155.624 22.44V26.625C155.624 26.735 155.584 26.825 155.504 26.895C155.434 26.965 155.349 27 155.249 27H153.659C153.549 27 153.459 26.965 153.389 26.895C153.319 26.825 153.284 26.735 153.284 26.625V22.53C153.284 22 153.154 21.59 152.894 21.3C152.644 21 152.274 20.85 151.784 20.85C151.314 20.85 150.939 21 150.659 21.3C150.379 21.59 150.239 22 150.239 22.53V26.625C150.239 26.735 150.204 26.825 150.134 26.895C150.064 26.965 149.979 27 149.879 27H148.289ZM157.782 27C157.682 27 157.597 26.965 157.527 26.895C157.457 26.825 157.422 26.735 157.422 26.625V19.575C157.422 19.465 157.457 19.375 157.527 19.305C157.597 19.235 157.682 19.2 157.782 19.2H159.282C159.392 19.2 159.482 19.235 159.552 19.305C159.622 19.375 159.657 19.465 159.657 19.575V26.625C159.657 26.735 159.622 26.825 159.552 26.895C159.482 26.965 159.392 27 159.282 27H157.782ZM157.737 18C157.637 18 157.552 17.965 157.482 17.895C157.412 17.825 157.377 17.735 157.377 17.625V16.425C157.377 16.315 157.412 16.225 157.482 16.155C157.552 16.075 157.637 16.035 157.737 16.035H159.312C159.422 16.035 159.512 16.075 159.582 16.155C159.662 16.225 159.702 16.315 159.702 16.425V17.625C159.702 17.735 159.662 17.825 159.582 17.895C159.512 17.965 159.422 18 159.312 18H157.737ZM161.913 27C161.803 27 161.713 26.965 161.643 26.895C161.573 26.825 161.538 26.735 161.538 26.625V16.725C161.538 16.615 161.573 16.525 161.643 16.455C161.713 16.385 161.803 16.35 161.913 16.35H163.413C163.513 16.35 163.598 16.385 163.668 16.455C163.738 16.525 163.773 16.615 163.773 16.725V26.625C163.773 26.735 163.738 26.825 163.668 26.895C163.598 26.965 163.513 27 163.413 27H161.913ZM170.199 27.15C169.629 27.15 169.154 27.055 168.774 26.865C168.394 26.665 168.084 26.415 167.844 26.115V26.625C167.844 26.735 167.809 26.825 167.739 26.895C167.669 26.965 167.579 27 167.469 27H166.044C165.934 27 165.844 26.965 165.774 26.895C165.704 26.825 165.669 26.735 165.669 26.625V16.725C165.669 16.615 165.704 16.525 165.774 16.455C165.844 16.385 165.934 16.35 166.044 16.35H167.589C167.689 16.35 167.774 16.385 167.844 16.455C167.914 16.525 167.949 16.615 167.949 16.725V19.995C168.199 19.715 168.509 19.49 168.879 19.32C169.249 19.14 169.689 19.05 170.199 19.05C170.719 19.05 171.169 19.14 171.549 19.32C171.939 19.49 172.269 19.735 172.539 20.055C172.809 20.365 173.014 20.735 173.154 21.165C173.304 21.595 173.384 22.07 173.394 22.59C173.404 22.77 173.409 22.94 173.409 23.1C173.409 23.25 173.404 23.42 173.394 23.61C173.374 24.14 173.289 24.625 173.139 25.065C172.999 25.495 172.794 25.87 172.524 26.19C172.264 26.5 171.939 26.74 171.549 26.91C171.169 27.07 170.719 27.15 170.199 27.15ZM169.524 25.35C169.904 25.35 170.204 25.27 170.424 25.11C170.644 24.94 170.799 24.72 170.889 24.45C170.989 24.18 171.049 23.885 171.069 23.565C171.089 23.255 171.089 22.945 171.069 22.635C171.049 22.315 170.989 22.02 170.889 21.75C170.799 21.48 170.644 21.265 170.424 21.105C170.204 20.935 169.904 20.85 169.524 20.85C169.164 20.85 168.869 20.93 168.639 21.09C168.419 21.25 168.249 21.455 168.129 21.705C168.019 21.945 167.959 22.205 167.949 22.485C167.939 22.665 167.934 22.85 167.934 23.04C167.934 23.23 167.939 23.42 167.949 23.61C167.969 23.91 168.029 24.19 168.129 24.45C168.229 24.71 168.394 24.925 168.624 25.095C168.854 25.265 169.154 25.35 169.524 25.35ZM178.48 27.15C177.33 27.15 176.415 26.83 175.735 26.19C175.065 25.55 174.71 24.62 174.67 23.4C174.67 23.32 174.67 23.215 174.67 23.085C174.67 22.945 174.67 22.835 174.67 22.755C174.71 21.985 174.885 21.325 175.195 20.775C175.505 20.215 175.94 19.79 176.5 19.5C177.06 19.2 177.715 19.05 178.465 19.05C179.305 19.05 180.005 19.225 180.565 19.575C181.135 19.915 181.56 20.385 181.84 20.985C182.13 21.575 182.275 22.255 182.275 23.025V23.37C182.275 23.47 182.235 23.555 182.155 23.625C182.085 23.695 182 23.73 181.9 23.73H176.995C176.995 23.74 176.995 23.76 176.995 23.79C176.995 23.81 176.995 23.83 176.995 23.85C177.005 24.17 177.065 24.465 177.175 24.735C177.295 24.995 177.46 25.205 177.67 25.365C177.89 25.525 178.15 25.605 178.45 25.605C178.7 25.605 178.905 25.57 179.065 25.5C179.225 25.43 179.355 25.345 179.455 25.245C179.565 25.145 179.645 25.06 179.695 24.99C179.785 24.89 179.855 24.83 179.905 24.81C179.965 24.78 180.055 24.765 180.175 24.765H181.735C181.835 24.765 181.915 24.795 181.975 24.855C182.045 24.905 182.075 24.98 182.065 25.08C182.055 25.24 181.97 25.44 181.81 25.68C181.66 25.91 181.435 26.14 181.135 26.37C180.835 26.59 180.46 26.775 180.01 26.925C179.57 27.075 179.06 27.15 178.48 27.15ZM176.995 22.365H179.935V22.335C179.935 21.975 179.875 21.665 179.755 21.405C179.645 21.135 179.48 20.925 179.26 20.775C179.04 20.625 178.775 20.55 178.465 20.55C178.155 20.55 177.89 20.625 177.67 20.775C177.45 20.925 177.28 21.135 177.16 21.405C177.05 21.665 176.995 21.975 176.995 22.335V22.365Z" fill="white"/>
</svg>
