<svg width="221" height="44" viewBox="0 0 221 44" fill="none" xmlns="http://www.w3.org/2000/svg">
  <rect width="221" height="44" rx="5" fill="#F58218"/>
  <path d="M21.495 27C21.405 27 21.33 26.97 21.27 26.91C21.21 26.84 21.18 26.765 21.18 26.685C21.18 26.635 21.185 26.59 21.195 26.55L24.765 16.905C24.795 16.795 24.855 16.7 24.945 16.62C25.035 16.54 25.16 16.5 25.32 16.5H27.24C27.4 16.5 27.525 16.54 27.615 16.62C27.705 16.7 27.765 16.795 27.795 16.905L31.365 26.55C31.375 26.59 31.38 26.635 31.38 26.685C31.38 26.765 31.35 26.84 31.29 26.91C31.23 26.97 31.155 27 31.065 27H29.505C29.355 27 29.245 26.965 29.175 26.895C29.105 26.825 29.06 26.76 29.04 26.7L28.395 25.02H24.165L23.52 26.7C23.5 26.76 23.455 26.825 23.385 26.895C23.315 26.965 23.205 27 23.055 27H21.495ZM24.72 23.085H27.825L26.28 18.765L24.72 23.085ZM32.8665 27C32.7665 27 32.6815 26.965 32.6115 26.895C32.5415 26.825 32.5065 26.735 32.5065 26.625V19.575C32.5065 19.465 32.5415 19.375 32.6115 19.305C32.6815 19.235 32.7665 19.2 32.8665 19.2H34.3365C34.4465 19.2 34.5365 19.235 34.6065 19.305C34.6765 19.375 34.7115 19.465 34.7115 19.575V20.16C34.9715 19.84 35.3065 19.575 35.7165 19.365C36.1265 19.155 36.6265 19.05 37.2165 19.05C37.8065 19.05 38.3215 19.185 38.7615 19.455C39.2115 19.715 39.5615 20.1 39.8115 20.61C40.0715 21.11 40.2015 21.72 40.2015 22.44V26.625C40.2015 26.735 40.1615 26.825 40.0815 26.895C40.0115 26.965 39.9265 27 39.8265 27H38.2365C38.1265 27 38.0365 26.965 37.9665 26.895C37.8965 26.825 37.8615 26.735 37.8615 26.625V22.53C37.8615 22 37.7315 21.59 37.4715 21.3C37.2215 21 36.8515 20.85 36.3615 20.85C35.8915 20.85 35.5165 21 35.2365 21.3C34.9565 21.59 34.8165 22 34.8165 22.53V26.625C34.8165 26.735 34.7815 26.825 34.7115 26.895C34.6415 26.965 34.5565 27 34.4565 27H32.8665ZM42.3587 27C42.2587 27 42.1737 26.965 42.1037 26.895C42.0337 26.825 41.9987 26.735 41.9987 26.625V19.575C41.9987 19.465 42.0337 19.375 42.1037 19.305C42.1737 19.235 42.2587 19.2 42.3587 19.2H43.8287C43.9387 19.2 44.0287 19.235 44.0987 19.305C44.1687 19.375 44.2037 19.465 44.2037 19.575V20.16C44.4637 19.84 44.7987 19.575 45.2087 19.365C45.6187 19.155 46.1187 19.05 46.7087 19.05C47.2987 19.05 47.8137 19.185 48.2537 19.455C48.7037 19.715 49.0537 20.1 49.3037 20.61C49.5637 21.11 49.6937 21.72 49.6937 22.44V26.625C49.6937 26.735 49.6537 26.825 49.5737 26.895C49.5037 26.965 49.4187 27 49.3187 27H47.7287C47.6187 27 47.5287 26.965 47.4587 26.895C47.3887 26.825 47.3537 26.735 47.3537 26.625V22.53C47.3537 22 47.2237 21.59 46.9637 21.3C46.7137 21 46.3437 20.85 45.8537 20.85C45.3837 20.85 45.0087 21 44.7287 21.3C44.4487 21.59 44.3087 22 44.3087 22.53V26.625C44.3087 26.735 44.2737 26.825 44.2037 26.895C44.1337 26.965 44.0487 27 43.9487 27H42.3587ZM55.0609 27.15C54.2309 27.15 53.5359 27.015 52.9759 26.745C52.4159 26.465 51.9859 26.07 51.6859 25.56C51.3959 25.05 51.2359 24.455 51.2059 23.775C51.1959 23.575 51.1909 23.35 51.1909 23.1C51.1909 22.84 51.1959 22.615 51.2059 22.425C51.2359 21.735 51.4059 21.14 51.7159 20.64C52.0259 20.13 52.4609 19.74 53.0209 19.47C53.5809 19.19 54.2609 19.05 55.0609 19.05C55.8509 19.05 56.5259 19.19 57.0859 19.47C57.6459 19.74 58.0809 20.13 58.3909 20.64C58.7009 21.14 58.8709 21.735 58.9009 22.425C58.9209 22.615 58.9309 22.84 58.9309 23.1C58.9309 23.35 58.9209 23.575 58.9009 23.775C58.8709 24.455 58.7059 25.05 58.4059 25.56C58.1159 26.07 57.6909 26.465 57.1309 26.745C56.5709 27.015 55.8809 27.15 55.0609 27.15ZM55.0609 25.5C55.5509 25.5 55.9209 25.35 56.1709 25.05C56.4209 24.74 56.5559 24.29 56.5759 23.7C56.5859 23.55 56.5909 23.35 56.5909 23.1C56.5909 22.85 56.5859 22.65 56.5759 22.5C56.5559 21.92 56.4209 21.475 56.1709 21.165C55.9209 20.855 55.5509 20.7 55.0609 20.7C54.5709 20.7 54.1959 20.855 53.9359 21.165C53.6859 21.475 53.5509 21.92 53.5309 22.5C53.5209 22.65 53.5159 22.85 53.5159 23.1C53.5159 23.35 53.5209 23.55 53.5309 23.7C53.5509 24.29 53.6859 24.74 53.9359 25.05C54.1959 25.35 54.5709 25.5 55.0609 25.5ZM60.8597 27C60.7597 27 60.6747 26.965 60.6047 26.895C60.5347 26.825 60.4997 26.735 60.4997 26.625V19.575C60.4997 19.465 60.5347 19.375 60.6047 19.305C60.6747 19.235 60.7597 19.2 60.8597 19.2H62.3297C62.4397 19.2 62.5297 19.235 62.5997 19.305C62.6697 19.375 62.7047 19.465 62.7047 19.575V20.16C62.9647 19.84 63.2997 19.575 63.7097 19.365C64.1197 19.155 64.6197 19.05 65.2097 19.05C65.7997 19.05 66.3147 19.185 66.7547 19.455C67.2047 19.715 67.5547 20.1 67.8047 20.61C68.0647 21.11 68.1947 21.72 68.1947 22.44V26.625C68.1947 26.735 68.1547 26.825 68.0747 26.895C68.0047 26.965 67.9197 27 67.8197 27H66.2297C66.1197 27 66.0297 26.965 65.9597 26.895C65.8897 26.825 65.8547 26.735 65.8547 26.625V22.53C65.8547 22 65.7247 21.59 65.4647 21.3C65.2147 21 64.8447 20.85 64.3547 20.85C63.8847 20.85 63.5097 21 63.2297 21.3C62.9497 21.59 62.8097 22 62.8097 22.53V26.625C62.8097 26.735 62.7747 26.825 62.7047 26.895C62.6347 26.965 62.5497 27 62.4497 27H60.8597ZM73.4569 27.15C72.7269 27.15 72.0819 27.015 71.5219 26.745C70.9719 26.475 70.5369 26.085 70.2169 25.575C69.8969 25.055 69.7219 24.435 69.6919 23.715C69.6819 23.555 69.6769 23.355 69.6769 23.115C69.6769 22.865 69.6819 22.66 69.6919 22.5C69.7219 21.77 69.8919 21.15 70.2019 20.64C70.5219 20.12 70.9619 19.725 71.5219 19.455C72.0819 19.185 72.7269 19.05 73.4569 19.05C74.1269 19.05 74.6969 19.145 75.1669 19.335C75.6369 19.515 76.0219 19.745 76.3219 20.025C76.6219 20.305 76.8419 20.6 76.9819 20.91C77.1319 21.21 77.2119 21.475 77.2219 21.705C77.2319 21.805 77.1969 21.895 77.1169 21.975C77.0469 22.045 76.9619 22.08 76.8619 22.08H75.2569C75.1569 22.08 75.0769 22.055 75.0169 22.005C74.9669 21.945 74.9169 21.865 74.8669 21.765C74.7269 21.415 74.5469 21.165 74.3269 21.015C74.1069 20.865 73.8319 20.79 73.5019 20.79C73.0519 20.79 72.6969 20.935 72.4369 21.225C72.1769 21.515 72.0369 21.965 72.0169 22.575C72.0069 22.965 72.0069 23.32 72.0169 23.64C72.0469 24.26 72.1869 24.71 72.4369 24.99C72.6969 25.27 73.0519 25.41 73.5019 25.41C73.8519 25.41 74.1319 25.335 74.3419 25.185C74.5519 25.035 74.7269 24.785 74.8669 24.435C74.9069 24.335 74.9569 24.26 75.0169 24.21C75.0769 24.15 75.1569 24.12 75.2569 24.12H76.8619C76.9619 24.12 77.0469 24.16 77.1169 24.24C77.1969 24.31 77.2319 24.395 77.2219 24.495C77.2119 24.665 77.1619 24.865 77.0719 25.095C76.9919 25.325 76.8569 25.56 76.6669 25.8C76.4869 26.04 76.2519 26.265 75.9619 26.475C75.6719 26.675 75.3169 26.84 74.8969 26.97C74.4869 27.09 74.0069 27.15 73.4569 27.15ZM82.173 27.15C81.023 27.15 80.108 26.83 79.428 26.19C78.758 25.55 78.403 24.62 78.363 23.4C78.363 23.32 78.363 23.215 78.363 23.085C78.363 22.945 78.363 22.835 78.363 22.755C78.403 21.985 78.578 21.325 78.888 20.775C79.198 20.215 79.633 19.79 80.193 19.5C80.753 19.2 81.408 19.05 82.158 19.05C82.998 19.05 83.698 19.225 84.258 19.575C84.828 19.915 85.253 20.385 85.533 20.985C85.823 21.575 85.968 22.255 85.968 23.025V23.37C85.968 23.47 85.928 23.555 85.848 23.625C85.778 23.695 85.693 23.73 85.593 23.73H80.688C80.688 23.74 80.688 23.76 80.688 23.79C80.688 23.81 80.688 23.83 80.688 23.85C80.698 24.17 80.758 24.465 80.868 24.735C80.988 24.995 81.153 25.205 81.363 25.365C81.583 25.525 81.843 25.605 82.143 25.605C82.393 25.605 82.598 25.57 82.758 25.5C82.918 25.43 83.048 25.345 83.148 25.245C83.258 25.145 83.338 25.06 83.388 24.99C83.478 24.89 83.548 24.83 83.598 24.81C83.658 24.78 83.748 24.765 83.868 24.765H85.428C85.528 24.765 85.608 24.795 85.668 24.855C85.738 24.905 85.768 24.98 85.758 25.08C85.748 25.24 85.663 25.44 85.503 25.68C85.353 25.91 85.128 26.14 84.828 26.37C84.528 26.59 84.153 26.775 83.703 26.925C83.263 27.075 82.753 27.15 82.173 27.15ZM80.688 22.365H83.628V22.335C83.628 21.975 83.568 21.665 83.448 21.405C83.338 21.135 83.173 20.925 82.953 20.775C82.733 20.625 82.468 20.55 82.158 20.55C81.848 20.55 81.583 20.625 81.363 20.775C81.143 20.925 80.973 21.135 80.853 21.405C80.743 21.665 80.688 21.975 80.688 22.335V22.365ZM94.258 27.15C93.108 27.15 92.193 26.83 91.513 26.19C90.843 25.55 90.488 24.62 90.448 23.4C90.448 23.32 90.448 23.215 90.448 23.085C90.448 22.945 90.448 22.835 90.448 22.755C90.488 21.985 90.663 21.325 90.973 20.775C91.283 20.215 91.718 19.79 92.278 19.5C92.838 19.2 93.493 19.05 94.243 19.05C95.083 19.05 95.783 19.225 96.343 19.575C96.913 19.915 97.338 20.385 97.618 20.985C97.908 21.575 98.053 22.255 98.053 23.025V23.37C98.053 23.47 98.013 23.555 97.933 23.625C97.863 23.695 97.778 23.73 97.678 23.73H92.773C92.773 23.74 92.773 23.76 92.773 23.79C92.773 23.81 92.773 23.83 92.773 23.85C92.783 24.17 92.843 24.465 92.953 24.735C93.073 24.995 93.238 25.205 93.448 25.365C93.668 25.525 93.928 25.605 94.228 25.605C94.478 25.605 94.683 25.57 94.843 25.5C95.003 25.43 95.133 25.345 95.233 25.245C95.343 25.145 95.423 25.06 95.473 24.99C95.563 24.89 95.633 24.83 95.683 24.81C95.743 24.78 95.833 24.765 95.953 24.765H97.513C97.613 24.765 97.693 24.795 97.753 24.855C97.823 24.905 97.853 24.98 97.843 25.08C97.833 25.24 97.748 25.44 97.588 25.68C97.438 25.91 97.213 26.14 96.913 26.37C96.613 26.59 96.238 26.775 95.788 26.925C95.348 27.075 94.838 27.15 94.258 27.15ZM92.773 22.365H95.713V22.335C95.713 21.975 95.653 21.665 95.533 21.405C95.423 21.135 95.258 20.925 95.038 20.775C94.818 20.625 94.553 20.55 94.243 20.55C93.933 20.55 93.668 20.625 93.448 20.775C93.228 20.925 93.058 21.135 92.938 21.405C92.828 21.665 92.773 21.975 92.773 22.335V22.365ZM99.9124 27C99.8124 27 99.7274 26.965 99.6574 26.895C99.5874 26.825 99.5524 26.735 99.5524 26.625V19.575C99.5524 19.465 99.5874 19.375 99.6574 19.305C99.7274 19.235 99.8124 19.2 99.9124 19.2H101.382C101.492 19.2 101.582 19.235 101.652 19.305C101.722 19.375 101.757 19.465 101.757 19.575V20.16C102.017 19.84 102.352 19.575 102.762 19.365C103.172 19.155 103.672 19.05 104.262 19.05C104.852 19.05 105.367 19.185 105.807 19.455C106.257 19.715 106.607 20.1 106.857 20.61C107.117 21.11 107.247 21.72 107.247 22.44V26.625C107.247 26.735 107.207 26.825 107.127 26.895C107.057 26.965 106.972 27 106.872 27H105.282C105.172 27 105.082 26.965 105.012 26.895C104.942 26.825 104.907 26.735 104.907 26.625V22.53C104.907 22 104.777 21.59 104.517 21.3C104.267 21 103.897 20.85 103.407 20.85C102.937 20.85 102.562 21 102.282 21.3C102.002 21.59 101.862 22 101.862 22.53V26.625C101.862 26.735 101.827 26.825 101.757 26.895C101.687 26.965 101.602 27 101.502 27H99.9124ZM112.73 29.85C112.62 29.85 112.53 29.815 112.46 29.745C112.39 29.675 112.355 29.585 112.355 29.475V19.575C112.355 19.465 112.39 19.375 112.46 19.305C112.53 19.235 112.62 19.2 112.73 19.2H114.155C114.265 19.2 114.355 19.235 114.425 19.305C114.495 19.375 114.53 19.465 114.53 19.575V20.145C114.77 19.825 115.08 19.565 115.46 19.365C115.84 19.155 116.315 19.05 116.885 19.05C117.405 19.05 117.855 19.135 118.235 19.305C118.625 19.465 118.95 19.7 119.21 20.01C119.48 20.31 119.685 20.675 119.825 21.105C119.975 21.535 120.06 22.02 120.08 22.56C120.09 22.75 120.095 22.93 120.095 23.1C120.095 23.27 120.09 23.455 120.08 23.655C120.07 24.165 119.99 24.635 119.84 25.065C119.7 25.495 119.495 25.865 119.225 26.175C118.955 26.485 118.625 26.725 118.235 26.895C117.855 27.065 117.405 27.15 116.885 27.15C116.375 27.15 115.93 27.06 115.55 26.88C115.18 26.69 114.875 26.435 114.635 26.115V29.475C114.635 29.585 114.6 29.675 114.53 29.745C114.46 29.815 114.375 29.85 114.275 29.85H112.73ZM116.21 25.35C116.59 25.35 116.89 25.27 117.11 25.11C117.33 24.94 117.485 24.72 117.575 24.45C117.675 24.18 117.735 23.885 117.755 23.565C117.775 23.255 117.775 22.945 117.755 22.635C117.735 22.315 117.675 22.02 117.575 21.75C117.485 21.48 117.33 21.265 117.11 21.105C116.89 20.935 116.59 20.85 116.21 20.85C115.84 20.85 115.54 20.935 115.31 21.105C115.08 21.275 114.915 21.49 114.815 21.75C114.715 22.01 114.655 22.29 114.635 22.59C114.625 22.77 114.62 22.955 114.62 23.145C114.62 23.335 114.625 23.525 114.635 23.715C114.645 23.995 114.705 24.26 114.815 24.51C114.935 24.75 115.105 24.95 115.325 25.11C115.555 25.27 115.85 25.35 116.21 25.35ZM122.046 27C121.946 27 121.861 26.965 121.791 26.895C121.721 26.825 121.686 26.735 121.686 26.625V19.575C121.686 19.475 121.721 19.39 121.791 19.32C121.861 19.24 121.946 19.2 122.046 19.2H123.516C123.616 19.2 123.701 19.24 123.771 19.32C123.851 19.39 123.891 19.475 123.891 19.575V20.175C124.141 19.865 124.446 19.625 124.806 19.455C125.176 19.285 125.601 19.2 126.081 19.2H126.726C126.826 19.2 126.911 19.235 126.981 19.305C127.051 19.375 127.086 19.465 127.086 19.575V20.865C127.086 20.975 127.051 21.065 126.981 21.135C126.911 21.205 126.826 21.24 126.726 21.24H125.406C124.966 21.24 124.621 21.365 124.371 21.615C124.121 21.855 123.996 22.2 123.996 22.65V26.625C123.996 26.735 123.961 26.825 123.891 26.895C123.821 26.965 123.731 27 123.621 27H122.046ZM131.687 27.15C130.857 27.15 130.162 27.015 129.602 26.745C129.042 26.465 128.612 26.07 128.312 25.56C128.022 25.05 127.862 24.455 127.832 23.775C127.822 23.575 127.817 23.35 127.817 23.1C127.817 22.84 127.822 22.615 127.832 22.425C127.862 21.735 128.032 21.14 128.342 20.64C128.652 20.13 129.087 19.74 129.647 19.47C130.207 19.19 130.887 19.05 131.687 19.05C132.477 19.05 133.152 19.19 133.712 19.47C134.272 19.74 134.707 20.13 135.017 20.64C135.327 21.14 135.497 21.735 135.527 22.425C135.547 22.615 135.557 22.84 135.557 23.1C135.557 23.35 135.547 23.575 135.527 23.775C135.497 24.455 135.332 25.05 135.032 25.56C134.742 26.07 134.317 26.465 133.757 26.745C133.197 27.015 132.507 27.15 131.687 27.15ZM131.687 25.5C132.177 25.5 132.547 25.35 132.797 25.05C133.047 24.74 133.182 24.29 133.202 23.7C133.212 23.55 133.217 23.35 133.217 23.1C133.217 22.85 133.212 22.65 133.202 22.5C133.182 21.92 133.047 21.475 132.797 21.165C132.547 20.855 132.177 20.7 131.687 20.7C131.197 20.7 130.822 20.855 130.562 21.165C130.312 21.475 130.177 21.92 130.157 22.5C130.147 22.65 130.142 22.85 130.142 23.1C130.142 23.35 130.147 23.55 130.157 23.7C130.177 24.29 130.312 24.74 130.562 25.05C130.822 25.35 131.197 25.5 131.687 25.5ZM140.786 30.3C140.046 30.3 139.431 30.2 138.941 30C138.451 29.81 138.061 29.575 137.771 29.295C137.491 29.025 137.291 28.755 137.171 28.485C137.051 28.215 136.986 28.005 136.976 27.855C136.966 27.745 137.001 27.655 137.081 27.585C137.161 27.515 137.251 27.48 137.351 27.48H138.956C139.046 27.48 139.121 27.5 139.181 27.54C139.251 27.59 139.306 27.67 139.346 27.78C139.396 27.9 139.466 28.025 139.556 28.155C139.646 28.295 139.781 28.41 139.961 28.5C140.151 28.59 140.401 28.635 140.711 28.635C141.061 28.635 141.351 28.585 141.581 28.485C141.811 28.385 141.981 28.215 142.091 27.975C142.211 27.735 142.271 27.41 142.271 27V25.995C142.031 26.255 141.726 26.47 141.356 26.64C140.996 26.81 140.551 26.895 140.021 26.895C139.501 26.895 139.041 26.815 138.641 26.655C138.251 26.485 137.926 26.25 137.666 25.95C137.406 25.64 137.206 25.27 137.066 24.84C136.926 24.41 136.846 23.925 136.826 23.385C136.816 23.115 136.816 22.85 136.826 22.59C136.846 22.07 136.926 21.595 137.066 21.165C137.206 20.735 137.406 20.365 137.666 20.055C137.926 19.735 138.251 19.49 138.641 19.32C139.041 19.14 139.501 19.05 140.021 19.05C140.571 19.05 141.041 19.155 141.431 19.365C141.821 19.575 142.141 19.835 142.391 20.145V19.575C142.391 19.475 142.426 19.39 142.496 19.32C142.566 19.24 142.651 19.2 142.751 19.2H144.221C144.321 19.2 144.406 19.24 144.476 19.32C144.556 19.39 144.596 19.475 144.596 19.575L144.611 26.79C144.611 27.54 144.466 28.175 144.176 28.695C143.886 29.215 143.456 29.61 142.886 29.88C142.326 30.16 141.626 30.3 140.786 30.3ZM140.711 25.14C141.071 25.14 141.361 25.06 141.581 24.9C141.811 24.73 141.981 24.52 142.091 24.27C142.201 24.01 142.261 23.74 142.271 23.46C142.281 23.35 142.286 23.195 142.286 22.995C142.286 22.785 142.281 22.625 142.271 22.515C142.261 22.235 142.201 21.97 142.091 21.72C141.981 21.46 141.811 21.25 141.581 21.09C141.361 20.93 141.071 20.85 140.711 20.85C140.331 20.85 140.031 20.935 139.811 21.105C139.591 21.265 139.431 21.48 139.331 21.75C139.231 22.02 139.171 22.315 139.151 22.635C139.141 22.875 139.141 23.11 139.151 23.34C139.171 23.67 139.231 23.97 139.331 24.24C139.431 24.51 139.591 24.73 139.811 24.9C140.031 25.06 140.331 25.14 140.711 25.14ZM146.861 27C146.761 27 146.676 26.965 146.606 26.895C146.536 26.825 146.501 26.735 146.501 26.625V19.575C146.501 19.475 146.536 19.39 146.606 19.32C146.676 19.24 146.761 19.2 146.861 19.2H148.331C148.431 19.2 148.516 19.24 148.586 19.32C148.666 19.39 148.706 19.475 148.706 19.575V20.175C148.956 19.865 149.261 19.625 149.621 19.455C149.991 19.285 150.416 19.2 150.896 19.2H151.541C151.641 19.2 151.726 19.235 151.796 19.305C151.866 19.375 151.901 19.465 151.901 19.575V20.865C151.901 20.975 151.866 21.065 151.796 21.135C151.726 21.205 151.641 21.24 151.541 21.24H150.221C149.781 21.24 149.436 21.365 149.186 21.615C148.936 21.855 148.811 22.2 148.811 22.65V26.625C148.811 26.735 148.776 26.825 148.706 26.895C148.636 26.965 148.546 27 148.436 27H146.861ZM156.411 27.15C155.261 27.15 154.346 26.83 153.666 26.19C152.996 25.55 152.641 24.62 152.601 23.4C152.601 23.32 152.601 23.215 152.601 23.085C152.601 22.945 152.601 22.835 152.601 22.755C152.641 21.985 152.816 21.325 153.126 20.775C153.436 20.215 153.871 19.79 154.431 19.5C154.991 19.2 155.646 19.05 156.396 19.05C157.236 19.05 157.936 19.225 158.496 19.575C159.066 19.915 159.491 20.385 159.771 20.985C160.061 21.575 160.206 22.255 160.206 23.025V23.37C160.206 23.47 160.166 23.555 160.086 23.625C160.016 23.695 159.931 23.73 159.831 23.73H154.926C154.926 23.74 154.926 23.76 154.926 23.79C154.926 23.81 154.926 23.83 154.926 23.85C154.936 24.17 154.996 24.465 155.106 24.735C155.226 24.995 155.391 25.205 155.601 25.365C155.821 25.525 156.081 25.605 156.381 25.605C156.631 25.605 156.836 25.57 156.996 25.5C157.156 25.43 157.286 25.345 157.386 25.245C157.496 25.145 157.576 25.06 157.626 24.99C157.716 24.89 157.786 24.83 157.836 24.81C157.896 24.78 157.986 24.765 158.106 24.765H159.666C159.766 24.765 159.846 24.795 159.906 24.855C159.976 24.905 160.006 24.98 159.996 25.08C159.986 25.24 159.901 25.44 159.741 25.68C159.591 25.91 159.366 26.14 159.066 26.37C158.766 26.59 158.391 26.775 157.941 26.925C157.501 27.075 156.991 27.15 156.411 27.15ZM154.926 22.365H157.866V22.335C157.866 21.975 157.806 21.665 157.686 21.405C157.576 21.135 157.411 20.925 157.191 20.775C156.971 20.625 156.706 20.55 156.396 20.55C156.086 20.55 155.821 20.625 155.601 20.775C155.381 20.925 155.211 21.135 155.091 21.405C154.981 21.665 154.926 21.975 154.926 22.335V22.365ZM164.781 27.15C164.161 27.15 163.626 27.08 163.176 26.94C162.736 26.79 162.376 26.61 162.096 26.4C161.826 26.19 161.621 25.98 161.481 25.77C161.351 25.55 161.281 25.365 161.271 25.215C161.261 25.105 161.296 25.015 161.376 24.945C161.456 24.875 161.536 24.84 161.616 24.84H163.071C163.101 24.84 163.131 24.845 163.161 24.855C163.191 24.865 163.221 24.89 163.251 24.93C163.381 25.02 163.516 25.125 163.656 25.245C163.796 25.355 163.956 25.45 164.136 25.53C164.326 25.61 164.561 25.65 164.841 25.65C165.171 25.65 165.451 25.585 165.681 25.455C165.911 25.315 166.026 25.12 166.026 24.87C166.026 24.69 165.971 24.54 165.861 24.42C165.761 24.3 165.566 24.19 165.276 24.09C164.986 23.99 164.556 23.88 163.986 23.76C163.446 23.64 162.986 23.48 162.606 23.28C162.226 23.08 161.941 22.83 161.751 22.53C161.561 22.22 161.466 21.85 161.466 21.42C161.466 21.03 161.586 20.655 161.826 20.295C162.076 19.935 162.441 19.64 162.921 19.41C163.401 19.17 164.001 19.05 164.721 19.05C165.271 19.05 165.751 19.12 166.161 19.26C166.581 19.39 166.931 19.56 167.211 19.77C167.491 19.97 167.701 20.18 167.841 20.4C167.991 20.61 168.071 20.795 168.081 20.955C168.091 21.055 168.061 21.14 167.991 21.21C167.921 21.28 167.841 21.315 167.751 21.315H166.416C166.366 21.315 166.321 21.31 166.281 21.3C166.241 21.28 166.206 21.255 166.176 21.225C166.056 21.145 165.931 21.055 165.801 20.955C165.681 20.845 165.536 20.75 165.366 20.67C165.196 20.59 164.976 20.55 164.706 20.55C164.376 20.55 164.121 20.625 163.941 20.775C163.771 20.915 163.686 21.095 163.686 21.315C163.686 21.455 163.731 21.585 163.821 21.705C163.911 21.825 164.096 21.935 164.376 22.035C164.656 22.135 165.081 22.24 165.651 22.35C166.331 22.47 166.871 22.65 167.271 22.89C167.671 23.13 167.956 23.41 168.126 23.73C168.306 24.04 168.396 24.375 168.396 24.735C168.396 25.205 168.256 25.625 167.976 25.995C167.696 26.355 167.286 26.64 166.746 26.85C166.216 27.05 165.561 27.15 164.781 27.15ZM172.911 27.15C172.291 27.15 171.756 27.08 171.306 26.94C170.866 26.79 170.506 26.61 170.226 26.4C169.956 26.19 169.751 25.98 169.611 25.77C169.481 25.55 169.411 25.365 169.401 25.215C169.391 25.105 169.426 25.015 169.506 24.945C169.586 24.875 169.666 24.84 169.746 24.84H171.201C171.231 24.84 171.261 24.845 171.291 24.855C171.321 24.865 171.351 24.89 171.381 24.93C171.511 25.02 171.646 25.125 171.786 25.245C171.926 25.355 172.086 25.45 172.266 25.53C172.456 25.61 172.691 25.65 172.971 25.65C173.301 25.65 173.581 25.585 173.811 25.455C174.041 25.315 174.156 25.12 174.156 24.87C174.156 24.69 174.101 24.54 173.991 24.42C173.891 24.3 173.696 24.19 173.406 24.09C173.116 23.99 172.686 23.88 172.116 23.76C171.576 23.64 171.116 23.48 170.736 23.28C170.356 23.08 170.071 22.83 169.881 22.53C169.691 22.22 169.596 21.85 169.596 21.42C169.596 21.03 169.716 20.655 169.956 20.295C170.206 19.935 170.571 19.64 171.051 19.41C171.531 19.17 172.131 19.05 172.851 19.05C173.401 19.05 173.881 19.12 174.291 19.26C174.711 19.39 175.061 19.56 175.341 19.77C175.621 19.97 175.831 20.18 175.971 20.4C176.121 20.61 176.201 20.795 176.211 20.955C176.221 21.055 176.191 21.14 176.121 21.21C176.051 21.28 175.971 21.315 175.881 21.315H174.546C174.496 21.315 174.451 21.31 174.411 21.3C174.371 21.28 174.336 21.255 174.306 21.225C174.186 21.145 174.061 21.055 173.931 20.955C173.811 20.845 173.666 20.75 173.496 20.67C173.326 20.59 173.106 20.55 172.836 20.55C172.506 20.55 172.251 20.625 172.071 20.775C171.901 20.915 171.816 21.095 171.816 21.315C171.816 21.455 171.861 21.585 171.951 21.705C172.041 21.825 172.226 21.935 172.506 22.035C172.786 22.135 173.211 22.24 173.781 22.35C174.461 22.47 175.001 22.65 175.401 22.89C175.801 23.13 176.086 23.41 176.256 23.73C176.436 24.04 176.526 24.375 176.526 24.735C176.526 25.205 176.386 25.625 176.106 25.995C175.826 26.355 175.416 26.64 174.876 26.85C174.346 27.05 173.691 27.15 172.911 27.15ZM178.326 27C178.226 27 178.141 26.965 178.071 26.895C178.001 26.825 177.966 26.735 177.966 26.625V19.575C177.966 19.465 178.001 19.375 178.071 19.305C178.141 19.235 178.226 19.2 178.326 19.2H179.826C179.936 19.2 180.026 19.235 180.096 19.305C180.166 19.375 180.201 19.465 180.201 19.575V26.625C180.201 26.735 180.166 26.825 180.096 26.895C180.026 26.965 179.936 27 179.826 27H178.326ZM178.281 18C178.181 18 178.096 17.965 178.026 17.895C177.956 17.825 177.921 17.735 177.921 17.625V16.425C177.921 16.315 177.956 16.225 178.026 16.155C178.096 16.075 178.181 16.035 178.281 16.035H179.856C179.966 16.035 180.056 16.075 180.126 16.155C180.206 16.225 180.246 16.315 180.246 16.425V17.625C180.246 17.735 180.206 17.825 180.126 17.895C180.056 17.965 179.966 18 179.856 18H178.281ZM185.71 27.15C184.88 27.15 184.185 27.015 183.625 26.745C183.065 26.465 182.635 26.07 182.335 25.56C182.045 25.05 181.885 24.455 181.855 23.775C181.845 23.575 181.84 23.35 181.84 23.1C181.84 22.84 181.845 22.615 181.855 22.425C181.885 21.735 182.055 21.14 182.365 20.64C182.675 20.13 183.11 19.74 183.67 19.47C184.23 19.19 184.91 19.05 185.71 19.05C186.5 19.05 187.175 19.19 187.735 19.47C188.295 19.74 188.73 20.13 189.04 20.64C189.35 21.14 189.52 21.735 189.55 22.425C189.57 22.615 189.58 22.84 189.58 23.1C189.58 23.35 189.57 23.575 189.55 23.775C189.52 24.455 189.355 25.05 189.055 25.56C188.765 26.07 188.34 26.465 187.78 26.745C187.22 27.015 186.53 27.15 185.71 27.15ZM185.71 25.5C186.2 25.5 186.57 25.35 186.82 25.05C187.07 24.74 187.205 24.29 187.225 23.7C187.235 23.55 187.24 23.35 187.24 23.1C187.24 22.85 187.235 22.65 187.225 22.5C187.205 21.92 187.07 21.475 186.82 21.165C186.57 20.855 186.2 20.7 185.71 20.7C185.22 20.7 184.845 20.855 184.585 21.165C184.335 21.475 184.2 21.92 184.18 22.5C184.17 22.65 184.165 22.85 184.165 23.1C184.165 23.35 184.17 23.55 184.18 23.7C184.2 24.29 184.335 24.74 184.585 25.05C184.845 25.35 185.22 25.5 185.71 25.5ZM191.509 27C191.409 27 191.324 26.965 191.254 26.895C191.184 26.825 191.149 26.735 191.149 26.625V19.575C191.149 19.465 191.184 19.375 191.254 19.305C191.324 19.235 191.409 19.2 191.509 19.2H192.979C193.089 19.2 193.179 19.235 193.249 19.305C193.319 19.375 193.354 19.465 193.354 19.575V20.16C193.614 19.84 193.949 19.575 194.359 19.365C194.769 19.155 195.269 19.05 195.859 19.05C196.449 19.05 196.964 19.185 197.404 19.455C197.854 19.715 198.204 20.1 198.454 20.61C198.714 21.11 198.844 21.72 198.844 22.44V26.625C198.844 26.735 198.804 26.825 198.724 26.895C198.654 26.965 198.569 27 198.469 27H196.879C196.769 27 196.679 26.965 196.609 26.895C196.539 26.825 196.504 26.735 196.504 26.625V22.53C196.504 22 196.374 21.59 196.114 21.3C195.864 21 195.494 20.85 195.004 20.85C194.534 20.85 194.159 21 193.879 21.3C193.599 21.59 193.459 22 193.459 22.53V26.625C193.459 26.735 193.424 26.825 193.354 26.895C193.284 26.965 193.199 27 193.099 27H191.509Z" fill="white"/>
</svg>
