<svg width="221" height="44" viewBox="0 0 221 44" fill="none" xmlns="http://www.w3.org/2000/svg">
  <rect width="221" height="44" rx="5" fill="#F5C518"/>
  <path d="M36.985 27C36.875 27 36.785 26.965 36.715 26.895C36.645 26.825 36.61 26.735 36.61 26.625V16.875C36.61 16.765 36.645 16.675 36.715 16.605C36.785 16.535 36.875 16.5 36.985 16.5H40.75C41.75 16.5 42.585 16.66 43.255 16.98C43.925 17.29 44.435 17.75 44.785 18.36C45.145 18.96 45.335 19.705 45.355 20.595C45.365 21.035 45.37 21.42 45.37 21.75C45.37 22.08 45.365 22.46 45.355 22.89C45.325 23.82 45.14 24.59 44.8 25.2C44.46 25.81 43.96 26.265 43.3 26.565C42.64 26.855 41.815 27 40.825 27H36.985ZM38.995 25.065H40.75C41.25 25.065 41.66 24.99 41.98 24.84C42.3 24.69 42.535 24.455 42.685 24.135C42.845 23.805 42.93 23.38 42.94 22.86C42.95 22.57 42.955 22.31 42.955 22.08C42.965 21.85 42.965 21.62 42.955 21.39C42.955 21.16 42.95 20.905 42.94 20.625C42.92 19.875 42.725 19.325 42.355 18.975C41.995 18.615 41.435 18.435 40.675 18.435H38.995V25.065ZM50.5598 27.15C49.4098 27.15 48.4948 26.83 47.8148 26.19C47.1448 25.55 46.7898 24.62 46.7498 23.4C46.7498 23.32 46.7498 23.215 46.7498 23.085C46.7498 22.945 46.7498 22.835 46.7498 22.755C46.7898 21.985 46.9648 21.325 47.2748 20.775C47.5848 20.215 48.0198 19.79 48.5798 19.5C49.1398 19.2 49.7948 19.05 50.5448 19.05C51.3848 19.05 52.0848 19.225 52.6448 19.575C53.2148 19.915 53.6398 20.385 53.9198 20.985C54.2098 21.575 54.3548 22.255 54.3548 23.025V23.37C54.3548 23.47 54.3148 23.555 54.2348 23.625C54.1648 23.695 54.0798 23.73 53.9798 23.73H49.0748C49.0748 23.74 49.0748 23.76 49.0748 23.79C49.0748 23.81 49.0748 23.83 49.0748 23.85C49.0848 24.17 49.1448 24.465 49.2548 24.735C49.3748 24.995 49.5398 25.205 49.7498 25.365C49.9698 25.525 50.2298 25.605 50.5298 25.605C50.7798 25.605 50.9848 25.57 51.1448 25.5C51.3048 25.43 51.4348 25.345 51.5348 25.245C51.6448 25.145 51.7248 25.06 51.7748 24.99C51.8648 24.89 51.9348 24.83 51.9848 24.81C52.0448 24.78 52.1348 24.765 52.2548 24.765H53.8148C53.9148 24.765 53.9948 24.795 54.0548 24.855C54.1248 24.905 54.1548 24.98 54.1448 25.08C54.1348 25.24 54.0498 25.44 53.8898 25.68C53.7398 25.91 53.5148 26.14 53.2148 26.37C52.9148 26.59 52.5398 26.775 52.0898 26.925C51.6498 27.075 51.1398 27.15 50.5598 27.15ZM49.0748 22.365H52.0148V22.335C52.0148 21.975 51.9548 21.665 51.8348 21.405C51.7248 21.135 51.5598 20.925 51.3398 20.775C51.1198 20.625 50.8548 20.55 50.5448 20.55C50.2348 20.55 49.9698 20.625 49.7498 20.775C49.5298 20.925 49.3598 21.135 49.2398 21.405C49.1298 21.665 49.0748 21.975 49.0748 22.335V22.365ZM56.2142 27C56.1142 27 56.0292 26.965 55.9592 26.895C55.8892 26.825 55.8542 26.735 55.8542 26.625V19.575C55.8542 19.465 55.8892 19.375 55.9592 19.305C56.0292 19.235 56.1142 19.2 56.2142 19.2H57.6092C57.7092 19.2 57.7942 19.235 57.8642 19.305C57.9442 19.375 57.9842 19.465 57.9842 19.575V20.085C58.1842 19.805 58.4592 19.565 58.8092 19.365C59.1692 19.165 59.5942 19.06 60.0842 19.05C61.2442 19.03 62.0392 19.47 62.4692 20.37C62.6992 19.98 63.0292 19.665 63.4592 19.425C63.8992 19.175 64.3792 19.05 64.8992 19.05C65.4192 19.05 65.8892 19.17 66.3092 19.41C66.7292 19.64 67.0592 20 67.2992 20.49C67.5492 20.97 67.6742 21.59 67.6742 22.35V26.625C67.6742 26.735 67.6392 26.825 67.5692 26.895C67.4992 26.965 67.4142 27 67.3142 27H65.8292C65.7292 27 65.6442 26.965 65.5742 26.895C65.5042 26.825 65.4692 26.735 65.4692 26.625V22.47C65.4692 22.06 65.4092 21.74 65.2892 21.51C65.1692 21.27 65.0092 21.1 64.8092 21C64.6192 20.9 64.4042 20.85 64.1642 20.85C63.9542 20.85 63.7492 20.9 63.5492 21C63.3592 21.1 63.1992 21.27 63.0692 21.51C62.9492 21.74 62.8892 22.06 62.8892 22.47V26.625C62.8892 26.735 62.8542 26.825 62.7842 26.895C62.7142 26.965 62.6242 27 62.5142 27H61.0442C60.9342 27 60.8442 26.965 60.7742 26.895C60.7042 26.825 60.6692 26.735 60.6692 26.625V22.47C60.6692 22.06 60.6092 21.74 60.4892 21.51C60.3692 21.27 60.2092 21.1 60.0092 21C59.8192 20.9 59.6092 20.85 59.3792 20.85C59.1692 20.85 58.9642 20.905 58.7642 21.015C58.5642 21.115 58.3992 21.28 58.2692 21.51C58.1492 21.74 58.0892 22.055 58.0892 22.455V26.625C58.0892 26.735 58.0542 26.825 57.9842 26.895C57.9142 26.965 57.8292 27 57.7292 27H56.2142ZM71.7869 27.15C71.2569 27.15 70.7819 27.05 70.3619 26.85C69.9419 26.64 69.6069 26.36 69.3569 26.01C69.1069 25.66 68.9819 25.27 68.9819 24.84C68.9819 24.13 69.2669 23.57 69.8369 23.16C70.4169 22.75 71.1769 22.47 72.1169 22.32L74.0819 22.035V21.765C74.0819 21.375 73.9919 21.075 73.8119 20.865C73.6319 20.655 73.3169 20.55 72.8669 20.55C72.5369 20.55 72.2719 20.615 72.0719 20.745C71.8719 20.875 71.7169 21.045 71.6069 21.255C71.5269 21.385 71.4119 21.45 71.2619 21.45H69.8369C69.7269 21.45 69.6419 21.42 69.5819 21.36C69.5219 21.29 69.4969 21.21 69.5069 21.12C69.5069 20.95 69.5719 20.75 69.7019 20.52C69.8319 20.29 70.0319 20.065 70.3019 19.845C70.5719 19.615 70.9169 19.425 71.3369 19.275C71.7569 19.125 72.2719 19.05 72.8819 19.05C73.5119 19.05 74.0519 19.125 74.5019 19.275C74.9519 19.425 75.3119 19.635 75.5819 19.905C75.8519 20.175 76.0519 20.49 76.1819 20.85C76.3119 21.2 76.3769 21.58 76.3769 21.99V26.625C76.3769 26.735 76.3419 26.825 76.2719 26.895C76.2019 26.965 76.1119 27 76.0019 27H74.5319C74.4319 27 74.3469 26.965 74.2769 26.895C74.2069 26.825 74.1719 26.735 74.1719 26.625V26.07C74.0419 26.26 73.8669 26.44 73.6469 26.61C73.4269 26.77 73.1619 26.9 72.8519 27C72.5519 27.1 72.1969 27.15 71.7869 27.15ZM72.3869 25.59C72.7169 25.59 73.0119 25.52 73.2719 25.38C73.5319 25.24 73.7369 25.025 73.8869 24.735C74.0369 24.445 74.1119 24.08 74.1119 23.64V23.385L72.7169 23.61C72.1769 23.7 71.7819 23.835 71.5319 24.015C71.2819 24.195 71.1569 24.415 71.1569 24.675C71.1569 24.865 71.2119 25.03 71.3219 25.17C71.4419 25.31 71.5969 25.415 71.7869 25.485C71.9769 25.555 72.1769 25.59 72.3869 25.59ZM78.553 27C78.453 27 78.368 26.965 78.298 26.895C78.228 26.825 78.193 26.735 78.193 26.625V19.575C78.193 19.465 78.228 19.375 78.298 19.305C78.368 19.235 78.453 19.2 78.553 19.2H80.023C80.133 19.2 80.223 19.235 80.293 19.305C80.363 19.375 80.398 19.465 80.398 19.575V20.16C80.658 19.84 80.993 19.575 81.403 19.365C81.813 19.155 82.313 19.05 82.903 19.05C83.493 19.05 84.008 19.185 84.448 19.455C84.898 19.715 85.248 20.1 85.498 20.61C85.758 21.11 85.888 21.72 85.888 22.44V26.625C85.888 26.735 85.848 26.825 85.768 26.895C85.698 26.965 85.613 27 85.513 27H83.923C83.813 27 83.723 26.965 83.653 26.895C83.583 26.825 83.548 26.735 83.548 26.625V22.53C83.548 22 83.418 21.59 83.158 21.3C82.908 21 82.538 20.85 82.048 20.85C81.578 20.85 81.203 21 80.923 21.3C80.643 21.59 80.503 22 80.503 22.53V26.625C80.503 26.735 80.468 26.825 80.398 26.895C80.328 26.965 80.243 27 80.143 27H78.553ZM90.5802 27.15C90.0802 27.15 89.6352 27.07 89.2452 26.91C88.8552 26.74 88.5252 26.5 88.2552 26.19C87.9852 25.87 87.7802 25.495 87.6402 25.065C87.5002 24.625 87.4152 24.14 87.3852 23.61C87.3752 23.42 87.3702 23.25 87.3702 23.1C87.3702 22.94 87.3752 22.77 87.3852 22.59C87.4052 22.07 87.4852 21.595 87.6252 21.165C87.7752 20.735 87.9802 20.365 88.2402 20.055C88.5102 19.735 88.8402 19.49 89.2302 19.32C89.6302 19.14 90.0802 19.05 90.5802 19.05C91.1002 19.05 91.5452 19.14 91.9152 19.32C92.2852 19.49 92.5902 19.715 92.8302 19.995V16.725C92.8302 16.615 92.8652 16.525 92.9352 16.455C93.0052 16.385 93.0952 16.35 93.2052 16.35H94.7502C94.8502 16.35 94.9352 16.385 95.0052 16.455C95.0752 16.525 95.1102 16.615 95.1102 16.725V26.625C95.1102 26.735 95.0752 26.825 95.0052 26.895C94.9352 26.965 94.8502 27 94.7502 27H93.3102C93.2102 27 93.1252 26.965 93.0552 26.895C92.9852 26.825 92.9502 26.735 92.9502 26.625V26.115C92.7002 26.415 92.3852 26.665 92.0052 26.865C91.6252 27.055 91.1502 27.15 90.5802 27.15ZM91.2702 25.35C91.6402 25.35 91.9352 25.265 92.1552 25.095C92.3852 24.925 92.5502 24.71 92.6502 24.45C92.7602 24.19 92.8202 23.91 92.8302 23.61C92.8502 23.42 92.8602 23.23 92.8602 23.04C92.8602 22.85 92.8502 22.665 92.8302 22.485C92.8202 22.205 92.7602 21.945 92.6502 21.705C92.5402 21.455 92.3702 21.25 92.1402 21.09C91.9202 20.93 91.6302 20.85 91.2702 20.85C90.8902 20.85 90.5902 20.935 90.3702 21.105C90.1502 21.265 89.9902 21.48 89.8902 21.75C89.8002 22.02 89.7452 22.315 89.7252 22.635C89.6952 22.945 89.6952 23.255 89.7252 23.565C89.7452 23.885 89.8002 24.18 89.8902 24.45C89.9902 24.72 90.1502 24.94 90.3702 25.11C90.5902 25.27 90.8902 25.35 91.2702 25.35ZM100.496 27.15C99.3463 27.15 98.4313 26.83 97.7513 26.19C97.0813 25.55 96.7263 24.62 96.6863 23.4C96.6863 23.32 96.6863 23.215 96.6863 23.085C96.6863 22.945 96.6863 22.835 96.6863 22.755C96.7263 21.985 96.9013 21.325 97.2113 20.775C97.5213 20.215 97.9563 19.79 98.5163 19.5C99.0763 19.2 99.7313 19.05 100.481 19.05C101.321 19.05 102.021 19.225 102.581 19.575C103.151 19.915 103.576 20.385 103.856 20.985C104.146 21.575 104.291 22.255 104.291 23.025V23.37C104.291 23.47 104.251 23.555 104.171 23.625C104.101 23.695 104.016 23.73 103.916 23.73H99.0113C99.0113 23.74 99.0113 23.76 99.0113 23.79C99.0113 23.81 99.0113 23.83 99.0113 23.85C99.0213 24.17 99.0813 24.465 99.1913 24.735C99.3113 24.995 99.4763 25.205 99.6863 25.365C99.9063 25.525 100.166 25.605 100.466 25.605C100.716 25.605 100.921 25.57 101.081 25.5C101.241 25.43 101.371 25.345 101.471 25.245C101.581 25.145 101.661 25.06 101.711 24.99C101.801 24.89 101.871 24.83 101.921 24.81C101.981 24.78 102.071 24.765 102.191 24.765H103.751C103.851 24.765 103.931 24.795 103.991 24.855C104.061 24.905 104.091 24.98 104.081 25.08C104.071 25.24 103.986 25.44 103.826 25.68C103.676 25.91 103.451 26.14 103.151 26.37C102.851 26.59 102.476 26.775 102.026 26.925C101.586 27.075 101.076 27.15 100.496 27.15ZM99.0113 22.365H101.951V22.335C101.951 21.975 101.891 21.665 101.771 21.405C101.661 21.135 101.496 20.925 101.276 20.775C101.056 20.625 100.791 20.55 100.481 20.55C100.171 20.55 99.9063 20.625 99.6863 20.775C99.4663 20.925 99.2963 21.135 99.1763 21.405C99.0663 21.665 99.0113 21.975 99.0113 22.335V22.365ZM112.581 27.15C111.431 27.15 110.516 26.83 109.836 26.19C109.166 25.55 108.811 24.62 108.771 23.4C108.771 23.32 108.771 23.215 108.771 23.085C108.771 22.945 108.771 22.835 108.771 22.755C108.811 21.985 108.986 21.325 109.296 20.775C109.606 20.215 110.041 19.79 110.601 19.5C111.161 19.2 111.816 19.05 112.566 19.05C113.406 19.05 114.106 19.225 114.666 19.575C115.236 19.915 115.661 20.385 115.941 20.985C116.231 21.575 116.376 22.255 116.376 23.025V23.37C116.376 23.47 116.336 23.555 116.256 23.625C116.186 23.695 116.101 23.73 116.001 23.73H111.096C111.096 23.74 111.096 23.76 111.096 23.79C111.096 23.81 111.096 23.83 111.096 23.85C111.106 24.17 111.166 24.465 111.276 24.735C111.396 24.995 111.561 25.205 111.771 25.365C111.991 25.525 112.251 25.605 112.551 25.605C112.801 25.605 113.006 25.57 113.166 25.5C113.326 25.43 113.456 25.345 113.556 25.245C113.666 25.145 113.746 25.06 113.796 24.99C113.886 24.89 113.956 24.83 114.006 24.81C114.066 24.78 114.156 24.765 114.276 24.765H115.836C115.936 24.765 116.016 24.795 116.076 24.855C116.146 24.905 116.176 24.98 116.166 25.08C116.156 25.24 116.071 25.44 115.911 25.68C115.761 25.91 115.536 26.14 115.236 26.37C114.936 26.59 114.561 26.775 114.111 26.925C113.671 27.075 113.161 27.15 112.581 27.15ZM111.096 22.365H114.036V22.335C114.036 21.975 113.976 21.665 113.856 21.405C113.746 21.135 113.581 20.925 113.361 20.775C113.141 20.625 112.876 20.55 112.566 20.55C112.256 20.55 111.991 20.625 111.771 20.775C111.551 20.925 111.381 21.135 111.261 21.405C111.151 21.665 111.096 21.975 111.096 22.335V22.365ZM118.236 27C118.136 27 118.051 26.965 117.981 26.895C117.911 26.825 117.876 26.735 117.876 26.625V19.575C117.876 19.465 117.911 19.375 117.981 19.305C118.051 19.235 118.136 19.2 118.236 19.2H119.706C119.816 19.2 119.906 19.235 119.976 19.305C120.046 19.375 120.081 19.465 120.081 19.575V20.16C120.341 19.84 120.676 19.575 121.086 19.365C121.496 19.155 121.996 19.05 122.586 19.05C123.176 19.05 123.691 19.185 124.131 19.455C124.581 19.715 124.931 20.1 125.181 20.61C125.441 21.11 125.571 21.72 125.571 22.44V26.625C125.571 26.735 125.531 26.825 125.451 26.895C125.381 26.965 125.296 27 125.196 27H123.606C123.496 27 123.406 26.965 123.336 26.895C123.266 26.825 123.231 26.735 123.231 26.625V22.53C123.231 22 123.101 21.59 122.841 21.3C122.591 21 122.221 20.85 121.731 20.85C121.261 20.85 120.886 21 120.606 21.3C120.326 21.59 120.186 22 120.186 22.53V26.625C120.186 26.735 120.151 26.825 120.081 26.895C120.011 26.965 119.926 27 119.826 27H118.236ZM132.973 27.15C132.443 27.15 131.968 27.05 131.548 26.85C131.128 26.64 130.793 26.36 130.543 26.01C130.293 25.66 130.168 25.27 130.168 24.84C130.168 24.13 130.453 23.57 131.023 23.16C131.603 22.75 132.363 22.47 133.303 22.32L135.268 22.035V21.765C135.268 21.375 135.178 21.075 134.998 20.865C134.818 20.655 134.503 20.55 134.053 20.55C133.723 20.55 133.458 20.615 133.258 20.745C133.058 20.875 132.903 21.045 132.793 21.255C132.713 21.385 132.598 21.45 132.448 21.45H131.023C130.913 21.45 130.828 21.42 130.768 21.36C130.708 21.29 130.683 21.21 130.693 21.12C130.693 20.95 130.758 20.75 130.888 20.52C131.018 20.29 131.218 20.065 131.488 19.845C131.758 19.615 132.103 19.425 132.523 19.275C132.943 19.125 133.458 19.05 134.068 19.05C134.698 19.05 135.238 19.125 135.688 19.275C136.138 19.425 136.498 19.635 136.768 19.905C137.038 20.175 137.238 20.49 137.368 20.85C137.498 21.2 137.563 21.58 137.563 21.99V26.625C137.563 26.735 137.528 26.825 137.458 26.895C137.388 26.965 137.298 27 137.188 27H135.718C135.618 27 135.533 26.965 135.463 26.895C135.393 26.825 135.358 26.735 135.358 26.625V26.07C135.228 26.26 135.053 26.44 134.833 26.61C134.613 26.77 134.348 26.9 134.038 27C133.738 27.1 133.383 27.15 132.973 27.15ZM133.573 25.59C133.903 25.59 134.198 25.52 134.458 25.38C134.718 25.24 134.923 25.025 135.073 24.735C135.223 24.445 135.298 24.08 135.298 23.64V23.385L133.903 23.61C133.363 23.7 132.968 23.835 132.718 24.015C132.468 24.195 132.343 24.415 132.343 24.675C132.343 24.865 132.398 25.03 132.508 25.17C132.628 25.31 132.783 25.415 132.973 25.485C133.163 25.555 133.363 25.59 133.573 25.59ZM143.071 27C142.451 27 141.921 26.9 141.481 26.7C141.041 26.49 140.706 26.17 140.476 25.74C140.256 25.31 140.146 24.77 140.146 24.12V20.97H138.976C138.866 20.97 138.776 20.935 138.706 20.865C138.636 20.795 138.601 20.705 138.601 20.595V19.575C138.601 19.465 138.636 19.375 138.706 19.305C138.776 19.235 138.866 19.2 138.976 19.2H140.146V16.725C140.146 16.615 140.181 16.525 140.251 16.455C140.331 16.385 140.421 16.35 140.521 16.35H141.991C142.101 16.35 142.191 16.385 142.261 16.455C142.331 16.525 142.366 16.615 142.366 16.725V19.2H144.241C144.341 19.2 144.426 19.235 144.496 19.305C144.566 19.375 144.601 19.465 144.601 19.575V20.595C144.601 20.705 144.566 20.795 144.496 20.865C144.426 20.935 144.341 20.97 144.241 20.97H142.366V23.94C142.366 24.32 142.431 24.62 142.561 24.84C142.701 25.05 142.941 25.155 143.281 25.155H144.376C144.476 25.155 144.561 25.19 144.631 25.26C144.701 25.33 144.736 25.415 144.736 25.515V26.625C144.736 26.735 144.701 26.825 144.631 26.895C144.561 26.965 144.476 27 144.376 27H143.071ZM149.795 27C149.175 27 148.645 26.9 148.205 26.7C147.765 26.49 147.43 26.17 147.2 25.74C146.98 25.31 146.87 24.77 146.87 24.12V20.97H145.7C145.59 20.97 145.5 20.935 145.43 20.865C145.36 20.795 145.325 20.705 145.325 20.595V19.575C145.325 19.465 145.36 19.375 145.43 19.305C145.5 19.235 145.59 19.2 145.7 19.2H146.87V16.725C146.87 16.615 146.905 16.525 146.975 16.455C147.055 16.385 147.145 16.35 147.245 16.35H148.715C148.825 16.35 148.915 16.385 148.985 16.455C149.055 16.525 149.09 16.615 149.09 16.725V19.2H150.965C151.065 19.2 151.15 19.235 151.22 19.305C151.29 19.375 151.325 19.465 151.325 19.575V20.595C151.325 20.705 151.29 20.795 151.22 20.865C151.15 20.935 151.065 20.97 150.965 20.97H149.09V23.94C149.09 24.32 149.155 24.62 149.285 24.84C149.425 25.05 149.665 25.155 150.005 25.155H151.1C151.2 25.155 151.285 25.19 151.355 25.26C151.425 25.33 151.46 25.415 151.46 25.515V26.625C151.46 26.735 151.425 26.825 151.355 26.895C151.285 26.965 151.2 27 151.1 27H149.795ZM156.248 27.15C155.098 27.15 154.183 26.83 153.503 26.19C152.833 25.55 152.478 24.62 152.438 23.4C152.438 23.32 152.438 23.215 152.438 23.085C152.438 22.945 152.438 22.835 152.438 22.755C152.478 21.985 152.653 21.325 152.963 20.775C153.273 20.215 153.708 19.79 154.268 19.5C154.828 19.2 155.483 19.05 156.233 19.05C157.073 19.05 157.773 19.225 158.333 19.575C158.903 19.915 159.328 20.385 159.608 20.985C159.898 21.575 160.043 22.255 160.043 23.025V23.37C160.043 23.47 160.003 23.555 159.923 23.625C159.853 23.695 159.768 23.73 159.668 23.73H154.763C154.763 23.74 154.763 23.76 154.763 23.79C154.763 23.81 154.763 23.83 154.763 23.85C154.773 24.17 154.833 24.465 154.943 24.735C155.063 24.995 155.228 25.205 155.438 25.365C155.658 25.525 155.918 25.605 156.218 25.605C156.468 25.605 156.673 25.57 156.833 25.5C156.993 25.43 157.123 25.345 157.223 25.245C157.333 25.145 157.413 25.06 157.463 24.99C157.553 24.89 157.623 24.83 157.673 24.81C157.733 24.78 157.823 24.765 157.943 24.765H159.503C159.603 24.765 159.683 24.795 159.743 24.855C159.813 24.905 159.843 24.98 159.833 25.08C159.823 25.24 159.738 25.44 159.578 25.68C159.428 25.91 159.203 26.14 158.903 26.37C158.603 26.59 158.228 26.775 157.778 26.925C157.338 27.075 156.828 27.15 156.248 27.15ZM154.763 22.365H157.703V22.335C157.703 21.975 157.643 21.665 157.523 21.405C157.413 21.135 157.248 20.925 157.028 20.775C156.808 20.625 156.543 20.55 156.233 20.55C155.923 20.55 155.658 20.625 155.438 20.775C155.218 20.925 155.048 21.135 154.928 21.405C154.818 21.665 154.763 21.975 154.763 22.335V22.365ZM161.903 27C161.803 27 161.718 26.965 161.648 26.895C161.578 26.825 161.543 26.735 161.543 26.625V19.575C161.543 19.465 161.578 19.375 161.648 19.305C161.718 19.235 161.803 19.2 161.903 19.2H163.373C163.483 19.2 163.573 19.235 163.643 19.305C163.713 19.375 163.748 19.465 163.748 19.575V20.16C164.008 19.84 164.343 19.575 164.753 19.365C165.163 19.155 165.663 19.05 166.253 19.05C166.843 19.05 167.358 19.185 167.798 19.455C168.248 19.715 168.598 20.1 168.848 20.61C169.108 21.11 169.238 21.72 169.238 22.44V26.625C169.238 26.735 169.198 26.825 169.118 26.895C169.048 26.965 168.963 27 168.863 27H167.273C167.163 27 167.073 26.965 167.003 26.895C166.933 26.825 166.898 26.735 166.898 26.625V22.53C166.898 22 166.768 21.59 166.508 21.3C166.258 21 165.888 20.85 165.398 20.85C164.928 20.85 164.553 21 164.273 21.3C163.993 21.59 163.853 22 163.853 22.53V26.625C163.853 26.735 163.818 26.825 163.748 26.895C163.678 26.965 163.593 27 163.493 27H161.903ZM174.697 27C174.077 27 173.547 26.9 173.107 26.7C172.667 26.49 172.332 26.17 172.102 25.74C171.882 25.31 171.772 24.77 171.772 24.12V20.97H170.602C170.492 20.97 170.402 20.935 170.332 20.865C170.262 20.795 170.227 20.705 170.227 20.595V19.575C170.227 19.465 170.262 19.375 170.332 19.305C170.402 19.235 170.492 19.2 170.602 19.2H171.772V16.725C171.772 16.615 171.807 16.525 171.877 16.455C171.957 16.385 172.047 16.35 172.147 16.35H173.617C173.727 16.35 173.817 16.385 173.887 16.455C173.957 16.525 173.992 16.615 173.992 16.725V19.2H175.867C175.967 19.2 176.052 19.235 176.122 19.305C176.192 19.375 176.227 19.465 176.227 19.575V20.595C176.227 20.705 176.192 20.795 176.122 20.865C176.052 20.935 175.967 20.97 175.867 20.97H173.992V23.94C173.992 24.32 174.057 24.62 174.187 24.84C174.327 25.05 174.567 25.155 174.907 25.155H176.002C176.102 25.155 176.187 25.19 176.257 25.26C176.327 25.33 176.362 25.415 176.362 25.515V26.625C176.362 26.735 176.327 26.825 176.257 26.895C176.187 26.965 176.102 27 176.002 27H174.697ZM181.151 27.15C180.001 27.15 179.086 26.83 178.406 26.19C177.736 25.55 177.381 24.62 177.341 23.4C177.341 23.32 177.341 23.215 177.341 23.085C177.341 22.945 177.341 22.835 177.341 22.755C177.381 21.985 177.556 21.325 177.866 20.775C178.176 20.215 178.611 19.79 179.171 19.5C179.731 19.2 180.386 19.05 181.136 19.05C181.976 19.05 182.676 19.225 183.236 19.575C183.806 19.915 184.231 20.385 184.511 20.985C184.801 21.575 184.946 22.255 184.946 23.025V23.37C184.946 23.47 184.906 23.555 184.826 23.625C184.756 23.695 184.671 23.73 184.571 23.73H179.666C179.666 23.74 179.666 23.76 179.666 23.79C179.666 23.81 179.666 23.83 179.666 23.85C179.676 24.17 179.736 24.465 179.846 24.735C179.966 24.995 180.131 25.205 180.341 25.365C180.561 25.525 180.821 25.605 181.121 25.605C181.371 25.605 181.576 25.57 181.736 25.5C181.896 25.43 182.026 25.345 182.126 25.245C182.236 25.145 182.316 25.06 182.366 24.99C182.456 24.89 182.526 24.83 182.576 24.81C182.636 24.78 182.726 24.765 182.846 24.765H184.406C184.506 24.765 184.586 24.795 184.646 24.855C184.716 24.905 184.746 24.98 184.736 25.08C184.726 25.24 184.641 25.44 184.481 25.68C184.331 25.91 184.106 26.14 183.806 26.37C183.506 26.59 183.131 26.775 182.681 26.925C182.241 27.075 181.731 27.15 181.151 27.15ZM179.666 22.365H182.606V22.335C182.606 21.975 182.546 21.665 182.426 21.405C182.316 21.135 182.151 20.925 181.931 20.775C181.711 20.625 181.446 20.55 181.136 20.55C180.826 20.55 180.561 20.625 180.341 20.775C180.121 20.925 179.951 21.135 179.831 21.405C179.721 21.665 179.666 21.975 179.666 22.335V22.365Z" fill="#1D2B36"/>
</svg>
