<svg width="221" height="44" viewBox="0 0 221 44" fill="none" xmlns="http://www.w3.org/2000/svg">
  <rect width="221" height="44" rx="5" fill="#D23457"/>
  <path d="M40.485 27C40.375 27 40.285 26.965 40.215 26.895C40.145 26.825 40.11 26.735 40.11 26.625V16.875C40.11 16.765 40.145 16.675 40.215 16.605C40.285 16.535 40.375 16.5 40.485 16.5H44.25C45.25 16.5 46.085 16.66 46.755 16.98C47.425 17.29 47.935 17.75 48.285 18.36C48.645 18.96 48.835 19.705 48.855 20.595C48.865 21.035 48.87 21.42 48.87 21.75C48.87 22.08 48.865 22.46 48.855 22.89C48.825 23.82 48.64 24.59 48.3 25.2C47.96 25.81 47.46 26.265 46.8 26.565C46.14 26.855 45.315 27 44.325 27H40.485ZM42.495 25.065H44.25C44.75 25.065 45.16 24.99 45.48 24.84C45.8 24.69 46.035 24.455 46.185 24.135C46.345 23.805 46.43 23.38 46.44 22.86C46.45 22.57 46.455 22.31 46.455 22.08C46.465 21.85 46.465 21.62 46.455 21.39C46.455 21.16 46.45 20.905 46.44 20.625C46.42 19.875 46.225 19.325 45.855 18.975C45.495 18.615 44.935 18.435 44.175 18.435H42.495V25.065ZM54.0598 27.15C52.9098 27.15 51.9948 26.83 51.3148 26.19C50.6448 25.55 50.2898 24.62 50.2498 23.4C50.2498 23.32 50.2498 23.215 50.2498 23.085C50.2498 22.945 50.2498 22.835 50.2498 22.755C50.2898 21.985 50.4648 21.325 50.7748 20.775C51.0848 20.215 51.5198 19.79 52.0798 19.5C52.6398 19.2 53.2948 19.05 54.0448 19.05C54.8848 19.05 55.5848 19.225 56.1448 19.575C56.7148 19.915 57.1398 20.385 57.4198 20.985C57.7098 21.575 57.8548 22.255 57.8548 23.025V23.37C57.8548 23.47 57.8148 23.555 57.7348 23.625C57.6648 23.695 57.5798 23.73 57.4798 23.73H52.5748C52.5748 23.74 52.5748 23.76 52.5748 23.79C52.5748 23.81 52.5748 23.83 52.5748 23.85C52.5848 24.17 52.6448 24.465 52.7548 24.735C52.8748 24.995 53.0398 25.205 53.2498 25.365C53.4698 25.525 53.7298 25.605 54.0298 25.605C54.2798 25.605 54.4848 25.57 54.6448 25.5C54.8048 25.43 54.9348 25.345 55.0348 25.245C55.1448 25.145 55.2248 25.06 55.2748 24.99C55.3648 24.89 55.4348 24.83 55.4848 24.81C55.5448 24.78 55.6348 24.765 55.7548 24.765H57.3148C57.4148 24.765 57.4948 24.795 57.5548 24.855C57.6248 24.905 57.6548 24.98 57.6448 25.08C57.6348 25.24 57.5498 25.44 57.3898 25.68C57.2398 25.91 57.0148 26.14 56.7148 26.37C56.4148 26.59 56.0398 26.775 55.5898 26.925C55.1498 27.075 54.6398 27.15 54.0598 27.15ZM52.5748 22.365H55.5148V22.335C55.5148 21.975 55.4548 21.665 55.3348 21.405C55.2248 21.135 55.0598 20.925 54.8398 20.775C54.6198 20.625 54.3548 20.55 54.0448 20.55C53.7348 20.55 53.4698 20.625 53.2498 20.775C53.0298 20.925 52.8598 21.135 52.7398 21.405C52.6298 21.665 52.5748 21.975 52.5748 22.335V22.365ZM59.7142 27C59.6142 27 59.5292 26.965 59.4592 26.895C59.3892 26.825 59.3542 26.735 59.3542 26.625V19.575C59.3542 19.465 59.3892 19.375 59.4592 19.305C59.5292 19.235 59.6142 19.2 59.7142 19.2H61.1092C61.2092 19.2 61.2942 19.235 61.3642 19.305C61.4442 19.375 61.4842 19.465 61.4842 19.575V20.085C61.6842 19.805 61.9592 19.565 62.3092 19.365C62.6692 19.165 63.0942 19.06 63.5842 19.05C64.7442 19.03 65.5392 19.47 65.9692 20.37C66.1992 19.98 66.5292 19.665 66.9592 19.425C67.3992 19.175 67.8792 19.05 68.3992 19.05C68.9192 19.05 69.3892 19.17 69.8092 19.41C70.2292 19.64 70.5592 20 70.7992 20.49C71.0492 20.97 71.1742 21.59 71.1742 22.35V26.625C71.1742 26.735 71.1392 26.825 71.0692 26.895C70.9992 26.965 70.9142 27 70.8142 27H69.3292C69.2292 27 69.1442 26.965 69.0742 26.895C69.0042 26.825 68.9692 26.735 68.9692 26.625V22.47C68.9692 22.06 68.9092 21.74 68.7892 21.51C68.6692 21.27 68.5092 21.1 68.3092 21C68.1192 20.9 67.9042 20.85 67.6642 20.85C67.4542 20.85 67.2492 20.9 67.0492 21C66.8592 21.1 66.6992 21.27 66.5692 21.51C66.4492 21.74 66.3892 22.06 66.3892 22.47V26.625C66.3892 26.735 66.3542 26.825 66.2842 26.895C66.2142 26.965 66.1242 27 66.0142 27H64.5442C64.4342 27 64.3442 26.965 64.2742 26.895C64.2042 26.825 64.1692 26.735 64.1692 26.625V22.47C64.1692 22.06 64.1092 21.74 63.9892 21.51C63.8692 21.27 63.7092 21.1 63.5092 21C63.3192 20.9 63.1092 20.85 62.8792 20.85C62.6692 20.85 62.4642 20.905 62.2642 21.015C62.0642 21.115 61.8992 21.28 61.7692 21.51C61.6492 21.74 61.5892 22.055 61.5892 22.455V26.625C61.5892 26.735 61.5542 26.825 61.4842 26.895C61.4142 26.965 61.3292 27 61.2292 27H59.7142ZM75.2869 27.15C74.7569 27.15 74.2819 27.05 73.8619 26.85C73.4419 26.64 73.1069 26.36 72.8569 26.01C72.6069 25.66 72.4819 25.27 72.4819 24.84C72.4819 24.13 72.7669 23.57 73.3369 23.16C73.9169 22.75 74.6769 22.47 75.6169 22.32L77.5819 22.035V21.765C77.5819 21.375 77.4919 21.075 77.3119 20.865C77.1319 20.655 76.8169 20.55 76.3669 20.55C76.0369 20.55 75.7719 20.615 75.5719 20.745C75.3719 20.875 75.2169 21.045 75.1069 21.255C75.0269 21.385 74.9119 21.45 74.7619 21.45H73.3369C73.2269 21.45 73.1419 21.42 73.0819 21.36C73.0219 21.29 72.9969 21.21 73.0069 21.12C73.0069 20.95 73.0719 20.75 73.2019 20.52C73.3319 20.29 73.5319 20.065 73.8019 19.845C74.0719 19.615 74.4169 19.425 74.8369 19.275C75.2569 19.125 75.7719 19.05 76.3819 19.05C77.0119 19.05 77.5519 19.125 78.0019 19.275C78.4519 19.425 78.8119 19.635 79.0819 19.905C79.3519 20.175 79.5519 20.49 79.6819 20.85C79.8119 21.2 79.8769 21.58 79.8769 21.99V26.625C79.8769 26.735 79.8419 26.825 79.7719 26.895C79.7019 26.965 79.6119 27 79.5019 27H78.0319C77.9319 27 77.8469 26.965 77.7769 26.895C77.7069 26.825 77.6719 26.735 77.6719 26.625V26.07C77.5419 26.26 77.3669 26.44 77.1469 26.61C76.9269 26.77 76.6619 26.9 76.3519 27C76.0519 27.1 75.6969 27.15 75.2869 27.15ZM75.8869 25.59C76.2169 25.59 76.5119 25.52 76.7719 25.38C77.0319 25.24 77.2369 25.025 77.3869 24.735C77.5369 24.445 77.6119 24.08 77.6119 23.64V23.385L76.2169 23.61C75.6769 23.7 75.2819 23.835 75.0319 24.015C74.7819 24.195 74.6569 24.415 74.6569 24.675C74.6569 24.865 74.7119 25.03 74.8219 25.17C74.9419 25.31 75.0969 25.415 75.2869 25.485C75.4769 25.555 75.6769 25.59 75.8869 25.59ZM82.053 27C81.953 27 81.868 26.965 81.798 26.895C81.728 26.825 81.693 26.735 81.693 26.625V19.575C81.693 19.465 81.728 19.375 81.798 19.305C81.868 19.235 81.953 19.2 82.053 19.2H83.523C83.633 19.2 83.723 19.235 83.793 19.305C83.863 19.375 83.898 19.465 83.898 19.575V20.16C84.158 19.84 84.493 19.575 84.903 19.365C85.313 19.155 85.813 19.05 86.403 19.05C86.993 19.05 87.508 19.185 87.948 19.455C88.398 19.715 88.748 20.1 88.998 20.61C89.258 21.11 89.388 21.72 89.388 22.44V26.625C89.388 26.735 89.348 26.825 89.268 26.895C89.198 26.965 89.113 27 89.013 27H87.423C87.313 27 87.223 26.965 87.153 26.895C87.083 26.825 87.048 26.735 87.048 26.625V22.53C87.048 22 86.918 21.59 86.658 21.3C86.408 21 86.038 20.85 85.548 20.85C85.078 20.85 84.703 21 84.423 21.3C84.143 21.59 84.003 22 84.003 22.53V26.625C84.003 26.735 83.968 26.825 83.898 26.895C83.828 26.965 83.743 27 83.643 27H82.053ZM94.0802 27.15C93.5802 27.15 93.1352 27.07 92.7452 26.91C92.3552 26.74 92.0252 26.5 91.7552 26.19C91.4852 25.87 91.2802 25.495 91.1402 25.065C91.0002 24.625 90.9152 24.14 90.8852 23.61C90.8752 23.42 90.8702 23.25 90.8702 23.1C90.8702 22.94 90.8752 22.77 90.8852 22.59C90.9052 22.07 90.9852 21.595 91.1252 21.165C91.2752 20.735 91.4802 20.365 91.7402 20.055C92.0102 19.735 92.3402 19.49 92.7302 19.32C93.1302 19.14 93.5802 19.05 94.0802 19.05C94.6002 19.05 95.0452 19.14 95.4152 19.32C95.7852 19.49 96.0902 19.715 96.3302 19.995V16.725C96.3302 16.615 96.3652 16.525 96.4352 16.455C96.5052 16.385 96.5952 16.35 96.7052 16.35H98.2502C98.3502 16.35 98.4352 16.385 98.5052 16.455C98.5752 16.525 98.6102 16.615 98.6102 16.725V26.625C98.6102 26.735 98.5752 26.825 98.5052 26.895C98.4352 26.965 98.3502 27 98.2502 27H96.8102C96.7102 27 96.6252 26.965 96.5552 26.895C96.4852 26.825 96.4502 26.735 96.4502 26.625V26.115C96.2002 26.415 95.8852 26.665 95.5052 26.865C95.1252 27.055 94.6502 27.15 94.0802 27.15ZM94.7702 25.35C95.1402 25.35 95.4352 25.265 95.6552 25.095C95.8852 24.925 96.0502 24.71 96.1502 24.45C96.2602 24.19 96.3202 23.91 96.3302 23.61C96.3502 23.42 96.3602 23.23 96.3602 23.04C96.3602 22.85 96.3502 22.665 96.3302 22.485C96.3202 22.205 96.2602 21.945 96.1502 21.705C96.0402 21.455 95.8702 21.25 95.6402 21.09C95.4202 20.93 95.1302 20.85 94.7702 20.85C94.3902 20.85 94.0902 20.935 93.8702 21.105C93.6502 21.265 93.4902 21.48 93.3902 21.75C93.3002 22.02 93.2452 22.315 93.2252 22.635C93.1952 22.945 93.1952 23.255 93.2252 23.565C93.2452 23.885 93.3002 24.18 93.3902 24.45C93.4902 24.72 93.6502 24.94 93.8702 25.11C94.0902 25.27 94.3902 25.35 94.7702 25.35ZM103.996 27.15C102.846 27.15 101.931 26.83 101.251 26.19C100.581 25.55 100.226 24.62 100.186 23.4C100.186 23.32 100.186 23.215 100.186 23.085C100.186 22.945 100.186 22.835 100.186 22.755C100.226 21.985 100.401 21.325 100.711 20.775C101.021 20.215 101.456 19.79 102.016 19.5C102.576 19.2 103.231 19.05 103.981 19.05C104.821 19.05 105.521 19.225 106.081 19.575C106.651 19.915 107.076 20.385 107.356 20.985C107.646 21.575 107.791 22.255 107.791 23.025V23.37C107.791 23.47 107.751 23.555 107.671 23.625C107.601 23.695 107.516 23.73 107.416 23.73H102.511C102.511 23.74 102.511 23.76 102.511 23.79C102.511 23.81 102.511 23.83 102.511 23.85C102.521 24.17 102.581 24.465 102.691 24.735C102.811 24.995 102.976 25.205 103.186 25.365C103.406 25.525 103.666 25.605 103.966 25.605C104.216 25.605 104.421 25.57 104.581 25.5C104.741 25.43 104.871 25.345 104.971 25.245C105.081 25.145 105.161 25.06 105.211 24.99C105.301 24.89 105.371 24.83 105.421 24.81C105.481 24.78 105.571 24.765 105.691 24.765H107.251C107.351 24.765 107.431 24.795 107.491 24.855C107.561 24.905 107.591 24.98 107.581 25.08C107.571 25.24 107.486 25.44 107.326 25.68C107.176 25.91 106.951 26.14 106.651 26.37C106.351 26.59 105.976 26.775 105.526 26.925C105.086 27.075 104.576 27.15 103.996 27.15ZM102.511 22.365H105.451V22.335C105.451 21.975 105.391 21.665 105.271 21.405C105.161 21.135 104.996 20.925 104.776 20.775C104.556 20.625 104.291 20.55 103.981 20.55C103.671 20.55 103.406 20.625 103.186 20.775C102.966 20.925 102.796 21.135 102.676 21.405C102.566 21.665 102.511 21.975 102.511 22.335V22.365ZM116.081 27.15C114.931 27.15 114.016 26.83 113.336 26.19C112.666 25.55 112.311 24.62 112.271 23.4C112.271 23.32 112.271 23.215 112.271 23.085C112.271 22.945 112.271 22.835 112.271 22.755C112.311 21.985 112.486 21.325 112.796 20.775C113.106 20.215 113.541 19.79 114.101 19.5C114.661 19.2 115.316 19.05 116.066 19.05C116.906 19.05 117.606 19.225 118.166 19.575C118.736 19.915 119.161 20.385 119.441 20.985C119.731 21.575 119.876 22.255 119.876 23.025V23.37C119.876 23.47 119.836 23.555 119.756 23.625C119.686 23.695 119.601 23.73 119.501 23.73H114.596C114.596 23.74 114.596 23.76 114.596 23.79C114.596 23.81 114.596 23.83 114.596 23.85C114.606 24.17 114.666 24.465 114.776 24.735C114.896 24.995 115.061 25.205 115.271 25.365C115.491 25.525 115.751 25.605 116.051 25.605C116.301 25.605 116.506 25.57 116.666 25.5C116.826 25.43 116.956 25.345 117.056 25.245C117.166 25.145 117.246 25.06 117.296 24.99C117.386 24.89 117.456 24.83 117.506 24.81C117.566 24.78 117.656 24.765 117.776 24.765H119.336C119.436 24.765 119.516 24.795 119.576 24.855C119.646 24.905 119.676 24.98 119.666 25.08C119.656 25.24 119.571 25.44 119.411 25.68C119.261 25.91 119.036 26.14 118.736 26.37C118.436 26.59 118.061 26.775 117.611 26.925C117.171 27.075 116.661 27.15 116.081 27.15ZM114.596 22.365H117.536V22.335C117.536 21.975 117.476 21.665 117.356 21.405C117.246 21.135 117.081 20.925 116.861 20.775C116.641 20.625 116.376 20.55 116.066 20.55C115.756 20.55 115.491 20.625 115.271 20.775C115.051 20.925 114.881 21.135 114.761 21.405C114.651 21.665 114.596 21.975 114.596 22.335V22.365ZM121.736 27C121.636 27 121.551 26.965 121.481 26.895C121.411 26.825 121.376 26.735 121.376 26.625V19.575C121.376 19.465 121.411 19.375 121.481 19.305C121.551 19.235 121.636 19.2 121.736 19.2H123.206C123.316 19.2 123.406 19.235 123.476 19.305C123.546 19.375 123.581 19.465 123.581 19.575V20.16C123.841 19.84 124.176 19.575 124.586 19.365C124.996 19.155 125.496 19.05 126.086 19.05C126.676 19.05 127.191 19.185 127.631 19.455C128.081 19.715 128.431 20.1 128.681 20.61C128.941 21.11 129.071 21.72 129.071 22.44V26.625C129.071 26.735 129.031 26.825 128.951 26.895C128.881 26.965 128.796 27 128.696 27H127.106C126.996 27 126.906 26.965 126.836 26.895C126.766 26.825 126.731 26.735 126.731 26.625V22.53C126.731 22 126.601 21.59 126.341 21.3C126.091 21 125.721 20.85 125.231 20.85C124.761 20.85 124.386 21 124.106 21.3C123.826 21.59 123.686 22 123.686 22.53V26.625C123.686 26.735 123.651 26.825 123.581 26.895C123.511 26.965 123.426 27 123.326 27H121.736ZM134.538 27C134.438 27 134.353 26.965 134.283 26.895C134.213 26.825 134.178 26.735 134.178 26.625V19.575C134.178 19.475 134.213 19.39 134.283 19.32C134.353 19.24 134.438 19.2 134.538 19.2H136.008C136.108 19.2 136.193 19.24 136.263 19.32C136.343 19.39 136.383 19.475 136.383 19.575V20.175C136.633 19.865 136.938 19.625 137.298 19.455C137.668 19.285 138.093 19.2 138.573 19.2H139.218C139.318 19.2 139.403 19.235 139.473 19.305C139.543 19.375 139.578 19.465 139.578 19.575V20.865C139.578 20.975 139.543 21.065 139.473 21.135C139.403 21.205 139.318 21.24 139.218 21.24H137.898C137.458 21.24 137.113 21.365 136.863 21.615C136.613 21.855 136.488 22.2 136.488 22.65V26.625C136.488 26.735 136.453 26.825 136.383 26.895C136.313 26.965 136.223 27 136.113 27H134.538ZM144.089 27.15C142.939 27.15 142.024 26.83 141.344 26.19C140.674 25.55 140.319 24.62 140.279 23.4C140.279 23.32 140.279 23.215 140.279 23.085C140.279 22.945 140.279 22.835 140.279 22.755C140.319 21.985 140.494 21.325 140.804 20.775C141.114 20.215 141.549 19.79 142.109 19.5C142.669 19.2 143.324 19.05 144.074 19.05C144.914 19.05 145.614 19.225 146.174 19.575C146.744 19.915 147.169 20.385 147.449 20.985C147.739 21.575 147.884 22.255 147.884 23.025V23.37C147.884 23.47 147.844 23.555 147.764 23.625C147.694 23.695 147.609 23.73 147.509 23.73H142.604C142.604 23.74 142.604 23.76 142.604 23.79C142.604 23.81 142.604 23.83 142.604 23.85C142.614 24.17 142.674 24.465 142.784 24.735C142.904 24.995 143.069 25.205 143.279 25.365C143.499 25.525 143.759 25.605 144.059 25.605C144.309 25.605 144.514 25.57 144.674 25.5C144.834 25.43 144.964 25.345 145.064 25.245C145.174 25.145 145.254 25.06 145.304 24.99C145.394 24.89 145.464 24.83 145.514 24.81C145.574 24.78 145.664 24.765 145.784 24.765H147.344C147.444 24.765 147.524 24.795 147.584 24.855C147.654 24.905 147.684 24.98 147.674 25.08C147.664 25.24 147.579 25.44 147.419 25.68C147.269 25.91 147.044 26.14 146.744 26.37C146.444 26.59 146.069 26.775 145.619 26.925C145.179 27.075 144.669 27.15 144.089 27.15ZM142.604 22.365H145.544V22.335C145.544 21.975 145.484 21.665 145.364 21.405C145.254 21.135 145.089 20.925 144.869 20.775C144.649 20.625 144.384 20.55 144.074 20.55C143.764 20.55 143.499 20.625 143.279 20.775C143.059 20.925 142.889 21.135 142.769 21.405C142.659 21.665 142.604 21.975 142.604 22.335V22.365ZM150.555 27C150.445 27 150.355 26.965 150.285 26.895C150.215 26.825 150.18 26.735 150.18 26.625V20.97H149.01C148.9 20.97 148.81 20.935 148.74 20.865C148.67 20.795 148.635 20.705 148.635 20.595V19.575C148.635 19.465 148.67 19.375 148.74 19.305C148.81 19.235 148.9 19.2 149.01 19.2H150.18V18.66C150.18 18.02 150.3 17.495 150.54 17.085C150.78 16.675 151.13 16.375 151.59 16.185C152.05 15.995 152.615 15.9 153.285 15.9H154.38C154.49 15.9 154.58 15.935 154.65 16.005C154.72 16.075 154.755 16.165 154.755 16.275V17.295C154.755 17.405 154.72 17.495 154.65 17.565C154.58 17.635 154.49 17.67 154.38 17.67H153.375C153.005 17.67 152.745 17.76 152.595 17.94C152.455 18.12 152.385 18.385 152.385 18.735V19.2H154.23C154.34 19.2 154.43 19.235 154.5 19.305C154.57 19.375 154.605 19.465 154.605 19.575V20.595C154.605 20.705 154.57 20.795 154.5 20.865C154.43 20.935 154.34 20.97 154.23 20.97H152.385V26.625C152.385 26.735 152.35 26.825 152.28 26.895C152.21 26.965 152.125 27 152.025 27H150.555ZM158.606 27.15C158.026 27.15 157.511 27.02 157.061 26.76C156.621 26.49 156.276 26.105 156.026 25.605C155.786 25.095 155.666 24.48 155.666 23.76V19.575C155.666 19.465 155.701 19.375 155.771 19.305C155.841 19.235 155.926 19.2 156.026 19.2H157.616C157.726 19.2 157.816 19.235 157.886 19.305C157.956 19.375 157.991 19.465 157.991 19.575V23.67C157.991 24.79 158.481 25.35 159.461 25.35C159.931 25.35 160.301 25.205 160.571 24.915C160.851 24.615 160.991 24.2 160.991 23.67V19.575C160.991 19.465 161.026 19.375 161.096 19.305C161.166 19.235 161.256 19.2 161.366 19.2H162.956C163.056 19.2 163.141 19.235 163.211 19.305C163.281 19.375 163.316 19.465 163.316 19.575V26.625C163.316 26.735 163.281 26.825 163.211 26.895C163.141 26.965 163.056 27 162.956 27H161.486C161.376 27 161.286 26.965 161.216 26.895C161.146 26.825 161.111 26.735 161.111 26.625V26.04C160.851 26.4 160.516 26.675 160.106 26.865C159.696 27.055 159.196 27.15 158.606 27.15ZM168.279 27.15C167.659 27.15 167.124 27.08 166.674 26.94C166.234 26.79 165.874 26.61 165.594 26.4C165.324 26.19 165.119 25.98 164.979 25.77C164.849 25.55 164.779 25.365 164.769 25.215C164.759 25.105 164.794 25.015 164.874 24.945C164.954 24.875 165.034 24.84 165.114 24.84H166.569C166.599 24.84 166.629 24.845 166.659 24.855C166.689 24.865 166.719 24.89 166.749 24.93C166.879 25.02 167.014 25.125 167.154 25.245C167.294 25.355 167.454 25.45 167.634 25.53C167.824 25.61 168.059 25.65 168.339 25.65C168.669 25.65 168.949 25.585 169.179 25.455C169.409 25.315 169.524 25.12 169.524 24.87C169.524 24.69 169.469 24.54 169.359 24.42C169.259 24.3 169.064 24.19 168.774 24.09C168.484 23.99 168.054 23.88 167.484 23.76C166.944 23.64 166.484 23.48 166.104 23.28C165.724 23.08 165.439 22.83 165.249 22.53C165.059 22.22 164.964 21.85 164.964 21.42C164.964 21.03 165.084 20.655 165.324 20.295C165.574 19.935 165.939 19.64 166.419 19.41C166.899 19.17 167.499 19.05 168.219 19.05C168.769 19.05 169.249 19.12 169.659 19.26C170.079 19.39 170.429 19.56 170.709 19.77C170.989 19.97 171.199 20.18 171.339 20.4C171.489 20.61 171.569 20.795 171.579 20.955C171.589 21.055 171.559 21.14 171.489 21.21C171.419 21.28 171.339 21.315 171.249 21.315H169.914C169.864 21.315 169.819 21.31 169.779 21.3C169.739 21.28 169.704 21.255 169.674 21.225C169.554 21.145 169.429 21.055 169.299 20.955C169.179 20.845 169.034 20.75 168.864 20.67C168.694 20.59 168.474 20.55 168.204 20.55C167.874 20.55 167.619 20.625 167.439 20.775C167.269 20.915 167.184 21.095 167.184 21.315C167.184 21.455 167.229 21.585 167.319 21.705C167.409 21.825 167.594 21.935 167.874 22.035C168.154 22.135 168.579 22.24 169.149 22.35C169.829 22.47 170.369 22.65 170.769 22.89C171.169 23.13 171.454 23.41 171.624 23.73C171.804 24.04 171.894 24.375 171.894 24.735C171.894 25.205 171.754 25.625 171.474 25.995C171.194 26.355 170.784 26.64 170.244 26.85C169.714 27.05 169.059 27.15 168.279 27.15ZM176.814 27.15C175.664 27.15 174.749 26.83 174.069 26.19C173.399 25.55 173.044 24.62 173.004 23.4C173.004 23.32 173.004 23.215 173.004 23.085C173.004 22.945 173.004 22.835 173.004 22.755C173.044 21.985 173.219 21.325 173.529 20.775C173.839 20.215 174.274 19.79 174.834 19.5C175.394 19.2 176.049 19.05 176.799 19.05C177.639 19.05 178.339 19.225 178.899 19.575C179.469 19.915 179.894 20.385 180.174 20.985C180.464 21.575 180.609 22.255 180.609 23.025V23.37C180.609 23.47 180.569 23.555 180.489 23.625C180.419 23.695 180.334 23.73 180.234 23.73H175.329C175.329 23.74 175.329 23.76 175.329 23.79C175.329 23.81 175.329 23.83 175.329 23.85C175.339 24.17 175.399 24.465 175.509 24.735C175.629 24.995 175.794 25.205 176.004 25.365C176.224 25.525 176.484 25.605 176.784 25.605C177.034 25.605 177.239 25.57 177.399 25.5C177.559 25.43 177.689 25.345 177.789 25.245C177.899 25.145 177.979 25.06 178.029 24.99C178.119 24.89 178.189 24.83 178.239 24.81C178.299 24.78 178.389 24.765 178.509 24.765H180.069C180.169 24.765 180.249 24.795 180.309 24.855C180.379 24.905 180.409 24.98 180.399 25.08C180.389 25.24 180.304 25.44 180.144 25.68C179.994 25.91 179.769 26.14 179.469 26.37C179.169 26.59 178.794 26.775 178.344 26.925C177.904 27.075 177.394 27.15 176.814 27.15ZM175.329 22.365H178.269V22.335C178.269 21.975 178.209 21.665 178.089 21.405C177.979 21.135 177.814 20.925 177.594 20.775C177.374 20.625 177.109 20.55 176.799 20.55C176.489 20.55 176.224 20.625 176.004 20.775C175.784 20.925 175.614 21.135 175.494 21.405C175.384 21.665 175.329 21.975 175.329 22.335V22.365ZM176.034 18.075C175.874 18.075 175.794 17.995 175.794 17.835C175.794 17.755 175.819 17.69 175.869 17.64L177.144 16.095C177.234 15.975 177.314 15.9 177.384 15.87C177.464 15.83 177.569 15.81 177.699 15.81H179.424C179.614 15.81 179.709 15.91 179.709 16.11C179.709 16.18 179.684 16.24 179.634 16.29L177.699 17.865C177.619 17.935 177.539 17.99 177.459 18.03C177.389 18.06 177.289 18.075 177.159 18.075H176.034Z" fill="white"/>
</svg>
