<svg width="221" height="44" viewBox="0 0 221 44" fill="none" xmlns="http://www.w3.org/2000/svg">
  <rect width="221" height="44" rx="5" fill="#077D55"/>
  <path d="M53.995 27C53.905 27 53.83 26.97 53.77 26.91C53.71 26.84 53.68 26.765 53.68 26.685C53.68 26.635 53.685 26.59 53.695 26.55L57.265 16.905C57.295 16.795 57.355 16.7 57.445 16.62C57.535 16.54 57.66 16.5 57.82 16.5H59.74C59.9 16.5 60.025 16.54 60.115 16.62C60.205 16.7 60.265 16.795 60.295 16.905L63.865 26.55C63.875 26.59 63.88 26.635 63.88 26.685C63.88 26.765 63.85 26.84 63.79 26.91C63.73 26.97 63.655 27 63.565 27H62.005C61.855 27 61.745 26.965 61.675 26.895C61.605 26.825 61.56 26.76 61.54 26.7L60.895 25.02H56.665L56.02 26.7C56 26.76 55.955 26.825 55.885 26.895C55.815 26.965 55.705 27 55.555 27H53.995ZM57.22 23.085H60.325L58.78 18.765L57.22 23.085ZM65.3665 27C65.2665 27 65.1815 26.965 65.1115 26.895C65.0415 26.825 65.0065 26.735 65.0065 26.625V19.575C65.0065 19.465 65.0415 19.375 65.1115 19.305C65.1815 19.235 65.2665 19.2 65.3665 19.2H66.8365C66.9465 19.2 67.0365 19.235 67.1065 19.305C67.1765 19.375 67.2115 19.465 67.2115 19.575V20.16C67.4715 19.84 67.8065 19.575 68.2165 19.365C68.6265 19.155 69.1265 19.05 69.7165 19.05C70.3065 19.05 70.8215 19.185 71.2615 19.455C71.7115 19.715 72.0615 20.1 72.3115 20.61C72.5715 21.11 72.7015 21.72 72.7015 22.44V26.625C72.7015 26.735 72.6615 26.825 72.5815 26.895C72.5115 26.965 72.4265 27 72.3265 27H70.7365C70.6265 27 70.5365 26.965 70.4665 26.895C70.3965 26.825 70.3615 26.735 70.3615 26.625V22.53C70.3615 22 70.2315 21.59 69.9715 21.3C69.7215 21 69.3515 20.85 68.8615 20.85C68.3915 20.85 68.0165 21 67.7365 21.3C67.4565 21.59 67.3165 22 67.3165 22.53V26.625C67.3165 26.735 67.2815 26.825 67.2115 26.895C67.1415 26.965 67.0565 27 66.9565 27H65.3665ZM74.8587 27C74.7587 27 74.6737 26.965 74.6037 26.895C74.5337 26.825 74.4987 26.735 74.4987 26.625V19.575C74.4987 19.465 74.5337 19.375 74.6037 19.305C74.6737 19.235 74.7587 19.2 74.8587 19.2H76.3287C76.4387 19.2 76.5287 19.235 76.5987 19.305C76.6687 19.375 76.7037 19.465 76.7037 19.575V20.16C76.9637 19.84 77.2987 19.575 77.7087 19.365C78.1187 19.155 78.6187 19.05 79.2087 19.05C79.7987 19.05 80.3137 19.185 80.7537 19.455C81.2037 19.715 81.5537 20.1 81.8037 20.61C82.0637 21.11 82.1937 21.72 82.1937 22.44V26.625C82.1937 26.735 82.1537 26.825 82.0737 26.895C82.0037 26.965 81.9187 27 81.8187 27H80.2287C80.1187 27 80.0287 26.965 79.9587 26.895C79.8887 26.825 79.8537 26.735 79.8537 26.625V22.53C79.8537 22 79.7237 21.59 79.4637 21.3C79.2137 21 78.8437 20.85 78.3537 20.85C77.8837 20.85 77.5087 21 77.2287 21.3C76.9487 21.59 76.8087 22 76.8087 22.53V26.625C76.8087 26.735 76.7737 26.825 76.7037 26.895C76.6337 26.965 76.5487 27 76.4487 27H74.8587ZM87.5609 27.15C86.7309 27.15 86.0359 27.015 85.4759 26.745C84.9159 26.465 84.4859 26.07 84.1859 25.56C83.8959 25.05 83.7359 24.455 83.7059 23.775C83.6959 23.575 83.6909 23.35 83.6909 23.1C83.6909 22.84 83.6959 22.615 83.7059 22.425C83.7359 21.735 83.9059 21.14 84.2159 20.64C84.5259 20.13 84.9609 19.74 85.5209 19.47C86.0809 19.19 86.7609 19.05 87.5609 19.05C88.3509 19.05 89.0259 19.19 89.5859 19.47C90.1459 19.74 90.5809 20.13 90.8909 20.64C91.2009 21.14 91.3709 21.735 91.4009 22.425C91.4209 22.615 91.4309 22.84 91.4309 23.1C91.4309 23.35 91.4209 23.575 91.4009 23.775C91.3709 24.455 91.2059 25.05 90.9059 25.56C90.6159 26.07 90.1909 26.465 89.6309 26.745C89.0709 27.015 88.3809 27.15 87.5609 27.15ZM87.5609 25.5C88.0509 25.5 88.4209 25.35 88.6709 25.05C88.9209 24.74 89.0559 24.29 89.0759 23.7C89.0859 23.55 89.0909 23.35 89.0909 23.1C89.0909 22.85 89.0859 22.65 89.0759 22.5C89.0559 21.92 88.9209 21.475 88.6709 21.165C88.4209 20.855 88.0509 20.7 87.5609 20.7C87.0709 20.7 86.6959 20.855 86.4359 21.165C86.1859 21.475 86.0509 21.92 86.0309 22.5C86.0209 22.65 86.0159 22.85 86.0159 23.1C86.0159 23.35 86.0209 23.55 86.0309 23.7C86.0509 24.29 86.1859 24.74 86.4359 25.05C86.6959 25.35 87.0709 25.5 87.5609 25.5ZM93.3597 27C93.2597 27 93.1747 26.965 93.1047 26.895C93.0347 26.825 92.9997 26.735 92.9997 26.625V19.575C92.9997 19.465 93.0347 19.375 93.1047 19.305C93.1747 19.235 93.2597 19.2 93.3597 19.2H94.8297C94.9397 19.2 95.0297 19.235 95.0997 19.305C95.1697 19.375 95.2047 19.465 95.2047 19.575V20.16C95.4647 19.84 95.7997 19.575 96.2097 19.365C96.6197 19.155 97.1197 19.05 97.7097 19.05C98.2997 19.05 98.8147 19.185 99.2547 19.455C99.7047 19.715 100.055 20.1 100.305 20.61C100.565 21.11 100.695 21.72 100.695 22.44V26.625C100.695 26.735 100.655 26.825 100.575 26.895C100.505 26.965 100.42 27 100.32 27H98.7297C98.6197 27 98.5297 26.965 98.4597 26.895C98.3897 26.825 98.3547 26.735 98.3547 26.625V22.53C98.3547 22 98.2247 21.59 97.9647 21.3C97.7147 21 97.3447 20.85 96.8547 20.85C96.3847 20.85 96.0097 21 95.7297 21.3C95.4497 21.59 95.3097 22 95.3097 22.53V26.625C95.3097 26.735 95.2747 26.825 95.2047 26.895C95.1347 26.965 95.0497 27 94.9497 27H93.3597ZM105.957 27.15C105.227 27.15 104.582 27.015 104.022 26.745C103.472 26.475 103.037 26.085 102.717 25.575C102.397 25.055 102.222 24.435 102.192 23.715C102.182 23.555 102.177 23.355 102.177 23.115C102.177 22.865 102.182 22.66 102.192 22.5C102.222 21.77 102.392 21.15 102.702 20.64C103.022 20.12 103.462 19.725 104.022 19.455C104.582 19.185 105.227 19.05 105.957 19.05C106.627 19.05 107.197 19.145 107.667 19.335C108.137 19.515 108.522 19.745 108.822 20.025C109.122 20.305 109.342 20.6 109.482 20.91C109.632 21.21 109.712 21.475 109.722 21.705C109.732 21.805 109.697 21.895 109.617 21.975C109.547 22.045 109.462 22.08 109.362 22.08H107.757C107.657 22.08 107.577 22.055 107.517 22.005C107.467 21.945 107.417 21.865 107.367 21.765C107.227 21.415 107.047 21.165 106.827 21.015C106.607 20.865 106.332 20.79 106.002 20.79C105.552 20.79 105.197 20.935 104.937 21.225C104.677 21.515 104.537 21.965 104.517 22.575C104.507 22.965 104.507 23.32 104.517 23.64C104.547 24.26 104.687 24.71 104.937 24.99C105.197 25.27 105.552 25.41 106.002 25.41C106.352 25.41 106.632 25.335 106.842 25.185C107.052 25.035 107.227 24.785 107.367 24.435C107.407 24.335 107.457 24.26 107.517 24.21C107.577 24.15 107.657 24.12 107.757 24.12H109.362C109.462 24.12 109.547 24.16 109.617 24.24C109.697 24.31 109.732 24.395 109.722 24.495C109.712 24.665 109.662 24.865 109.572 25.095C109.492 25.325 109.357 25.56 109.167 25.8C108.987 26.04 108.752 26.265 108.462 26.475C108.172 26.675 107.817 26.84 107.397 26.97C106.987 27.09 106.507 27.15 105.957 27.15ZM114.673 27.15C113.523 27.15 112.608 26.83 111.928 26.19C111.258 25.55 110.903 24.62 110.863 23.4C110.863 23.32 110.863 23.215 110.863 23.085C110.863 22.945 110.863 22.835 110.863 22.755C110.903 21.985 111.078 21.325 111.388 20.775C111.698 20.215 112.133 19.79 112.693 19.5C113.253 19.2 113.908 19.05 114.658 19.05C115.498 19.05 116.198 19.225 116.758 19.575C117.328 19.915 117.753 20.385 118.033 20.985C118.323 21.575 118.468 22.255 118.468 23.025V23.37C118.468 23.47 118.428 23.555 118.348 23.625C118.278 23.695 118.193 23.73 118.093 23.73H113.188C113.188 23.74 113.188 23.76 113.188 23.79C113.188 23.81 113.188 23.83 113.188 23.85C113.198 24.17 113.258 24.465 113.368 24.735C113.488 24.995 113.653 25.205 113.863 25.365C114.083 25.525 114.343 25.605 114.643 25.605C114.893 25.605 115.098 25.57 115.258 25.5C115.418 25.43 115.548 25.345 115.648 25.245C115.758 25.145 115.838 25.06 115.888 24.99C115.978 24.89 116.048 24.83 116.098 24.81C116.158 24.78 116.248 24.765 116.368 24.765H117.928C118.028 24.765 118.108 24.795 118.168 24.855C118.238 24.905 118.268 24.98 118.258 25.08C118.248 25.24 118.163 25.44 118.003 25.68C117.853 25.91 117.628 26.14 117.328 26.37C117.028 26.59 116.653 26.775 116.203 26.925C115.763 27.075 115.253 27.15 114.673 27.15ZM113.188 22.365H116.128V22.335C116.128 21.975 116.068 21.665 115.948 21.405C115.838 21.135 115.673 20.925 115.453 20.775C115.233 20.625 114.968 20.55 114.658 20.55C114.348 20.55 114.083 20.625 113.863 20.775C113.643 20.925 113.473 21.135 113.353 21.405C113.243 21.665 113.188 21.975 113.188 22.335V22.365ZM125.657 27C125.507 27 125.392 26.965 125.312 26.895C125.242 26.815 125.182 26.725 125.132 26.625L122.312 19.665C122.292 19.625 122.282 19.58 122.282 19.53C122.282 19.44 122.312 19.365 122.372 19.305C122.442 19.235 122.522 19.2 122.612 19.2H124.067C124.197 19.2 124.292 19.235 124.352 19.305C124.422 19.375 124.467 19.44 124.487 19.5L126.332 24.45L128.177 19.5C128.207 19.44 128.252 19.375 128.312 19.305C128.382 19.235 128.477 19.2 128.597 19.2H130.052C130.142 19.2 130.217 19.235 130.277 19.305C130.347 19.365 130.382 19.44 130.382 19.53C130.382 19.58 130.377 19.625 130.367 19.665L127.532 26.625C127.492 26.725 127.432 26.815 127.352 26.895C127.272 26.965 127.157 27 127.007 27H125.657ZM134.844 27.15C133.694 27.15 132.779 26.83 132.099 26.19C131.429 25.55 131.074 24.62 131.034 23.4C131.034 23.32 131.034 23.215 131.034 23.085C131.034 22.945 131.034 22.835 131.034 22.755C131.074 21.985 131.249 21.325 131.559 20.775C131.869 20.215 132.304 19.79 132.864 19.5C133.424 19.2 134.079 19.05 134.829 19.05C135.669 19.05 136.369 19.225 136.929 19.575C137.499 19.915 137.924 20.385 138.204 20.985C138.494 21.575 138.639 22.255 138.639 23.025V23.37C138.639 23.47 138.599 23.555 138.519 23.625C138.449 23.695 138.364 23.73 138.264 23.73H133.359C133.359 23.74 133.359 23.76 133.359 23.79C133.359 23.81 133.359 23.83 133.359 23.85C133.369 24.17 133.429 24.465 133.539 24.735C133.659 24.995 133.824 25.205 134.034 25.365C134.254 25.525 134.514 25.605 134.814 25.605C135.064 25.605 135.269 25.57 135.429 25.5C135.589 25.43 135.719 25.345 135.819 25.245C135.929 25.145 136.009 25.06 136.059 24.99C136.149 24.89 136.219 24.83 136.269 24.81C136.329 24.78 136.419 24.765 136.539 24.765H138.099C138.199 24.765 138.279 24.795 138.339 24.855C138.409 24.905 138.439 24.98 138.429 25.08C138.419 25.24 138.334 25.44 138.174 25.68C138.024 25.91 137.799 26.14 137.499 26.37C137.199 26.59 136.824 26.775 136.374 26.925C135.934 27.075 135.424 27.15 134.844 27.15ZM133.359 22.365H136.299V22.335C136.299 21.975 136.239 21.665 136.119 21.405C136.009 21.135 135.844 20.925 135.624 20.775C135.404 20.625 135.139 20.55 134.829 20.55C134.519 20.55 134.254 20.625 134.034 20.775C133.814 20.925 133.644 21.135 133.524 21.405C133.414 21.665 133.359 21.975 133.359 22.335V22.365ZM140.498 27C140.398 27 140.313 26.965 140.243 26.895C140.173 26.825 140.138 26.735 140.138 26.625V19.575C140.138 19.465 140.173 19.375 140.243 19.305C140.313 19.235 140.398 19.2 140.498 19.2H141.968C142.078 19.2 142.168 19.235 142.238 19.305C142.308 19.375 142.343 19.465 142.343 19.575V20.16C142.603 19.84 142.938 19.575 143.348 19.365C143.758 19.155 144.258 19.05 144.848 19.05C145.438 19.05 145.953 19.185 146.393 19.455C146.843 19.715 147.193 20.1 147.443 20.61C147.703 21.11 147.833 21.72 147.833 22.44V26.625C147.833 26.735 147.793 26.825 147.713 26.895C147.643 26.965 147.558 27 147.458 27H145.868C145.758 27 145.668 26.965 145.598 26.895C145.528 26.825 145.493 26.735 145.493 26.625V22.53C145.493 22 145.363 21.59 145.103 21.3C144.853 21 144.483 20.85 143.993 20.85C143.523 20.85 143.148 21 142.868 21.3C142.588 21.59 142.448 22 142.448 22.53V26.625C142.448 26.735 142.413 26.825 142.343 26.895C142.273 26.965 142.188 27 142.088 27H140.498ZM152.526 27.15C152.026 27.15 151.581 27.07 151.191 26.91C150.801 26.74 150.471 26.5 150.201 26.19C149.931 25.87 149.726 25.495 149.586 25.065C149.446 24.625 149.361 24.14 149.331 23.61C149.321 23.42 149.316 23.25 149.316 23.1C149.316 22.94 149.321 22.77 149.331 22.59C149.351 22.07 149.431 21.595 149.571 21.165C149.721 20.735 149.926 20.365 150.186 20.055C150.456 19.735 150.786 19.49 151.176 19.32C151.576 19.14 152.026 19.05 152.526 19.05C153.046 19.05 153.491 19.14 153.861 19.32C154.231 19.49 154.536 19.715 154.776 19.995V16.725C154.776 16.615 154.811 16.525 154.881 16.455C154.951 16.385 155.041 16.35 155.151 16.35H156.696C156.796 16.35 156.881 16.385 156.951 16.455C157.021 16.525 157.056 16.615 157.056 16.725V26.625C157.056 26.735 157.021 26.825 156.951 26.895C156.881 26.965 156.796 27 156.696 27H155.256C155.156 27 155.071 26.965 155.001 26.895C154.931 26.825 154.896 26.735 154.896 26.625V26.115C154.646 26.415 154.331 26.665 153.951 26.865C153.571 27.055 153.096 27.15 152.526 27.15ZM153.216 25.35C153.586 25.35 153.881 25.265 154.101 25.095C154.331 24.925 154.496 24.71 154.596 24.45C154.706 24.19 154.766 23.91 154.776 23.61C154.796 23.42 154.806 23.23 154.806 23.04C154.806 22.85 154.796 22.665 154.776 22.485C154.766 22.205 154.706 21.945 154.596 21.705C154.486 21.455 154.316 21.25 154.086 21.09C153.866 20.93 153.576 20.85 153.216 20.85C152.836 20.85 152.536 20.935 152.316 21.105C152.096 21.265 151.936 21.48 151.836 21.75C151.746 22.02 151.691 22.315 151.671 22.635C151.641 22.945 151.641 23.255 151.671 23.565C151.691 23.885 151.746 24.18 151.836 24.45C151.936 24.72 152.096 24.94 152.316 25.11C152.536 25.27 152.836 25.35 153.216 25.35ZM161.827 27.15C161.247 27.15 160.732 27.02 160.282 26.76C159.842 26.49 159.497 26.105 159.247 25.605C159.007 25.095 158.887 24.48 158.887 23.76V19.575C158.887 19.465 158.922 19.375 158.992 19.305C159.062 19.235 159.147 19.2 159.247 19.2H160.837C160.947 19.2 161.037 19.235 161.107 19.305C161.177 19.375 161.212 19.465 161.212 19.575V23.67C161.212 24.79 161.702 25.35 162.682 25.35C163.152 25.35 163.522 25.205 163.792 24.915C164.072 24.615 164.212 24.2 164.212 23.67V19.575C164.212 19.465 164.247 19.375 164.317 19.305C164.387 19.235 164.477 19.2 164.587 19.2H166.177C166.277 19.2 166.362 19.235 166.432 19.305C166.502 19.375 166.537 19.465 166.537 19.575V26.625C166.537 26.735 166.502 26.825 166.432 26.895C166.362 26.965 166.277 27 166.177 27H164.707C164.597 27 164.507 26.965 164.437 26.895C164.367 26.825 164.332 26.735 164.332 26.625V26.04C164.072 26.4 163.737 26.675 163.327 26.865C162.917 27.055 162.417 27.15 161.827 27.15Z" fill="white"/>
</svg>
